<svg xmlns="http://www.w3.org/2000/svg" width="744.19136" height="685.38704" viewBox="0 0 744.19136 685.38704">
  <g id="Layer_2" data-name="Layer 2">
    <g id="svg4790">
      <g id="atom_09" data-name="atom 09">
        <path id="atom_09_solid" data-name="atom 09 solid" d="M130.59593,528.44582c5.166,31.75994,49.85367-2.76535,119.36875-37.48a184.283,184.283,0,0,1,65.86-22.42936c97.95517-9.72,156.89514,100.501,165.2446,110.54657,44.24377,64.716,83.277,96.61072,103.99582,20.53406,34.63882-119.36768-65.079-409.85649-105.24765-472.4266-57.93625-90.12261-133.65616-21.68-198.01178,63.72757C205.145,292.54845,117.92,462.512,130.59593,528.44582Z" fill="#def3fa"/>
        <path id="atom_09_ht" data-name="atom 09 ht" d="M411.098,48.93921h1.73935v1.73927H411.098ZM430.17311,57.47h4.38995V53.08h-4.38995Zm20.56595,5.30059h4.05823V58.71223h-4.05823Zm21.93253,3.934h.994v-.994h-.994Zm-97.599-3.86651H376.729V61.18141h-1.65649Zm16.92184,8.94478H400.608V63.16933H391.9944Zm19.57214,6.29448h10.26993v-10.27H411.56654Zm20.39994,5.46631H442.2364v-10.27H431.96648Zm20.39993,5.46623h10.26993v-10.27H452.36641Zm21.85,4.01688h7.37137V85.65552h-7.37137Zm23.67188,2.19467h.82794v-.828h-.82794ZM357.6664,82.24457h5.135V77.10945h-5.135Zm17.83279,8.03383h10.26993v-10.27H375.49919Zm20.39993,5.46623h10.26993v-10.27H395.89912Zm20.39994,5.46631H426.569v-10.27H416.29906Zm20.39993,5.46631h10.26993v-10.27H436.699Zm20.39993,5.46623h10.26993v-10.27H457.09892Zm20.48325,5.38353h10.10452V107.42249H477.58217Zm23.42346,2.44324H505.064v-4.05884h-4.05838Zm-160.12543-18.94h7.37137V93.65906H340.8802Zm18.951,6.91567h10.26993v-10.27H359.83116Zm20.39993,5.46631H390.501v-10.27H380.23109Zm20.39994,5.46623H410.901v-10.27H400.631Zm20.39993,5.46631h10.26993v-10.27H421.031Zm20.39993,5.46623h10.26993v-10.27H441.43089Zm20.39994,5.46631h10.26992v-10.27H461.83083Zm20.39993,5.46631h10.26993v-10.27H482.23076Zm21.767,4.1h7.53692v-7.53692h-7.53692Zm24.00314,1.86348h.331v-.331h-.32806ZM308.41377,109.629h.166v-.166h-.166Zm16.42487,9.44184h8.11676v-8.11669h-8.11676Zm19.32358,6.54289h10.26992v-10.27H344.16222ZM364.56215,131.08h10.26993V120.81H364.56215Zm20.39993,5.46631H395.232v-10.27H384.96208Zm20.39993,5.46623h10.26993v-10.27H405.362Zm20.39994,5.46631h10.26993v-10.27H425.762Zm20.39993,5.46623h10.26993v-10.27H446.16188Zm20.39993,5.46631h10.26993v-10.27H466.56181Zm20.39994,5.46623h10.26992v-10.27H486.96175Zm20.77316,5.09361h9.52469v-9.52469h-9.52469Zm24.5,1.3665h1.32522v-1.32629h-1.32522ZM292.74422,127.29637h.166v-.166h-.166Zm16.25915,9.60739h8.448v-8.448h-8.448Zm19.48929,6.37741h10.26993v-10.27H328.49266Zm20.39993,5.46624h10.26993v-10.27H348.89259Zm20.39994,5.4663h10.26992v-10.27H369.29253ZM389.69246,159.68h10.26993v-10.27H389.69246Zm20.39993,5.46631h10.26993v-10.27H410.09239Zm20.39993,5.4663h10.26993v-10.27H430.49232Zm20.39994,5.46624h10.26993v-10.27H450.89226Zm20.39993,5.4663h10.26993v-10.27H471.29219Zm20.39993,5.46624h10.26993v-10.27H491.69212Zm20.44175,5.42488h10.18722v-10.1873H512.145Zm23.92,1.94618h3.14728v-3.14728h-3.136ZM293.49876,154.40552h8.11676v-8.11669h-8.11676Zm19.32373,6.543h10.26993v-10.27H312.82249Zm20.39994,5.46623h10.26993v-10.27H333.22243Zm20.39993,5.46631h10.26993v-10.27H353.62236Zm20.39993,5.46631h10.26993v-10.27H374.02229Zm20.39994,5.46623h10.26992v-10.27H394.42223Zm20.39993,5.46631h10.26993v-10.27H414.82216Zm20.39993,5.46623H445.492v-10.27H435.22209Zm20.39993,5.46631H465.892v-10.27H455.622Zm20.39994,5.46631h10.26993v-10.27H476.022Zm20.39993,5.46623h10.26993v-10.27H496.42189Zm20.39993,5.46623h10.26993v-10.27H516.82182Zm22.88513,2.98157h5.30076V213.292H539.707Zm-261.58874-46.81h7.53693v-7.537h-7.53693Zm19.03366,6.83281H307.4218v-10.27H297.15187Zm20.39993,5.46631h10.26993v-10.27H317.5518Zm20.39994,5.46623h10.26992v-10.27H337.95174Zm20.39993,5.46631H368.6216v-10.27H358.35167Zm20.39993,5.46623h10.26993v-10.27H378.7516Zm20.39994,5.46631h10.26992v-10.27H399.15154Zm20.39993,5.46623H429.8214v-10.27H419.55147Zm20.39993,5.46616h10.26993v-10.27H439.9514Zm20.39993,5.46631h10.26993V212.07573H460.35133Zm20.39994,5.46615h10.26992V217.54189H480.75127Zm20.39993,5.46631h10.26993V223.00819H501.1512Zm20.39993,5.46631h10.26993V228.4745H521.55113Zm21.974,3.89267h7.1228v-7.12372h-7.10281Zm-280.54-53.72551h6.46v-6.46h-6.46Zm18.49533,7.37122h10.26993v-10.27H281.48048Zm20.39994,5.4663h10.26992v-10.27H301.88042Zm20.39993,5.46631h10.26993v-10.27H322.28035Zm20.39993,5.46624h10.26993v-10.27H342.68028Zm20.39994,5.4663h10.26992v-10.27H363.08022Zm20.39993,5.46616h10.26993V213.34419H383.48015Zm20.39993,5.46631H414.15V218.8105H403.88008ZM424.28,234.54659h10.26993V224.27666H424.28Zm20.39994,5.4663h10.26992V229.743H444.68Zm20.39993,5.46631h10.26993V235.20927H465.07988Zm20.39993,5.46616h10.26993V240.67543H485.47981Zm20.39994,5.46631h10.26992V246.14174H505.87975Zm20.39993,5.46615h10.26993V251.60789H526.27968Zm21.27,4.59671h8.53088v-8.53088h-8.5054Zm24.5,1.36643h.331v-.331h-.31006ZM247.93449,205.95764h5.2179v-5.21789h-5.2179Zm17.8743,7.99233h10.26993V203.68H265.80879Zm20.39993,5.46615h10.26993v-10.27H286.20872Zm20.39994,5.46631h10.26993V214.6125H306.60866Zm20.39993,5.46616h10.26993V220.07866H327.00859Zm20.39993,5.46631h10.26993V225.545H347.40852Zm20.39994,5.4663h10.26992V231.01128H367.80846Zm20.39993,5.46616h10.26993V236.47743H388.20839Zm20.39993,5.46631h10.26993V241.94374H408.60832Zm20.39994,5.46615h10.26992V247.4099H429.00826Zm20.39993,5.46631h10.26993V252.87621H449.40819Zm20.39993,5.46616h10.26993V258.34236H469.80812Zm20.39993,5.46631H500.478V263.80867H490.20805Zm20.39994,5.46631h10.26992V269.275H510.608Zm20.39993,5.46615h10.26993V274.74113H531.00792Zm20.93872,4.92783h9.19342v-9.19342h-9.19342Zm24.58282,1.28372h.82795v-.82794h-.82795ZM233.09074,222.79625h3.56141v-3.5614h-3.56141Zm17.04606,8.82065h10.26992V221.347H250.1368Zm20.39993,5.46615h10.26993V226.81313H270.53673Zm20.39993,5.46631h10.26993V232.27943H290.93666Zm20.39993,5.46631h10.26993V237.74574H311.33659Zm20.39994,5.46616h10.26992V243.2119H331.73653Zm20.39993,5.46631h10.26993V248.67821H352.13646Zm20.39993,5.46615h10.26993V254.14436H372.53639Zm20.39994,5.46631h10.26992V259.61067H392.93633Zm20.39993,5.46631h10.26993V265.077H413.33626Zm20.39993,5.46615h10.26993V270.54314H433.73619Zm20.39993,5.46631h10.26993V276.00945H454.13612Zm20.39994,5.46616H484.806V281.4756H474.53606Zm20.39993,5.46631h10.26993V286.94191H494.936Zm20.39993,5.46615h10.26993V292.40807H515.33592Zm20.39994,5.46631h10.26992V297.87437H535.73586Zm20.6488,5.21775h9.77325v-9.77326h-9.77325Zm24.5,1.36642h1.57364v-1.57364h-1.57364ZM218.24654,239.63493h1.90506v-1.90506h-1.90506Zm16.25915,9.60739h10.18723V239.0551h-10.1558ZM254.86458,254.75h10.26993V244.48006H254.86458Zm20.39993,5.46616h10.26993V249.94621H275.26451Zm20.39993,5.46631h10.26993V255.41252H295.66444Zm20.39994,5.46616H326.3343V260.87868H316.06438Zm20.39993,5.4663h10.26993V266.345H336.46431Zm20.39993,5.46631h10.26993V271.81129H356.86424Zm20.39994,5.46616H387.5341V277.27745H377.26418Zm20.39993,5.46631H407.934V282.74376H397.66411Zm20.39993,5.46615H428.334V288.20992H418.064Zm20.39993,5.46631H448.7339V293.67622H438.464Zm20.39994,5.46631h10.26992V299.14253H458.86391Zm20.39993,5.46616h10.26993V304.60869H479.26384Zm20.39993,5.4663H509.9337V310.075H499.66377Zm20.39994,5.46616h10.26992V315.54115H520.06371Zm20.39993,5.46631h10.26993V321.00746H540.46364Zm20.5246,5.34195H571.0099V326.59767H560.9951ZM585.2813,338.193h2.23632v-2.23633h-2.19253ZM203.31963,256.55647h.414v-.414h-.414Zm15.80352,10.06287h9.60755v-9.60785h-9.60755Zm20.06913,5.79758H249.4622V262.147H239.19228Zm20.39993,5.4663h10.26993V267.6133H259.59221Zm20.39993,5.46616h10.26993V273.07945H279.99214Zm20.39993,5.46631H310.662V278.54576H300.39207Zm20.39994,5.46616h10.26993V284.01192H320.792Zm20.39993,5.4663h10.26993V289.47823H341.19194Zm20.39993,5.46616H371.8618V294.94438H361.59187Zm20.39994,5.46631h10.26992V300.41069H381.99181Zm20.39993,5.46631h10.26993V305.877H402.39174Zm20.39993,5.46615H433.0616V311.34315H422.79167Zm20.39993,5.46631h10.26993V316.80946H443.1916Zm20.39994,5.46616h10.26993V322.27562H463.59154Zm20.39993,5.46631H494.2614V327.74193H483.99147Zm20.39993,5.4663h10.26993V333.20824H504.3914Zm20.39994,5.46616h10.26992V338.67439H524.79134Zm20.39993,5.46631H555.4612V344.1407H545.19127Zm20.44174,5.4248h10.18723V349.64821H565.633Zm24.04465,1.82206h2.89886v-2.89887h-2.89886ZM204.3615,283.37532h7.78534V275.59H204.3615Zm19.158,6.70853h10.26992V279.81392H223.51952Zm20.39993,5.46631h10.26993V285.28023H243.91945Zm20.39993,5.46615h10.26993V290.74638H264.31938Zm20.39993,5.46631h10.26993V296.21269H284.71931Zm20.39994,5.46631h10.26993V301.679H305.11925Zm20.39993,5.46615h10.26993V307.14516H325.51918Zm20.39993,5.46631H356.189V312.61147H345.91911Zm20.39994,5.46616H376.589V318.07762H366.31905Zm20.39993,5.46631h10.26993V323.54393H386.719ZM407.11891,339.28h10.26993V329.01009H407.11891Zm20.39993,5.46631h10.26993V334.47639H427.51884Zm20.39994,5.46631h10.26993V339.9427H447.91878Zm20.39993,5.46616h10.26993V345.40886H468.31871Zm20.39993,5.46631h10.26993V350.87517H488.71864Zm20.39994,5.46615H519.3885V356.34132H509.11858Zm20.39993,5.46631h10.26993V361.80763H529.51851Zm20.39993,5.46631h10.26993V367.27394H549.91844Zm20.44174,5.4248h10.18723v-10.188H570.36018Zm23.83744,2.02912h3.313v-3.313h-3.313Zm-404.35-85.115H195.314v-5.46631h-5.46631Zm17.99835,7.868h10.26993V297.48085H207.846Zm20.39994,5.46631h10.26992V302.94716H228.24593Zm20.39993,5.46631h10.26993V308.41347H248.64586Zm20.39993,5.46615h10.26993V313.87962H269.04579Zm20.39993,5.46631h10.26993V319.34593H289.44572Zm20.39994,5.46616h10.26993V324.81209H309.84566Zm20.39993,5.4663h10.26993V330.2784H330.24559Zm20.39993,5.46631h10.26993V335.74471H350.64552Zm20.39994,5.46616h10.26992V341.21086H371.04546Zm20.39993,5.46631h10.26993V346.67717H391.44539Zm20.39993,5.46615h10.26993V352.14333H411.84532Zm20.39993,5.46631h10.26993V357.60963H432.24525Zm20.39994,5.46616h10.26993V363.07579H452.64519Zm20.39993,5.46631h10.26993V368.5421H473.04512Zm20.39993,5.46631H503.715V374.00841H493.44505Zm20.39994,5.46615h10.26992V379.47456H513.845Zm20.39993,5.46631h10.26993V384.94087H534.24492Zm20.39993,5.46616h10.26993V390.407H554.64485Zm20.39993,5.4663h10.26993V395.87334H575.04478Zm23.79609,2.07047h3.47854v-3.47855h-3.4143ZM175.49858,316.22459h2.816v-2.816h-2.816Zm16.67328,9.19327h10.26993V315.14793H192.17186Zm20.39993,5.46616h10.26993V320.61409H212.57179Zm20.39994,5.46631h10.26992V326.0804H232.97173Zm20.39993,5.46615h10.26993V331.54655H253.37166Zm20.39993,5.46631h10.26993V337.01286H273.77159Zm20.39993,5.46631h10.26993V342.47917H294.17152Zm20.39994,5.46616h10.26992V347.94533H314.57146Zm20.39993,5.4663h10.26993V353.41164H334.97139Zm20.39993,5.46616h10.26993V358.87779H355.37132Zm20.39994,5.46631h10.26992V364.3441H375.77126Zm20.39993,5.46631h10.26993V369.81041H396.17119Zm20.39993,5.46615h10.26993V375.27657H416.57112Zm20.39993,5.46631H447.241V380.74287H436.97105ZM457.371,396.479h10.26992V386.209H457.371Zm20.39993,5.46631h10.26993V391.67534H477.77092Zm20.39993,5.46615h10.26993V397.14149H498.17085Zm20.39994,5.46631h10.26992V402.6078H518.57079Zm20.39993,5.46631h10.26993V408.07411H538.97072Zm20.39993,5.46616h10.26993V413.54027H559.37065Zm20.39993,5.4663h10.26993V419.00658H579.77058Zm23.83744,2.02912h3.39584v-3.39585H603.608Zm-442.51053-98.6142h.414v-.414h-.414Zm15.72082,10.14588h9.77326V333.064h-9.77326Zm20.15183,5.71487h10.26993V338.28224H196.97014Zm20.39993,5.46616H227.64V343.7484H217.37007Zm20.39993,5.4663h10.26993V349.21471H237.77Zm20.39994,5.46616h10.26993V354.68086H258.16994Zm20.39993,5.46631H288.8398V360.14717H278.56987Zm20.39993,5.46616h10.26993V365.61333H298.9698Zm20.39994,5.4663h10.26992V371.07964H319.36974Zm20.39993,5.46631H350.0396V376.54594H339.76967ZM360.1696,392.282h10.26993V382.0121H360.1696Zm20.39993,5.46631h10.26993V387.47841H380.56953Zm20.39994,5.46615H411.2394V392.94456H400.96947Zm20.39993,5.46631h10.26993V398.41087H421.3694Zm20.39993,5.46631h10.26993V403.87718H441.76933Zm20.39994,5.46616h10.26992V409.34334H462.16927Zm20.39993,5.4663h10.26993V414.80965H482.5692Zm20.39993,5.46616h10.26993V420.2758H502.96913Zm20.39993,5.46631H533.639V425.74211H523.36906ZM543.769,441.4782h10.26993V431.20827H543.769Zm20.39993,5.4663h10.26993V436.67458H564.16893Zm20.39993,5.46631h10.26993V442.14088H584.56886Zm23.96179,1.90476h3.14728v-3.14728h-3.14728ZM162.477,359.17946h7.1228v-7.1228H162.477Zm18.82675,7.03995h10.26993V355.94948H181.30379Zm20.39993,5.46615h10.26993V361.41563H201.70372Zm20.39993,5.46631h10.26993V366.88194H222.10365Zm20.39994,5.46631h10.26992V372.34825H242.50359Zm20.39993,5.46616h10.26993V377.81441H262.90352Zm20.39993,5.4663h10.26993V383.28072H283.30345Zm20.39993,5.46616h10.26993V388.74687H303.70338Zm20.39994,5.46631h10.26993V394.21318H324.10332Zm20.39993,5.46615h10.26993V399.67934H344.50325Zm20.39993,5.46631h10.26993V405.14565H364.90318Zm20.39994,5.46631H395.573V410.612H385.30312Zm20.39993,5.46616H415.973V416.07811H405.70305Zm20.39993,5.46631h10.26993V421.54442H426.103Zm20.39993,5.46615h10.26993V427.01057H446.50291Zm20.39994,5.46631h10.26993V432.47688H466.90285Zm20.39993,5.46631h10.26993V437.94319H487.30278Zm20.39993,5.46616h10.26993V443.40935H507.70271Zm20.39994,5.4663h10.26992V448.87566H528.10265Zm20.39993,5.46616h10.26993V454.34181H548.50258Zm20.39993,5.46631h10.26993V459.80812H568.90251Zm20.39993,5.46615h10.26993V465.27428H589.30244Zm24.29306,1.57364h2.48475V474.6331H613.5955ZM148.29308,375.35561h4.14108v-4.14124h-4.14108Zm17.33581,8.53073h10.26993V373.61641H165.62889Zm20.39993,5.46631h10.26993V379.08272H186.02882Zm20.39994,5.46615h10.26992V384.54887H206.42876Zm20.39993,5.46631h10.26993V390.01518H226.82869Zm20.39993,5.46616h10.26993V395.48134H247.22862Zm20.39994,5.46631h10.26992V400.94765H267.62856Zm20.39993,5.4663h10.26993V406.414H288.02849ZM308.42842,422.15h10.26993V411.88011H308.42842Zm20.39993,5.46631h10.26993V417.34642H328.82835Zm20.39994,5.46615h10.26992V422.81258H349.22829Zm20.39993,5.46631h10.26993V428.27888H369.62822Zm20.39993,5.46616h10.26993V433.745H390.02815Zm20.39994,5.46631H420.698V439.21135H410.42809Zm20.39993,5.46631H441.098V444.67766H430.828Zm20.39993,5.46615h10.26993V450.14381H451.228Zm20.39993,5.46631h10.26993V455.61012H471.62788Zm20.39994,5.46616h10.26992V461.07628H492.02782Zm20.39993,5.46631h10.26993V466.54259H512.42775Zm20.39993,5.4663h10.26993V472.0089H532.82768Zm20.39994,5.46616h10.26992V477.47505H553.22762Zm20.39993,5.46631h10.26993V482.94136H573.62755Zm20.48324,5.38345h10.10453V488.49022H594.11079Zm24.583,1.28372h1.73935v-1.73935h-1.73935ZM134.2086,391.44936h.994v-.994h-.994Zm15.845,10.02151h10.10453V391.36635H150.05363ZM170.37117,407.02H180.6411V396.75011H170.37117Zm20.39993,5.46616H201.041V402.21626H190.7711ZM211.171,417.9525H221.441V407.68257H211.171Zm20.39993,5.46631H241.8409V413.14888H231.571ZM251.9709,428.885h10.26993V418.615H251.9709Zm20.39993,5.46631h10.26993V424.08134H272.37083Zm20.39994,5.46616H303.0407V429.5475H292.77077Zm20.39993,5.46631h10.26993V435.01381H313.1707Zm20.39993,5.46631h10.26993V440.48012H333.57063Zm20.39994,5.46615h10.26992V445.94627H353.97057Zm20.39993,5.46631h10.26993V451.41258H374.3705Zm20.39993,5.46616h10.26993V456.87874H394.77043Zm20.39993,5.4663h10.26993V462.34505H415.17036Zm20.39994,5.46616h10.26993V467.8112H435.5703Zm20.39993,5.46631h10.26993V473.27751H455.97023Zm20.39993,5.46631h10.26993V478.74382H476.37016Zm20.39994,5.46615H507.04V484.21H496.7701ZM517.17,499.94621H527.44V489.67628H517.17ZM537.57,505.41237h10.26993V495.14244H537.57Zm20.39993,5.46631h10.26993V500.60875H557.96989Zm20.39994,5.46631h10.26993V506.07506H578.36983Zm20.649,5.21774h9.77311v-9.7731h-9.77311Zm24.91425.952h.74493v-.74493H623.933Zm-488.138-104.78454h7.28851v-7.28882h-7.28851Zm18.91006,6.95709h10.26993V414.41734H154.70512Zm20.39994,5.46631H185.375V419.88365H175.10506Zm20.39993,5.46616h10.26993V425.34981H195.505Zm20.39993,5.4663h10.26993V430.81612H215.90492Zm20.39994,5.46616h10.26992V436.28227H236.30486Zm20.39993,5.46631h10.26993V441.74858H256.70479Zm20.39993,5.46631h10.26993V447.21489H277.10472Zm20.39993,5.46615h10.26993V452.68105H297.50465Zm20.39994,5.46631h10.26992V458.14735H317.90459Zm20.48309,5.38346h10.107V463.69621H338.39012Zm20.5246,5.34194h9.856v-9.856h-9.856Zm20.23468,5.63187h10.18722V474.58733H379.14955Zm20.359,5.50766h10.26992V480.01228H399.506Zm20.39993,5.46631h10.26993V485.47859H419.90593Zm20.39993,5.46616h10.26993V490.94475H440.30586Zm20.39994,5.4663h10.26992V496.41106H460.7058Zm20.39993,5.46616h10.26993V501.87721H481.10573Zm20.39993,5.46631h10.26993V507.34352H501.50566Zm20.39993,5.46631h10.26993V512.80983H521.90559Zm20.39994,5.46615h10.26992V518.276H542.30553Zm20.39993,5.46631h10.26993V523.74229H562.70546Zm20.39993,5.46616h10.26993V529.20845H583.10539ZM604.251,544.1993h8.7793V535.42H604.251Zm24.70719,1.15936h.166v-.166h-.16006ZM122.1096,433.40935h3.313v-3.313h-3.313Zm16.92185,8.94485h10.26993V432.08427H139.03145Zm20.39993,5.46631h10.26993V437.55058H159.43138Zm20.39993,5.46631h10.26993V443.01689H179.83131Zm20.39994,5.46616h10.26992V448.48305H200.23125Zm20.39993,5.4663h10.26993V453.94936H220.63118Zm20.39993,5.46616H251.301V459.41551H241.03111Zm20.39994,5.46631H271.701V464.88182H261.43105Zm20.93872,4.92782h9.19342v-9.19342h-9.19342Zm22.59521,3.27134h4.80377v-4.80378H304.965Zm22.09824,3.76846h1.40793v-1.40793h-1.40793Zm20.81451,5.052h.58v-.58h-.58Zm20.39993,5.46631h.58v-.58h-.58Zm19.69635,6.17h1.98777V501.82H387.974Zm18.82676,7.03995h5.135v-5.135h-5.135Zm18.454,7.41257h9.02786v-9.02786h-9.02786Zm19.7792,6.08734h10.26993V514.07768H445.034Zm20.39993,5.46631h10.26993V519.544H465.43388Zm20.39994,5.46616h10.26992V525.01015H485.83382Zm20.39993,5.4663h10.26993V530.47646H506.245Zm20.39993,5.46616h10.26993V535.94261H526.64513Zm20.39994,5.46631h10.26992V541.40892H547.04506Zm20.39993,5.46631h10.26993V546.87523H567.43355Zm20.39993,5.46615h10.26993V552.34138H587.83348Zm22.22244,3.64426h6.62583v-6.626h-6.626ZM108.06511,449.46144h.08v-.08h-.08Zm15.845,10.02152h9.19342v-9.19342h-9.19342Zm19.86206,6.00463h10.26993V455.21767H143.7722Zm20.39993,5.46631h10.26993V460.684H164.17213Zm20.39994,5.46616H194.842V466.15013H184.57207Zm20.39993,5.46631h10.26993V471.61644H204.972Zm20.39993,5.46631h10.26993V477.08275H225.37193Zm20.73166,5.13488h9.60755V482.88h-9.606Zm23.589,2.27753h3.23v-3.23h-3.23Zm163.824,43.10883h1.98776v-1.98777h-1.98776Zm17.41867,8.44787h7.95105v-7.95044h-7.95105Zm19.24087,6.62583h10.26993V542.67769H470.17616Zm20.39994,5.46615H500.846V548.14384H490.5761Zm20.39993,5.46631H521.246V553.61015H510.976Zm20.39993,5.46616h10.26993V559.07631H531.376Zm20.39993,5.46631h10.26993V564.54262H551.77589Zm20.39994,5.46615h10.26993V570.00877H572.17583Zm20.39993,5.46631h10.26993V575.47508H592.57576Zm23.83743,2.02911H619.809v-3.39584h-3.39585ZM110.5999,474.78951h4.4725V470.317h-4.4725Zm17.50153,8.365h10.26992V472.8846H128.10143Zm20.39993,5.4663h10.26993V478.35091H148.50136Zm20.39993,5.46631h10.26993V483.81721H168.90129Zm20.39993,5.46616h10.26993V489.28337H189.30122Zm20.44175,5.425h10.18722V494.79149H209.743Zm22.59521,3.27133h5.79758V502.452h-5.79758Zm23.21625,2.65h.166v-.166h-.166Zm203.0925,55.57358h1.98776V564.4854h-1.98776Zm17.00454,8.862h8.7793v-8.7793h-8.7793Zm19.65485,6.2117h10.26993V571.27693H495.30632Zm20.39993,5.46631h10.26993V576.74324H515.70625Zm20.39994,5.46615h10.26992V582.2094H536.10619Zm20.39993,5.46631h10.26993V587.6757H556.50612Zm20.39993,5.46616H587.176V593.14186H576.90605Zm20.64881,5.21774h9.77325v-9.77325h-9.77325Zm25.16265.704h.248v-.248h-.242ZM97.08366,490.303h.166v-.166h-.166Zm15.88654,9.98h9.19342v-9.19342H112.9702Zm19.86206,6.00464h10.26993V496.01768H132.83226Zm20.39993,5.46631h10.26993V501.484H153.23219Zm20.39994,5.46616h10.26992V506.95015H173.63213Zm21.18713,4.68h8.69644v-8.69644h-8.69644Zm24.086,1.78055h1.32522v-1.32523h-1.32522ZM482.826,596.02577h3.89267V592.1331H482.826Zm17.37732,8.48923h9.93882v-9.93881h-9.93882Zm20.23468,5.63187h10.26993V599.87694H520.438Zm20.39994,5.4663h10.26992V605.34325H540.83794Zm20.39993,5.46631H571.5078V610.80956H561.23787Zm20.39993,5.46616h10.26993V616.27571H581.6378Zm23.00934,2.85736h5.05219v-5.052h-5.05219Zm-504.281-114.51675h3.06458v-3.06458h-3.06458Zm16.79764,9.06906H127.4337V513.68538H117.16377Zm20.39994,5.46615h10.26992V519.15154H137.56371Zm20.44174,5.425h10.18722V524.65935H158.01506Zm23.29925,2.56744h4.39v-4.38995h-4.39ZM489.29771,617.42h.414v-.414h-.414Zm17.50153,8.36517h6.2117v-6.21185h-6.2117Zm18.37112,7.49542h10.26993V623.01064H525.17036Zm20.39994,5.46631h10.26993V628.47694H545.5703Zm20.39993,5.46616h10.26993V633.9431H565.97023Zm20.93872,4.92782h9.19357v-9.19342H586.909Zm24.95575.91095h.08v-.07995h-.07ZM103.90877,539.22142h5.46646V533.755h-5.46646Zm17.9985,7.868H132.1772V536.81953H121.90727Zm21.80832,4.05823h7.45407v-7.45407h-7.45407Zm23.79608,2.07046h.663v-.663h-.663ZM514.1935,646.26869h.911v-.91095h-.911Zm17.79144,8.07526h6.129V648.2151h-6.129Zm18.53683,7.33h9.856v-9.856h-9.856Zm20.73166,5.135h9.19342v-9.19342h-9.19342Zm24.41727,1.44928h1.15952v-1.15952H595.6707Zm-485.66132-107.27h2.73316v-2.73316h-2.73316Zm20.98008,4.88647h1.57364v-1.57333h-1.57364ZM539.70055,674.49593h.166v-.166h-.166Zm20.02777,5.83892h.91095v-.91095h-.91095Zm20.81436,5.05219h.07995v-.08h-.07995Z" fill="#042054"/>
        <polygon id="atom_09_line" data-name="atom 09 line" points="713.795 283.661 418.515 316.971 509.955 26.071 497.735 22.231 408.395 306.471 305.785 86.501 294.185 91.921 397.855 314.151 17.415 201.081 13.765 213.351 377.865 321.561 84.765 354.631 86.205 367.351 400.405 331.901 323.005 578.171 335.215 582.011 410.735 341.741 503.865 541.391 515.465 535.981 421.485 334.531 730.175 426.261 733.815 413.991 441.845 327.221 715.235 296.381 713.795 283.661" fill="#110a4c"/>
        <g id="atom_09_dots" data-name="atom 09 dots">
          <circle id="circle4750" cx="513.01247" cy="539.65736" r="23.99994" fill="#110a4c"/>
          <circle id="circle4752" cx="328.51753" cy="580.62325" r="23.99994" fill="#110a4c"/>
          <circle id="circle4754" cx="291.12236" cy="71.69701" r="23.99998" fill="#110a4c"/>
          <circle id="circle4756" cx="503.77937" cy="24.00002" r="23.99998" fill="#110a4c"/>
          <circle id="circle4758" cx="703.65211" cy="291.47835" r="16.79993" fill="#110a4c"/>
          <circle id="circle4760" cx="727.39143" cy="420.00694" r="16.79993" fill="#110a4c"/>
          <circle id="circle4762" cx="16.8" cy="205.37558" r="16.79997" fill="#110a4c"/>
          <circle id="circle4764" cx="85.77789" cy="360.0103" r="16.79996" fill="#110a4c"/>
        </g>
      </g>
    </g>
  </g>
</svg>
