<svg xmlns="http://www.w3.org/2000/svg" width="591.97601" height="869.56223" viewBox="0 0 591.97601 869.56223">
  <g id="Layer_2" data-name="Layer 2">
    <g id="svg4790">
      <g id="atom_16" data-name="atom 16">
        <polygon id="atom_16_solid" data-name="atom 16 solid" points="33.326 811.605 110.396 239.115 476.416 47.185 489.426 609.875 33.326 811.605" fill="#ffdbd6"/>
        <path id="atom_16_ht" data-name="atom 16 ht" d="M498.96973,1.01944h.233v.233h-.233ZM465.15717,12.69089h.233v-.233h-.233Zm16.05835,8.19168h6.367v-6.367h-6.367ZM502.282,24.066h2.48474V21.58127H502.282ZM448.9946,30.72922H452.178V27.54578H448.9946Zm16.09695,8.15292h9.24v-9.24h-9.24Zm19.16413,5.08576h9.16244V34.80545H484.256Zm23.31833.932h.77606v-.77606H507.574Zm-91.22757-3.89663h.854v-.854h-.854ZM432.21069,49.389h7.37656V42.01248h-7.37656Zm17.99942,6.25046h9.6283V46.01135h-9.6283Zm19.12537,5.12466h9.62814V51.136h-9.62753Zm19.70764,4.54224h8.46344V56.843h-8.46344Zm-89.131-5.993h4.34814V54.9649h-4.34814Zm16.563,7.68708h9.473v-9.473h-9.473Zm19.0477,5.20218h9.62814V62.57446h-9.62814Zm19.12536,5.12466h9.62815V67.69913h-9.62815Zm19.12537,5.12466h9.62829V72.82364H473.7735Zm20.83359,3.4163h6.21185V79.65652h-6.21185ZM367.536,69.31488h1.47522V67.83951H367.536Zm15.63126,8.61877h8.46344V69.47006h-8.46344Zm18.54294,5.70694h9.62829V74.01245h-9.62829Zm19.12536,5.12467h9.62814V79.13712H420.836Zm19.12537,5.12466h9.62814V84.26163h-9.62814Zm19.12536,5.12467h9.6283v-9.6283H459.086Zm19.12537,5.12466h9.62814V94.51111h-9.62814Zm21.95938,2.2905h3.96v-3.96h-3.96ZM334.34464,80.13229h.233v-.233h-.233ZM350.63583,88.091H356.537V82.18979h-5.901ZM367.89764,95.079h9.6283V85.4509h-9.6283ZM387.023,100.2037h9.62814V90.57541H387.023Zm19.12537,5.12467h9.62814v-9.6283h-9.62814Zm19.12536,5.12466h9.6283v-9.628h-9.6283Zm19.12537,5.12467h9.62814v-9.62815h-9.62814Zm19.12537,5.12466h9.62814v-9.62814h-9.62814Zm19.12536,5.12467h9.6283v-9.62815h-9.6283Zm22.81357,1.43646h2.25174v-2.25174h-2.25174ZM318.454,97.899h2.64008V95.25894H318.454Zm15.98053,8.26935H343.364V97.23892h-8.92944Zm18.77594,5.47409h9.6283v-9.6283h-9.6283Zm19.12537,5.12466H381.964v-9.6283h-9.628Zm19.12536,5.12466h9.62814v-9.62814h-9.62814Zm19.12537,5.12467h9.62829v-9.62814h-9.62875Zm19.12536,5.12466h9.62815V122.513h-9.62815Zm19.12537,5.12467h9.62814v-9.62815h-9.62814Zm19.12537,5.12466h9.62829v-9.62829h-9.62829Zm19.32006,4.93h9.24v-9.24h-9.24Zm23.35709.89295h.777v-.777h-.777ZM285.69031,108.28918h.544v-.54306h-.544Zm15.94177,8.30811h6.91055v-6.91055h-6.91055Zm17.76657,6.48346h9.6283v-9.6283h-9.6283Zm19.12537,5.12466h9.62814v-9.62829H338.524Zm19.12536,5.12467h9.62815v-9.62815h-9.62815Zm19.12537,5.12466h9.6283V128.8266h-9.6283Zm19.12537,5.12467h9.62814v-9.62815h-9.62814Zm19.12536,5.12466h9.62815v-9.62921h-9.62815Zm19.12537,5.12467h9.62829v-9.6283h-9.62829Zm19.12536,5.12466h9.62815v-9.6286h-9.62815Zm19.12537,5.12466h9.62814v-9.62814h-9.62814Zm20.09583,4.15406h7.68707V160.545H492.496Zm22.93,1.32h.07995v-.08h-.07995Zm-246.01608-43.1076h3.727v-3.72711h-3.727Zm16.25244,7.99744h9.473v-9.473h-9.473Zm19.0477,5.20233h9.62814V130.0148h-9.62814Zm19.12536,5.12466H333.465v-9.62814h-9.62891Zm19.12537,5.12467h9.62829v-9.62876h-9.62829Zm19.12536,5.12466h9.6283v-9.62814h-9.6283Zm19.12537,5.12466h9.62814v-9.62829h-9.62814Zm19.12537,5.12467h9.62814v-9.6283h-9.62814Zm19.12536,5.12466h9.6283v-9.62814h-9.6283ZM438.589,175.517h9.62814v-9.62815H438.589Zm19.12537,5.12466h9.62814v-9.62814h-9.62814Zm19.12536,5.12467h9.6283v-9.62815h-9.6283ZM497.9451,188.911h5.66818v-5.66833H497.9451Zm-261.10367-52.27h1.24237v-1.24237h-1.24237Zm15.70892,8.54111h8.07526v-8.07526h-8.07526Zm18.34885,5.901h9.6283v-9.62814h-9.6283Zm19.12537,5.12466h9.62814v-9.62814h-9.62814Zm19.12536,5.12467h9.62815v-9.62815h-9.62815Zm19.12537,5.12466h9.62829v-9.62814H328.2753Zm19.12537,5.12467h9.62814v-9.6283h-9.62814Zm19.12536,5.12466h9.62814v-9.6283H366.526Zm19.12537,5.12466h9.62829v-9.62814H385.6514Zm19.12536,5.12467h9.62815v-9.62814h-9.62815Zm19.12537,5.12466h9.62814v-9.62814h-9.62814Zm19.12537,5.12467h9.62829v-9.63028H443.026Zm19.12536,5.12466H471.781v-9.62829h-9.62815Zm19.12537,5.12467h9.62814v-9.62952h-9.62814Zm21.88187,2.36816h4.11529v-4.1153H503.1601ZM203.57117,147.53479h.155v-.155h-.155Zm16.64062,7.60925h5.12467v-5.12466h-5.12467Zm16.91223,7.33765h9.55063v-9.55063H237.124Zm19.08661,5.16342h9.62815V158.017h-9.62815Zm19.12537,5.12467h9.62814v-9.62815H275.336Zm19.12536,5.12466h9.6283v-9.6283h-9.6283Zm19.12537,5.12466h9.6283v-9.62829h-9.6283Zm19.12537,5.12467h9.62814v-9.62891H332.7121Zm19.12536,5.12466h9.62815v-9.62814h-9.62815Zm19.12537,5.12467h9.6283v-9.628h-9.6283Zm19.12537,5.12466h9.62814v-9.62814H390.0882Zm19.12536,5.12467h9.62815v-9.6283h-9.62815Zm19.12537,5.12466h9.62829v-9.6283h-9.62829Zm19.12536,5.12466h9.62815v-9.62814h-9.62815Zm19.12537,5.12467h9.62814v-9.62814h-9.62814Zm19.16412,5.08575h9.55063v-9.55063h-9.55063Zm22.93,1.32H510.625V228.481h-1.94122Zm-320.73136-65.392h2.01874v-2.01874h-2.01874Zm15.74768,8.5022h8.77411V164.7583H203.7001Zm18.69828,5.55176h9.62829V169.4548h-9.62829Zm19.12536,5.12466h9.62815v-9.62814h-9.62815Zm19.12537,5.12467h9.62814v-9.6283h-9.62814Zm19.12537,5.12466h9.62829v-9.6283h-9.62829Zm19.12536,5.12466H308.528v-9.62814h-9.62814Zm19.12537,5.12467h9.62814v-9.62814h-9.62814Zm19.12536,5.12466h9.6283V200.204h-9.6283Zm19.12537,5.12467h9.62814v-9.62815h-9.62814Zm19.12537,5.12466h9.62814v-9.62829h-9.62814Zm19.12536,5.12467h9.6283v-9.6283h-9.62891Zm19.12537,5.12466h9.62814v-9.62814H413.652Zm19.12536,5.12466h9.62815v-9.62814H432.7774Zm19.12537,5.12467h9.6283V230.952h-9.6283Zm19.12537,5.12466h9.62814v-9.63h-9.62814Zm19.51355,4.73633h8.85177v-8.85177h-8.85177Zm23.35708.893h.388v-.388h-.388ZM154.99435,175.61523h.311v-.311h-.311Zm16.01944,8.23h6.52237v-6.52236h-6.52237Zm17.57233,6.67756h9.6283v-9.62815h-9.6283Zm19.12537,5.12466h9.62814v-9.62814h-9.62814Zm19.12536,5.12466H236.465V191.1438h-9.62891Zm19.12537,5.12467h9.6283v-9.6283h-9.6283Zm19.12537,5.12466h9.62829v-9.62814h-9.62829Zm19.12536,5.12467h9.62814v-9.62815H284.213Zm19.12537,5.12466h9.62814v-9.62814h-9.62814Zm19.12536,5.12467h9.6283v-9.6283h-9.6283Zm19.12537,5.12466h9.62814v-9.6283h-9.62814Zm19.12537,5.12466h9.62814v-9.63h-9.62814Zm19.12536,5.12467h9.6283v-9.62814h-9.6283Zm19.12537,5.12466h9.62814v-9.62814h-9.62814Zm19.12537,5.12467h9.62814v-9.62815h-9.62814Zm19.12536,5.12466h9.6283v-9.62829h-9.6283Zm19.12537,5.12467h9.62814v-9.6283h-9.62814Zm19.12536,5.12466h9.62815v-9.62814h-9.62815Zm20.17365,4.07639H503.172v-7.53174h-7.53174ZM138.79349,193.69247h3.33877V190.3537h-3.33877Zm16.13586,8.114H164.247v-9.31763h-9.31763Zm18.97,5.28h9.6283v-9.6283h-9.6283Zm19.12537,5.12466h9.62814v-9.62829h-9.62814Zm19.12537,5.12467h9.62814v-9.62815h-9.62814Zm19.12536,5.12466h9.6283v-9.62814h-9.6283Zm19.12537,5.12466H260.029v-9.63028h-9.62814Zm19.12536,5.12467h9.62815v-9.62814h-9.62815Zm19.12537,5.12466h9.6283v-9.62829h-9.6283Zm19.12537,5.12467h9.62814v-9.6283H307.776Zm19.12536,5.12466h9.62815v-9.62814h-9.62815Zm19.12537,5.12467h9.6283v-9.62815h-9.63Zm19.12537,5.12466h9.62814V248.705h-9.62814Zm19.12536,5.12466h9.62815v-9.62814h-9.62815Zm19.12537,5.12467h9.62829v-9.6283h-9.62829Zm19.12536,5.12466h9.62815v-9.62829h-9.62815Zm19.12537,5.12467h9.62814v-9.62815h-9.62814Zm19.12537,5.12466h9.62829v-9.62814h-9.62829Zm19.12536,5.12467h9.62815V279.453h-9.62815Zm21.10535,3.14453h5.66818v-5.67078h-5.66818ZM106.18484,203.92822h.932v-.932h-.932Zm15.82535,8.42453h7.53174V204.821h-7.53174Zm18.07709,6.173h9.6283v-9.63089h-9.62952Zm19.12537,5.12466h9.62814v-9.6283h-9.62814ZM178.338,228.775h9.62815v-9.62814H178.336Zm19.12537,5.12467h9.62829v-9.62814h-9.62829Zm19.12537,5.12466H226.217v-9.62814h-9.62829Zm19.12536,5.12467h9.62814v-9.62815h-9.62814Zm19.12537,5.12466h9.62829v-9.62829h-9.62829Zm19.12536,5.12467h9.6283v-9.6283h-9.6283Zm19.12537,5.12466h9.62814v-9.62814h-9.62814Zm19.12537,5.12466h9.62814v-9.62814h-9.62814Zm19.12536,5.12467h9.6283V260.1442h-9.6283Zm19.12537,5.12466h9.62814v-9.62829h-9.62814Zm19.12536,5.12467h9.62815v-9.6283h-9.62815Zm19.12537,5.12466h9.6283v-9.6315H388.717Zm19.12537,5.12467h9.62814v-9.62815h-9.62814Zm19.12536,5.12466h9.62815v-9.62814h-9.62983Zm19.12537,5.12466h9.6283v-9.62814h-9.6283Zm19.12537,5.12467h9.62814v-9.6283h-9.63059Zm19.12536,5.12466H493.972v-9.62829h-9.62815Zm22.23114,2.01874h3.41645V309.372H506.575Zm-415.89218-91.481h2.56241v-2.56225H90.68283Zm15.67,8.58h9.473v-9.473h-9.473Zm19.04755,5.20233h9.6283v-9.62829h-9.6283Zm19.12537,5.12467h9.62814v-9.62815h-9.62814Zm19.12536,5.12466h9.62815v-9.62814h-9.62815Zm19.12537,5.12466h9.6283v-9.62814h-9.6283Zm19.12537,5.12467H211.53v-9.6283h-9.62814Zm19.12536,5.12466h9.62814v-9.62829h-9.62814Zm19.12537,5.12467h9.62829v-9.62815h-9.62829Zm19.12536,5.12466h9.62815v-9.62814H259.276Zm19.12537,5.12467h9.62814v-9.63227h-9.62814Zm19.12537,5.12466H307.157v-9.62814h-9.63089Zm19.12536,5.12466h9.62815v-9.62829h-9.62815Zm19.12537,5.12467h9.62814v-9.6283h-9.62814Zm19.12537,5.12466h9.62829v-9.62814h-9.62829Zm19.12536,5.12467h9.62814v-9.62815h-9.62814Zm19.12537,5.12466h9.62814v-9.62814h-9.62814Zm19.12536,5.12467h9.6283v-9.62815h-9.6283Zm19.12537,5.12466h9.62814v-9.6283h-9.62814Zm19.12537,5.12466h9.62814v-9.62829h-9.62814Zm19.12536,5.12467h9.6283v-9.62814H469.657Zm19.12537,5.12466h9.62829V322.8302h-9.62829Zm23.24066,1.00937h1.39755v-1.39755H512.023Zm-419.231-88.14209h7.22107V238.1044H92.79205Zm17.92176,6.32813H120.342V242.0256h-9.62814Zm19.12536,5.12466h9.62815v-9.62814H129.836Zm19.12537,5.12467h9.62829v-9.62815h-9.62829Zm19.12536,5.12466h9.62815v-9.63287H168.0899Zm19.12537,5.12466h9.62814v-9.62829h-9.62814Zm19.12537,5.12467h9.62829v-9.62814h-9.62829Zm19.12536,5.12466h9.6283v-9.62814H225.466Zm19.12537,5.12467h9.62814v-9.62815h-9.62814Zm19.12537,5.12466h9.62814v-9.62814h-9.62814Zm19.12536,5.12467h9.6283v-9.6283h-9.6283Zm19.12537,5.12466h9.62814v-9.6283h-9.62814Zm19.12536,5.12466H330.721v-9.62814h-9.62815Zm19.12537,5.12467h9.6283v-9.62814h-9.6283Zm19.12537,5.12466h9.62814v-9.62814h-9.62814Zm19.12536,5.12467h9.62815v-9.6283H378.466Zm19.12537,5.12466h9.6283v-9.62829h-9.6283Zm19.12537,5.12467h9.62814v-9.63349H416.716ZM435.845,338.773h9.62815V329.1449H435.845Zm19.12537,5.12467h9.62829v-9.62815H454.9704Zm19.12536,5.12466h9.62815v-9.62814h-9.62815Zm19.47464,4.77524h8.92945v-8.92945H493.5704Zm23.35709.89294h.466v-.466h-.466ZM81.13342,258.86139h1.16471v-1.1647H81.13342Zm14.89365,9.35638h9.62814v-9.62814H96.02707Zm19.12537,5.12467h9.62814v-9.62815h-9.62814Zm19.12536,5.12466h9.6283v-9.62829h-9.6283Zm19.12537,5.12467h9.62814v-9.6283h-9.62814Zm19.12536,5.12466h9.62815v-9.62814h-9.62815Zm19.12537,5.12466h9.6283V284.213h-9.6283Zm19.12537,5.12467h9.62814v-9.63394h-9.63135Zm19.12536,5.12466h9.62815v-9.62829h-9.62815ZM249.03,309.21509h9.62829v-9.63425H249.026Zm19.12536,5.12466h9.62815v-9.62814h-9.62815Zm19.12537,5.12467h9.62814v-9.62815h-9.62814Zm19.12537,5.12466h9.62829v-9.63425H306.4061Zm19.12536,5.12467h9.62815V320.0856h-9.62815Zm19.12537,5.12466H354.285v-9.6283h-9.62814Zm19.12537,5.12466h9.62829v-9.62829H363.7822Zm19.12536,5.12467h9.62815v-9.62815h-9.62815Zm19.12537,5.12466h9.62814v-9.62814h-9.62814Zm19.12536,5.12467h9.6283v-9.62815h-9.6283Zm19.12537,5.12466h9.62814v-9.62814h-9.62814ZM459.409,365.5864h9.62814v-9.6283H459.409Zm19.12536,5.12466h9.6283v-9.6283h-9.6283Zm20.36774,3.88214h7.14355v-7.14355h-7.14355ZM83.74756,282.37457h4.81415v-4.81415H83.74756Zm16.71829,7.53174h9.6283V280.278h-9.6283Zm19.12537,5.12467h9.62814v-9.62815h-9.62814Zm19.12536,5.12466h9.62815V290.5275h-9.62815ZM157.842,305.2803h9.6283v-9.62814H157.842Zm19.12537,5.12467h9.62829v-9.62815h-9.62829Zm19.12536,5.12466h9.62815v-9.63485h-9.62815Zm19.12537,5.12467h9.62814V311.026h-9.62814Zm19.12536,5.12466h9.6283v-9.62814h-9.6283Zm19.12537,5.12467h9.62814v-9.62815h-9.62814Zm19.12537,5.12466h9.62814v-9.62814h-9.62814Zm19.12536,5.12466h9.6283v-9.62814h-9.6283Zm19.12537,5.12467H320.473v-9.6283h-9.62814Zm19.12537,5.12466h9.62814V341.774H329.966Zm19.12536,5.12467h9.6283V346.8988h-9.6283Zm19.12537,5.12466h9.62814v-9.62814h-9.633Zm19.12536,5.12467h9.62815v-9.62815h-9.62815Zm19.12537,5.12466H416.1V362.2728h-9.6283Zm19.12537,5.12466h9.62814v-9.62829h-9.62814Zm19.12536,5.12467h9.62815V372.5148h-9.62815Zm19.12537,5.12466h9.62829v-9.62814h-9.62829Zm19.12537,5.12467h9.62814v-9.62815h-9.62814Zm21.49353,2.75634h4.89181v-4.89181h-4.89181ZM71.42914,296.57028h.07995v-.08h-.07995Zm15.04883,9.201h8.23v-8.23059h-8.23Zm18.42651,5.82337h9.62814v-9.62815h-9.62814Zm19.12537,5.12466H133.658v-9.62814h-9.62814Zm19.12536,5.12466h9.6283v-9.62814h-9.6283Zm19.12537,5.12467h9.62814v-9.6283H162.276Zm19.12536,5.12466h9.62815v-9.62829h-9.62815Zm19.12537,5.12467h9.6283v-9.62815H200.526Zm19.12537,5.12466h9.62814v-9.62814h-9.62814Zm19.12536,5.12467h9.62815V337.8392H238.782Zm19.12537,5.12466h9.6283v-9.6283h-9.6283Zm19.12537,5.12466h9.62814v-9.62829h-9.62814Zm19.12536,5.12467h9.62815V353.2132h-9.62815Zm19.12537,5.12466h9.62829v-9.62814h-9.62829Zm19.12536,5.12467H344.037V363.4549h-9.62815Zm19.12537,5.12466h9.62814v-9.62814h-9.62814ZM372.65961,383.34h9.62829v-9.6283h-9.62829Zm19.12536,5.12466h9.62815v-9.6283H391.785Zm19.12537,5.12466h9.62814v-9.62814h-9.62814Zm19.12537,5.12467H439.664v-9.62814h-9.62829Zm19.12536,5.12466h9.6283v-9.62814H449.156Zm19.12537,5.12467h9.62814v-9.62815h-9.62814ZM487.4118,414.088H497.04v-9.62829H487.406Zm22.27,1.98h3.33878V412.729h-3.33878Zm-434.94-96.68335h2.32941v-2.3294H74.74182Zm15.47592,8.774h9.62815v-9.62814H90.21774Zm19.12537,5.12466h9.6283v-9.62829h-9.6283Zm19.12537,5.12467h9.62829v-9.6283h-9.62829Zm19.12536,5.12466H157.222v-9.62814h-9.62814Zm19.12537,5.12467h9.62814v-9.62815h-9.62814Zm19.12536,5.12466h9.6283v-9.62814h-9.6283Zm19.12537,5.12467h9.62814v-9.62815h-9.62814Zm19.12537,5.12466h9.62814v-9.63638h-9.62814Zm19.12536,5.12466h9.6283v-9.62829h-9.6283Zm19.12537,5.12467h9.62814V364.6524H262.346Zm19.12537,5.12466h9.62814v-9.62814h-9.63349Zm19.12536,5.12467h9.6283v-9.62815h-9.6283Zm19.12537,5.12466h9.62814V380.0264h-9.62814Zm19.12536,5.12467h9.62815v-9.6283H338.8475Zm19.12537,5.12466h9.6283v-9.6283h-9.6283Zm19.12537,5.12466h9.62814v-9.62814h-9.62814Zm19.12536,5.12467h9.62815v-9.62815H396.2236Zm19.12537,5.12466h9.62829v-9.62814H415.349Zm19.12536,5.12467h9.62815v-9.62815h-9.62815Zm19.12537,5.12466h9.62814V415.8989H453.5997Zm19.12537,5.12467h9.62829v-9.637h-9.62829Zm19.203,5.047h9.473v-9.473h-9.473Zm23.12424,1.12564h1.47537v-1.47522h-1.48163ZM77.43362,342.82013h5.82352v-5.82352H77.43362Zm17.2229,7.027h9.6283v-9.6283h-9.6283Zm19.12537,5.12466H123.41v-9.637h-9.63394Zm19.12537,5.12467h9.62814v-9.62815h-9.62814Zm19.12536,5.12466h9.6283V355.593h-9.6283Zm19.12537,5.12466h9.62814v-9.62814H171.158Zm19.12537,5.12467h9.62814v-9.6283h-9.62814Zm19.12536,5.12466h9.6283V370.9668h-9.6283Zm19.12537,5.12467h9.62814v-9.62815h-9.62814Zm19.12536,5.12466h9.62815v-9.62814h-9.62815Zm19.12537,5.12467h9.6283v-9.62815h-9.6283Zm19.12537,5.12466h9.62814v-9.6283h-9.62814Zm19.12536,5.12466h9.62815v-9.62829h-9.62815Zm19.12537,5.12467h9.6283V401.714h-9.6283Zm19.12537,5.12466h9.62814V406.8396h-9.62814Zm19.12536,5.12467h9.62814V411.9548h-9.62814Zm19.12537,5.12466h9.62829v-9.62814H381.537Zm19.12536,5.12467h9.6283v-9.63791H400.656Zm19.12537,5.12466h9.62814v-9.6283h-9.62814Zm19.12537,5.12466h9.62814v-9.62814h-9.62814Zm19.12536,5.12467h9.6283v-9.62814h-9.6283Zm19.12537,5.12466H486.792v-9.62814h-9.62814Zm19.66873,4.58115h8.54126v-8.54126H496.826Zm23.31833.932h.155v-.155h-.155ZM65.50323,356.6275h.311v-.311h-.311Zm14.7,9.55048h9.16229v-9.16245H80.19608Zm18.89236,5.35751h9.62814v-9.62814H99.09561Zm19.12537,5.12467h9.62829V367.032H118.221Zm19.12536,5.12466h9.6283v-9.6283h-9.6283Zm19.12537,5.12466h9.62814v-9.62829h-9.62814Zm19.12537,5.12467h9.62814V382.406h-9.62814Zm19.12536,5.12466h9.6283v-9.62814h-9.6283Zm19.12537,5.12467H223.476v-9.63867h-9.62814Zm19.12537,5.12466h9.62814V397.78H232.966Zm19.12536,5.12467h9.6283v-9.628h-9.6283Zm19.12537,5.12466h9.62814v-9.6283h-9.62814Zm19.12536,5.12467h9.62815V413.154h-9.62815Zm19.12537,5.12466h9.6283v-9.62814h-9.6283ZM328.6,433.03146h9.62814v-9.62814H328.6Zm19.12536,5.12467h9.62815V428.528h-9.62815Zm19.12537,5.12466H376.479V433.6525h-9.62829Zm19.12536,5.12467h9.62815v-9.6283H385.9761Zm19.12537,5.12466h9.62814V443.902h-9.62814Zm19.12537,5.12467h9.62829v-9.62815h-9.62829Zm19.12536,5.12466h9.62815v-9.62814H443.3522Zm19.12537,5.12466h9.62814v-9.63928h-9.62814Zm19.12537,5.12467h9.62829v-9.6283h-9.62829Zm20.60073,3.64929h6.67756v-6.68823H502.196ZM68.38959,379.86893H71.806v-3.41645H68.38959Zm16.02,8.23h9.62814v-9.62815H84.40964Zm19.12536,5.12466h9.6283V383.5849H103.535Zm19.12537,5.12467h9.62814v-9.6283h-9.62814Zm19.12537,5.12466h9.62814v-9.63806h-9.62814Zm19.12536,5.12466h9.6283v-9.62814h-9.6283Zm19.12537,5.12467h9.62814v-9.62814h-9.62814Zm19.12536,5.12466H208.79v-9.62814h-9.62815Zm19.12537,5.12467h9.6283v-9.6283h-9.6283Zm19.12537,5.12466h9.62814v-9.62829h-9.62814Zm19.12536,5.12467h9.62815v-9.62815h-9.62815Zm19.12537,5.12466h9.6283v-9.62814h-9.6283Zm19.12537,5.12466h9.62814v-9.62814h-9.62814Zm19.12536,5.12467h9.62815v-9.6283H313.9061Zm19.12537,5.12466h9.62829v-9.62829H333.0394Zm19.12536,5.12467h9.62815v-9.63944h-9.63684Zm19.12537,5.12466h9.62814v-9.62814h-9.62814Zm19.12537,5.12467h9.62829v-9.63868H390.4155Zm19.12536,5.12466h9.6283v-9.62814h-9.6283Zm19.12537,5.12466h9.628v-9.62829h-9.62814Zm19.12537,5.12467h9.62814v-9.6283H447.7916Zm19.12536,5.12466h9.6283v-9.62814H466.917Zm19.12537,5.12467h9.62814v-9.62815h-9.62814Zm21.41586,2.834h5.04715v-5.047h-5.04715Zm-436.4241-95.219h6.98837v-6.98837H71.03409Zm17.80533,6.44455h9.62829v-9.6283H88.83942Zm19.12536,5.12466h9.62815V405.273h-9.62815Zm19.12537,5.12467h9.62814v-9.62815h-9.62814Zm19.12537,5.12466h9.62829v-9.62814h-9.62829Zm19.12536,5.12467H174.969v-9.6283h-9.62814Zm19.12537,5.12466h9.62814v-9.6283h-9.6283Zm19.12536,5.12466h9.6283V430.8963h-9.6283Zm19.12537,5.12467h9.62814V436.021H222.717Zm19.12537,5.12466h9.62814v-9.6289h-9.62814Zm19.12536,5.12467h9.6283v-9.62815h-9.6283Zm19.12537,5.12466h9.62814v-9.62829h-9.62814Zm19.12536,5.12467h9.62815v-9.6283h-9.62815Zm19.12537,5.12466h9.6283v-9.62814h-9.6283Zm19.12537,5.12466h9.62814V466.769h-9.62814Zm19.12536,5.12467h9.62815v-9.62814h-9.62815Zm19.12537,5.12466h9.6283v-9.62814h-9.6283Zm19.12537,5.12467h9.62814v-9.6283h-9.62814Zm19.12536,5.12466h9.62815v-9.62829h-9.62815Zm19.12537,5.12467h9.62829v-9.62815H433.096Zm19.12536,5.12466h9.62815v-9.62814h-9.62815Zm19.12537,5.12466h9.62814V502.6416H471.346Zm19.12537,5.12467h9.62829v-9.62952h-9.62829Zm22.54181,1.70822h2.79525v-2.79526h-2.79525ZM59.2981,416.94534h1.087v-1.087h-1.087ZM74.2305,426.263h9.473V416.79h-9.473Zm19.0477,5.20218h9.62814V421.837H93.2782Zm19.12536,5.12466h9.6283v-9.62814h-9.6283Zm19.12537,5.12467h9.62814v-9.62967h-9.62814Zm19.12537,5.12466h9.62814v-9.62829H150.6543Zm19.12536,5.12467h9.6283V442.3349h-9.6283Zm19.12537,5.12466h9.62814v-9.62814H188.905Zm19.12537,5.12466h9.62814V452.585H208.0304Zm19.12536,5.12467h9.6283v-9.62814h-9.6283Zm19.12537,5.12466h9.62814v-9.62829h-9.62814Zm19.12536,5.12467h9.62815v-9.6283h-9.62815Zm19.12537,5.12466h9.6283v-9.62814h-9.6283Zm19.12537,5.12467h9.62814v-9.62815H303.656Zm19.12536,5.12466h9.62815V483.333h-9.62815Zm19.12537,5.12466h9.62829v-9.62814H341.908Zm19.12537,5.12467h9.62829v-9.6283h-9.62829Zm19.12536,5.12466h9.62738v-9.63028h-9.62814Zm19.12537,5.12467h9.62814v-9.62815h-9.62814Zm19.12536,5.12466h9.6283v-9.62967h-9.6283Zm19.12537,5.12467h9.62814V514.081h-9.62814Zm19.12537,5.12466h9.62814v-9.6283h-9.62814Zm19.12536,5.12467h9.6283v-9.6283h-9.6283Zm19.16413,5.08575h9.55062v-9.55063h-9.55062Zm23.55117.699h.699v-.699h-.699Zm-456.43341-99.44h4.42582v-4.426H62.066Zm16.524,7.72568H88.2196v-9.62814H78.59146Zm19.12537,5.12466h9.62829v-9.62829H97.71683Zm19.12536,5.12467h9.62815v-9.6283h-9.62815Zm19.12537,5.12466h9.62814v-9.62814H135.966Zm19.12537,5.12467h9.62829v-9.62815h-9.62829Zm19.12536,5.12466h9.62815v-9.62814h-9.62815Zm19.12537,5.12467h9.62814v-9.6283h-9.62814Zm19.12536,5.12466h9.6283v-9.6283H212.469Zm19.12537,5.12466h9.62814V479.398h-9.62814Zm19.12537,5.12467h9.62814v-9.62814h-9.62814Zm19.12536,5.12466h9.6283v-9.628h-9.6283Zm19.12537,5.12467h9.62814V494.772h-9.62814Zm19.12537,5.12466H317.724v-9.62829h-9.62814Zm19.12536,5.12467h9.6283v-9.6283h-9.6283Zm19.12537,5.12466h9.62814V510.146h-9.62814Zm19.12536,5.12466h9.62815v-9.62814H365.472Zm19.12537,5.12467h9.6283v-9.62814h-9.6283Zm19.12537,5.12466h9.62814V525.52h-9.62814Zm19.12536,5.12467h9.62815v-9.631h-9.63013Zm19.12537,5.12466h9.6283V535.7692h-9.6283Zm19.12537,5.12467h9.62814V540.894h-9.62814Zm19.12536,5.12466h9.62814v-9.62814h-9.62814Zm19.74655,4.50348h8.38593v-8.38593H499.9707Zm23.163,1.08688h.311v-.311h-.311ZM49.55276,454.68979h.08v-.08h-.08ZM64.718,463.77441h7.99774v-7.99774H64.718Zm18.30993,5.94H92.6561v-9.62815H83.028Zm19.12537,5.12466h9.62814v-9.62814h-9.62814Zm19.12537,5.12466H130.907v-9.62814h-9.62829Zm19.12536,5.12467h9.62815v-9.62814h-9.62815Zm19.12537,5.12466h9.62814v-9.62814h-9.62814Zm19.12537,5.12467h9.62829v-9.6283h-9.62829Zm19.12536,5.12466h9.62814V490.8342h-9.62814Zm19.12537,5.12467h9.62814v-9.62815H216.906Zm19.12536,5.12466h9.6283v-9.62814h-9.6283Zm19.12537,5.12466h9.62814v-9.62814H255.1561Zm19.12537,5.12467h9.62814v-9.6283h-9.62814Zm19.12536,5.12466h9.6283v-9.62829H293.407Zm19.12537,5.12467h9.62829v-9.62815h-9.62829Zm19.12536,5.12466h9.6283v-9.62814h-9.62814Zm19.12537,5.12467h9.62814v-9.62815h-9.62814Zm19.12537,5.12466h9.62829v-9.62814h-9.62829Zm19.12536,5.12466H398.662v-9.62829h-9.62815Zm19.12537,5.12467h9.62814V547.2049h-9.62814Zm19.12537,5.12466h9.62829v-9.62814h-9.62829Zm19.12536,5.12467h9.62815v-9.62815h-9.62815Zm19.12537,5.12466h9.62814V562.5795h-9.62814Zm19.12536,5.12467h9.6283V567.704h-9.6283Zm20.64,3.61053h6.6v-6.6h-6.6ZM53.02124,477.34909H55.04v-2.01874H53.02124Zm15.32059,8.92929H77.97v-9.62814H68.34183Zm19.12536,5.12467h9.62815v-9.62922H87.466Zm19.12537,5.12466h9.6283v-9.62814h-9.6283Zm19.12537,5.12466h9.62814v-9.62829h-9.62814Zm19.12536,5.12467h9.62815v-9.6283h-9.62815Zm19.12537,5.12466H173.597v-9.62814h-9.62829Zm19.12536,5.12467h9.62815v-9.62815H183.094Zm19.12537,5.12466h9.62814v-9.62814h-9.62814Zm19.12537,5.12467h9.62829v-9.6283h-9.62829Zm19.12536,5.12466h9.62815v-9.6283h-9.62815Zm19.12537,5.12466h9.62814v-9.62829h-9.62814Zm19.12537,5.12467h9.62829v-9.62814h-9.62829Zm19.12536,5.12466h9.62815v-9.628h-9.62815Zm19.12537,5.12467h9.62814v-9.62815h-9.62814Zm19.12536,5.12466h9.6283v-9.62982H336.096Zm19.12537,5.12467h9.62814v-9.6283h-9.62814Zm19.12537,5.12466h9.62814v-9.62814H374.346Zm19.12536,5.12466h9.6283v-9.62814h-9.6283Zm19.12537,5.12467h9.62814V568.8942h-9.62814Zm19.12537,5.12466h9.62814v-9.62814h-9.62814Zm19.12536,5.12467h9.6283v-9.6283h-9.6283Zm19.12537,5.12466h9.62814V584.268h-9.62814Zm19.12536,5.12467H498.728v-9.62815h-9.62815Zm21.80405,2.44583h4.27063v-4.27h-4.27063ZM55.71289,500.78476h5.513v-5.513h-5.513Zm17.06772,7.18231h9.6283v-9.62829h-9.6283ZM91.906,513.09174h9.62814v-9.6283H91.906Zm19.12536,5.12466h9.62814v-9.62814h-9.62814Zm19.12537,5.12466H139.785v-9.62814h-9.62829Zm19.12536,5.12467h9.62815v-9.62814h-9.62815Zm19.12537,5.12466h9.62814v-9.62814h-9.62951Zm19.12537,5.12467h9.62829v-9.628h-9.62829Zm19.12536,5.12466h9.62815v-9.62829H206.656Zm19.12537,5.12467h9.62814v-9.62815h-9.62814Zm19.12537,5.12466h9.62829v-9.62814h-9.62829Zm19.12536,5.12466h9.6283v-9.62814h-9.6283Zm19.12537,5.12467h9.628v-9.62814h-9.62815ZM302.285,569.463h9.62815v-9.62829H302.285Zm19.12537,5.12467h9.6283v-9.6283h-9.6283Zm19.12537,5.12466h9.62814v-9.62814h-9.62814ZM359.6611,584.837h9.62815v-9.62815H359.6611Zm19.12537,5.12466h9.62829v-9.62814h-9.62829Zm19.12536,5.12466H407.54v-9.62814h-9.62815ZM417.0372,600.211h9.62814v-9.6283H417.0372Zm19.12537,5.12466h9.62829v-9.628h-9.62829Zm19.12536,5.12467h9.62815v-9.62815h-9.63ZM474.4133,615.585h9.62814v-9.62814H474.4133Zm19.12537,5.12467H503.167v-9.62815h-9.63089Zm22.81356,1.43646H518.604v-2.25174h-2.25174ZM43.70514,514.6701h.155v-.155h-.155Zm14.73831,9.51172h8.92944v-8.92944H58.44345Zm18.77594,5.47394h9.62814v-9.63089H77.21939Zm19.12537,5.12467h9.62814v-9.62815H96.34476Zm19.12536,5.12466h9.6283V530.277h-9.6283Zm19.12537,5.12466h9.62814v-9.62814h-9.62814Zm19.12537,5.12467H163.349v-9.6283h-9.62814Zm19.12536,5.12466h9.6283v-9.62829h-9.6283Zm19.12537,5.12467h9.62814V550.7756h-9.62814Zm19.12536,5.12466h9.62815v-9.62814H211.097Zm19.12537,5.12467h9.6283v-9.62815h-9.6283Zm19.12537,5.12466h9.62814V566.1496h-9.62814Zm19.12536,5.12466h9.62815v-9.62829h-9.62815Zm19.12537,5.12467h9.6283v-9.6283H287.596Zm19.12537,5.12466h9.62814v-9.62814h-9.62814Zm19.12536,5.12467h9.62814v-9.6315H325.8461Zm19.12537,5.12466h9.62829v-9.62814h-9.62829Zm19.12536,5.12467H373.728v-9.6283h-9.62815Zm19.12537,5.12466h9.62814v-9.6283h-9.62814Zm19.12537,5.12466h9.62829v-9.62814h-9.62829Zm19.12536,5.12467h9.62815v-9.62814H421.476Zm19.12537,5.12466h9.62814v-9.62814h-9.62814Zm19.12537,5.12467H469.355V622.5209h-9.62829Zm19.51354,4.73633H488.092v-8.85163h-8.85178Zm22.23115,2.01873h2.64007V636.264h-2.64007ZM46.66855,537.83417h3.10593v-3.10929H46.66611Zm15.86426,8.38577H72.161V536.5918H62.53281Zm19.12536,5.12466h9.6283v-9.62814h-9.6283Zm19.12537,5.12467h9.62814V546.841h-9.62814Zm19.12537,5.12466h9.62814v-9.62829h-9.631Zm19.12536,5.12467h9.6283v-9.62815h-9.6283Zm19.12537,5.12466h9.62814v-9.62814h-9.62906Zm19.12536,5.12467h9.62815v-9.62815H177.285Zm19.12537,5.12466h9.6283v-9.62814h-9.6283Zm19.12537,5.12466h9.62814v-9.63241h-9.62814Zm19.12536,5.12467H244.286v-9.6283H234.6579Zm19.12537,5.12466h9.62829v-9.62814h-9.62829Zm19.12536,5.12467h9.6283V592.9631h-9.6283Zm19.12537,5.12466h9.62814v-9.62814H292.0372Zm19.12537,5.12467h9.62814v-9.62815h-9.62814Zm19.12536,5.12466h9.6283v-9.6283h-9.6283Zm19.12537,5.12466h9.62814v-9.62829H349.4133Zm19.12537,5.12467h9.62814v-9.62814h-9.62814Zm19.12536,5.12466h9.6283v-9.62814H387.664Zm19.12537,5.12467h9.62814v-9.62815H406.786Zm19.12536,5.12466h9.62815v-9.62814h-9.62815Zm19.2418,5.00824h9.39529v-9.39529h-9.39529Zm21.68777,2.56226H471.115v-4.27063h-4.27063Zm-417.484-89.88922h6.6v-6.6h-6.6Zm17.61124,6.63879h9.62829v-9.6283H66.97159ZM86.097,573.03329H95.7251V563.405H86.097Zm19.12537,5.12467h9.62814v-9.63318h-9.62814Zm19.12537,5.12466H133.976v-9.62814h-9.62829Zm19.12536,5.12467h9.62815v-9.62815h-9.62815Zm19.12537,5.12466h9.62814v-9.62814h-9.62814Zm19.12537,5.12467h9.62829v-9.6283h-9.62829Zm19.12536,5.12466h9.62814V594.153h-9.62814Zm19.12537,5.12466h9.62814V599.2778h-9.62814Zm19.12536,5.12467h9.6283v-9.62814h-9.63211Zm19.12537,5.12466h9.62814v-9.62814h-9.62814Zm19.12537,5.12467h9.62814v-9.62815H277.3497ZM296.476,629.4046h9.6283v-9.62829H296.476Zm19.12537,5.12467h9.62814V624.901h-9.62814Zm19.12537,5.12466h9.62814v-9.62814h-9.62814Zm19.12536,5.12466h9.6283v-9.63378h-9.6283Zm19.12537,5.12467h9.62814v-9.62814h-9.62814Zm19.12536,5.12466H401.731v-9.62829h-9.62815Zm19.12537,5.12467h9.6283v-9.6283h-9.6283Zm20.79483,3.4552h6.28937v-6.28937H432.023Zm21.99814,2.25174h.544v-.544h-.544ZM37.54227,574.95483h.854v-.854h-.854Zm14.81582,9.43406h9.473v-9.473h-9.473Zm19.0477,5.20233h9.62815v-9.62815h-9.628Zm19.12537,5.12466h9.62829v-9.62814H90.53116Zm19.12536,5.12467h9.62815V590.2124h-9.62815Zm19.12537,5.12466H138.41v-9.6283h-9.62814Zm19.12537,5.12466h9.62829v-9.62829h-9.62829Zm19.12536,5.12467h9.62815V605.5864h-9.62815ZM186.158,620.3392h9.628v-9.62814h-9.62814Zm19.12537,5.12467h9.62829v-9.62815h-9.62829Zm19.12536,5.12466h9.6283v-9.62814h-9.6283Zm19.12537,5.12467h9.62814v-9.6283h-9.62814Zm19.12536,5.12466h9.62815v-9.6283h-9.62815Zm19.12537,5.12466h9.6283v-9.62814h-9.6283Zm19.12537,5.12467h9.62814v-9.62814h-9.62814Zm19.12536,5.12466h9.62815v-9.62814h-9.62815Zm19.12537,5.12467h9.6283v-9.62815h-9.6283Zm19.12537,5.12466h9.62814v-9.62829H358.286Zm19.12536,5.12467h9.62814v-9.6283h-9.62814ZM397.43,675.81757h7.84226v-7.84272H397.43Zm22.34772,1.90216h1.39755v-1.39756h-1.39755Zm-379.42749-79.446h4.11529v-4.11529H40.35019Zm16.36887,7.88117H66.3472v-9.62815H56.71906Zm19.12536,5.12466h9.6283v-9.62814h-9.6283Zm19.12537,5.12467h9.62814V606.776H94.96979Zm19.12536,5.12466h9.62815v-9.6283h-9.62815Zm19.12537,5.12466h9.6283v-9.62875h-9.6283Zm19.12537,5.12467H161.974v-9.62814h-9.62814Zm19.12536,5.12466h9.62815v-9.62814h-9.62815Zm19.12537,5.12467h9.62829v-9.62815H190.596Zm19.12536,5.12466h9.62815V637.524H209.722Zm19.12537,5.12467h9.62814v-9.6283h-9.62814Zm19.12537,5.12466H257.601v-9.62814h-9.62829Zm19.12536,5.12467h9.62815V652.8981h-9.62815Zm19.12537,5.12466h9.62814v-9.62814h-9.62814Zm19.12537,5.12466h9.62829v-9.62814h-9.62829Zm19.12536,5.12467h9.62815v-9.6283h-9.62815Zm19.12537,5.12466h9.62814v-9.62829h-9.62814Zm19.47464,4.77524h8.92944V678.8707h-8.92944Zm22.19238,2.0575h2.79526v-2.79526H385.266ZM42.964,621.787h7.76474v-7.76474H42.964Zm18.19366,6.05636h9.62815V618.215H61.15768ZM80.28305,632.968h9.62814v-9.6283H80.28305Zm19.12537,5.12466h9.62829v-9.62814H99.40842Zm19.12536,5.12467h9.62815v-9.62815h-9.62815Zm19.12537,5.12466h9.62692v-9.62814h-9.62814Zm19.12537,5.12466h9.62829v-9.62829h-9.62829Zm19.12536,5.12467h9.6283V648.963h-9.6283Zm19.12537,5.12466h9.62814v-9.62829h-9.62814Zm19.12536,5.12467h9.62815v-9.62815h-9.62815ZM233.286,673.9653h9.6283v-9.62814H233.286ZM252.41135,679.09h9.62814v-9.62815h-9.62814Zm19.12536,5.12466h9.62815v-9.62982h-9.62815Zm19.12537,5.12466h9.62829V679.711h-9.62829Zm19.12537,5.12467h9.62814v-9.62814h-9.62952Zm19.16412,5.08575h9.55063v-9.55063h-9.55063Zm21.60995,2.64008h4.58115v-4.58115h-4.58115Zm21.3382,2.91168h.155v-.155h-.155Zm-340.63324-69.74h1.78589v-1.78589H31.26648Zm15.20416,9.04587h9.62815v-9.62814H46.47064ZM65.596,649.532h9.62814v-9.62814H65.596Zm19.12536,5.12467h9.6283v-9.62815h-9.6283Zm19.12537,5.12466h9.62814V650.1532h-9.62814Zm19.12537,5.12467h9.62814v-9.6312h-9.62814Zm19.12536,5.12466h9.6283v-9.6283H142.0961Zm19.12537,5.12466H170.851v-9.628h-9.62814ZM180.34821,680.28h9.62814v-9.62814h-9.62814Zm19.12536,5.12466h9.6283v-9.62814h-9.6283Zm19.12537,5.12467h9.62814v-9.62815h-9.62814ZM237.7243,695.654h9.62815V686.0257H237.7243Zm19.12537,5.12467h9.6283v-9.6283h-9.6283Zm19.12537,5.12466h9.62814v-9.62814H275.975ZM295.1004,711.028h9.62815v-9.62814H295.1004Zm20.71717,3.53287h6.4447v-6.4447H315.816Zm22.076,2.17407h.54306v-.54306h-.54306ZM33.958,658.797h5.28v-5.28h-5.28Zm16.95114,7.29873h9.62829v-9.63089H50.90912Zm19.12536,5.12467h9.62815v-9.62815H70.03448Zm19.12537,5.12466H98.786v-9.62829H89.15787Zm19.12537,5.12467h9.62829v-9.6283h-9.62829Zm19.12536,5.12466h9.6283v-9.62814h-9.6283Zm19.12537,5.12467h9.62814v-9.62815H146.536Zm19.12537,5.12466h9.62814v-9.62814h-9.62814Zm19.12536,5.12466h9.6283v-9.62814h-9.6283Zm19.12537,5.12467h9.62814v-9.6283h-9.62814Zm19.12536,5.12466h9.62815v-9.62829h-9.62815Zm19.12537,5.12467h9.6283v-9.62815h-9.6283Zm19.12537,5.12466h9.62814v-9.63226H261.286Zm19.90173,4.34815h8.07526v-8.07526h-8.07526Zm22.34772,1.90216h1.63055v-1.63056h-1.62994ZM21.83121,672.7948h.155v-.155h-.155Zm14.85473,9.39514h8.69645V673.4935H36.6861ZM55.34546,687.78H64.9736v-9.6283H55.34546Zm19.12537,5.12466H84.099v-9.62814H74.47083Zm19.12536,5.12467h9.6283v-9.62815H93.596Zm19.12537,5.12466h9.62814v-9.62814h-9.62814Zm19.12536,5.12467h9.62815v-9.62815h-9.62815Zm19.12537,5.12466h9.6283v-9.62845h-9.6283Zm19.12537,5.12466h9.62814v-9.62829h-9.62814Zm19.12536,5.12467h9.62815v-9.62784H189.223Zm19.12537,5.12466h9.62829v-9.62814h-9.62829Zm19.12536,5.12467h9.62815v-9.62815h-9.62815Zm19.47464,4.77524h8.92945v-8.92945h-8.92945Zm22.11472,2.13516h2.95059v-2.95059h-2.95059ZM24.94949,695.80231h2.79526v-2.79526H24.94949Zm15.70893,8.5411H50.2861v-9.6286H40.658Zm19.12536,5.12467h9.6283v-9.62814h-9.6283Zm19.12537,5.12466h9.62814V704.9649H78.90915Zm19.12537,5.12467h9.62814v-9.62815H98.03452Zm19.12536,5.12466h9.6283v-9.62829h-9.6283Zm19.12537,5.12467h9.62829v-9.6283h-9.62829Zm19.12536,5.12466h9.62815v-9.62814h-9.62815Zm19.12537,5.12466h9.62814v-9.62814H174.536Zm19.12537,5.12467h9.62829v-9.62814h-9.62829Zm19.16427,5.08575h9.55063v-9.55063h-9.55063Zm21.41587,2.83417h4.96933v-4.96948h-4.96933ZM255.735,756.017h.233v-.233h-.233ZM27.60208,719.27628h6.367v-6.367h-6.367Zm17.49466,6.75521H54.725v-9.62814H45.096Zm19.12537,5.12467h9.62814v-9.6283H64.22211Zm19.12536,5.12466h9.62815v-9.62829H83.34747Zm19.12537,5.12467h9.6283v-9.6283h-9.6283Zm19.12537,5.12466h9.62814V736.902h-9.62814Zm19.12536,5.12467h9.62815v-9.62815h-9.62815Zm19.12537,5.12466h9.62829v-9.62814h-9.62829Zm19.12536,5.12466h9.62815v-9.62936H178.9743Zm20.56183,3.688h6.75537v-6.75537h-6.75537Zm22.19239,2.05765h.621v-.621h-.621Zm-205.9018-34.722h.54306v-.54306h-.54306Zm14.66065,9.58923h9.473v-9.473h-9.473Zm19.04769,5.20233h9.62815v-9.62829H49.53506Zm19.12537,5.12467h9.6283v-9.62922h-9.6283Zm19.12537,5.12466h9.62829v-9.62814H87.7858Zm19.12536,5.12466h9.62815v-9.62814h-9.62815Zm19.12537,5.12467h9.62814v-9.62814h-9.6286Zm19.12537,5.12466h9.62829v-9.62829H145.1619Zm19.863,4.3869h8.15293v-8.15292h-8.15308Zm22.309,1.94108h1.78589v-1.78589h-1.78589ZM18.59558,756.28494H22.478v-3.88229H18.59558ZM34.848,764.28253h9.62815v-9.62814H34.848Zm19.12537,5.12467h9.62829v-9.62815H53.97339Zm19.12536,5.12466H82.7269v-9.62814H73.09875Zm19.12537,5.12466h9.62814v-9.62814H92.22412Zm19.12537,5.12467h9.62829v-9.6283h-9.62829Zm19.35837,4.89166h9.16244v-9.16229h-9.16244Zm22.037,2.21283h3.33878v-3.33877H152.7449Zm20.75592,3.494h.08v-.08h-.08ZM21.248,779.75861h7.45407v-7.45423H21.248Zm18.03817,6.21154h9.6283V776.342h-9.6283Zm19.12537,5.12467H68.0397v-9.6283H58.41156Zm19.12537,5.12466h9.62814v-9.62829H77.536Zm19.203,5.04685h9.473v-9.473H96.74Zm21.29944,2.95044h5.12466V799.0921H118.0394Zm21.60995,2.64007h.155v-.155h-.155ZM9.51126,793.371h1.55289v-1.55289H9.51126Zm15.1265,9.12338h9.55063v-9.55H24.63776Zm19.08645,5.16358h9.62815v-9.6283H43.72421Zm19.12537,5.12466h9.62829v-9.62814H62.84958ZM83.25607,816.626H90.322v-7.06574H83.25607Zm22.2313,2.01873h.854v-.854H105.486ZM12.24106,816.767h4.96933v-4.96933H12.24106ZM29.037,824.221h9.62829V814.5929H29.0361Zm19.82422,4.42581h8.23059v-8.232H48.86124ZM71.17,830.58792H73.0336v-1.86355H71.17Zm-71.17.296H.08v-.08H0Zm15.1265,9.12354h8.07525v-8.07526H15.1265Zm21.3771,2.87277h3.57178v-3.57178H36.5036ZM4.1275,852.88208h.699v-.699h-.699Zm19.35822,4.89166h.233v-.233h-.233Z" fill="#f65e4b"/>
        <polygon id="atom_16_line" data-name="atom 16 line" points="350.026 156.955 391.206 18.825 378.946 15.105 336.326 158.115 190.656 170.415 191.726 183.305 332.356 171.425 304.556 264.705 186.366 258.675 185.716 271.585 300.756 277.455 268.336 386.205 43.306 331.145 40.286 343.705 264.646 398.595 239.616 482.555 135.326 471.585 134.006 484.435 235.866 495.145 207.026 591.895 92.056 549.265 87.646 561.385 203.336 604.295 136.136 829.735 148.396 833.455 215.366 608.755 379.636 669.665 384.046 657.545 219.056 596.355 248.826 496.505 426.826 515.225 428.146 502.385 252.576 483.915 277.096 401.645 397.206 431.025 400.216 418.465 280.796 389.255 313.916 278.125 508.286 288.025 508.926 275.115 317.716 265.375 346.066 170.275 583.456 150.225 582.386 137.335 350.026 156.955" fill="#110a4c"/>
        <g id="atom_16_dots-b" data-name="atom 16 dots-b">
          <ellipse id="ellipse4620" cx="508.60291" cy="281.56906" rx="16.79993" ry="16.96213" fill="#110a4c"/>
          <ellipse id="ellipse4622" cx="134.90875" cy="476.31668" rx="16.79993" ry="16.96213" fill="#110a4c"/>
          <ellipse id="ellipse4624" cx="385.07874" cy="16.96213" rx="16.79993" ry="16.96213" fill="#110a4c"/>
        </g>
        <g id="atom_16_dots-a" data-name="atom 16 dots-a">
          <ellipse id="ellipse4627" cx="567.97607" cy="143.50372" rx="23.99994" ry="24.23157" fill="#110a4c"/>
          <ellipse id="ellipse4629" cx="136.09879" cy="845.33066" rx="23.99994" ry="24.23157" fill="#110a4c"/>
          <ellipse id="ellipse4631" cx="41.79581" cy="337.42386" rx="26.68442" ry="26.94046" fill="#110a4c"/>
          <ellipse id="ellipse4633" cx="381.84143" cy="663.60428" rx="26.68442" ry="26.94046" fill="#110a4c"/>
        </g>
      </g>
    </g>
  </g>
</svg>
