<svg xmlns="http://www.w3.org/2000/svg" width="767.54216" height="731.60242" viewBox="0 0 767.54216 731.60242">
  <g id="Layer_2" data-name="Layer 2">
    <g id="svg31">
      <g id="atom_01" data-name="atom 01">
        <polygon id="atom_01_bg" data-name="atom 01 bg" points="724.845 399.189 660.555 183.099 454.205 79.799 226.675 134.699 140.955 359.649 175.535 568.179 337.325 694.129 609.415 601.479 724.845 399.189" fill="#fff2d7"/>
        <path id="atom_01_ht" data-name="atom 01 ht" d="M458.44226,35.81293l1.21521.258-.25833,1.21521-1.21521-.258Zm31.31882,7.41913.24307.05005.052-.24307-.24307-.05Zm-115.412,8.17368.85068.181.18082-.851-.85068-.181ZM400.99,60.81522l8.02,1.70487,1.70471-8.02-8.02-1.70487Zm25.97779,9.83994,16.28379,3.4613,3.46123-16.28387L430.429,54.37144Zm30.03,7.20871,17.86362,3.797,3.797-17.86346-17.86346-3.797Zm33.27171,5.10345,14.09638,2.99637,2.99621-14.09637-14.0963-2.99637Zm33.93471,4.67285,9.23561,1.963,1.963-9.23554-9.23554-1.963Zm33.86108,4.72077,4.49624.956.95573-4.49615-4.49623-.956Zm33.27157,5.10345.72906.155.155-.72906-.72907-.155ZM290.73528,65.6399l.1215.03006.026-.121-.1215-.03006ZM318.997,73.99683l4.61776.98206.98153-4.61777-4.61777-.98205Zm25.83,9.93576,13.12431,2.79007,2.79-13.12423-13.12423-2.79007Zm27.746,8.69187,18.47122,3.92624,3.92609-18.47107-18.47107-3.92624Zm30.84,6.68228,18.71421,3.978L426.105,84.57056l-18.71422-3.97781Zm30.9877,6.58676,18.71422,3.97781,3.97781-18.71414-18.71422-3.978Zm30.9877,6.58661,18.71422,3.97781,3.97781-18.71414L469.36618,93.766Zm30.9877,6.58676,18.71422,3.97781,3.97781-18.71414L500.354,100.35273Zm30.98778,6.58661,18.71406,3.97781,3.97782-18.71414-18.71407-3.97781Zm31.135,6.49094,18.47107,3.92608,3.92616-18.47107L562.425,113.67335Zm32.68227,5.48614,15.67612,3.33206,3.33213-15.67611-15.67619-3.33207Zm33.861,4.72061,10.93689,2.32468L638.3047,133.739l-10.93688-2.32468Zm33.9347,4.67285,6.07613,1.29151,1.2915-6.07605-6.07612-1.29135Zm34.00841,4.62494,1.09368.23194.233-1.09375-1.09368-.23194Zm-456.35-64.23156,1.82281.387.3875-1.82282-1.82289-.387Zm26.34621,9.60083,9.4786,2.01477,2.0147-9.47861-9.47861-2.01477Zm26.42,9.55307,17.0129,3.61618,3.61618-17.01294-17.01279-3.61588Zm29.95632,7.25647,18.71407,3.97781,3.97781-18.71414L323.3356,95.11362Zm30.9877,6.5866,18.71407,3.97782,3.97789-18.71414-18.71422-3.978Zm30.9877,6.58661,18.71422,3.978,3.97781-18.71414L385.311,108.287Zm30.9877,6.58676,18.71422,3.97782,3.97782-18.71414-18.71422-3.97782Zm30.98771,6.58661,18.71421,3.97782,3.97782-18.71414-18.71407-3.97782Zm30.9877,6.58677,18.71422,3.97781,3.97781-18.71414L478.2748,128.047Zm30.98777,6.5866,18.71407,3.97782L527.976,138.6114l-18.71406-3.97782Zm30.98771,6.58661,18.71406,3.978,3.97782-18.71414-18.71407-3.97782Zm30.9877,6.58676,18.71406,3.97782,3.97789-18.71414-18.71421-3.978Zm30.9877,6.58661,18.71406,3.97782,3.97789-18.71414-18.71421-3.97782Zm30.9877,6.58676,18.71422,3.97782,3.97781-18.71414-18.71422-3.97782Zm31.35613,6.34736,18.10653,3.84872,3.84873-18.10654-18.10654-3.84872Zm40.19706.60592,2.91649.62.62-2.91657-2.91649-.62ZM184.59876,107.85548l.12162.03006.026-.121-.12149-.03006Zm22.7361,11.94534,13.7318,2.91885,2.91882-13.73184-13.73181-2.9187Zm28.04069,8.50006,18.59268,3.952,3.95192-18.59253-18.59261-3.952Zm30.91412,6.63452,18.7141,3.97781,3.97781-18.71414-18.7141-3.97781Zm30.9877,6.58661,18.7141,3.978,3.97782-18.71415L301.25518,122.808Zm30.98766,6.58676,18.71407,3.97782,3.97789-18.71415-18.71422-3.978Zm30.9877,6.58661,18.71422,3.97781,3.97782-18.714-18.71422-3.97781Zm30.9877,6.58676L408.95465,165.26l3.97782-18.71415L394.21825,142.568Zm30.98771,6.58661,18.71421,3.97781,3.97782-18.71414-18.71407-3.97781Zm30.98777,6.58676L470.93,178.43333l3.97781-18.71415-18.71406-3.97781Zm30.98771,6.58661,18.71406,3.97781,3.97781-18.71414-18.71406-3.978Zm30.9877,6.58661,18.71406,3.978,3.97782-18.71415-18.71407-3.97781Zm30.9877,6.58676,18.71406,3.97782,3.97789-18.71415-18.71421-3.97781Zm30.9877,6.58661,18.71422,3.97781,3.97781-18.71414-18.714-3.97735Zm30.988,6.58737,18.71421,3.97782,3.97782-18.71415-18.71422-3.97781Zm30.9877,6.58661,18.71422,3.97781,3.97781-18.71414-18.71422-3.97781Zm31.0614,6.53885,18.5926,3.952,3.952-18.59253-18.5926-3.952Zm40.12352.654,3.524.74906.749-3.52417-3.52409-.74906Zm-521.93611-75.06,10.20771,2.17,2.17-10.20783-10.20771-2.16995Zm25.8305,9.93592,18.7141,3.97781,3.97781-18.71414-18.7141-3.97781Zm30.9877,6.58661,18.7141,3.97781,3.97781-18.71414-18.7141-3.978Zm30.9877,6.58661,18.7141,3.978,3.97789-18.71414-18.71422-3.97781Zm30.9877,6.58676,18.7141,3.97781,3.97789-18.71414-18.71452-3.97858Zm30.98766,6.58661,18.71422,3.97781,3.97781-18.71414-18.71421-3.97782Zm30.9877,6.58676,18.71422,3.97781,3.97782-18.71414L372.138,170.26408Zm30.98771,6.58661,18.71421,3.97781,3.97782-18.71414-18.71407-3.97782Zm30.98777,6.5866,18.71407,3.978,3.97781-18.71414-18.71406-3.97781Zm30.9877,6.58677,18.71407,3.97781,3.97781-18.71414-18.71406-3.978Zm30.98771,6.58661,18.71406,3.97781,3.97782-18.71414-18.71407-3.97782Zm30.9877,6.58676,18.71406,3.97781,3.97789-18.71414-18.71422-3.97782Zm30.9877,6.58661,18.71422,3.97781,3.97781-18.71414L558.0643,209.784Zm30.9877,6.58676,18.71422,3.97781,3.97781-18.71414-18.71452-3.97843Zm30.9877,6.58661,18.71422,3.97781,3.97781-18.71414-18.71421-3.978Zm30.9877,6.5866,18.71422,3.978,3.97782-18.71414-18.71407-3.97781Zm31.1351,6.49094,18.47107,3.92609,3.92617-18.47107L682.11086,236.278Zm39.6077.98908,4.25324.90393.904-4.25324-4.25323-.90393Zm-548.65059-84.422,3.8887.827.8265-3.88855-3.88859-.827Zm21.9994,12.4237,18.7141,3.978,3.97782-18.71414L195.119,165.02589Zm30.9877,6.58677,18.7141,3.97781,3.97782-18.71414-18.71411-3.978Zm30.9877,6.58661,18.71411,3.97781,3.97789-18.71414-18.71422-3.97782ZM284.1043,203.5l18.71422,3.97781,3.97782-18.71414-18.71422-3.97782Zm30.98767,6.58661,18.71421,3.97781,3.97782-18.71414-18.71422-3.97782Zm30.9877,6.58676,18.71422,3.97781,3.97781-18.71414-18.71422-3.97781Zm30.9877,6.58661,18.71422,3.97781,3.97781-18.71414-18.71406-3.978Zm30.98778,6.5866,18.71406,3.978,3.97782-18.71414L412.033,211.13261Zm30.9877,6.58677,18.71406,3.97781,3.97782-18.71414-18.71407-3.97782Zm30.9877,6.58661,18.71407,3.97781,3.97781-18.71414-18.71407-3.97782Zm30.9877,6.58676,18.71407,3.97781,3.97789-18.71414L504.996,230.89258Zm30.9877,6.58661,18.71422,3.97781L554.698,241.457l-18.71421-3.97782Zm30.9877,6.5866,18.71422,3.978,3.97782-18.71414L566.97147,244.066Zm30.98771,6.58677,18.71421,3.97781,3.97782-18.71414-18.71422-3.978Zm30.9877,6.5866,18.71422,3.97782,3.97781-18.71414L628.947,257.23917Zm30.98777,6.58677,18.71407,3.97781,3.97781-18.71414-18.71406-3.97782Zm31.135,6.49093,18.47107,3.92624,3.92616-18.47107L691.018,270.55994Zm39.092,1.3237,5.10391,1.08475,1.08482-5.10376-5.10383-1.0849ZM149.34467,197.52726l.1215.03006.026-.121-.1215-.03006Zm21.41,12.80655,15.91919,3.38363,3.38371-15.91918-15.91919-3.38364Zm29.29321,7.68707,18.7141,3.97781,3.97782-18.71414-18.71411-3.97781Zm30.9877,6.58661,18.7141,3.97781,3.97789-18.71414-18.71421-3.97781Zm30.9877,6.58676,18.71422,3.97781,3.97781-18.71414-18.71421-3.97781Zm30.9877,6.58661,18.71422,3.97781,3.97782-18.71414-18.71422-3.97781Zm30.9877,6.58661,18.71422,3.978,3.97782-18.71415-18.71422-3.97781Zm30.98771,6.58676,18.71421,3.97781,3.97782-18.71414-18.71407-3.978Zm30.98777,6.58661,18.71407,3.97781,3.97781-18.71414L389.952,238.8267Zm30.98771,6.58676,18.71406,3.97781,3.97781-18.71414-18.71406-3.97781Zm30.9877,6.58661,18.71406,3.97781,3.97782-18.71414-18.71407-3.97781Zm30.9877,6.58676,18.71406,3.97781,3.97789-18.71414L482.915,258.58683Zm30.9877,6.58661,18.71422,3.97781,3.97781-18.71414-18.71422-3.978Zm30.9877,6.58661,18.71422,3.978,3.97781-18.71415-18.71422-3.97781Zm30.9877,6.58676,18.71422,3.97781,3.97781-18.71414-18.71421-3.97781Zm30.9877,6.58661,18.71422,3.97781,3.97782-18.71414L606.866,284.93342Zm30.98778,6.58676,18.71407,3.97781,3.97781-18.71414-18.71406-3.97781Zm30.9877,6.58661,18.71407,3.97781,3.97781-18.71414-18.71406-3.97781Zm31.0614,6.53885,18.59261,3.952,3.952-18.59252-18.59269-3.952Zm38.72361,1.563,5.833,1.23993,1.24-5.83283-5.833-1.23993Zm-582.217-89.33411,9.72172,2.06634,2.06638-9.72167-9.72172-2.06635Zm25.53581,10.12726,18.7141,3.97781,3.97782-18.71414-18.71411-3.97781Zm30.9877,6.58661,18.71411,3.97781,3.97789-18.71414-18.71422-3.97781Zm30.9877,6.58676,18.71422,3.97781,3.97782-18.71414-18.71422-3.97781Zm30.98771,6.58661,18.71421,3.97781,3.97782-18.71414-18.71422-3.978Zm30.9877,6.58661,18.71418,3.978,3.97781-18.71414L305.896,253.34849Zm30.98766,6.58676,18.71422,3.97781,3.97781-18.71414-18.71406-3.97781Zm30.98778,6.58661,18.71406,3.97781,3.97782-18.71414-18.71392-3.97782Zm30.9877,6.58676,18.71406,3.97781,3.97782-18.71414-18.71407-3.97781Zm30.9877,6.58661,18.71407,3.97781,3.97781-18.71414-18.71407-3.97781Zm30.9877,6.58661,18.71407,3.978,3.97789-18.71414-18.71392-3.98071Zm30.9877,6.58676,18.71422,3.97781,3.97782-18.71414-18.71422-3.978Zm30.9877,6.58661,18.71422,3.97781,3.97782-18.71414-18.71422-3.97782Zm30.98771,6.58676,18.71421,3.97781,3.97782-18.71414-18.71407-3.97781Zm30.9877,6.58661,18.71422,3.97781,3.97781-18.71414-18.71407-3.97782Zm30.98778,6.58676,18.71406,3.97781,3.97781-18.71414-18.71406-3.97781Zm30.9877,6.58661,18.71406,3.97781,3.97782-18.71414-18.71407-3.978Zm30.9877,6.58661,18.71406,3.978,3.97789-18.71414-18.71421-3.97781Zm30.9877,6.58676,18.71407,3.97781,3.97789-18.71414-18.71422-3.97781Zm38.35518,1.80206,6.56212,1.39481,1.39488-6.562-6.56212-1.3948Zm-608.7841-98.7915,3.15948.672.67162-3.15994-3.16-.672Zm21.55731,12.71087,18.7141,3.97782,3.97781-18.71415-18.7141-3.97781Zm30.9877,6.58661,18.7141,3.97782,3.97789-18.71415-18.71422-3.97781Zm30.9877,6.58661,18.71422,3.978,3.97781-18.71414L221.84,267.87Zm30.9877,6.58676,18.71422,3.97782,3.97781-18.71415-18.71421-3.978Zm30.9877,6.58661,18.71422,3.97781,3.97781-18.71414-18.71421-3.97781Zm30.9877,6.58676,18.71422,3.97782,3.97782-18.71415L314.80327,287.63Zm30.98778,6.58661,18.71407,3.97782,3.97781-18.71415-18.71406-3.97781Zm30.9877,6.58676,18.71407,3.97782,3.97781-18.71415-18.71406-3.97781Zm30.9877,6.58661,18.71407,3.97782,3.97781-18.71415-18.71406-3.978Zm30.98771,6.58661,18.71406,3.978,3.97789-18.71414-18.71422-3.97782Zm30.9877,6.58676,18.71422,3.97782,3.97781-18.71415L469.7417,320.5633Zm30.9877,6.58661,18.71422,3.97781,3.97781-18.71414-18.71422-3.97781Zm30.9877,6.58676,18.71422,3.97782,3.97781-18.71415-18.71406-3.97781Zm30.98778,6.58661,18.71406,3.97781,3.97782-18.71414-18.71407-3.97781Zm30.9877,6.58661,18.71407,3.978,3.97781-18.71415L593.69258,346.91Zm30.9877,6.58676,18.71407,3.97782,3.978-18.71415-18.71406-3.978Zm30.9877,6.58661,18.71407,3.97781,3.97789-18.71414-18.71422-3.97781Zm30.9877,6.58676,18.71422,3.97782,3.97782-18.71415L686.65569,366.67Zm30.98771,6.58661,18.71421,3.97781,3.97782-18.71414-18.71422-3.97781Zm38.20793,1.89774,6.80511,1.44653,1.44653-6.80512L753.32,387.06339Zm-616.1517-94.007,15.5547,3.30627,3.30619-15.55465-15.55458-3.30628Zm29.07295,7.8273,18.71411,3.97781,3.97789-18.71414-18.71422-3.978Zm30.98771,6.58661,18.71421,3.978,3.97782-18.71414-18.71422-3.97781Zm30.9877,6.58676L245.48438,324.84l3.97782-18.71414L230.748,302.14808Zm30.9877,6.58661,18.71422,3.97781,3.97781-18.71414-18.7141-3.97781Zm30.9877,6.58676,18.71422,3.97781,3.97777-18.71414-18.7141-3.97781Zm30.98782,6.58661L338.44745,344.6l3.97781-18.71414-18.71406-3.97781Zm30.9877,6.58661,18.71406,3.978,3.97782-18.71414-18.71407-3.97781Zm30.9877,6.58676,18.71406,3.97781,3.97789-18.71414-18.71421-3.978Zm30.9877,6.58661L431.41056,364.36l3.97789-18.71414L416.67423,341.668Zm30.9877,6.58676,18.71422,3.97781,3.97781-18.71414L447.662,348.2548Zm30.9877,6.58661,18.71422,3.97781,3.97781-18.71414-18.71421-3.97781Zm30.9877,6.58676,18.71422,3.97781,3.97782-18.71414-18.71407-3.97781Zm30.98778,6.58661,18.71407,3.97781,3.97781-18.71414-18.71406-3.978Zm30.9877,6.58661,18.71407,3.978,3.97781-18.71414-18.71406-3.97781Zm30.9877,6.58676,18.71407,3.97781,3.97781-18.71414-18.71406-3.97781Zm30.98771,6.58661,18.71406,3.97781,3.97789-18.71414-18.71422-3.97781Zm30.9877,6.58676,18.71422,3.97781,3.97781-18.71414L664.576,394.36152Zm30.9877,6.58661,18.71422,3.97781,3.97781-18.71414-18.71422-3.97781Zm32.90329,5.34271,15.55458,3.30628L743.35,412.7566l-15.55458-3.30628Zm40.27077.558.243.05.05-.24307-.243-.05ZM117.62016,324.969l8.9925,1.91147,1.91139-8.99246-8.9925-1.91147Zm25.09369,10.41428,18.7141,3.97781,3.97789-18.71414-18.71422-3.978Zm30.9877,6.58661,18.71422,3.97781,3.97781-18.71414-18.71422-3.97782Zm30.9877,6.58676,18.71422,3.97781,3.97781-18.71414-18.71422-3.97782Zm30.9877,6.58661,18.71422,3.97781L258.369,340.4069l-18.71422-3.978ZM266.66477,361.73l18.7141,3.97781,3.97781-18.71414-18.7141-3.97781Zm30.9877,6.58661,18.71406,3.97781,3.97782-18.71414-18.71411-3.978Zm30.9877,6.5866,18.71406,3.978,3.97782-18.71414L332.618,356.18922Zm30.9877,6.58677,18.71407,3.97781,3.97789-18.71414-18.71422-3.97782Zm30.9877,6.58661,18.71422,3.97781,3.97781-18.71414-18.71421-3.97782Zm30.9877,6.58676,18.71422,3.97781,3.97782-18.71414-18.71422-3.97782ZM452.591,401.25l18.71422,3.97781,3.97782-18.71414-18.71422-3.97782Zm30.98771,6.5866,18.71421,3.978,3.97782-18.71414-18.71407-3.97781Zm30.98777,6.58677,18.71407,3.97781,3.97781-18.71414-18.71406-3.978Zm30.98771,6.5866,18.71406,3.97782L568.246,406.2736,549.532,402.29578Zm30.9877,6.58677,18.71406,3.97781,3.97782-18.71414-18.71407-3.97782Zm30.9877,6.58661,18.71406,3.97781,3.97789-18.71414-18.71421-3.97782Zm30.9877,6.58676,18.71422,3.97781,3.97781-18.71414-18.71452-3.978Zm30.9877,6.58661,18.71422,3.97781,3.97781-18.71414-18.71422-3.97782Zm31.50353,6.25167,17.86346,3.797,3.797-17.86346-17.86347-3.797Zm41.00753.08,1.33667.284.284-1.33667-1.33682-.284ZM99.73926,349.93647l2.06581.439.43911-2.06588-2.06581-.439ZM120.70716,363.03l18.59261,3.952,3.952-18.59253-18.59261-3.952Zm30.914,6.63452,18.71422,3.97781,3.97782-18.71414L155.599,350.95042Zm30.98771,6.58676,18.71421,3.97781L205.3009,361.515l-18.71422-3.97781Zm30.9877,6.58661,18.71422,3.97781,3.97781-18.71414-18.7141-3.97781Zm30.98781,6.58661,18.71411,3.978,3.97781-18.71414-18.7141-3.97781Zm30.9877,6.58676,18.71411,3.97781L298.264,381.275l-18.7141-3.978Zm30.98771,6.58661,18.71406,3.97781,3.97782-18.71414-18.71407-3.97781Zm30.9877,6.58676,18.71406,3.97781,3.97789-18.71414-18.71422-3.97781Zm30.9877,6.58661,18.71422,3.97781,3.97781-18.71414L372.513,397.05714Zm30.9877,6.58676,18.71422,3.97781,3.97781-18.71414L403.5007,403.6439Zm30.9877,6.58661,18.71422,3.97781,3.97781-18.71414-18.71421-3.97781Zm30.9877,6.58661,18.71422,3.978,3.97781-18.71414-18.71406-3.97781Zm30.98778,6.58676,18.71407,3.97781,3.97781-18.71414-18.71407-3.97781Zm30.9877,6.58661,18.71407,3.97781,3.97781-18.71414-18.71406-3.97781Zm30.9877,6.58676,18.71407,3.97781,3.97781-18.71414-18.71406-3.97781Zm30.98771,6.58661,18.71406,3.97781,3.97789-18.71414-18.71422-3.97781Zm30.9877,6.58661,18.71421,3.978,3.97782-18.71414-18.71422-3.97781Zm30.9877,6.58676,18.71422,3.97781,3.97781-18.71414-18.71422-3.978Zm31.0614,6.53885,18.5926,3.952,3.952-18.59268-18.5926-3.95187Zm39.82872.845,4.01.85205.852-4.01-4.01-.85205ZM106.06788,385.89258l6.319,1.34308,1.34319-6.319-6.31908-1.34323Zm23.47279,11.46683,18.71421,3.97782,3.97782-18.71415-18.71422-3.97781Zm30.9877,6.58676,18.71422,3.97782,3.97781-18.71414L164.50618,385.232Zm30.9877,6.58661,18.71422,3.97782,3.97781-18.71415-18.7141-3.97781Zm30.98782,6.58661,18.7141,3.978,3.97781-18.71414-18.7141-3.97782Zm30.9877,6.58676,18.7141,3.97782,3.97781-18.71415L257.4694,404.992Zm30.9877,6.58661,18.7141,3.97782,3.97782-18.71415-18.71411-3.97781Zm30.98766,6.58676,18.71407,3.97782,3.97789-18.71414-18.71422-3.97782Zm30.9877,6.58661,18.71422,3.97782,3.97781-18.71415L350.43247,424.752Zm30.9877,6.58661,18.71422,3.978,3.97782-18.71414-18.71422-3.97782Zm30.98771,6.58676,18.71421,3.97782,3.97782-18.71415-18.71422-3.978Zm30.9877,6.58661,18.71422,3.97782,3.97781-18.71369-18.71407-3.97781Zm30.98777,6.58676,18.71407,3.97782,3.97781-18.71415-18.71406-3.97781Zm30.98771,6.58661,18.71406,3.97782,3.97782-18.71415-18.71407-3.97781Zm30.9877,6.58676,18.71406,3.97782,3.97782-18.71414-18.71407-3.97782Zm30.9877,6.58661,18.71406,3.97782,3.97789-18.71415-18.71421-3.97781Zm30.9877,6.58661,18.71422,3.978,3.97781-18.71414-18.71422-3.97782Zm30.9877,6.58676,18.71422,3.97782,3.97781-18.71415-18.71421-3.97781Zm30.9877,6.58661,18.71422,3.97782,3.97782-18.71415-18.71407-3.97781Zm37.98691,2.04147,7.17,1.5239,1.524-7.16995-7.17-1.5239ZM113.72257,420.98765l8.38489,1.78222,1.7823-8.38485-8.38489-1.78223Zm24.7253,10.65338,18.71422,3.978,3.97781-18.71414L142.42568,412.927Zm30.9877,6.58676,18.71422,3.97781,3.97781-18.71414-18.7141-3.978Zm30.98782,6.58661,18.7141,3.97781,3.97782-18.71414-18.71411-3.97781Zm30.9877,6.58676,18.7141,3.97781,3.97782-18.71414L235.3889,432.687Zm30.9877,6.58661,18.7141,3.97781,3.97782-18.71414-18.71411-3.97781Zm30.9877,6.58676,18.71407,3.97781,3.97789-18.71414-18.71422-3.97781Zm30.9877,6.58661,18.71422,3.97781,3.97782-18.71414L328.352,452.447Zm30.9877,6.58661,18.71422,3.978,3.97782-18.71414-18.71422-3.97781Zm30.98771,6.58676,18.71421,3.97781,3.97782-18.71414-18.71422-3.97781Zm30.9877,6.58661,18.71422,3.97781,3.97781-18.71414L421.31526,472.207Zm30.98778,6.58676,18.71406,3.97781,3.97781-18.71414-18.71406-3.97781Zm30.9877,6.58661,18.71406,3.97781,3.97782-18.71414-18.71407-3.97781Zm30.9877,6.58661,18.71406,3.978,3.97782-18.71414-18.71407-3.97781Zm30.9877,6.58676,18.71407,3.97781,3.97789-18.71414-18.71422-3.978Zm30.9877,6.58661,18.71422,3.97781,3.97781-18.71414-18.71422-3.97781Zm30.9877,6.58676L621.9778,534.419l3.97781-18.71414-18.71421-3.97781Zm30.9877,6.58661,18.71422,3.97781,3.97782-18.71414-18.71407-3.97781Zm35.924,3.381,10.57228,2.24716,2.24716-10.5722-10.57228-2.24732Zm-548.798-84.32632,10.45078,2.22137,2.22142-10.45074-10.45079-2.22138Zm25.97778,9.83993,18.71422,3.97782,3.97782-18.71415L151.333,447.20835Zm30.98782,6.58661,18.7141,3.97781,3.97782-18.71414L182.3207,453.795Zm30.9877,6.58676,18.71411,3.97782,3.97781-18.71415-18.7141-3.97781Zm30.9877,6.58661,18.71411,3.97782,3.97781-18.71415-18.7141-3.97781Zm30.9877,6.58661,18.71411,3.978L293.998,477.5329l-18.71422-3.97781Zm30.98771,6.58676,18.71418,3.97782,3.97781-18.71415-18.71422-3.978Zm30.98766,6.58661,18.71422,3.97781,3.97781-18.71414-18.71422-3.97781Zm30.9877,6.58676,18.71422,3.97782,3.97781-18.71415L368.247,493.31507Zm30.9877,6.58661,18.71422,3.97781,3.97781-18.71414-18.71406-3.97781Zm30.98778,6.58676,18.71406,3.97782,3.97782-18.71415-18.71407-3.97781Zm30.9877,6.58661,18.71407,3.97782,3.97781-18.71415-18.71407-3.97781Zm30.9877,6.58661,18.71407,3.978,3.97789-18.71415-18.71422-3.97781Zm30.9877,6.58676,18.71407,3.97782,3.97789-18.71415-18.71422-3.978Zm30.98771,6.58661,18.71421,3.97781,3.97782-18.71414L554.17316,532.835Zm30.9877,6.58676,18.71421,3.97782,3.97782-18.71415-18.71422-3.97812Zm30.9877,6.58661,18.71422,3.97781,3.97781-18.71414-18.71407-3.97781Zm33.86108,4.72077,13.97476,2.97,2.97-13.97477-13.97491-2.97042ZM129.10571,491.12955l12.395,2.63474,2.6347-12.39517-12.39509-2.63474Zm27.15661,9.07456,18.7141,3.97781,3.97781-18.71414L160.24013,481.49Zm30.9877,6.58676,18.7141,3.97781,3.97781-18.71414-18.7141-3.97781Zm30.9877,6.58661,18.7141,3.97781,3.97782-18.71414-18.71411-3.97781Zm30.9877,6.58661,18.7141,3.978,3.97789-18.71414L253.2032,501.2501Zm30.9877,6.58676,18.71422,3.97781,3.97781-18.71414-18.71421-3.978Zm30.9877,6.58661,18.71422,3.97781,3.97781-18.71414-18.71421-3.97781Zm30.9877,6.58676,18.71422,3.97781,3.97782-18.71414-18.71407-3.97781Zm30.98778,6.58661,18.71407,3.97781,3.97781-18.71414-18.71406-3.97781Zm30.9877,6.58676,18.71407,3.97781,3.97781-18.71414-18.71406-3.97781Zm30.9877,6.58661,18.71407,3.97781,3.97781-18.71414-18.71406-3.978Zm30.98771,6.58661,18.71406,3.97781,3.97789-18.71414-18.71422-3.97781Zm30.9877,6.58676,18.71422,3.97781,3.97781-18.71414-18.71422-3.97781Zm30.9877,6.58661L546.829,583.222l3.97781-18.71414L532.09262,560.53Zm30.9877,6.58676,18.71422,3.97781,3.97781-18.71414-18.71422-3.97781Zm30.9877,6.58661,18.71422,3.97781,3.97781-18.71414-18.71406-3.97781Zm32.1666,5.82107,16.77,3.56461,3.56453-16.77-16.77-3.56445Zm40.93384.128.3646.08.078-.365-.36461-.08ZM136.83414,526.1767l14.33941,3.048,3.0479-14.33945L139.882,511.83726Zm28.33542,8.30918,18.7141,3.97781,3.97782-18.71414-18.71411-3.97781Zm30.9877,6.58661,18.7141,3.97781,3.97789-18.71414-18.71422-3.978Zm30.9877,6.5866,18.7141,3.97782,3.97789-18.71414-18.71421-3.97782Zm30.9877,6.58677,18.71422,3.97781,3.97781-18.71414-18.71421-3.97782Zm30.9877,6.58661,18.71422,3.97781,3.97782-18.71414-18.71422-3.97782Zm30.9877,6.58676,18.71422,3.97781,3.97782-18.71414L324.086,548.70508Zm30.98778,6.58661,18.71407,3.97781,3.97781-18.71414-18.71406-3.97782Zm30.9877,6.5866,18.71407,3.978,3.97781-18.71414-18.71406-3.97781Zm30.98771,6.58677,18.71406,3.97781,3.97781-18.71414-18.71406-3.978Zm30.9877,6.5866,18.71406,3.97782,3.97789-18.71414-18.71422-3.97782Zm30.9877,6.58677,18.71422,3.97781,3.97781-18.71414-18.71422-3.97782Zm30.9877,6.58661,18.71422,3.97781,3.97781-18.71414L510.01216,588.225Zm30.9877,6.58676,18.71422,3.97781,3.97781-18.71414-18.71422-3.97782Zm30.9877,6.58661,18.71422,3.97781,3.97781-18.71414-18.71406-3.978Zm32.60857,5.534,16.04072,3.41,3.41-16.04065-16.04073-3.41Zm39.534,1.03653,1.94442.41306.41329-1.94428-1.94443-.413Zm-517-78.266.4861.103.10331-.486-.486-.103Zm21.631,12.663,15.91919,3.38363,3.38371-15.91919L148.167,545.16093Zm29.29321,7.68707,18.71411,3.97781,3.97789-18.71414-18.71422-3.978Zm30.9877,6.58661,18.71422,3.97781,3.97782-18.71414-18.71422-3.97781Zm30.98771,6.58676,18.71421,3.97781,3.97782-18.71414-18.71422-3.97781Zm30.9877,6.58661,18.71421,3.97781,3.97782-18.71414L271.01745,569.813Zm30.9877,6.58676,18.71418,3.97781,3.97781-18.71414-18.7141-3.97781Zm30.98781,6.58661,18.71407,3.97781,3.97781-18.71414-18.71406-3.978Zm30.98771,6.58661,18.71406,3.97781,3.97781-18.71414-18.71391-3.978Zm30.9877,6.58676,18.71406,3.97781,3.97782-18.71414-18.71407-3.97781Zm30.9877,6.58661,18.71406,3.97781,3.97789-18.71414L425.956,602.74638Zm30.9877,6.58676,18.71422,3.97781L475.658,613.311l-18.71422-3.97781Zm30.9877,6.58661,18.71422,3.97781,3.97781-18.71414-18.71422-3.97781Zm30.9877,6.58661,18.71422,3.978,3.97781-18.71414-18.71421-3.97781Zm33.64,4.86435,14.33937,3.04794,3.04786-14.33945-14.33937-3.04794Zm37.32368,2.47192,3.8887.827.8265-3.88871-3.88863-.827Zm-454.2876-65.57114,1.21521.258.25829-1.21521-1.21521-.258Zm23.10451,11.70609,14.21791,3.02215L171.962,583.496l-14.21791-3.02216Zm28.33542,8.30917,18.59261,3.952,3.952-18.59268-18.5926-3.952Zm30.914,6.63452,18.71422,3.97782,3.97781-18.71414-18.71421-3.97782Zm30.9877,6.58661,18.71422,3.97782,3.97781-18.71415-18.71421-3.97781Zm30.9877,6.58661,18.71422,3.978,3.97782-18.71414-18.71411-3.97782Zm30.98782,6.58676,18.7141,3.97782,3.97782-18.71415-18.71407-3.978Zm30.98766,6.58661,18.71407,3.97782,3.97781-18.71415-18.71406-3.97781Zm30.9877,6.58676,18.71407,3.97782,3.97781-18.71415-18.71406-3.97781Zm30.98771,6.58661,18.71406,3.97782L422.5896,634.419l-18.71422-3.97781Zm30.9877,6.58676L449.59957,659.72l3.97781-18.71414L434.86316,637.028Zm31.0614,6.5387,18.5926,3.952,3.952-18.59253-18.5926-3.952Zm34.45,4.33807,12.88116,2.73789,2.738-12.88117-12.88117-2.738Zm37.17651,2.5676,2.67342.56793.56831-2.67349-2.67349-.56793ZM171.21726,624.045l1.70132.36194.3616-1.70136-1.70121-.36193Zm26.12519,9.74442,9.7216,2.06634,2.06638-9.72153-9.7216-2.06634Zm26.3462,9.60083,17.3774,3.69369,3.69369-17.37747-17.37751-3.6937Zm30.1772,7.11288,18.71421,3.978,3.97782-18.71414-18.71411-3.97782Zm30.98781,6.58676,18.71411,3.97782,3.97781-18.71415-18.7141-3.97781Zm30.98767,6.58661,18.71406,3.97781,3.97782-18.71414-18.71407-3.97781Zm30.9877,6.58676,18.71406,3.97782,3.97782-18.71415-18.71407-3.97781Zm30.9877,6.58661,18.71406,3.97781,3.97789-18.71414-18.71391-3.97751Zm31.28242,6.39526,18.22808,3.87452,3.87451-18.22815L412.97367,665.017Zm35.55558,3.62,10.69381,2.273,2.273-10.69382-10.69382-2.27295Zm36.66069,2.90253,1.33667.284.28412-1.33667-1.33667-.284ZM240.258,672.69526l4.7393,1.00738,1.00739-4.73922-4.7393-1.00739Zm25.6831,10.03143,13.48881,2.86713,2.86708-13.48877-13.4888-2.86713Zm27.89329,8.59619,18.59269,3.952,3.952-18.59268-18.59268-3.952Zm30.91408,6.63452,18.71407,3.97782,3.97781-18.71414-18.71406-3.97782Zm31.50337,6.25168,17.86347,3.797,3.797-17.86346-17.86347-3.797Zm36.366,3.09387,8.99246,1.91147,1.91147-8.99246-8.99261-1.91147Zm35.9977,3.33313.72906.155.155-.72906-.72922-.155Zm-146.17871,1.44349.9721.20706.20672-.972-.97221-.20706Zm26.4935,9.50515,8.38493,1.78223,1.7823-8.38486-8.385-1.78222Zm31.94549,5.96466,6.80512,1.44638,1.44653-6.80511-6.80519-1.44653Zm34.96613,4.003.24307.05005.052-.24307-.243-.05Z" fill="#feba18"/>
        <path id="atom_01_line" data-name="atom 01 line" d="M414.63855,215.03886a939.33724,939.33724,0,0,0-83.2473-66.38428,482.358,482.358,0,0,1,14.91089-64.36341,203.89806,203.89806,0,0,1,17.82372-41.94c17.81181-29.91806,36.9857-32.89886,59.17747-3.15506a203.179,203.179,0,0,1,22.03377,39.814,555.553,555.553,0,0,1,29.21822,93.201C454.41471,185.305,434.2982,199.76984,414.63855,215.03886Zm92.65084,48.53225c-3.53119-29.305-8.26424-58.97094-14.34449-87.61322a463.64591,463.64591,0,0,1,63.4787-34.23c18.9782-8.13995,45.75348-17.276,65.77461-14.32632a26.95,26.95,0,0,1,25.07691,26.42089c2.20047,20.442-7.69386,47.32865-16.37848,66.38a433.91363,433.91363,0,0,1-25.58457,47.2467c-32.35336-2.77191-65.82092-3.882-98.02261-3.87786Zm-40.717.57205q-20.297-20.37642-41.5409-39.75128c17.021-13.43,34.59343-26.37436,52.57-38.43353,5.50232,25.79849,9.86,51.83594,13.322,77.70844-8.63472.09994-16.14151.24993-24.35112.477ZM371.546,269.6c14.65606-13.21518,28.4494-24.98993,42.21-36.17553q16.55435,15.37331,32.50092,31.41357-36.974,1.50192-74.71092,4.76227Zm-51.67359,5.27939a967.71561,967.71561,0,0,1,9.2289-111.67374,904.58094,904.58094,0,0,1,74.2765,60.70588c-18.375,14.67727-37.03582,30.55267-56.18171,47.97165q-13.67214,1.38289-27.32369,2.99652Zm174.61647,18.21579q-7.04841-7.5531-14.32777-15.09994c4.17068-.12406,8.4185-.229,12.55142-.315q.93693,7.701,1.77643,15.415ZM319.44637,297.9217q.0309-3.42705.081-6.85379,4.07994-.537,8.16422-1.05225c-2.74361,2.606-5.46807,5.21744-8.24509,7.90619Zm-95.02072-8.58994c-4.6466-6.90292-24.28188-37.11883-34.32-55.4132-15.05329-27.41135-34.26639-68.27057-34.97089-99.35441-.61482-25.67291,11.3351-38.73382,37.79461-37.13806a163.90255,163.90255,0,0,1,54.482,16.22376A24.37489,24.37489,0,0,0,288.377,135.8433c7.89791,4.83658,16.01342,10.08392,24.86927,16.15585a939.20784,939.20784,0,0,0-9.63,124.88938c-28.43449,3.66546-54.43149,7.79541-79.1906,12.44339Zm320.62611,61.54053q-16.02985-19.6019-32.8968-38.44253-1.39-17.51565-3.28049-34.99344c29.56528-.268,59.158.44006,88.5144,2.51144q-4.69161,7.20154-9.57489,14.28482a24.65261,24.65261,0,0,0-27.33131,37.30225c-5.45288,7.02377-10.4467,13.25744-15.43091,19.33792Zm-275.7806-1.49c-13.07282-16.18744-23.955-30.55511-34.15249-44.78745q32.54489-6.21986,68.37-11.33392-.00955,10.11933.15,20.23514-17.535,17.57949-34.36748,35.88638Zm246.59107,35.558c-.36438-15.804-.99289-30.89553-1.89484-46.20742,6.84189,8.1253,13.60291,16.38,20.4081,24.95-6.44417,7.60269-12.34894,14.36737-18.51334,21.25763Zm75.08392,26.583C578.84838,394.116,566.56223,377.76,553.858,361.79636q8.54519-10.58623,16.80611-21.413a24.6535,24.6535,0,0,0,28.14-39.08936q6.74148-9.97512,13.15071-20.19531a610.45447,610.45447,0,0,1,64.03,8.74329,270.30038,270.30038,0,0,1,47.09672,13.21579c33.79,13.70056,43.65112,30.23224,14.94308,52.458A230.7599,230.7599,0,0,1,684.05094,383.67a700.34861,700.34861,0,0,1-93.10471,27.85339ZM413.22391,394.308a34.83307,34.83307,0,1,0-38.9016-34.59473A36.94248,36.94248,0,0,0,413.22391,394.308Zm-105.77511-.171q-14.22249-15.82994-27.86259-32.18247Q291.67044,348.42707,304.17,335.277c.65022,19.71191,1.7395,39.25476,3.27881,58.85986Zm208.69831,32.177q.099-10.14907.03-20.29755c9.90913-11.04553,18.52439-21.038,26.95793-31.15585q15.44322,19.97292,29.8571,40.68634c-17.60437,3.781-36.76048,7.43774-56.845,10.76721ZM494.2908,429.759q3.78515-3.9972,7.53479-8.02994.02,3.43941.02,6.87882C499.31041,429.00187,496.85962,429.375,494.2908,429.759ZM355.08274,444.21336c-11.06293-10.98832-21.37-21.63666-31.4824-32.45423-2.48787-30.57876-3.88847-61.66153-4.15557-92.27264,10.40573-10.567,21.27708-21.2378,33.15116-32.42005,37.10312-4.10431,73.28492-6.84005,107.27837-8.32336,12.59064,13.06427,24.82773,26.32477,37.1508,40.32165q3.54768,40.68673,4.49593,81.61377-15.35683,16.53877-31.32889,32.477C432.017,438.21986,392.91873,441.91981,355.08274,444.21336Zm-28.24189,1.46q-.51624-4.69094-.99609-9.38538c2.90291,3.08426,5.729,6.05423,8.6,9.04114q-3.80186.18219-7.60392.345Zm-115.04219.406c18.14152-25.34164,37.8917-49.94064,58.2518-73.316q19.19718,23.4945,39.56761,45.95246,1.35,13.76724,3.0077,27.50213c-33.20649,1.12183-67.11522,1.21948-100.82711-.13794ZM143.706,441.04044a24.20889,24.20889,0,0,0-43.57-6.45416c-9.77822-1.84631-19.67659-4.03137-29.2371-6.67816-81.11-22.37854-62.46719-52.00363,16.15478-83.09418A830.14031,830.14031,0,0,1,220.69889,307.436c12.42568,17.94739,25.4861,35.4187,39.01409,52.488a958.29031,958.29031,0,0,0-68.349,85.15c-17.311-1.02127-33.32539-2.40921-47.658-4.0332Zm262.85069,51.30417q-18.4671-16.21284-36.45088-33.47076,41.77653-3.3799,82.789-8.78067-22.63767,21.736-46.33812,42.25174ZM342.324,543.76078c-5.70732-26.87729-10.22-54.781-13.60871-82.06543q10.251-.566,20.49332-1.26236c14.739,14.82239,29.76181,29.16153,44.73053,42.66113-17.38434,14.59183-34.7023,28.22876-51.61507,40.667ZM493.47751,560.2a860.218,860.218,0,0,1-74.649-57.23938c19.99512-17.78107,39.86542-36.69006,59.23859-56.39084,9.02206-1.33621,16.20613-2.468,23.692-3.7a945.022,945.022,0,0,1-8.28163,117.33063ZM559.73,598.44706a442.903,442.903,0,0,1-54.3142-30.358A982.02227,982.02227,0,0,0,515.924,440.47221q32.718-5.70466,65.16-13.05207a560.26328,560.26328,0,0,1,53.598,97.373,171.36793,171.36793,0,0,1,13.86,55.43c.42511,18.61221-5.75081,31.65314-24.51767,33.98667-19.45152,2.44735-45.95673-7.33551-64.29421-15.76233ZM154.80754,622.9513a28.15544,28.15544,0,0,1-13.416-28.40424,166.20887,166.20887,0,0,1,16.28361-57.78366A511.44707,511.44707,0,0,1,200.053,462.94123c38.00129,1.60294,76.94061,1.203,114.64-.535,4.06738,30.22323,9.32266,60.36682,16.01433,89.754a698.20773,698.20773,0,0,1-60.18391,38.62792c-26.43162,14.96155-88.32291,45.77225-115.71579,32.1634ZM413.7334,703.59064c-14.04266-8.194-25.8432-27.43515-33.32519-42.12051a24.78531,24.78531,0,0,0-18.00538-43.44543c-6.3092-18.38715-11.52771-37.22886-16.00318-56.10688,19.48852-14.38,39.17282-30.08285,59.82536-47.912a838.0271,838.0271,0,0,0,84.316,65.34668,466.257,466.257,0,0,1-13.87077,60.10162c-6.04408,19.38415-17.44812,49.13223-33.83,61.94107A23.89856,23.89856,0,0,1,413.7334,703.591ZM407.74188,714.499a35.96237,35.96237,0,0,0,42.42127-3.07617c19.07463-14.79782,31.3681-45.76843,38.4275-68.13629a474.21907,474.21907,0,0,0,13.6274-56.30555,436.99079,436.99079,0,0,0,50.15633,27.86637c21.32583,9.88708,50.10742,20.35446,73.82179,17.42126,28.22349-3.48831,40.92567-24.38644,40.26527-52.47879a185.86142,185.86142,0,0,0-15.34759-61.84494,552.87337,552.87337,0,0,0-52.20268-94.753,718.41953,718.41953,0,0,0,89.66239-27.71332,244.28262,244.28262,0,0,0,56.94809-30.02792c37.2538-28.92746,24.52927-56.77444-17.851-74.01672a283.853,283.853,0,0,0-49.264-14.01993c-19.56558-3.92883-39.20051-6.62506-58.936-8.63861a440.16246,440.16246,0,0,0,22.78831-43.28781c9.47434-20.976,19.79943-49.74457,17.27364-73.026a39.30213,39.30213,0,0,0-35.5529-37.42066c-22.86072-3.38806-51.555,6.15326-72.41,15.01084a474.87716,474.87716,0,0,0-61.60614,32.42309,547.86681,547.86681,0,0,0-28.34877-90.68146,218.79666,218.79666,0,0,0-24.02847-43.55713c-28.58-38.381-63.15819-38.42407-88.794,4.72657a219.70142,219.70142,0,0,0-19.421,45.87051,468.53372,468.53372,0,0,0-13.82659,59.01581c-6.71219-4.44-13.7217-8.90244-20.74-13.14377a24.42,24.42,0,0,0-42.02-22.4913,176.86582,176.86582,0,0,0-59.12842-17.27c-33.08071-1.94855-51.62442,16.24344-50.86418,49.91791.73528,33.67721,20.42,76.26373,36.15638,105.30517,9.8,18.05664,20.24689,35.11658,31.34919,51.90079A802.71329,802.71329,0,0,0,80.63533,328.01432c-23.05431,9.02924-57.81288,24.696-72.8986,45.32883a32.57682,32.57682,0,0,0,3.765,45.91644q.10156.08628.20382.17151a134.07424,134.07424,0,0,0,54.52861,25.948c9.8816,2.7,20.21519,4.9588,30.17189,6.81564a24.26,24.26,0,0,0,46.03379,6.58173c12.1,1.31393,25.25638,2.356,37.384,3.10821a496.6249,496.6249,0,0,0-38.29,67.35245c-10.1587,22.2937-21.317,53.41385-17.18762,78.121a41.73557,41.73557,0,0,0,37.43912,36.31287c36.08539,5.26184,87.4218-20.24,117.32181-37.38907,18.89931-10.83115,37.98859-23.336,55.92-36.11572,4.40171,17.43,9.57817,35.31326,15.52918,52.3265A24.7562,24.7562,0,0,0,369.188,666.92148c8.81431,17.2316,21.879,37.91245,38.55377,47.57767Z" fill="#110a4c"/>
      </g>
    </g>
  </g>
</svg>
