<svg xmlns="http://www.w3.org/2000/svg" width="848.10211" height="847.8978" viewBox="0 0 848.10211 847.8978">
  <g id="Layer_2" data-name="Layer 2">
    <g id="svg4790">
      <g id="atom_14" data-name="atom 14">
        <ellipse id="atom_14_solid" data-name="atom 14 solid" cx="413.10475" cy="395.09135" rx="219.60998" ry="255.43167" transform="translate(-89.45548 122.72042) rotate(-15.26696)" fill="#e7f9e0"/>
        <path id="atom_14_ht" data-name="atom 14 ht" d="M366.89911,76.35742h.66315v.66193h-.66315Zm19.07532,7.45407h3.313v-3.313h-3.313Zm18.99231,6.87424h6.12915V84.55688h-6.12915Zm19.57214,6.29456h7.78534V89.195h-7.78534Zm20.02747,5.83892h8.53088V94.28848h-8.53088Zm20.48309,5.38346h8.36517V99.83749h-8.36517Zm20.89722,4.96933h7.37121v-7.37137h-7.37121Zm21.39434,4.47235h5.38361v-5.38346H507.341Zm21.684,4.18243h2.81586v-2.816H529.025Zm21.64276,4.22394h.33112v-.331h-.33112ZM329.63135,90.42191h3.06427V87.35748h-3.06427Zm17.79144,8.07525H355.705V90.21484h-8.28217Zm19.40643,6.46H377.0993V94.68719H366.82922Zm20.40009,5.46616h10.27008V100.15335H387.22931Zm20.40008,5.46631h10.27009V105.61966H407.62939Zm20.40009,5.46631h10.27008V111.086H428.02948Zm20.40009,5.46615h10.27008V116.55212H448.42957Zm20.40008,5.46631h10.27008V122.01843H468.82965Zm20.40009,5.46616h10.27008V127.48459H489.22974Zm20.40008,5.46631H519.8999V132.9509H509.62982Zm20.4831,5.38345h10.10437V138.49991H530.11292Zm21.72546,4.14108h7.45422v-7.45407h-7.45422Zm22.76092,3.10578h2.73316V153.118H574.5993Zm21.72547,4.14108h.08v-.08h-.08ZM293.68683,102.49847h2.81586v-2.816h-2.81586Zm17.1701,8.69645h9.27613v-9.27628h-9.27613Zm19.90326,5.96313h10.27008V106.88812H330.76019Zm20.40009,5.46616h10.27008V112.35428H351.16028Zm20.40008,5.46631h10.27008V117.82059H371.56036Zm20.40009,5.46615h10.27008V123.28674H391.96045Zm20.40008,5.46631h10.27009V128.75305H412.36053Zm20.40009,5.46616H443.0307V134.21921H432.76062Zm20.40009,5.4663h10.27008V139.68552H453.16071Zm20.40008,5.46631h10.27008V145.15182H473.56079Zm20.40009,5.46616H504.231V150.618H493.96088Zm20.40008,5.46631H524.631V156.08429H514.361Zm20.40009,5.46615h10.27008V161.55045H534.76105Zm20.40008,5.46631h10.27008V167.01675H555.16113Zm20.856,5.01068h9.35913v-9.359h-9.35913Zm23.25775,2.60895h3.64441V181.262H599.2749ZM258.73474,113.58109h.58014v-.58h-.58014Zm16.87988,8.98635h7.61994v-7.61993h-7.61994Zm19.07532,6.79139H304.96V119.0889H294.68994Zm20.40009,5.4663h10.27008V124.55521H315.09Zm20.40008,5.46616h10.27008V130.02136H335.49011Zm20.40009,5.46631h10.27008V135.48767H355.8902Zm20.40008,5.46631h10.27008V140.954H376.29028Zm20.40009,5.46615h10.27008V146.42014H396.69037Zm20.40008,5.46631h10.27008V151.88644H417.09045Zm20.40009,5.46616h10.27008V157.3526H437.49054Zm20.40008,5.46631h10.27009V162.81891H457.89062Zm20.40009,5.46615h10.27008V168.28506H478.29071Zm20.40009,5.46631h10.27008V173.75137H498.6908Zm20.40008,5.46631H529.361V179.21768H519.09088Zm20.40009,5.46616h10.27008V184.68384H539.491Zm20.40008,5.4663h10.27008V190.15015H559.891Zm20.40009,5.46616h10.27008V195.6163H580.29114Zm20.89721,4.96933h9.27643v-9.27628h-9.27643Zm23.83759,2.029h2.402v-2.40127h-2.402ZM242.236,132.07626h2.23633v-2.23617H242.236ZM258.8678,141.311h9.773v-9.77326h-9.773Zm20.15167,5.71472h10.27008V136.75583H279.01947Zm20.40009,5.46631h10.27008V142.22214H299.41956Zm20.40008,5.4663h10.27008V147.68845H319.81964Zm20.40009,5.46616h10.27008V153.1546H340.21973Zm20.40008,5.46631h10.27008V158.62091H360.61981ZM381.0199,174.357H391.29V164.08707H381.0199ZM401.42,179.8233h10.27008V169.55338H401.42Zm20.40009,5.46631h10.27008V175.01968H421.82007Zm20.40008,5.46616h10.27008V180.48584H442.22015Zm20.40009,5.46631h10.27008V185.95215H462.62024Zm20.40008,5.46615h10.27009V191.4183H483.02032Zm20.40009,5.46631h10.27008V196.88461H503.42041Zm20.40009,5.46631h10.27008V202.35092H523.8205Zm20.40008,5.46616h10.27008V207.81708H544.22058Zm20.40009,5.4663h10.27008V213.28339H564.62067Zm20.40008,5.46616h10.27008V218.74954H585.02075Zm20.40009,5.46631h10.27008V224.21585H605.42084Zm21.89117,3.97537h7.28851v-7.2879H627.312Zm23.79608,2.07047h.49713v-.497h-.49713Zm-425.3714-89.96h3.89283v-3.89282h-3.89283Zm17.25312,8.61344h10.18738V148.9978h-10.173Zm20.35888,5.50766h10.27008V154.42276H263.34869Zm20.40009,5.46615h10.27008V159.88892H283.74878Zm20.40008,5.46631H314.419V165.35522H304.14886Zm20.40009,5.46616H334.819V170.82138H324.549Zm20.40009,5.46631h10.27008V176.28769H344.949Zm20.40008,5.46631H375.6192V181.754H365.34912Zm20.40009,5.46615h10.27008V187.22015H385.74921Zm20.40008,5.46631h10.27008V192.68646H406.14929Zm20.40009,5.46616h10.27008V198.15262H426.54938Zm20.40008,5.4663h10.27008V203.61893H446.94946Zm20.40009,5.46631h10.27008V209.08524H467.34955Zm20.40008,5.46616h10.27008V214.55139H487.74963Zm20.40009,5.46631H518.4198V220.0177H508.14972Zm20.40008,5.46615h10.27009V225.48386H528.5498Zm20.40009,5.46631H559.22V230.95016H548.94989ZM569.35,246.6864h10.27008V236.41647H569.35Zm20.40008,5.46616h10.27008V241.88263H589.75006Zm20.40009,5.46631h10.27008V247.34894H610.15015Zm20.6076,5.25924h9.856v-9.85595h-9.856Zm24.086,1.78055h2.48474v-2.48474h-2.48474ZM209.8175,168.48679h4.39v-4.39h-4.39Zm17.46,8.40652h10.27008V166.62338H227.27753Zm20.40008,5.46631h10.27008V172.08969H247.67761Zm20.40009,5.46631h10.27008V177.556H268.0777Zm20.40008,5.46615h10.27008V183.02216H288.47778Zm20.40009,5.46631H319.148V188.48846H308.87787Zm20.40008,5.46616H339.548V193.95462H329.27795Zm20.40009,5.46631h10.27008V199.42093H349.678Zm20.40008,5.46631h10.27009V204.88724H370.07812Zm20.40009,5.46615h10.27008V210.35339H390.47821Zm20.40009,5.46631h10.27008V215.8197H410.8783Zm20.40008,5.46616h10.27008V221.28586H431.27838Zm20.40009,5.4663h10.27008V226.75217H451.67847Zm20.40008,5.46616h10.27008V232.21832H472.07855Zm20.40009,5.46631h10.27008V237.68463H492.47864Zm20.40008,5.46631H523.1488V243.15094H512.87872Zm20.40009,5.46615h10.27008V248.6171H533.27881Zm20.40008,5.46631H563.949V254.0834H553.67889Zm20.40009,5.46616h10.27008V259.54956H574.079Zm20.40008,5.46631h10.27009V265.01587H594.47906Zm20.40009,5.46631h10.27008V270.48218H614.87915Zm20.40009,5.46615h10.27008V275.94833H635.27924Zm23.05084,2.81586h4.96948v-4.96933h-4.94537ZM194.39423,185.9053h3.89282v-3.89267h-3.89282Zm17.2116,8.65494h10.27009V184.29031H211.60583Zm20.40009,5.46616H242.276V189.75647H232.00592Zm20.40009,5.46631h10.27008V195.22278H252.406Zm20.40008,5.46615h10.27008V200.68893H272.80609Zm20.40009,5.46631h10.27008V206.15524H293.20618Zm20.40008,5.46631h10.27008V211.62155H313.60626Zm20.40009,5.46616h10.27008V217.08771H334.00635Zm20.40008,5.4663h10.27008V222.554H354.40643Zm20.40009,5.46616H385.0766V228.02017H374.80652Zm20.40008,5.46631h10.27008V233.48648H395.2066Zm20.40009,5.46631h10.27008V238.95279H415.60669Zm20.40008,5.46615h10.27009V244.419H436.00677Zm20.40009,5.46631h10.27008V249.88525H456.40686Zm20.40009,5.46616H487.077V255.35141H476.807Zm20.40008,5.46631h10.27008V260.81772H497.207Zm20.40009,5.46615H527.8772V266.28387H517.60712Zm20.40008,5.46631h10.27008V271.75018H538.0072Zm20.40009,5.46631h10.27008V277.21649H558.40729Zm20.40008,5.46616h10.27008V282.68265H578.80737Zm20.40009,5.4663h10.27008V288.149H599.20746Zm20.40008,5.46616h10.27008V293.61511H619.60754Zm20.40009,5.46631h10.27008V299.08142H640.00763Zm22.13989,3.727h6.79138v-6.79154h-6.79138Zm23.75458,2.112h.08v-.08h-.08ZM179.55048,202.744h2.23632v-2.23618h-2.23632Zm16.42486,9.44183h10.18738V201.9986H196.004Zm20.35889,5.50766h10.27008V207.42355H216.33423Zm20.40008,5.46631h10.27008V212.88986H236.73431Zm20.40009,5.46631h10.27008V218.35617H257.1344Zm20.40008,5.46615h10.27009V223.82233H277.53448Zm20.40009,5.46631h10.27008V229.28864H297.93457Zm20.40009,5.46616h10.27008V234.75479H318.33466Zm20.40008,5.46631h10.27008V240.2211H338.73474Zm20.40009,5.46631h10.27008V245.68741H359.13483Zm20.40008,5.46615H389.805V251.15356H379.53491ZM399.935,266.8898h10.27008V256.61987H399.935Zm20.40008,5.46616h10.27008V262.086H420.33508Zm20.40009,5.46631h10.27008V267.55234H440.73517Zm20.40008,5.4663h10.27008V273.01865H461.13525Zm20.40009,5.46616h10.27008V278.4848H481.53534Zm20.40008,5.46631h10.27009V283.95111H501.93542Zm20.40009,5.46615h10.27008V289.41727H522.33551Zm20.40009,5.46631h10.27008V294.88358H542.7356Zm20.40008,5.46616h10.27008V300.34973H563.13568Zm20.40009,5.46631h10.27008V305.816H583.53577Zm20.40008,5.46631h10.27008V311.28235H603.93585Zm20.40009,5.46615H634.606V316.7485H624.33594Zm20.40008,5.46631H655.0061V322.21481H644.736Zm21.68427,4.18244h7.70263v-7.70264h-7.70263ZM690.589,338.365h.166v-.166h-.11993ZM164.82422,219.50211h.41412v-.414h-.41412ZM180.545,229.64783h9.77326v-9.7731H180.545Zm20.152,5.71487H210.9671V225.09277H200.697Zm20.40009,5.46616h10.27008V230.55893H221.09711Zm20.40008,5.46631h10.27008V236.02524H241.49719Zm20.40009,5.4663h10.27008V241.49155H261.89728Zm20.40008,5.46616h10.27008V246.9577H282.29736Zm20.40009,5.46631h10.27008V252.424H302.69745Zm20.40008,5.46616h10.27008V257.89017H323.09753Zm20.40009,5.4663H353.7677V263.35648H343.49762Zm20.40009,5.46616h10.27008V268.82263H363.89771Zm20.40008,5.46631h10.27008V274.28894H384.29779Zm20.40009,5.46631H414.968V279.75525H404.69788Zm20.40008,5.46615H435.368V285.22141H425.098Zm20.40009,5.46631h10.27008V290.68771H445.49805Zm20.40008,5.46616h10.27008V296.15387H465.89813Zm20.40009,5.46631H496.5683V301.62018H486.29822Zm20.40008,5.4663h10.27008V307.08649H506.6983Zm20.40009,5.46616h10.27008V312.55264H527.09839Zm20.40008,5.46631h10.27008V318.019H547.49847Zm20.40009,5.46616h10.27008V323.48511H567.89856Zm20.40009,5.4663h10.27008V328.95142H588.29865Zm20.40008,5.46616h10.27008V334.41757H608.69873Zm20.40009,5.46631H639.3689V339.88388H629.09882Zm20.40008,5.46631H659.769V345.35019H649.4989Zm21.684,4.18243h7.70264v-7.70264h-7.70264Zm24.2099,1.65634h.08v-.07995h-.08Zm-529.071-115.59341h6.87439v-6.87439h-6.87439Zm18.70239,7.16415h10.27008V242.7597H185.02411Zm20.40008,5.46631h10.27008V248.226H205.42419Zm20.40009,5.46616h10.27008V253.69217H225.82428Zm20.40009,5.46631h10.27008V259.15848H246.22437Zm20.40008,5.46615h10.27008V264.62463H266.62445Zm20.40009,5.46631h10.27008V270.09094H287.02454Zm20.40008,5.46631H317.6947V275.55725H307.42462Zm20.40009,5.46615h10.27008V281.02341H327.82471Zm20.40008,5.46631h10.27008V286.48972H348.22479Zm20.40009,5.46616H378.895V291.95587H368.62488Zm20.40008,5.46631H399.295V297.42218H389.025Zm20.40009,5.46615h10.27008V302.88834H409.42505Zm20.40008,5.46631h10.27008V308.35464H429.82513Zm20.40009,5.46631H460.4953V313.821H450.22522Zm20.40009,5.46616h10.27008V319.28711H470.62531Zm20.40008,5.46631h10.27008V324.75342H491.02539Zm20.40009,5.46615h10.27008V330.21957H511.42548Zm20.40008,5.46631h10.27008V335.68588H531.82556Zm20.40009,5.46631h10.27008V341.15219H552.22565Zm20.40008,5.46616h10.27008V346.61835H572.62573Zm20.40009,5.4663H603.2959V352.08466H593.02582Zm20.40008,5.46616H623.696V357.55081H613.4259Zm20.40009,5.46631h10.27008V363.01712H633.826Zm20.40008,5.46615h10.27008V368.48328H654.22607Zm22.01539,3.85117h7.0401v-7.04h-7.0401Zm-523.60474-121.06h2.89886v-2.89886h-2.89886Zm16.71478,9.15192h10.27008V260.42633H169.3515Zm20.40009,5.46631h10.27008V265.89264H189.75159Zm20.40008,5.46615h10.27008V271.3588H210.15167Zm20.40009,5.46631h10.27008V276.8251H230.55176Zm20.40008,5.46631h10.27008V282.29141H250.95184Zm20.40009,5.46616H281.622V287.75757H271.35193Zm20.40008,5.4663h10.27008V293.22388H291.752ZM312.1521,308.96h10.27008V298.69H312.1521Zm20.40009,5.46631h10.27008V304.15634H332.55219Zm20.40008,5.46631h10.27008V309.62265H352.95227Zm20.40009,5.46615h10.27008V315.08881H373.35236Zm20.40008,5.46631h10.27008V320.55511H393.75244Zm20.40009,5.46616h10.27008V326.02127H414.15253Zm20.40008,5.46631h10.27008V331.48758H434.55261Zm20.40009,5.46615h10.27008V336.95374H454.9527ZM475.35278,352.69h10.27008V342.42H475.35278Zm20.40009,5.46631H506.023V347.88635H495.75287Zm20.40008,5.46616H526.423V353.35251H516.153Zm20.40009,5.46631h10.27008V358.81882H536.553Zm20.40008,5.46615h10.27009V364.285H556.95312Zm20.40009,5.46631h10.27008V369.75128H577.35321Zm20.40009,5.46631h10.27008V375.21759H597.7533Zm20.40008,5.46615h10.27008V380.68375H618.15338ZM638.55347,396.42h10.27008V386.15005H638.55347Zm20.40008,5.46616h10.27008V391.61621H658.95355Zm22.80213,3.06442h5.4663v-5.46631h-5.4663ZM154.631,287.41058h8.36518v-8.36517H154.631Zm19.44794,6.41877h10.27008V283.55942H174.079Zm20.40008,5.4663h10.27009V289.02573H194.47906Zm20.40009,5.46616h10.27008V294.49188H214.87915Zm20.40009,5.46631h10.27008V299.95819H235.27924Zm20.40008,5.46615H265.9494V305.42435H255.67932Zm20.40009,5.46631h10.27008V310.89066H276.07941Zm20.40008,5.46631h10.27008V316.357H296.47949Zm20.40009,5.46616h10.27008V321.82312H316.87958Zm20.40008,5.46631h10.27008V327.28943H337.27966Zm20.40009,5.46615h10.27008V332.75558H357.67975Zm20.40008,5.46631h10.27008V338.22189H378.07983Zm20.40009,5.46631H408.75V343.6882H398.47992ZM418.88,359.42429h10.27009V349.15436H418.88Zm20.40009,5.4663h10.27008V354.62067H439.28009Zm20.40009,5.46616h10.27008V360.08682H459.68018Zm20.40008,5.46631h10.27008V365.55313H480.08026Zm20.40009,5.46616h10.27008V371.01929H500.48035Zm20.40008,5.4663h10.27008V376.4856H520.88043Zm20.40009,5.46631H551.5506V381.9519H541.28052ZM561.6806,397.688h10.27008V387.41806H561.6806Zm20.40009,5.46631h10.27008V392.88437H582.08069Zm20.40008,5.46615h10.27008V398.35052H602.48077Zm20.40009,5.46631h10.27008V403.81683H622.88086Zm20.40008,5.46631H653.551V409.28314H643.28094Zm20.40009,5.46616h10.27008V414.7493H663.681Zm23.96179,1.9049h3.14728v-3.14727h-3.14728ZM141.63422,302.42874h3.06457v-3.06457h-3.06457Zm16.79748,9.06906h10.27008V301.22787H158.4317Zm20.40009,5.46631h10.27008V306.69418H178.83179Zm20.40008,5.46631H209.502V312.16049H199.23187Zm20.40009,5.46616H229.902V317.62665H219.632Zm20.40008,5.4663h10.27008V323.093H240.032Zm20.40009,5.46616h10.27008V328.55911H260.43213Zm20.40008,5.46631h10.27008V334.02542H280.83221Zm20.40009,5.46616h10.27008V339.49158H301.2323Zm20.40009,5.4663h10.27008V344.95789H321.63239Zm20.40008,5.46631h10.27008V350.42419H342.03247Zm20.40009,5.46616h10.27008V355.89035H362.43256Zm20.40008,5.46631h10.27008V361.35666H382.83264Zm20.40009,5.46615h10.27008V366.82281H403.23273Zm20.40008,5.46631h10.27008V372.28912H423.63281Zm20.40009,5.46631H454.303V377.75543H444.0329Zm20.40008,5.46616h10.27008V383.22159H464.433Zm20.40009,5.4663h10.27008V388.6879H484.83307Zm20.40008,5.46616h10.27008V394.15405H505.23315Zm20.40009,5.46631h10.27008V399.62036H525.63324Zm20.40009,5.46616h10.27008V405.08652H546.03333Zm20.40008,5.4663h10.27008V410.55283H566.43341Zm20.40009,5.46631h10.27008V416.01913H586.8335Zm20.40008,5.46616h10.27008V421.48529H607.23358Zm20.40009,5.46631h10.27008V426.9516H627.63367Zm20.40008,5.46615h10.27008V432.41776H648.03375Zm20.4831,5.38346h10.10437V437.96661H668.51685Zm25.12115.74493h.66315v-.663H693.638ZM144.33868,327.59125h7.12281v-7.12281h-7.12281Zm18.8266,7.03995h10.27008V324.36127H163.16528Zm20.40009,5.4663h10.27008V329.82758H183.56537Zm20.40008,5.46616h10.27008V335.29373H203.96545ZM224.36554,351.03h10.27008V340.76H224.36554Zm20.40008,5.46631h10.27009V346.22635H244.76562Zm20.40009,5.46615h10.27008V351.6925H265.16571Zm20.40009,5.46631h10.27008V357.15881H285.5658Zm20.40008,5.46616H316.236V362.625H305.96588Zm20.40009,5.46631h10.27008V368.09128H326.366Zm20.40008,5.46615h10.27008V373.55743H346.76605Zm20.40009,5.46631h10.27008V379.02374H367.16614ZM387.56622,394.76H397.8363V384.49005H387.56622Zm20.40009,5.46616h10.27008V389.95621H407.96631Zm20.40008,5.4663h10.27008V395.42252H428.36639Zm20.40009,5.46616h10.27008V400.88867H448.76648Zm20.40008,5.46631h10.27009V406.355H469.16656Zm20.40009,5.46631h10.27008V411.82129H489.56665Zm20.40009,5.46615h10.27008V417.28745H509.96674Zm20.40008,5.46631H540.6369V422.75375H530.36682Zm20.40009,5.46616H561.037V428.21991H550.76691Zm20.40008,5.46631h10.27008V433.68622H571.167Zm20.40009,5.46615h10.27008V439.15237H591.56708Zm20.40008,5.46631h10.27008V444.61868H611.96716Zm20.40009,5.46631h10.27008V450.085H632.36725Zm20.40008,5.46616h10.27008V455.55115H652.76733ZM674.7,469.7551h7.20551v-7.20566h-7.20734ZM131.94427,341.987h.58014v-.58h-.58014Zm15.63813,10.22858h10.10437V342.11121H147.5824Zm20.31738,5.54916h10.27008V347.49481H167.89978Zm20.40009,5.46631H198.57V352.96112H188.29987ZM208.7,368.6972H218.97V358.42728H208.7ZM229.1,374.16351h10.27008V363.89359H229.1Zm20.40008,5.46616H259.7702V369.35974H249.50012Zm20.40009,5.46631h10.27008V374.82605H269.90021Zm20.40008,5.46631h10.27008V380.29236H290.30029Zm20.40009,5.46615h10.27008V385.75851H310.70038Zm20.40008,5.46631h10.27008V391.22482H331.10046Zm20.40009,5.46616h10.27008V396.691H351.50055Zm20.40008,5.46631h10.27009V402.15729H371.90063Zm20.40009,5.46615H402.5708V407.62344H392.30072Zm20.40009,5.46631h10.27008V413.08975H412.70081Zm20.40008,5.46631H443.371V418.55606H433.10089Zm20.40009,5.46615h10.27008V424.02222H453.501Zm20.40008,5.46631h10.27008V429.48853H473.90106Zm20.40009,5.46616h10.27008V434.95468H494.30115Zm20.40008,5.46631h10.27008V440.421H514.70123Zm20.40009,5.46631H545.3714V445.8873H535.10132Zm20.40008,5.46615h10.27008V451.35345H555.5014Zm20.40009,5.46631h10.27008V456.81976H575.90149Zm20.40008,5.46616h10.27009V462.28592H596.30157Zm20.40009,5.46631h10.27008V467.75223H616.70166Zm20.40009,5.4663h10.27008V473.21854H637.10175Zm20.40008,5.46616h10.27008V478.68469H657.50183Zm24.0445,1.82205h2.98156V487.7951h-2.98156ZM135.51208,366.27975H138.411v-2.89886h-2.89887Zm16.71479,9.15192H162.497V365.16174H152.22687ZM172.627,380.898H182.897V370.628H172.627Zm20.40009,5.46616h10.27008V376.09421H193.027Zm20.40008,5.4663H223.6972V381.56052H213.42712Zm20.40009,5.46631h10.27008V387.02682H233.82721Zm20.40008,5.46616h10.27009V392.493H254.22729Zm20.40009,5.46631h10.27008V397.95929H274.62738Zm20.40009,5.46615h10.27008V403.42545H295.02747Zm20.40008,5.46631h10.27008V408.89175H315.42755Zm20.40009,5.46631h10.27008V414.35806H335.82764Zm20.40008,5.46616H366.4978V419.82422H356.22772Zm20.40009,5.46631h10.27008V425.29053H376.62781Zm20.40008,5.46615H407.298V430.75668H397.02789Zm20.40009,5.46631h10.27008V436.223H417.428Zm20.40008,5.46616h10.27008V441.68915H437.82806Zm20.40009,5.4663h10.27008V447.15546H458.22815Zm20.40008,5.46631h10.27009V452.62177H478.62823Zm20.40009,5.46616H509.2984V458.08792H499.02832Zm20.40009,5.46631h10.27008V463.55423H519.42841Zm20.40008,5.46615h10.27008V469.02039H539.82849Zm20.40009,5.46631h10.27008V474.48669H560.22858Zm20.40008,5.46631h10.27008V479.953H580.62866Zm20.40009,5.46616h10.27008V485.41916H601.02875Zm20.40008,5.46631h10.27008V490.88547H621.42883Zm20.40009,5.46615H652.099V496.35162H641.82892Zm21.35284,4.51386h8.36518v-8.36518h-8.35267ZM139.0387,390.61386h5.3009v-5.3006h-5.3009Zm17.91565,7.95105h10.27008V388.295H156.95435Zm20.40008,5.46631h10.27008V393.76129H177.35443Zm20.40009,5.46616H208.0246V399.22745H197.75452Zm20.40008,5.4663h10.27008V404.69376H218.1546Zm20.40009,5.46616h10.27008V410.15991H238.55469Zm20.40008,5.46631h10.27008V415.62622H258.95477Zm20.40009,5.46631h10.27008V421.09253H279.35486Zm20.40008,5.46615H310.025V426.55869H299.75494Zm20.40009,5.46631h10.27008V432.025H320.155Zm20.40008,5.46616H350.8252V437.49115H340.55511Zm20.40009,5.46631h10.27008V442.95746H360.9552Zm20.40009,5.46631h10.27008V448.42377H381.35529Zm20.40008,5.46615h10.27008V453.88992H401.75537Zm20.40009,5.46631h10.27008V459.35623H422.15546Zm20.40008,5.46616h10.27008V464.82239H442.55554Zm20.40009,5.4663h10.27008V470.2887H462.95563Zm20.40008,5.46631h10.27008V475.755H483.35571Zm20.40009,5.46616h10.27008V481.22116H503.7558Zm20.40008,5.46631H534.426V486.68747H524.15588Zm20.40009,5.46615h10.27008V492.15363H544.556Zm20.40008,5.46631h10.27009V497.61993H564.95605Zm20.40009,5.46616h10.27008V503.08609H585.35614Zm20.40009,5.46631h10.27008V508.5524H605.75623Zm20.40008,5.46631h10.27008V514.01871H626.15631Zm20.40009,5.46615h10.27008V519.48486H646.5564Zm24.1275,1.7392h2.81586v-2.816H670.6839ZM142.89673,414.61685h7.0401V407.5769h-7.0401Zm18.7854,7.0813h10.27008V411.42822H161.68213Zm20.40008,5.46631h10.27008V416.89453H182.08221Zm20.40009,5.46616h10.27008V422.36069H202.4823Zm20.40009,5.4663h10.27008V427.827H222.88239Zm20.40008,5.46616h10.27008V433.29315H243.28247Zm20.40009,5.46631h10.27008V438.75946H263.68256Zm20.40008,5.46615h10.27008V444.22562H284.08264Zm20.40009,5.46631h10.27008V449.69193H304.48273Zm20.40008,5.46631h10.27008V455.15823H324.88281Zm20.40009,5.46616H355.553V460.62439H345.2829Zm20.40008,5.46631h10.27008V466.0907H365.683Zm20.40009,5.46615h10.27008V471.55685H386.08307Zm20.40008,5.46631h10.27008V477.02316H406.48315Zm20.40009,5.46631h10.27008V482.48947H426.88324Zm20.40009,5.46616h10.27008V487.95563H447.28333Zm20.40008,5.4663h10.27008V493.42194H467.68341ZM488.0835,509.158h10.27008V498.88809H488.0835Zm20.40008,5.46631h10.27008V504.3544H508.48358Zm20.40009,5.46631h10.27008V509.82071H528.88367Zm20.40008,5.46615h10.27008V515.28687H549.28375Zm20.40009,5.46631h10.27008V520.75317H569.68384Zm20.40008,5.46616H600.354V526.21933H590.08392Zm20.40009,5.46631h10.27008V531.68564H610.484Zm20.40008,5.46615h10.27008V537.15179H630.88409Zm22.09809,3.76847h6.87439V544.316h-6.87439Zm-522.28-122.38495h.08v-.08h-.08Zm16.54907,9.31762h7.78534v-7.78534h-7.78534Zm19.158,6.70853h10.27008V434.56146H166.4093Zm20.40009,5.46616h10.27008V440.02762H186.80939Zm20.40008,5.4663h10.27008V445.49393H207.20947Zm20.40009,5.46631h10.27008V450.96024H227.60956Zm20.40008,5.46616h10.27008V456.42639H248.00964Zm20.40009,5.46631h10.27008V461.8927H268.40973Zm20.40008,5.46615H299.0799V467.35886H288.80981Zm20.40009,5.46631H319.48V472.82516H309.2099ZM329.61,488.56125h10.27008V478.29132H329.61Zm20.40008,5.46631h10.27008V483.75763H350.01007Zm20.40009,5.46631h10.27008V489.22394H370.41016ZM390.81024,504.96h10.27008V494.69009H390.81024Zm20.40009,5.46631h10.27008V500.1564H411.21033Zm20.40008,5.46616h10.27008V505.62256H431.61041Zm20.40009,5.46631h10.27008V511.08887H452.0105Zm20.40008,5.4663h10.27008V516.55518H472.41058Zm20.40009,5.46616h10.27008V522.02133H492.81067Zm20.40008,5.46631h10.27008V527.48764H513.21075Zm20.40009,5.46615h10.27008V532.9538H533.61084ZM554.01093,548.69H564.281V538.4201H554.01093Zm20.40008,5.46631h10.27008V543.88641H574.411Zm20.40009,5.46616h10.27008V549.35257H594.8111Zm20.40008,5.46631h10.27008V554.81888H615.21118ZM635.86,570.30655h9.77294v-9.77326H635.86Zm25.07995.78705h.41412v-.414h-.41412ZM135.43,451.93863h.08v-.08h-.08Zm16.54907,9.31763h7.775v-7.7855h-7.78565Zm19.158,6.70852h10.27009V457.69485H171.13708Zm20.40009,5.46616h10.27008V463.161H191.53717Zm20.40009,5.46631h10.27008V468.62732H211.93726Zm20.40008,5.46615h10.27008V474.09348H232.33734Zm20.40009,5.46631h10.27008V479.55978H252.73743Zm20.40008,5.46631h10.27008V485.02609H273.13751Zm20.40009,5.46616h10.27008V490.49225H293.5376Zm20.40008,5.46631h10.27008V495.95856H313.93768Zm20.40009,5.46615h10.27008V501.42471H334.33777Zm20.40008,5.46631h10.27008V506.891H354.73785Zm20.40009,5.46631H385.408V512.35733H375.13794Zm20.40008,5.46615h10.27009V517.82349H395.538Zm20.40009,5.46631h10.27008V523.28979H415.93811Zm20.40009,5.46616h10.27008V528.756H436.3382Zm20.40008,5.46631h10.27008V534.22226H456.73828Zm20.40009,5.46615h10.27008V539.68842H477.13837Zm20.40008,5.46631h10.27008V545.15472H497.53845Zm20.40009,5.46631h10.27008V550.621H517.93854Zm20.40008,5.46616H548.6087V556.08719H538.33862Zm20.40009,5.46631h10.27008V561.5535H558.73871Zm20.40008,5.46615h10.27008V567.01965H579.13879Zm20.40009,5.46631H609.809V572.486H599.53888ZM619.939,588.2222h10.27009V577.95227H619.939Zm24.37592,1.49063h2.319v-2.319h-2.319Zm-504.10706-114.641h.08v-.08h-.08Zm17.0047,8.862h6.87439v-6.87424h-6.87439Zm18.7024,7.16415H186.185V480.82809H175.91492Zm20.40008,5.46631h10.27008V486.2944H196.315Zm20.40009,5.46631h10.27008V491.76071H216.71509Zm20.40008,5.46616h10.27008V497.22687H237.11517Zm20.40009,5.4663h10.27008V502.69318H257.51526Zm20.40008,5.46616h10.27008V508.15933H277.91534Zm20.40009,5.46631h10.27008V513.62564H298.31543Zm20.40009,5.46631H328.9856V519.092H318.71552ZM339.1156,534.828h10.27008V524.55811H339.1156Zm20.40009,5.46631h10.27008V530.02441H359.51569Zm20.40008,5.46616h10.27008V535.49057H379.91577Zm20.40009,5.46631h10.27008V540.95688H400.31586Zm20.40008,5.46631H430.986V546.42319H420.71594Zm20.40009,5.46615h10.27008V551.88934H441.116Zm20.40008,5.46631h10.27008V557.35565H461.51611Zm20.40009,5.46616h10.27008V562.82181H481.9162Zm20.40008,5.4663h10.27008V568.28812H502.31628Zm20.40009,5.46616h10.27008V573.75427H522.71637Zm20.40009,5.46631h10.27008V579.22058H543.11646Zm20.40008,5.46631h10.27008V584.68689H563.51654Zm20.40009,5.46615h10.27008V590.15305H583.91663Zm20.40008,5.46631h10.27008V595.61935H604.31671Zm23.63037,2.23618h3.81012v-3.81h-3.81012ZM162.85919,506.156h5.05219v-5.05219h-5.05219Zm17.79144,8.07525h10.27009V503.96133H180.65063Zm20.40009,5.46631H211.3208V509.42764H201.05072Zm20.40009,5.46631h10.27008V514.894H221.45081ZM241.85089,530.63H252.121V520.36011H241.85089Zm20.40009,5.4663h10.27008V525.82642H262.251Zm20.40008,5.46616h10.27008V531.29257H282.65106Zm20.40009,5.46631h10.27008V536.75888H303.05115Zm20.40008,5.46615h10.27008V542.225H323.45123Zm20.40009,5.46631H354.1214V547.69135H343.85132Zm20.40008,5.46631h10.27008V553.15765H364.2514Zm20.40009,5.46616h10.27008V558.62381H384.65149Zm20.40008,5.46631h10.27009V564.09012H405.05157Zm20.40009,5.46615h10.27008V569.55627H425.45166Zm20.40009,5.46631h10.27008V575.02258H445.85175Zm20.40008,5.46631h10.27008V580.48889H466.25183Zm20.40009,5.46616H496.922V585.95505H486.65192Zm20.40008,5.4663h10.27008V591.42136H507.052Zm20.40009,5.46616h10.27008V596.88751H527.45209Zm20.40008,5.46631h10.27008V602.35382H547.85217Zm20.40009,5.46615h10.27008V607.82H568.25226Zm20.40008,5.46631h10.27008V613.28629H588.65234Zm23.382,2.48459h4.30695V621.734H612.0343ZM168.92,527.96387h2.402v-2.40174h-2.41791Zm16.67328,9.19342h9.856v-9.854h-9.856Zm20.19318,5.67337h10.27008V532.56073H205.78644Zm20.40008,5.46615H236.4566V538.02689H226.18652Zm20.40009,5.46631h10.27008V543.49319H246.58661Zm20.40008,5.46631h10.27008V548.9595H266.98669Zm20.40009,5.46616h10.27008V554.42566H287.38678Zm20.40009,5.46631h10.27008V559.892H307.78687Zm20.40008,5.46615H338.457V565.35812H328.187Zm20.40009,5.46631h10.27008V570.82443H348.587Zm20.40008,5.46616H379.2572V576.29059H368.98712Zm20.40009,5.4663h10.27008V581.7569H389.38721Zm20.40008,5.46631h10.27008V587.22321H409.78729Zm20.40009,5.46616h10.27008V592.68936H430.18738Zm20.40008,5.46631h10.27008V598.15567H450.58746Zm20.40009,5.46615h10.27008V603.62183H470.98755Zm20.40008,5.46631h10.27008V609.08813H491.38763Zm20.40009,5.46631H522.0578V614.55444H511.78772Zm20.40009,5.46616h10.27008V620.0206H532.18781Zm20.40008,5.46631H562.858V625.48691H552.58789ZM572.988,641.223h10.27008V630.95306H572.988Zm23.67187,2.19483H600.387V639.6933h-3.72711Zm-422.05841-93.273h.49713v-.497h-.49713Zm17.0459,8.82064h7.2055V551.7598h-7.2055Zm18.8681,6.99845h10.27008V555.694H210.51544Zm20.40009,5.46615h10.27008V561.16013H230.91553Zm20.40008,5.46631h10.27008V566.62643H251.31561Zm20.40009,5.46616h10.27008V572.09259H271.7157Zm20.40008,5.46631h10.27008V577.5589H292.11578Zm20.40009,5.46631H322.786V583.02521H312.51587Zm20.40008,5.46615H343.186V588.49136H332.916ZM353.316,604.2276h10.27008V593.95767H353.316Zm20.40009,5.46616h10.27008V599.42383H373.71613Zm20.40008,5.4663h10.27008V604.89014H394.11621Zm20.40009,5.46616h10.27008V610.35629H414.5163Zm20.40008,5.46631h10.27008V615.8226H434.91638Zm20.40009,5.46631h10.27008V621.28891H455.31647Zm20.40008,5.46615h10.27008V626.75507H475.71655Zm20.40009,5.46631h10.27008V632.22137H496.11664Zm20.40008,5.46616H526.7868V637.68753H516.51672Zm20.40009,5.46631h10.27008V643.15384H536.91681Zm20.6073,5.25924h9.856v-9.856h-9.856Zm24.2099,1.65635h2.23633V658.103H581.734ZM198.77838,579.69681h2.40173v-2.40189h-2.40173Zm17.0047,8.862h9.19342v-9.19342h-9.19342Zm19.86206,6.00464h10.27008V584.29352H235.64514Zm20.40009,5.4663h10.27008V589.75983H256.04523Zm20.40008,5.46616h10.27008V595.226H276.44531Zm20.40009,5.46631h10.27008V600.69229H296.8454Zm20.40008,5.46616h10.27008V606.15845H317.24548Zm20.40009,5.4663h10.27008V611.62476H337.64557Zm20.40008,5.46631h10.27008V617.09106H358.04565Zm20.40009,5.46616h10.27008V622.55722H378.44574Zm20.40009,5.46631h10.27008V628.02353H398.84583Zm20.40008,5.46615H429.516V633.48969H419.24591Zm20.40009,5.46631h10.27008V638.956H439.646Zm20.40008,5.46616h10.27008V644.42215H460.04608Zm20.40009,5.46631h10.27008V649.88846H480.44617Zm20.40008,5.4663h10.27008V655.35477H500.84625Zm20.40009,5.46616h10.27008V660.82092H521.24634Zm21.684,4.18243h7.70263v-7.7H542.9303Zm24.00329,1.86356h.49714v-.497h-.49714ZM204.66583,601.67328h.08v-.08h-.08Zm18.57819,7.28836h3.72711v-3.72711H223.244Zm17.58453,8.28232h9.35913v-9.35913h-9.35913Zm19.94477,5.92163H271.0434V612.89566H260.77332Zm20.40008,5.46631h10.27008V618.362H281.1734Zm20.40009,5.46631h10.27008V623.82828H301.57349Zm20.40008,5.46615h10.27008V629.29443H321.97357Zm20.40009,5.46631h10.27008V634.76074H342.37366Zm20.40008,5.46616h10.27008V640.2269H362.77374Zm20.40009,5.4663h10.27008V645.69321H383.17383Zm20.40008,5.46631H413.844V651.15952H403.57391ZM423.974,666.8956h10.27008V656.62567H423.974Zm20.40008,5.46631h10.27009V662.092H444.37408Zm20.40009,5.46615h10.27008V667.55814H464.77417Zm20.40009,5.46631h10.27008V673.02444H485.17426Zm20.89721,4.96933h9.27643v-9.27627h-9.27368Zm23.63007,2.23618h2.81586v-2.816h-2.81586Zm-299.90143-60.2266h.08v-.08h-.08Zm19.11652,6.75h2.65014v-2.65h-2.65014ZM266.95648,644.85h7.37122v-7.37137h-7.37122Zm19.03382,6.83288h10.10437V641.57837H285.9903Zm20.31768,5.549h10.27008V646.962H306.308Zm20.40009,5.46631h10.27008V652.42828H326.70807Zm20.40008,5.46631h10.27008V657.89459H347.10815Zm20.40009,5.46616h10.27008V663.36075H367.50824Zm20.40009,5.4663h10.27008V668.82706H387.90833Zm20.40008,5.46616h10.27008V674.29321H408.30841Zm20.40009,5.46631h10.27008V679.75952H428.7085Zm20.40008,5.46631h10.27008V685.22583H449.10858Zm21.39435,4.47235h8.28217v-8.28232h-8.28217Zm23.05084,2.81586h2.98157V699.8024h-2.98157Zm-218.3432-38.32062h.33112v-.331h-.33112Zm19.158,6.70853h2.81586v-2.816h-2.81586Zm19.03381,6.83288h5.54932V672.4556H313.4024Zm19.48945,6.37726h7.37121v-7.37137h-7.37121Zm19.94476,5.92178h8.28216v-8.28247h-8.28216Zm20.31738,5.549h8.44788v-8.448H373.154Zm20.69,5.1764h7.86835V693.161H393.844Zm21.22864,4.63806h6.21185v-6.2117h-6.21185Zm21.64276,4.22393h3.72711v-3.72711h-3.72711Zm21.93268,3.934h.66315v-.663h-.66315Z" fill="#5bcd3d"/>
        <polygon id="atom_14_line" data-name="atom 14 line" points="640.564 327.423 451.564 405.683 647.534 209.723 638.484 200.663 442.514 396.633 520.774 207.643 508.954 202.743 430.564 392.003 430.564 24.003 417.774 24.003 417.774 391.773 339.494 202.743 327.664 207.643 406.024 396.873 209.824 200.663 200.764 209.723 396.734 405.683 207.744 327.423 202.844 339.253 392.054 417.603 24.164 417.603 24.164 430.403 392.074 430.403 202.844 508.703 207.744 520.533 396.994 442.153 200.764 638.383 209.824 647.433 406.044 451.203 327.664 640.453 339.494 645.353 417.774 456.203 417.774 824.003 430.564 824.003 430.564 456.073 508.954 645.353 520.774 640.453 442.514 451.473 638.484 647.433 647.534 638.383 451.324 442.173 640.564 520.533 645.454 508.703 456.354 430.403 824.164 430.403 824.164 417.603 456.274 417.603 645.454 339.253 640.564 327.423" fill="#110a4c"/>
        <g id="atom_14_dots" data-name="atom 14 dots">
          <circle id="circle4655" cx="206.0083" cy="205.28793" r="16.79993" fill="#110a4c"/>
          <circle id="circle4657" cx="204.78302" cy="643.41553" r="16.79993" fill="#110a4c"/>
          <circle id="circle4659" cx="642.34894" cy="643.41553" r="16.79993" fill="#110a4c"/>
          <circle id="circle4661" cx="645.24414" cy="204.23721" r="16.79993" fill="#110a4c"/>
          <circle id="circle4663" cx="424.17053" cy="23.99994" r="23.99994" fill="#110a4c"/>
          <circle id="circle4665" cx="824.10217" cy="424.41986" r="23.99994" fill="#110a4c"/>
          <circle id="circle4667" cx="23.99994" cy="424.24973" r="23.99994" fill="#110a4c"/>
          <circle id="circle4669" cx="424.20807" cy="823.89786" r="23.99994" fill="#110a4c"/>
        </g>
      </g>
    </g>
  </g>
</svg>
