<svg xmlns="http://www.w3.org/2000/svg" width="837.48169" height="618.51089" viewBox="0 0 837.48169 618.51089">
  <g id="Layer_2" data-name="Layer 2">
    <g id="svg4790">
      <g id="atom_13" data-name="atom 13">
        <polygon id="atom_13_solid" data-name="atom 13 solid" points="164.695 511.521 69.615 213.091 322.505 56.241 619.515 37.881 714.595 336.321 461.705 493.161 164.695 511.521" fill="#def3fa"/>
        <path id="atom_13_ht" data-name="atom 13 ht" d="M606.2439,4.42215h.33111v.331h-.33111ZM625.33508,11.494H628.23V8.59909h-2.8949Zm20.704,5.12817h2.23328V14.38889h-2.23328Zm-96.51764-4.81247h.99305v-.993h-.99305Zm18.63617,7.19589h4.46656V14.539h-4.46656Zm18.63617,7.1959h7.94007V18.26141h-7.94007Zm19.3393,6.49292h10.00824V22.68616H606.13312Zm20.249,5.583h10.25635V28.02124H626.38214Zm23.22693,2.60543h4.54926V36.33362h-4.54926ZM473.04626,12.787h.41413V12.374h-.41413Zm19.2566,6.57562h2.64679V16.71585h-2.64679ZM510.939,26.55853h6.12091V20.43777H510.939Zm18.67736,7.15454h9.512v-9.512h-9.512Zm20.00092,5.83115H559.874V29.28787H549.61761Zm20.37323,5.459h10.25635V34.7467H569.99054ZM590.36377,50.462h10.25635V40.20569H590.36377ZM610.737,55.921h10.25635V45.66467H610.737Zm20.37323,5.45883h10.25665V51.1235H631.11053Zm22.565,3.26706h5.8725V58.77426h-5.8725ZM396.44714,13.88809h.08v-.08h-.08ZM416.2,19.96735h1.32355V18.644H416.2Zm18.88428,6.94778h4.30115V22.614h-4.30115Zm18.67737,7.15454h7.69226V26.37741H453.7616ZM472.93549,40.728h10.09094V30.63736H472.93518Zm20.28991,5.54168h10.25635V36.01334H493.2251Zm20.37323,5.459H523.8559V41.47232H513.59955Zm20.37323,5.45883h10.25635V46.9313H533.97186Zm20.37323,5.459h10.25666V52.39014H554.3454Zm20.37323,5.45914h10.25635V57.84927H574.71832Zm20.37323,5.459H605.3479V63.30826H595.09155Zm20.37323,5.459h10.25635V68.76724H615.46478Zm20.37323,5.459h10.25666V74.22623H635.83832Zm21.82068,4.01154h7.36145V81.13266h-7.36145Zm24.01245,1.82007h.08v-.08h-.08ZM339.93164,20.73853h.33112v-.331h-.33112Zm19.21509,6.617h2.64679V24.70871h-2.64679Zm18.71887,7.11319h5.9552V28.51334h-5.9555Zm18.84277,6.98913h9.01581V32.44125h-9.01581Zm19.75281,6.07926h10.25635V37.28027H416.46118Zm20.37323,5.45883h10.25635V42.73956H436.83441Zm20.37323,5.459H467.464V48.19855H457.20764Zm20.37323,5.459h10.25635V53.65738H477.58087Zm20.37323,5.45883h10.25635V59.11636H497.9541Zm20.37323,5.459h10.25635V64.57535H518.32733Zm20.37323,5.459h10.25665V70.03433H538.70087Zm20.37323,5.459h10.25635V75.49332h-10.256Zm20.37323,5.459h10.25635V80.9523H579.44519Zm20.37323,5.459h10.25482V86.41129H599.81873Zm20.37323,5.459h10.25635V91.87027H620.19348Zm20.37323,5.459h10.25635V97.32925H640.56519Zm21.283,4.549h8.43658V103.698h-8.43658Zm24.426,1.40595h.33112v-.33112h-.33112ZM303.21075,33.626h1.73706V31.88889h-1.73706Zm17.43683,8.39523h7.60987V34.41132h-7.60987Zm19.21509,6.617h9.92554V38.71262h-9.92554Zm20.20783,5.62439h10.257V44.0062H360.07111Zm20.37323,5.459h10.25634V49.465H380.44373ZM400.817,65.18036H411.0733v-10.256H400.81512Zm20.37323,5.45914h10.25634V60.38315H421.19019Zm20.37323,5.459h10.25634V65.84213H441.56342Zm20.37323,5.459H472.193v-10.256H461.937Zm20.37323,5.459h10.25634V76.7601H482.30988Zm20.37323,5.459h10.25634V82.21909H502.68311Zm20.37323,5.459h10.25634V87.67807H523.05634Zm20.37323,5.459h10.25634V93.13705H543.42957Zm20.37323,5.459h10.25634V98.596H563.8028Zm20.37323,5.459h10.25634V104.055H584.176Zm20.37323,5.459H614.8056V109.514H604.54926Zm20.37323,5.459h10.25634V114.973h-10.256Zm20.37323,5.459h10.25634v-10.257H645.29572Zm20.74554,5.08667h9.512v-9.512h-9.512Zm24.71558,1.11664h.827v-.827h-.827Zm-422.7359-91.9078h.07995v-.08h-.07995Zm17.80914,8.02307H291.041V47.796h-5.21087Zm17.85,7.98172h10.25635V50.73135H303.68011Zm20.37323,5.459h10.25635V56.19125H324.05334Zm20.37323,5.459h10.25635V61.65024H344.42657Zm20.37323,5.459h10.25635V67.10922H364.80042Zm20.37323,5.459h10.25635V72.5679H385.173Zm20.37323,5.459h10.25635V78.02719H405.54626Zm20.37323,5.459h10.25635V83.48618H425.91522Zm20.37323,5.459H456.55V88.94516H446.29364Zm20.37323,5.459H476.9223V94.40414H466.666Zm20.37323,5.459h10.25666V99.86313H487.03522Zm20.37323,5.459h10.25635V105.3212H507.41241Zm20.37323,5.459H538.042V110.78079H527.78625Zm20.37323,5.459h10.25635V116.23978H548.15887Zm20.37323,5.459h10.25666V121.69907H568.53241Zm20.37323,5.459h10.25635V127.15805H588.90533Zm20.37323,5.459h10.25635V132.617H609.27856Zm20.37323,5.459h10.25635V138.076H629.65179Zm20.37323,5.459h10.25666V143.535H650.02533Zm20.53864,5.29358h9.92554v-9.92554h-9.92554Zm24.426,1.40595h1.82007v-1.82007h-1.82007ZM251.87531,63.12332h1.07543V62.048h-1.07543Zm16.56829,9.26361h8.6847V63.70209h-8.6847ZM288.031,78.63174h10.25634V68.3754H288.031Zm20.37323,5.459h10.25634V73.83438H308.40424Zm20.37323,5.459h10.25634V79.29337H328.77747Zm20.37323,5.459H359.407V84.75235H349.1507Zm20.37323,5.459h10.25634V90.21133H369.52393Zm20.37323,5.459H400.1535V95.67032H389.89716Zm20.37323,5.459h10.25634V101.1293H410.27039Zm20.37323,5.459H440.9V106.58829h-10.256Zm20.37323,5.459h10.25634V112.04727H451.01685Zm20.37323,5.459h10.25634V117.50626H471.39008Zm20.37323,5.459H502.02V122.96524H491.76361Zm20.37323,5.459h10.25634V128.42422H512.13654Zm20.37323,5.459H542.7652V133.88321H532.50885Zm20.37323,5.459h10.25634V139.34219H552.883Zm20.37323,5.459h10.25665V144.80118H573.25531Zm20.37323,5.459H603.8858V150.26016h-10.256Zm20.37323,5.459H624.259V155.71915H614.00269Zm20.37323,5.459h10.25634V161.17813H634.37592Zm20.37323,5.459H665.0058V166.63712H654.74945Zm20.41442,5.41748h10.17365V172.1373H675.16357ZM699.176,184.131h2.89489v-2.8949H699.176ZM234.74274,82.25632h4.053v-4.053h-4.053Zm17.31262,8.51928H262.229V80.60135H252.05536Zm20.33172,5.49988h10.25635V86.01913H272.38708Zm20.37323,5.459H303.017V91.47781H292.76062Zm20.37323,5.459h10.25635V96.9371H313.13354Zm20.37323,5.459h10.25635V102.39609h-10.256Zm20.37323,5.459h10.25727V107.85507H353.88092Zm20.37323,5.459h10.25635V113.31406H374.25323Zm20.37323,5.459h10.25635V118.773H394.62646Zm20.37323,5.459H425.256v-10.257H414.99969Zm20.37323,5.459h10.25635V129.691H435.37292Zm20.37323,5.459H466.0025V135.14969H455.74615Zm20.37323,5.459h10.25635V140.609H476.11938Zm20.37323,5.459H506.749V146.068H496.49261Zm20.37323,5.459h10.25635V151.527H516.86584Zm20.37323,5.459h10.25635V156.98593H537.23907Zm20.37323,5.459h10.25635V162.44492H557.6123Zm20.37323,5.459h10.25635V167.9039H577.98553Zm20.37323,5.459h10.25635V173.36288H598.35876Zm20.37323,5.459h10.2533v-10.257H618.72894Zm20.37323,5.459h10.25635V184.28055H639.10522Zm20.37323,5.459H669.7348V189.73953h-10.256Zm20.37323,5.459H690.109V195.19882H679.8526Zm23.26813,2.56409h4.46655V203.5527h-4.46655ZM200.45929,92.7034h.57892v-.57892h-.57892Zm16.6925,9.14h7.94007V93.90335h-7.94007Zm19.21509,6.61713h10.25635V98.20419H236.36688Zm20.37323,5.459h10.25635V103.66318H256.74011Zm20.37323,5.459h10.25635V109.12125H277.11334Zm20.37323,5.459h10.25635V114.58115H297.48657Zm20.37323,5.459h10.25635V120.04013H317.8598Zm20.37323,5.459h10.25635V125.49911H338.233Zm20.37323,5.459h10.25635V130.9581H358.60626Zm20.37323,5.459h10.25666V136.41708H378.9798Zm20.37323,5.459h10.25635V141.87607H399.35272Zm20.37323,5.459H429.9823V147.33414h-10.257Zm20.37323,5.459h10.25727V152.79373H440.1001Zm20.37323,5.459h10.25635V158.25272H460.47241Zm20.37323,5.459H491.102V163.7114H480.84564Zm20.37323,5.459h10.25665V169.171H501.21918Zm20.37323,5.459h10.25635V174.63H521.5921Zm20.37323,5.459h10.25635V180.089H541.96533Zm20.37323,5.459h10.25635V185.54794H562.33856Zm20.37323,5.459h10.25665V191.00693h-10.256Zm20.37323,5.459h10.25635V196.46591H603.085Zm20.37323,5.459H633.7146V201.92459H623.45825Zm20.37323,5.459h10.25635V207.38388H643.83148Zm20.37323,5.459h10.25665V212.84286H664.205Zm20.37323,5.459h10.25635v-10.257H684.57794Zm22.6062,3.22571h5.7901V225.9938h-5.7901ZM183.57544,111.58859h3.06v-3.06h-3.06Zm16.89911,8.9328h10.00824V110.51315H200.47455Zm20.249,5.58289h10.25635V115.84763H220.72357Zm20.37323,5.459h10.25635v-10.257H241.09528Zm20.37323,5.459h10.25635V126.7659H261.47Zm20.37323,5.459h10.25635V132.22488H281.84326Zm20.37323,5.459h10.25635V137.68387H302.21649Zm20.37323,5.459h10.25635V143.14285H322.59Zm20.37323,5.459H353.2193v-10.257H342.963Zm20.37323,5.459h10.25635V154.06082H363.33618Zm20.37323,5.459h10.25635V159.51981H383.70941Zm20.37323,5.459H414.339V164.97879H404.08264Zm20.37323,5.459h10.25635V170.43777H424.45587Zm20.37323,5.459h10.25635V175.89676H444.8291Zm20.37323,5.459h10.25635V181.35574H465.20233Zm20.37323,5.459h10.25635V186.81473h-10.256Zm20.37323,5.459h10.25635V192.27371h-10.26Zm20.37323,5.459h10.2533V197.73117H526.319Zm20.37323,5.459H556.9516V203.19168H546.69525Zm20.37323,5.459h10.25635V208.65067H567.06512Zm20.37323,5.459h10.25635V214.10965H587.44171Zm20.37323,5.459h10.25635V219.56863H607.81494Zm20.37323,5.459h10.25635V225.02762H628.18817Zm20.37323,5.459h10.25635V230.4866h-10.256Zm20.37323,5.459H679.191V235.94559H668.93463Zm20.37323,5.459h10.25635V241.40457H689.30786Zm21.86188,3.97h7.27875v-7.27966h-7.28333Zm23.97125,1.861h.08V257.412h-.08ZM148.924,122.4086h.331v-.33112h-.331Zm17.02332,8.8089h7.03064v-7.03064h-7.03064Zm18.76007,7.07184h10.25634V128.033H184.70734Zm20.37323,5.459h10.25634v-10.257H205.08057Zm20.37323,5.459h10.25665V138.951h-10.256Zm20.37323,5.459h10.25634V144.40994H245.827Zm20.37323,5.459H276.4566V149.86893h-10.256Zm20.37323,5.459h10.25726V155.32791H286.5744Zm20.37323,5.459h10.25634V160.7869H306.94672Zm20.37323,5.459h10.25634V166.24588H327.31506Zm20.37323,5.459h10.25634V171.70486H347.69318Zm20.37323,5.459h10.25634V177.16385H368.06641Zm20.37323,5.459H398.696V182.62131H388.44025Zm20.37323,5.459h10.25634V188.08182H408.81287Zm20.37323,5.459h10.25634V193.5408H429.1861Zm20.37323,5.459h10.25634V198.99979H449.55933Zm20.37323,5.459H480.1889V204.45877H469.93256Zm20.37323,5.459h10.25634V209.91776H490.30579Zm20.37323,5.459h10.25634V215.37674H510.679Zm20.37323,5.459h10.25634V220.83542H531.05225Zm20.37323,5.459h10.25665V226.2944h-10.256Zm20.37323,5.459h10.25634V231.75339H571.79871Zm20.37323,5.459h10.25634V237.21115H592.16522Zm20.37323,5.459h10.25726V242.67166H612.54608Zm20.37323,5.459h10.25634V248.13065H632.9184Zm20.37323,5.459H663.548V253.58841H653.28522Zm20.37323,5.459H683.9212V259.04861H673.66486Zm20.37323,5.459h10.25634V264.5076H694.03809Zm21.283,4.54895h8.43689V270.876H715.321Zm24.46747,1.36474h.24811v-.24811h-.24811ZM132.32986,141.00388H134.563V138.7706h-2.23328Zm16.69236,9.14h9.59472v-9.59473h-9.594Zm20.04211,5.7901h10.25635V145.67764H169.06433Zm20.37323,5.459h10.25635V151.13663H189.43756Zm20.37323,5.459h10.25635V156.59561H209.81079Zm20.37323,5.459h10.25635V162.0546H230.184Zm20.37323,5.459H260.8136V167.51114H250.55725Zm20.37323,5.459h10.25635V172.97256H270.93048Zm20.37323,5.459h10.25635V178.43155H291.30432Zm20.37323,5.459h10.25635V183.89053H311.67694Zm20.37323,5.459h10.25635v-10.257H332.05017Zm20.37323,5.459h10.25635V194.80637H352.41516Zm20.37323,5.459h10.25726v-10.257H372.79755Zm20.37323,5.459h10.25635V205.72647H393.16986Zm20.37323,5.459h10.25635V211.18546H413.53516Zm20.37323,5.459h10.25635V216.64444H433.91632Zm20.37323,5.459H464.5459V222.10129H454.29016Zm20.37323,5.459h10.25635V227.56241H474.66278Zm20.37323,5.459h10.25635V233.02139H495.036Zm20.37323,5.459h10.25635V238.48038H515.40924Zm20.37323,5.459h10.25635V243.93936H535.78247Zm20.37323,5.459h10.25635V249.39835H556.1557Zm20.37323,5.459h10.25635V254.85733H576.52893Zm20.37323,5.459h10.25635V260.31631H596.90216Zm20.37323,5.459h10.25635V265.7753H617.276Zm20.37323,5.459H647.905V271.23428H637.64862Zm20.37323,5.459H668.2782V276.69327H658.02185Zm20.37323,5.459h10.25635V282.15225H678.38531Zm20.37323,5.459h10.25726V287.61124H698.76923Zm20.82794,5.004h9.34662v-9.34662h-9.34662Zm24.63288,1.19934h.827V303.243h-.827ZM97.34741,152.15591h.165v-.1651h-.165Zm17.52,8.31269h5.87265v-5.87281H114.8674Zm18.18115,7.65075h10.25666V157.8624H133.04886Zm20.37308,5.459H163.678v-10.257H153.42163Zm20.37323,5.459h10.25635V168.781H173.7851Zm20.37323,5.459h10.25635V174.24h-10.256Zm20.37323,5.459h10.25635V179.69894H214.54132Zm20.37323,5.459H245.1709V185.15793H234.91455Zm20.37323,5.459h10.25635V190.61691H255.28778Zm20.37323,5.459h10.25635V196.07559H275.661Zm20.37323,5.459h10.25635V201.53488H296.03424Zm20.37323,5.459h10.25635V206.99142H316.40747Zm20.37323,5.459h10.25635V212.45285H336.7807Zm20.37323,5.459h10.25635V217.91183h-10.256Zm20.37323,5.459h10.25635V223.37082H377.52716Zm20.37323,5.459h10.25635V228.8298H397.90039Zm20.37323,5.459H428.53V234.28879H418.27362Zm20.37323,5.459H448.9032V239.74747h-10.268Zm20.37323,5.459h10.24506V245.20676H459.00879Zm20.37323,5.459h10.25635V250.66574H479.39331Zm20.37323,5.459h10.25635v-10.2597H499.75525Zm20.37323,5.459h10.25665V261.58127H520.14008Zm20.37323,5.459h10.25635V267.04269H540.513Zm20.37323,5.459h10.25635V272.50168H560.88623Zm20.37323,5.459h10.25635V277.96066H581.25946Zm20.37323,5.459h10.25665V283.41934H601.633Zm20.37323,5.459h10.25635V288.87863H622.00592Zm20.37323,5.459H652.6355V294.33762H642.37915Zm20.37323,5.459h10.25635V299.796H662.75238Zm20.37323,5.459h10.25665V305.255H683.12592Zm20.37323,5.459h10.25635V310.71121H703.49884ZM724.079,326.223h9.84283v-9.84283H724.079Zm24.426,1.40625H750.242v-1.73706h-1.73706ZM81.04355,170.46219h1.4888v-1.48895h-1.4888ZM97.6535,179.6846h9.01566v-9.01581H97.6535Zm19.75281,6.07941h10.25635V175.50766H117.40631Zm20.37308,5.459h10.25635V180.96664H137.77939Zm20.37308,5.459h10.25634V186.42563H158.15247Zm20.37323,5.459H188.782v-10.2597H178.5257Zm20.37323,5.459h10.25634V197.3436H198.89893Zm20.37323,5.459H229.5285V202.80258H219.27216Zm20.37323,5.459h10.25634V208.26157H239.64539Zm20.37323,5.459H270.275V213.72055H260.00519Zm20.37323,5.459H290.6485V219.17953H280.39215Zm20.37323,5.459h10.25634V224.63852H300.76508Zm20.37323,5.459h10.25634V230.0975H321.13831Zm20.37323,5.459h10.25634V235.55618H341.51154Zm20.37323,5.459h10.25634V241.0112H361.88477Zm20.37323,5.459h10.25634V246.47446H382.258Zm20.37323,5.459h10.25634V251.93344H402.63123Zm20.37323,5.459H433.2608V257.39243H423.00446Zm20.37323,5.459H453.634V262.85141H443.37769Zm20.37323,5.459h10.25634v-10.257H463.75092Zm20.37323,5.459h10.25634v-10.257H484.12415Zm20.37323,5.459h10.25634V279.22836H504.49738Zm20.37323,5.459h10.25665V284.68735H524.87091Zm20.37323,5.459h10.25634V290.14633H545.24384Zm20.37323,5.459h10.25634V295.60135H565.61707Zm20.37323,5.459h10.25634V301.0643h-10.2713Zm20.37323,5.459h10.257V306.523h-10.257Zm20.37323,5.459H636.9931V311.98227H626.73676Zm20.37323,5.459h10.25634V317.44125H647.11Zm20.37323,5.459h10.25634V322.90024H667.48322Zm20.37323,5.459H698.1131V328.35922H687.85675Zm20.37323,5.459H718.486V333.81821H708.22968Zm21.40686,4.425H737.825v-8.18847h-8.18847Zm24.30206,1.53015h.33111v-.33111h-.33111ZM63.74664,189.76089H68.544v-4.79736H63.74664Zm17.68494,8.147H91.60522V187.73422H81.43158Zm20.33173,5.49988h10.2565V193.1514h-10.2565Zm20.37323,5.459h10.25634V198.61038H122.13654Zm20.37307,5.459h10.2565V204.06937H142.50977Zm20.37308,5.459H173.139V209.52835H162.88269Zm20.37323,5.459h10.25635V214.98734H183.25592Zm20.37323,5.459H213.8855V220.44632H203.62915Zm20.37323,5.459h10.25635V225.90134H224.00238Zm20.37323,5.459H254.632V231.364H244.37561Zm20.37323,5.459h10.25635V236.823H264.74884Zm20.37323,5.459h10.25635V242.282H285.12207Zm20.37323,5.459h10.256V247.74124H305.495Zm20.37323,5.459h10.25635V253.20023H325.86853Zm20.37323,5.459h10.25635V258.65921H346.22528Zm20.37323,5.459h10.25665V264.11819H366.6153Zm20.37323,5.459h10.25635V269.57718H386.98822Zm20.37323,5.459H417.6178V275.03616H407.36145Zm20.37323,5.459H437.991V280.49118H427.73468Zm20.37323,5.459h10.25635V285.95413H448.10791Zm20.37323,5.459h10.25635V291.41312H468.48114Zm20.37323,5.459h10.25635V296.8721H488.85437Zm20.37323,5.459H519.484V302.33109H509.2276Zm20.37323,5.459h10.25665V307.79007H529.60114Zm20.37323,5.459h10.25635V313.24905H549.97406Zm20.37323,5.459h10.25635V318.708H570.34729Zm20.37323,5.459h10.25635V324.167H590.72052Zm20.37323,5.459H621.3504V329.62143H611.09406Zm20.37323,5.459h10.256V335.085H631.46667Zm20.37323,5.459h10.25635V340.544H651.84021Zm20.37323,5.459h10.25635V346.003H672.19513Zm20.41443,5.41748h10.17364V351.50314H692.62787Zm23.06122,2.77069h4.79736v-4.79736h-4.79736ZM30.04639,199.62936h.166v-.1651h-.166Zm16.27884,9.55323h8.354V200.8287h-8.354Zm19.42184,6.40991h10.256V205.33585H65.74677Zm20.37308,5.459H96.3765V210.79117H86.12Zm20.37308,5.459h10.2565V216.25015H106.47522Zm20.37323,5.459h10.25665V221.7131H126.86676Zm20.37307,5.459H157.496V227.17209H147.23969Zm20.37308,5.459H177.869V232.63107h-10.256Zm20.37323,5.459h10.25635V238.09006H187.98584Zm20.37323,5.459h10.25635V243.549H208.35907Zm20.37323,5.459h10.25635V249.008H228.7323Zm20.37323,5.459h10.25635V254.46671H249.10553Zm20.37323,5.459h10.25635V259.926H269.47876Zm20.37323,5.459h10.25635v-10.26H289.852Zm20.37323,5.459h10.25635V270.844H310.22522Zm20.37323,5.459H340.8548V276.303H330.59845Zm20.37323,5.459H361.228V281.76193H350.97168Zm20.37323,5.459h10.25635V287.22092H371.34491Zm20.37323,5.459h10.256V292.6799H391.71783Zm20.37323,5.459h10.25635V298.13889H412.09137Zm20.37323,5.459H442.721V303.59787H432.44507Zm20.37323,5.459h10.25665V309.05685H452.83813Zm20.37323,5.459h10.25635V314.51126H473.21106Zm20.37323,5.459h10.25635V319.97482H493.56506Zm20.37323,5.459h10.25635V325.4335H513.95752Zm20.37323,5.459H544.5871V330.89279H534.33075Zm20.37323,5.459h10.25635V336.35178H554.704Zm20.37323,5.459h10.25635V341.81046H575.07721Zm20.37323,5.459h10.25635V347.26944H595.45044Zm20.37323,5.459H626.08V352.72842H615.82367Zm20.37323,5.459h10.25635V358.18771H636.1969Zm20.37323,5.459h10.25635V363.6467H656.57013Zm20.95215,4.88006h9.09851V369.6846h-9.09851Zm24.21936,1.61286h1.40625v-1.40625h-1.40625Zm-667.71-156.91925H35.686v-1.65436H34.03168Zm16.19613,9.63592H60.23605V223.1044H50.22781ZM70.477,238.69553H80.73334V228.43918H70.477Zm20.37308,5.459h10.25634V233.89786H90.85007Zm20.37307,5.459h10.2565V239.35715h-10.2565Zm20.37323,5.459h10.25635V244.81613H131.59637Zm20.37323,5.459H162.226V250.27512h-10.256Zm20.37323,5.459h10.25635V255.7341H172.34283Zm20.37323,5.459h10.25635V261.19308h-10.2771Zm20.37323,5.459h10.257V266.65207H213.0899Zm20.37323,5.459h10.25635V272.11105H233.46252Zm20.37323,5.459H264.0921V277.56973H253.81531Zm20.37323,5.459h10.25635V283.029H274.209Zm20.37323,5.459h10.25635V288.488H294.58221Zm20.37323,5.459h10.25635V293.947h-10.256Zm20.37323,5.459H345.585V299.4014H335.32867Zm20.37323,5.459h10.25635V304.865H355.7019Zm20.37323,5.459h10.25635V310.32364H376.07513Zm20.37323,5.459h10.25635V315.78262H396.44836Zm20.37323,5.459h10.25635V321.24161H416.82159Zm20.37323,5.459h10.25635V326.7009H437.19482Zm20.37323,5.459H467.8244V332.15988H457.56805Zm20.37323,5.459h10.25635V337.61887h-10.256Zm20.37323,5.459h10.25635V343.07785H498.31451Zm20.37323,5.459h10.25635V348.53683H518.66516Zm20.37323,5.459h10.257V353.99124H539.06158Zm20.37323,5.459h10.25635V359.4548H559.4342Zm20.37323,5.459h10.25635V364.91348H579.78516Zm20.37323,5.459H610.437V370.37277H600.18066Zm20.37323,5.459h10.25635V375.83176H620.55389Zm20.37323,5.459h10.25635V381.29074h-10.256Zm22.5235,3.30841h5.95551V388.9h-5.95551Zm23.30963,2.52258h.08v-.07995h-.08ZM39.13422,246.20743h.91v-.91h-.91Zm16.19613,9.63592h9.26392v-9.26391H55.33035Zm19.87686,5.9552H85.46356V251.54221H75.20721Zm20.37308,5.459h10.25635V257.00119H95.58029Zm20.37308,5.459h10.2565V262.46017h-10.2565Zm20.37323,5.459H146.583V267.91916H136.3266Zm20.37323,5.459h10.25635V273.37784H156.69983Zm20.37323,5.459h10.25635V278.83682H177.07306Zm20.37323,5.459h10.25635V284.29123H197.44629Zm20.37323,5.459h10.25635V289.7551H217.81982Zm20.37323,5.459H248.4491V295.21408H238.19275Zm20.37323,5.459h10.25635V300.67307H258.566Zm20.37323,5.459h10.25635V306.13205H278.9151Zm20.37323,5.459h10.25665V311.591H299.31274Zm20.37323,5.459H329.942V317.05H319.68567Zm20.37323,5.459h10.25635V322.509H340.0351Zm20.37323,5.459h10.25635V327.968H360.43213Zm20.37323,5.459h10.25635V333.427H380.80566Zm20.37323,5.459h10.25635V338.88138H401.17859Zm20.37323,5.459h10.25635V344.34464H421.55182Zm20.37323,5.459H452.1814V349.80392H441.92505Zm20.37323,5.459h10.25635V355.26291H462.29828Zm20.37323,5.459h10.25635V360.72189H482.67151Zm20.37323,5.459h10.25635V366.18088H503.04474Zm20.37323,5.459h10.25635V371.63986H523.418Zm20.37323,5.459h10.25635V377.09885H543.7912Zm20.37323,5.459h10.25635V382.55783H564.16443Zm20.37323,5.459H594.794V388.01132H584.53766Zm20.37323,5.459h10.25635V393.4758h-10.282Zm20.66254,5.17h9.67742V399.2247h-9.67742Zm24.17785,1.654h2.06787v-2.06787h-2.06787ZM44.11224,269.063h.41306v-.41413h-.41306Zm16.4029,9.429h8.354v-8.35388h-8.354ZM79.937,284.90189H90.19333V274.64554H79.937Zm20.37308,5.459h10.25635V280.10452H100.28519Zm20.37308,5.459h10.25634V285.56351H120.68314Zm20.37323,5.459h10.2565V291.02249H141.05652Zm20.37307,5.459h10.25635V296.48148H161.42944Zm20.37323,5.459H192.059V301.94046H181.80267Zm20.37323,5.459h10.25635V307.39944H202.1759Zm20.37323,5.459h10.25635V312.85843H222.54913Zm20.37323,5.459h10.25635V318.31741H242.92236Zm20.37323,5.459h10.25635V323.77121H263.29559Zm20.37323,5.459h10.25635V329.23538H283.66882Zm20.37323,5.459H314.2984V334.69437H304.04205Zm20.37323,5.459h10.25635V340.15335H324.41528Zm20.37323,5.459h10.25635V345.61234H344.78851Zm20.37323,5.459h10.25635V351.07132h-10.2829Zm20.37323,5.459h10.23011V356.5303H385.50873Zm20.37323,5.459h10.25635V361.98929H405.9082Zm20.37323,5.459h10.25635V367.44827H426.25519Zm20.37323,5.459H456.911V372.90115H446.65466Zm20.37323,5.459h10.25635V378.36624H467.02789Zm20.37323,5.459h10.25635V383.82492H487.40112Zm20.37323,5.459H518.0307V389.28391H507.77435Zm20.37323,5.459h10.25635V394.74289H528.14758Zm20.37323,5.459h10.25635V400.20218H548.52081Zm20.37323,5.459h10.25635V405.66116H568.894Zm20.37323,5.459h10.25635V411.12015H589.26727Zm21.98609,3.84613H618.284V418.192h-7.03064Zm23.76434,2.06756h.24811v-.24811h-.24811ZM48.96606,292.04147h.165v-.1651h-.165Zm16.89927,8.9328h7.11334v-7.11334H65.86533Zm18.80157,7.03H94.92325V297.748H84.6669Zm20.37308,5.459h10.25635V303.20114H105.04Zm20.37308,5.459H135.6694V308.66592H125.41306Zm20.37323,5.459h10.2565V314.12491H145.78644Zm20.37307,5.459h10.25635V319.58389H166.15936Zm20.37323,5.459h10.25635V325.04288h-10.256Zm20.37323,5.459h10.25635V330.50186h-10.256Zm20.37323,5.459H237.5354V335.96085H227.27905Zm20.37323,5.459h10.25635V341.41983H247.65228Zm20.37323,5.459h10.25635V346.87881H268.02551Zm20.37323,5.459h10.25635V352.3378H288.39874Zm20.37323,5.459h10.25635V357.79129H308.772Zm20.37323,5.459h10.25635V363.25577H329.1452Zm20.37323,5.459h10.25635V368.71475H349.51843Zm20.37323,5.459H380.148V374.17374H369.892Zm20.37323,5.459h10.25635V379.63272H390.26489Zm20.37323,5.459h10.25635V385.09171H410.63812Zm20.37323,5.459H441.2677V390.55069H431.01135Zm20.37323,5.459h10.25635V396.00967H451.38458Zm20.37323,5.459h10.25666V401.46866H471.75812Zm20.37323,5.459h10.25635V406.92764H492.131Zm20.37323,5.459h10.25635V412.38113h-10.256Zm20.37323,5.459h10.25635V417.84561h-10.256Zm20.37323,5.459h10.25666V423.3046H553.251Zm20.53864,5.29358h9.92553V428.929h-9.92553Zm23.80584,2.02637h3.06v-3.06h-3.06Zm-526.38-117.42432h5.87265v-5.8728H71.21521Zm18.18115,7.65076H99.65271V320.851H89.39636Zm20.37308,5.459h10.25635V326.31H109.77005Zm20.37308,5.459h10.25634V331.769H130.14252Zm20.37323,5.459h10.25634V337.22794H150.51575Zm20.37323,5.459h10.25634V342.68143H170.889Zm20.37323,5.459h10.25634V348.1459H191.26221Zm20.37323,5.459h10.25634V353.60489H211.60522Zm20.37323,5.459h10.25665V359.06387H232.009Zm20.37323,5.459h10.25634V364.52286H252.3819Zm20.37323,5.459h10.25634V369.98184H272.72522Zm20.37323,5.459h10.25757V375.44083H293.12958Zm20.37323,5.459h10.25634V380.89981H313.50159Zm20.37323,5.459h10.25634V386.3588H333.87482Zm20.37323,5.459h10.25634V391.81778H354.24805Zm20.37323,5.459h10.25634V397.27127H374.62128Zm20.37323,5.459h10.25634V402.73575H394.99451Zm20.37323,5.459h10.25634V408.19473H415.36774Zm20.37323,5.459h10.25634V413.65372H435.74158Zm20.37323,5.459h10.25634V419.1127H456.1142Zm20.37323,5.459h10.25634V424.57169H476.48743Zm20.37323,5.459H507.117V430.03067H496.86066Zm20.37323,5.459h10.25634V435.48965H517.23389Zm20.37323,5.459h10.25634V440.94864H537.57507Zm21.57257,4.26h7.85766v-7.86377h-7.85766Zm24.01245,1.82006h.57892v-.57891h-.57892ZM76.68915,345.81589H81.073V341.432H76.68915ZM94.126,354.21127h10.25634V343.95493H94.09515Zm20.37307,5.459H124.7554V349.41391H114.49905Zm20.37308,5.459h10.25635V354.87289H134.87213Zm20.37323,5.459h10.25635V360.33188H155.24536Zm20.37323,5.459h10.25635V365.79086H175.6192Zm20.37323,5.459h10.25635V371.24985H195.99182Zm20.37323,5.459H226.6214v-10.264H216.36505Zm20.37323,5.459h10.25635V382.16141H236.73828Zm20.37323,5.459h10.25635V387.6268H257.11151Zm20.37323,5.459h10.25635V393.08578H277.48474Zm20.37323,5.459h10.25635V398.54477H297.858Zm20.37323,5.459h10.25665V404.00375H318.23151Zm20.37323,5.459h10.25635V409.46274H338.605Zm20.37323,5.459H369.234V414.92172h-10.2887Zm20.37323,5.459h10.25726V420.38071H379.35181Zm20.37323,5.459h10.25635V425.83878H399.72412Zm20.37323,5.459H430.3537V431.29135H420.09735Zm20.37323,5.459h10.25635v-10.257H440.47058Zm20.37323,5.459h10.25635V442.21664H460.84381Zm20.37323,5.459h10.25635V447.67563H481.217Zm20.37323,5.459h10.25635V453.13461H501.59088Zm20.45593,5.37628h10.091V458.6763h-10.091Zm23.35083,2.48139h4.13575v-4.13575h-4.16962ZM82.08786,368.20938h2.97775v-2.9779H82.08786Zm16.77506,9.057h10.17364V367.09274H98.86292Zm20.33172,5.49988H129.451V372.50992H119.195Zm20.37308,5.459H149.825V377.9689H139.56863Zm20.37308,5.459h10.25634V383.42789H159.9408Zm20.37323,5.459h10.25634V388.88687H180.31525Zm20.37323,5.459H210.9436V394.34555H200.68726Zm20.37323,5.459h10.25634V399.80453H221.06049Zm20.37323,5.459h10.25634V405.26352H241.43433Zm20.37323,5.459h10.25634V410.72281H261.80695Zm20.37323,5.459h10.25634v-10.257H282.18018Zm20.37323,5.459h10.25634V421.64078H302.55341Zm20.37323,5.459H333.183V427.09976H322.92664Zm20.37323,5.459h10.25634V432.55875H343.29987Zm20.37323,5.459h10.25634V438.01773H363.6731Zm20.37323,5.459h10.25634V443.47672H384.04633Zm20.37323,5.459h10.25665V448.9357h-10.256Zm20.37323,5.459h10.25634V454.39468H424.79279ZM445.166,470.11h10.25634V459.85336H445.1651Zm20.37323,5.459h10.256V465.31143H465.53894Zm20.37323,5.459h10.25634V470.77133H485.91248Zm21.2,4.63166h8.60229v-8.602h-8.60229Zm24.09515,1.73675h1.15814v-1.15814h-1.15814ZM87.39563,390.73257H89.2157v-1.82006H87.39563Zm16.32,9.512h9.92553v-9.92554h-9.926Zm20.20767,5.62439h10.25635V395.61264H123.92334Zm20.37308,5.459h10.2565V401.07132H144.29657Zm20.37307,5.459h10.25635V406.53061H164.66949Zm20.37323,5.459h10.25635V411.98959H185.04272Zm20.37323,5.459H215.6723V417.44827h-10.257Zm20.37323,5.459h10.25757V422.90756H225.79041Zm20.37323,5.459h10.25635V428.36655H246.16241Zm20.37323,5.459H276.792V433.82553H266.53534Zm20.37323,5.459h10.25635V439.28452H286.90887Zm20.37323,5.459h10.25635V444.74319H307.2821Zm20.37323,5.459h10.25635V450.20126H327.65533Zm20.37323,5.459h10.25635V455.66147H348.02856Zm20.37323,5.459h10.25635V461.12045H368.40179Zm20.37323,5.459h10.25635V466.57944H388.775Zm20.37323,5.459H419.4046V472.03842H409.14825Zm20.37323,5.459h10.25635V477.49741H429.52148Zm20.37323,5.459h10.25635V482.95639H449.89471Zm20.41443,5.41748h10.17365V488.45657H470.30914Zm22.81311,3.0188h5.29358v-5.29358h-5.29358Zm22.97852,2.85339h.08v-.08h-.08ZM92.53891,413.42148h.992v-.993h-.992Zm16.23749,9.59472h9.26376v-9.26391H108.7764Zm19.87686,5.95521h10.25635V418.71506H128.65326Zm20.37308,5.459h10.2565V424.174H149.02649Zm20.37307,5.459h10.25635V429.633H169.39941Zm20.37323,5.459H200.029v-10.257H189.77264Zm20.37323,5.459h10.25635V440.551H210.14587Zm20.37323,5.459h10.25635V446.01H230.5191Zm20.37323,5.459h10.25635V451.469H250.89233Zm20.37323,5.459h10.25635V456.928H271.26556Zm20.37323,5.459h10.25635V462.38693h-10.26Zm20.37323,5.459h10.2533V467.84561H312.009Zm20.37323,5.459H342.6416V473.3046H332.38525Zm20.37323,5.459h10.25635v-10.257h-10.2597Zm20.37323,5.459h10.25635V484.22287H373.13171Zm20.37323,5.459h10.25635v-10.257H393.50494Zm20.37323,5.459h10.25635V495.14084H413.87817Zm20.53864,5.29358h9.92554v-9.92554h-9.92554Zm21.53107,4.30114h7.60986v-7.60986h-7.60986Zm23.30932,2.52259h1.73706v-1.73676H479.2572ZM97.51587,436.2764h.49606v-.49591h-.49606Zm16.40289,9.42932h8.43674v-8.4375h-8.44025Zm19.46335,6.36871h10.25635V441.81778H133.38211Zm20.37308,5.459h10.25635V447.27676H153.75519Zm20.37323,5.459h10.25635V452.73605H174.12842Zm20.37323,5.459H204.758V458.195H194.50165Zm20.37323,5.459h10.25635V463.65372H214.87488Zm20.37323,5.459h10.25635V469.113H235.24811Zm20.37323,5.459h10.25635v-10.257H255.62134Zm20.37323,5.459h10.25635V480.031H275.99457Zm20.37323,5.459h10.25635V485.49H296.3678Zm20.37323,5.459h10.25635V490.94894H316.741Zm20.37323,5.459h10.25635V496.40793H337.11426Zm20.37323,5.459h10.25635V501.86691H357.48749Zm20.86944,4.96277h9.26392V507.8212h-9.26392Zm22.02729,3.80463h5.9552v-5.95551h-5.9552Zm22.02728,3.80462h2.64679v-2.64679H422.4115Zm21.53107,4.30115h.33111v-.33112h-.33111ZM102.40524,459.2128h.16495v-.1651h-.16495Zm16.81641,9.0155h7.27875v-7.27875h-7.27875Zm18.88428,6.94794h10.25634V464.91989H138.10593Zm20.37307,5.459h10.25635V470.37888H158.479Zm20.37323,5.459h10.25635V475.83786H178.85223Zm20.37323,5.459h10.25635V481.29684H199.22516Zm20.37323,5.459h10.25666V486.75552H219.599Zm20.37323,5.459h10.25635V492.21481H239.97192Zm20.37323,5.459H270.6015V497.6738H260.34515Zm20.37323,5.459h10.25635V503.13278H280.71838Zm20.41443,5.41779h10.17365V508.63327H301.13251Zm21.57227,4.25994h7.775v-7.775h-7.775Zm22.11,3.72193h4.30115v-4.30115h-4.30115Zm21.94458,3.88733h1.15815V529.518h-1.15815ZM124.61105,490.66971h5.95536v-5.9552h-5.95536Zm18.22266,7.60956h10.2565V488.02292H142.83386Zm20.37308,5.459h10.25634v-10.257H163.20679Zm20.37323,5.459h10.25634V498.94089H183.58Zm20.37323,5.459h10.25634V504.39987H203.95325Zm20.41443,5.41748h10.17364V509.90005H224.36768Zm20.82794,5.004h9.26391v-9.26392h-9.26391Zm21.94458,3.88763h6.1206v-6.12091h-6.1206Zm22.11,3.72193H291.897v-2.64679h-2.64679Zm21.61377,4.21813h.1651v-.1651h-.1651ZM130.08286,513.0278h4.46655v-4.46655h-4.46655Zm17.47818,8.35388h10.25634V511.12534H147.561Zm20.53863,5.29358h9.92554v-9.92553h-9.92554Zm21.36566,4.46625h7.94007v-7.94037h-7.94007Zm22.11,3.72192h4.46655v-4.46655h-4.46655Zm21.94458,3.88733h1.32354v-1.32354H233.5199ZM135.927,535.01358h2.23313V532.7803h-2.23328Zm20.08347,5.74829h2.81219v-2.81219h-2.81219Zm21.57257,4.26h.4129v-.41412h-.4129Z" fill="#26bad7"/>
        <path id="atom_13_line" data-name="atom 13 line" d="M807.16309,240.80521l-252.1753,9.40521,4.183-24.87885,256.82007-101.0733-4.10157-10.42175L561.33728,212.44339,593.6084,20.49667l-11.04675-1.85943L549.17389,217.23038,508.13934,233.38,414.85474,40.86,402.54913,255.89615l-21.34.7959L273.32,45.856l-9.96857,5.10162,105.513,206.19492L17.05841,270.2742l.414,11.19537L374.4931,268.1517,382.08618,282.99,176.45294,363.91861l220.23285-5.55267-2.04925,35.80566L50.18738,532.30545l4.1719,10.39825L393.92914,406.52512,382.81982,600.66086l11.18012.64087,11.41052-199.37989,31.1435-12.48931,71.52771,139.78,29.32006-174.39361,16.92871-.42694,75.849,156.53564,10.07813-4.88281L566.62476,354.08218l223.80066-5.643-.28107-11.19538-228.88275,5.77-1.45752-3.00781ZM743.17078,254.399,554.90662,329.89883,545.02045,309.496l8.07129-48.00628ZM427.11029,346.39359l-16.65985-32.55616,1.75476-30.66711,46.10687-18.14545,51.77887-1.93176L533.382,311.161l-4.93347,29.34784-8.86231,3.55377Zm62.663,9.62493-47.90679,19.212-9.09577-17.775Zm-75.083-9.31213-6.13007.155.625-10.91309ZM400.361,294.12094l-2.67883-5.235,3.04687-1.19935Zm12.54883-23.26263.23712-4.14887,11.38336-.42389ZM489.77356,252.643l12.81006-5.04211,2.17254,4.483Zm32.5415,9.99421,19.34632-.72205-5.07325,30.17731Zm18.31238,72.98736,1.18714-7.06085,2.6715,5.51361Zm6.3794-105.50628-3.45,20.51849-26.57684.99091-3.9444-8.14ZM423.57269,84.53964l74.11377,152.9541-41.69433,16.40931L413.79,255.47714ZM386.83594,267.6915l15.06988-.56214-.4721,8.24616-8.87757,3.49365Zm-147.29,83.43078,147.6654-58.11493,11.88477,23.22571-1.7691,30.91217ZM406.11664,389.568l1.80176-31.485,12.43255-.314,11.07727,21.64765Zm96.52679,104.433L446.99158,385.24612,521.89,355.20889l4.10462-.10315Z" fill="#110a4c"/>
        <g id="atom_13_dots" data-name="atom 13 dots">
          <circle id="circle4676" cx="635.26184" cy="509.31137" r="23.99994" fill="#110a4c"/>
          <circle id="circle4678" cx="266.87592" cy="48.66398" r="24" fill="#110a4c"/>
          <circle id="circle4680" cx="50.5896" cy="538.97934" r="23.99994" fill="#110a4c"/>
          <circle id="circle4682" cx="813.48175" cy="120.94498" r="23.99994" fill="#110a4c"/>
          <circle id="circle4684" cx="788.01788" cy="342.63016" r="16.79993" fill="#110a4c"/>
          <circle id="circle4686" cx="388.00537" cy="601.71097" r="16.79993" fill="#110a4c"/>
          <circle id="circle4688" cx="587.96539" cy="16.79993" r="16.79993" fill="#110a4c"/>
          <circle id="circle4690" cx="16.79993" cy="274.37485" r="16.79993" fill="#110a4c"/>
        </g>
      </g>
    </g>
  </g>
</svg>
