<svg xmlns="http://www.w3.org/2000/svg" width="24" height="20" viewBox="0 0 704.65163 719.99282">
  <g id="Layer_2" data-name="Layer 2">
    <g id="svg31">
      <g id="atom_06" data-name="atom 06">
        <path id="atom_06_bg" data-name="atom 06 bg" d="M601.72142,383.15931c0,149.92771-133.88092,272.18327-267.4234,272.18327-133.54264,0-281.35346-161.84677-281.35346-311.7749s143.86994-235.05,276.738-248.6773c137.25219-14.0769,272.03888,138.3413,272.03888,288.26889Z" fill="#def3fa"/>
        <path id="atom_06_ht" data-name="atom 06 ht" d="M330.443,51.0206l.972.20661-.20691.97219-.972-.2067Zm28.49731,9.042,4.73938,1.0074,1.00738-4.7393-4.73937-1.00741Zm29.809,7.3522,6.68365,1.42059,1.4206-6.6836-6.68366-1.4207Zm31.72455,6.10809,5.46844,1.1624,1.16242-5.46841-5.46845-1.1624Zm33.05084,5.247,2.06574.43909.43914-2.06579-2.06573-.43909Zm-207.27-12.3039.851.18079.181-.8506-.851-.18079Zm26.34613,9.6009,8.50647,1.80811,1.80817-8.50639L274.409,67.5605Zm26.27243,9.64871,16.28372,3.4613,3.46115-16.2838-16.28387-3.4612Zm29.51416,7.5436,18.7143,3.97779,3.97766-18.7141L332.365,74.545Zm30.98755,6.58659,18.71429,3.97781,3.97767-18.7141-18.7143-3.97779Zm30.98755,6.58668,18.71429,3.97782,3.97766-18.7142-18.714-3.9778Zm30.98785,6.58661,18.714,3.97782L444.042,98.28279,425.328,94.305Zm32.0929,5.869,16.89148,3.59,3.59009-16.89129-16.89118-3.59Zm35.26092,3.81161,9.84314,2.09221,2.09229-9.8431-9.84314-2.09229Zm36.07117,3.28529,1.45813.31.31006-1.45829-1.45813-.31Zm-332.0314-38.1242,1.58005.33581.336-1.58-1.58-.33581ZM217.32185,98.61l12.1521,2.583,2.583-12.152-12.1521-2.583Zm27.083,9.12251,18.59253,3.95191,3.952-18.59261-18.59268-3.952Zm30.914,6.6344,18.71414,3.97789,3.978-18.71422L279.2968,95.65275Zm30.9877,6.58669,18.71414,3.97781,3.97766-18.71422-18.71414-3.97781Zm30.9877,6.58661,18.7143,3.97781,3.97766-18.7141-18.7143-3.97782Zm30.98755,6.58668,18.71429,3.97782,3.97767-18.71422-18.714-3.97782Zm30.98785,6.58661,18.714,3.97781,3.97766-18.7141-18.714-3.97781Zm30.98755,6.58669,18.714,3.97781,3.97766-18.71422-18.714-3.97781Zm30.98755,6.5866,18.7143,3.97782,3.97766-18.71411-18.7143-3.97789Zm31.0614,6.53882,18.59253,3.952,3.952-18.5926-18.59253-3.952Zm34.96613,4.003,12.03064,2.55718,2.55707-12.0306-12.03064-2.55711Zm37.692,2.2327.972.20672.20691-.97221-.972-.20661Zm-424.5523-58.1712.365.078.07995-.36449-.365-.078Zm24.87274,10.55779,10.45074,2.22141,2.22138-10.4507L167.506,108.59716Zm26.05133,9.79229,18.59268,3.952,3.952-18.59261-18.59268-3.952Zm30.91415,6.63448,18.71415,3.97782,3.97781-18.71411L226.228,116.76046Zm30.98771,6.58661,18.71414,3.97789,3.978-18.71422-18.71414-3.97781Zm30.9877,6.58669,18.71414,3.97781,3.97781-18.71422-18.71414-3.97781Zm30.9877,6.58661,18.71429,3.97781,3.97766-18.7141-18.71429-3.97782Zm30.98755,6.58668,18.71429,3.97781,3.97766-18.71421-18.714-3.97782Zm30.98785,6.58661,18.714,3.97781,3.97766-18.7141-18.714-3.97781Zm30.98755,6.58668,18.714,3.97782,3.97766-18.71422-18.714-3.97781Zm30.98755,6.58661,18.714,3.97782,3.978-18.71411L443.1414,162.867Zm30.98755,6.58661,18.71429,3.97789,3.97766-18.71422L474.129,169.4536Zm30.98755,6.58669,18.71429,3.97781,3.97766-18.71422-18.71429-3.97781Zm31.2088,6.4431,18.34991,3.9,3.90015-18.35-18.34992-3.9Zm37.471,2.37621,7.65594,1.62731,1.6272-7.65579-7.656-1.6272ZM116.70982,137.237l3.038.64579.64606-3.038-3.038-.64579Zm22.44141,12.13669,17.1344,3.642,3.642-17.13429-17.1344-3.64208Zm30.03006,7.2086,18.71414,3.97789,3.97781-18.71422-18.71414-3.97782ZM200.169,163.169l18.71414,3.97782,3.97781-18.71411-18.71414-3.97789Zm30.9877,6.58661,18.71414,3.97781,3.978-18.7141-18.71414-3.97781Zm30.9877,6.58669,18.71414,3.97781,3.97782-18.71422-18.71415-3.97781Zm30.9877,6.5866,18.71414,3.97782,3.97766-18.71411-18.71414-3.97781Zm30.9877,6.58669,18.7143,3.97781,3.97766-18.71421-18.714-3.97782Zm30.98786,6.58661,18.714,3.97781,3.97766-18.7141-18.714-3.97782Zm30.98755,6.58661,18.714,3.97789,3.97766-18.71422-18.714-3.97781Zm30.98754,6.58668,18.714,3.97782,3.978-18.71411-18.71429-3.97789Zm30.98755,6.58661,18.7143,3.97782,3.97766-18.71411L452.048,197.148Zm30.98755,6.58669,18.7143,3.97781,3.97766-18.71422-18.7143-3.97781Zm30.98755,6.58661,18.7143,3.97781,3.97766-18.7141-18.714-3.97782Zm30.98786,6.58668,18.714,3.97781,3.97767-18.71421-18.71186-3.978Zm33.56628,4.912,14.46106,3.0738,3.07373-14.4609-14.46075-3.07381Zm39.3866,1.13231.60791.12921.12909-.60761-.60791-.1292Zm-521.936-75.06,7.29126,1.55,1.55-7.29118-7.29126-1.55Zm24.1359,11.0363,18.59253,3.95191,3.952-18.59261L120.138,159.05Zm30.91415,6.6344,18.71414,3.97789,3.97782-18.71421L151.07795,165.563Zm30.9877,6.58669,18.71414,3.97781,3.97782-18.7141-18.71415-3.97789Zm30.9877,6.58661,18.71414,3.97781,3.978-18.7141-18.71414-3.97782Zm30.9877,6.58668,18.71415,3.97782,3.97781-18.71422-18.71414-3.97781Zm30.98771,6.58661,18.71414,3.97782,3.97781-18.71411-18.71414-3.97781Zm30.9877,6.58669,18.71414,3.97781,3.97766-18.71422-18.71414-3.97781Zm30.9877,6.58661,18.714,3.97781,3.97766-18.7141-18.714-3.97782Zm30.98755,6.58661,18.714,3.97789,3.97766-18.71422-18.714-3.97782Zm30.98755,6.58668,18.714,3.97781,3.978-18.7141-18.71429-3.97789Zm30.98754,6.58661,18.7143,3.97781,3.97766-18.7141-18.71429-3.97781Zm30.98755,6.58668,18.7143,3.97782,3.97766-18.71422-18.7143-3.97781Zm30.98755,6.58661,18.7143,3.97782,3.97766-18.71411-18.714-3.97781Zm30.98786,6.58669,18.714,3.97781,3.97766-18.71422-18.714-3.97781Zm30.98755,6.58661,18.714,3.97781,3.97767-18.7141-18.714-3.97789Zm31.94549,5.9647,17.1344,3.642,3.642-17.1344-17.1344-3.642Zm40.05.7016,2.1875.465.46509-2.18739-2.1875-.4649ZM69.085,194.87486l8.75,1.86,1.86005-8.74951-8.74954-1.86Zm24.94629,10.51,18.71414,3.97782,3.97782-18.71411-18.71414-3.97789Zm30.98786,6.58661,18.71414,3.97789,3.97781-18.71421L128.997,193.25731Zm30.9877,6.58669L174.721,222.536l3.97781-18.71422-18.71414-3.97781Zm30.9877,6.58661,18.71414,3.97781,3.978-18.7141-18.71414-3.97782Zm30.9877,6.58668,18.71414,3.97782,3.97782-18.71422-18.71415-3.97782ZM248.97,238.318l18.71414,3.97782,3.97782-18.71411-18.71414-3.97781Zm30.9877,6.58669,18.71415,3.97781,3.97781-18.71422-18.71414-3.97781Zm30.98786,6.58661,18.71414,3.97781,3.97766-18.7141-18.71414-3.97789Zm30.9877,6.5866,18.714,3.97789,3.97766-18.71421-18.714-3.97782Zm30.98755,6.58669,18.714,3.97781,3.978-18.71421-18.71429-3.97782Zm30.98755,6.58661L422.6226,275.229l3.97766-18.7141L407.886,252.53713Zm30.98755,6.58668,18.71429,3.97782,3.97766-18.71422-18.71429-3.97781Zm30.98754,6.58661,18.7143,3.97782,3.97766-18.71411-18.714-3.97781Zm30.98786,6.58669,18.714,3.97781,3.97766-18.71422-18.714-3.97781Zm30.98755,6.58661,18.714,3.97781,3.97766-18.7141-18.714-3.97789Zm30.98755,6.58661,18.714,3.97789,3.978-18.71422L562.824,285.47029Zm31.28234,6.3953,18.22815,3.87451,3.87452-18.22811-18.22815-3.87451Zm40.56549.36678,2.43012.51659.517-2.43-2.43012-.51659ZM47.9615,221.94731l7.17,1.52389,1.5239-7.17-7.17-1.524ZM71.95,233.0792,90.66414,237.057,94.642,218.34291,75.92781,214.365Zm30.98786,6.58661L121.652,243.6437l3.98117-18.71441L106.919,220.95148Zm30.9877,6.58669,18.71414,3.97781,3.97781-18.71422-18.71414-3.97781Zm30.9877,6.58661,18.71414,3.97781,3.978-18.7141L168.89122,234.125Zm30.9877,6.58668,18.71414,3.97782,3.97782-18.71422-18.71414-3.97782Zm30.9877,6.58661,18.71414,3.97781,3.97782-18.7141-18.71414-3.97781Zm30.9877,6.58669,18.71415,3.97781,3.97781-18.71422-18.71414-3.97781Zm30.98786,6.5866,18.71414,3.97782,3.97781-18.71411L292.842,260.47151Zm30.9877,6.58661,18.714,3.97789,3.97766-18.71421-18.71033-3.97828Zm30.98755,6.58669,18.714,3.97781,3.978-18.71422-18.71429-3.97781ZM381.827,298.9456l18.71429,3.97781,3.97766-18.7141-18.71429-3.97782Zm30.98755,6.58668,18.71429,3.97782,3.97766-18.71422-18.71429-3.97782Zm30.98755,6.58661,18.71429,3.97782,3.97766-18.71411-18.714-3.97781ZM474.79,318.7055l18.714,3.97789,3.97766-18.71422-18.714-3.97781Zm30.98755,6.58669,18.714,3.97781,3.97766-18.7141-18.714-3.97789Zm30.98755,6.5866,18.714,3.97789,3.978-18.71421-18.71429-3.97782Zm30.98755,6.58669,18.71429,3.97781,3.97766-18.71421-18.71429-3.97782Zm31.3562,6.34739,18.10669,3.84869,3.84857-18.10662-18.10639-3.84868Zm41.15478-.016,1.33667.28411.28412-1.3367-1.33667-.28412ZM28.606,247.87138l2.67349.5682.56793-2.67342-2.67349-.56831Zm21.33636,12.85431,18.59253,3.952,3.952-18.59261-18.59253-3.952Zm30.91416,6.63448L99.57069,271.338l3.97781-18.7141-18.71414-3.97781Zm30.9877,6.58669,18.71414,3.97781,3.97782-18.71422-18.71415-3.97781Zm30.9877,6.58661,18.71414,3.97781,3.978-18.7141-18.71414-3.97782Zm30.9877,6.58668,18.71414,3.97781,3.97782-18.71421-18.71414-3.97782Zm30.9877,6.58661,18.71415,3.97781,3.97781-18.7141-18.71414-3.97781Zm30.98771,6.58661,18.71414,3.97789L258.487,285.557l-18.71414-3.97781Zm30.98785,6.58668,18.71414,3.97782,3.97782-18.71411-18.71415-3.97789Zm30.9877,6.58661,18.714,3.97782,3.97766-18.71411-18.71414-3.97781Zm30.98755,6.58669,18.714,3.97781,3.978-18.71422-18.7143-3.97781ZM359.74571,326.64,378.46,330.61777l3.97766-18.7141-18.71429-3.97782Zm30.98755,6.58668,18.71429,3.97782,3.97766-18.71422-18.71429-3.97782Zm30.98755,6.58661,18.71429,3.97781,3.97766-18.7141-18.714-3.97781Zm30.98785,6.58661,18.714,3.97789,3.97766-18.71422-18.714-3.97781Zm30.98755,6.58668,18.714,3.97782,3.97766-18.71411-18.714-3.97789Zm30.98755,6.58661,18.714,3.97782,3.978-18.71411-18.71429-3.97781Zm30.98755,6.58669,18.71429,3.97781,3.97766-18.71422L549.649,347.44562Zm30.98755,6.58661,18.71429,3.97781,3.97766-18.7141-18.71429-3.97782Zm32.90344,5.34271,15.5545,3.3062,3.30628-15.55458-15.55481-3.3062Zm40.27069.55809.24292.052.05-.24311-.24292-.052ZM30.58616,286.64945l14.09638,2.99622,2.99621-14.0963-14.09637-2.99629Zm28.18817,8.4047L77.48848,299.032l3.97781-18.7141L62.75215,276.34ZM89.762,301.64083l18.71414,3.97782,3.97781-18.71422-18.71414-3.97781Zm30.9877,6.58661,18.71414,3.97782,3.978-18.71411-18.71415-3.97781Zm30.9877,6.58669,18.71414,3.97781,3.97781-18.71422-18.71414-3.97781Zm30.9877,6.58661,18.71414,3.97781,3.97782-18.7141-18.71415-3.97789Zm30.9877,6.58661,18.71414,3.97789L236.4048,313.251l-18.71415-3.97782ZM244.7007,334.574l18.71414,3.97781,3.97781-18.71421-18.71414-3.97782Zm30.9877,6.58661,18.71414,3.97781,3.97781-18.7141-18.71414-3.97781Zm30.9877,6.58668,18.71414,3.97782,3.978-18.71422-18.71415-3.97781Zm30.9877,6.58661,18.71429,3.97782,3.97767-18.71411-18.7143-3.97781Zm30.98755,6.58669,18.71429,3.97781,3.97766-18.71422L372.629,342.2064Zm30.98755,6.58661,18.71429,3.97781,3.97766-18.7141-18.714-3.97789Zm30.98785,6.58661,18.714,3.97789,3.97766-18.71422-18.714-3.97782Zm30.98755,6.58668,18.714,3.97782,3.97766-18.71422-18.714-3.97782Zm30.98755,6.58661,18.714,3.97781,3.978-18.7141L496.57951,368.553Zm30.98755,6.58669,18.71429,3.97781,3.97766-18.71422-18.71429-3.97781Zm30.98755,6.5866,18.71429,3.97782,3.97766-18.71411-18.71429-3.97781Zm30.98755,6.58669,18.71429,3.97781,3.97766-18.71421-18.714-3.97782Zm36.21856,3.19,10.08606,2.1439L634.013,402.2748l-10.08667-2.14432ZM14.54658,310.42051l4.13178.87818.878-4.1317-4.13178-.87818Zm22.14661,12.328,18.71414,3.97781,3.97781-18.7141L40.671,304.0344ZM67.681,329.33519,86.39518,333.313,90.373,314.59879,71.65886,310.621Zm30.9877,6.58661,18.71415,3.97782,3.978-18.71411-18.71475-3.97812Zm30.9877,6.58669,18.71415,3.97781,3.97781-18.71422-18.71414-3.97781Zm30.98771,6.58661,18.71414,3.97781,3.97781-18.7141L164.622,330.38092Zm30.9877,6.5866,18.71414,3.97789,3.97781-18.71421-18.71414-3.97782Zm30.98785,6.58669,18.71414,3.97781,3.97782-18.71421-18.71414-3.97782Zm30.9877,6.58661,18.71414,3.97781,3.97782-18.7141-18.71414-3.97782Zm30.9877,6.58668,18.71415,3.97782,3.978-18.71422-18.71414-3.97781Zm30.98771,6.58661,18.71429,3.97782,3.97766-18.71411-18.71429-3.97781Zm30.98754,6.58669,18.7143,3.97781,3.97766-18.71422L350.548,369.90076Zm30.98755,6.58661,18.7143,3.97781,3.97766-18.7141-18.714-3.97789Zm30.98786,6.58661,18.714,3.97789,3.97766-18.71422-18.714-3.97782Zm30.98755,6.58668,18.714,3.97781,3.97766-18.71421-18.714-3.97782Zm30.98755,6.58661,18.714,3.97781,3.978-18.7141-18.7146-3.97781Zm30.98754,6.58668,18.7143,3.97782,3.97766-18.71422L505.48607,402.834Zm30.98755,6.58661,18.7143,3.97782,3.97766-18.71411-18.7143-3.97781Zm30.98755,6.58669,18.7143,3.97781,3.97766-18.71422-18.7146-3.97773Zm31.0614,6.53869,18.59284,3.952,3.952-18.5926-18.59283-3.952Zm40.93384.12757,2.1875.46493.46509-2.18727-2.1875-.465ZM19.99,346.95013l9.84314,2.09221,2.09213-9.8431L22.08213,337.107Zm25.61005,10.07938,18.71414,3.97782L68.292,342.29311l-18.71414-3.97782Zm30.9877,6.58661,18.71414,3.97782,3.97782-18.71411L80.56556,344.902Zm30.9877,6.58661,18.71414,3.97789,3.97782-18.71422-18.71415-3.97781Zm30.9877,6.58669,18.71414,3.97781,3.97782-18.7141L142.541,358.07524Zm30.9877,6.5866,18.71415,3.97789,3.97781-18.71421-18.71414-3.97782Zm30.98786,6.58669,18.71414,3.97781,3.97781-18.71421-18.71414-3.97782Zm30.9877,6.58661,18.71414,3.97781,3.97781-18.7141-18.71414-3.97781Zm30.9877,6.58668,18.71414,3.97782,3.978-18.71422-18.71414-3.97781Zm30.9877,6.58661,18.71414,3.97782,3.97782-18.71411-18.71414-3.97781Zm30.98755,6.58661,18.7143,3.97789,3.97766-18.71422-18.7143-3.97781Zm30.98755,6.58669,18.71429,3.97781,3.97767-18.7141-18.714-3.97789Zm30.98785,6.58661,18.714,3.97781,3.97766-18.71407-18.714-3.97781Zm30.98755,6.58668,18.714,3.97781L440.144,421.3328,421.43,417.355Zm30.98755,6.58661,18.714,3.97781,3.978-18.71406-18.7143-3.97782Zm30.98755,6.58669,18.71429,3.97781,3.97767-18.71422-18.7143-3.97781Zm30.98755,6.5866,18.71429,3.97782,3.97766-18.71407L514.39262,437.115Zm30.98755,6.58661,18.71429,3.97789,3.97766-18.71422-18.714-3.97781Zm30.98785,6.58669,18.714,3.97781,3.97766-18.71406-18.714-3.97789Zm35.84992,3.4288,10.69366,2.2731,2.273-10.69381-10.69366-2.27311ZM25.94963,383.145l14.704,3.12538,3.12545-14.704L29.07524,368.441Zm28.55652,8.16551,18.71414,3.97781,3.97781-18.7141L58.484,372.59642Zm30.9877,6.58661L104.208,401.875l3.978-18.71422L89.47181,379.183Zm30.9877,6.58668,18.71414,3.97782,3.97781-18.71411-18.71414-3.97789Zm30.9877,6.58661,18.71414,3.97782,3.97782-18.71411-18.71415-3.97781Zm30.98785,6.58669,18.71415,3.97781,3.97781-18.71422-18.71414-3.97781Zm30.98771,6.58661,18.71414,3.97781,3.97781-18.7141-18.71414-3.97782Zm30.9877,6.58668,18.71414,3.97781,3.978-18.71421-18.71414-3.97782Zm30.9877,6.58661,18.71414,3.97781,3.97781-18.71406L275.398,418.70294Zm30.9877,6.58661,18.71414,3.97789,3.97766-18.71422-18.71414-3.97781Zm30.9877,6.58668,18.7143,3.97782,3.97766-18.71407-18.714-3.97789Zm30.98785,6.58661,18.714,3.97782,3.97767-18.71407-18.714-3.97781ZM395.371,463.7636l18.714,3.97781,3.97766-18.71422-18.714-3.97781Zm30.98755,6.58661,18.714,3.97781,3.978-18.71406-18.7143-3.97782Zm30.98755,6.58668,18.7143,3.97782,3.97766-18.71422-18.7143-3.97782Zm30.98755,6.58661,18.71429,3.97781,3.97767-18.71406-18.7143-3.97789Zm30.98755,6.58661L538.0355,494.088l3.97766-18.71422-18.714-3.97781Zm30.98785,6.58669,18.714,3.97781,3.97766-18.71407-18.714-3.97789Zm32.0929,5.86891,16.89117,3.59,3.59009-16.89133-16.89117-3.59Zm41.00769.08.365.077.08-.36453-.365-.078ZM12.48878,405.24183l.486.1033.103-.4861-.486-.10331Zm21.852,12.51942,15.55466,3.30627,3.30627-15.55469L37.647,402.20663ZM63.413,425.59183l18.71414,3.97789,3.978-18.71422L67.391,406.87769Zm30.9877,6.58669,18.71414,3.97781,3.97781-18.71422L98.37852,413.4643Zm30.9877,6.5866,18.71414,3.97782,3.97781-18.71407-18.71414-3.97781Zm30.9877,6.58669,18.71414,3.97781,3.97782-18.71422-18.71415-3.97781Zm30.98785,6.58661,18.71415,3.97781,3.97781-18.71406-18.71414-3.97782Zm30.98771,6.58668,18.71414,3.97782,3.978-18.71422-18.71414-3.97781Zm30.9877,6.58661,18.71414,3.97782,3.97781-18.71407-18.71414-3.97789Zm30.9877,6.58661,18.71414,3.97789L303.019,456.962l-18.71414-3.97781Zm30.9877,6.58669,18.71414,3.97781,3.97766-18.71422-18.71414-3.97781Zm30.9877,6.58661,18.714,3.97781,3.97766-18.71407-18.714-3.97781ZM373.29,491.4583l18.714,3.97781,3.97766-18.71421-18.714-3.97782Zm30.98755,6.58661,18.714,3.97781,3.978-18.71406-18.71429-3.97782Zm30.98755,6.58668,18.71429,3.97782,3.97766-18.71422-18.71429-3.97781Zm30.98755,6.58661L484.967,515.196l3.97766-18.71407-18.71429-3.97789Zm30.98755,6.58661,18.71429,3.97789,3.97766-18.71422-18.714-3.97781Zm30.98785,6.58669,18.714,3.97781,3.97766-18.71422-18.714-3.97781Zm31.135,6.49093,18.47107,3.92617,3.92608-18.47107-18.47107-3.92617Zm40.27069.55817,3.16009.67162.672-3.16-3.15948-.67162ZM21.39518,439.5228l.486.1033.103-.48607-.486-.1033Zm22.367,12.18452,14.704,3.12554,3.12545-14.704-14.704-3.12538Zm28.55636,8.16559,18.71414,3.97782,3.97782-18.71422-18.71414-3.97782Zm30.9877,6.58661,18.71415,3.97781,3.97781-18.71406L107.284,447.74546Zm30.98771,6.58669L153.008,477.024l3.97781-18.71422L138.27171,454.332Zm30.98785,6.58661,18.71414,3.97781,3.97782-18.71407-18.71415-3.97781Zm30.9877,6.58668,18.71414,3.97781,3.97782-18.71421-18.71414-3.97782Zm30.9877,6.58661,18.71414,3.97781,3.97782-18.71406L231.235,474.092Zm30.9877,6.58661,18.71415,3.97789,3.97781-18.71422-18.71414-3.97781Zm30.98771,6.58668,18.71414,3.97782,3.97781-18.71422-18.71414-3.97781Zm30.9877,6.58661,18.714,3.97782,3.97766-18.71407-18.714-3.97781Zm30.98755,6.58669,18.714,3.97781,3.97766-18.71422-18.714-3.97781Zm30.98754,6.58661,18.714,3.97781,3.978-18.71407L386.173,507.02524Zm30.98755,6.58661,18.7143,3.97789,3.97766-18.71422-18.7143-3.97782Zm30.98755,6.58668,18.7143,3.97781,3.97766-18.71406-18.7143-3.97789Zm30.98755,6.58661,18.7143,3.97789L497.85,530.76288l-18.714-3.97781Zm30.98786,6.58668,18.714,3.97782,3.97767-18.71422-18.714-3.97781Zm30.98754,6.58661,18.714,3.97782,3.97766-18.71407-18.714-3.97781Zm39.2392,1.228,5.10376,1.0849,1.0849-5.10391-5.10376-1.0849ZM54.87861,484.553,65.937,486.90363l2.35047-11.05843-11.05835-2.35046Zm26.34613,9.60091,18.71414,3.97781,3.97782-18.71406-18.71414-3.97782Zm30.9877,6.58668,18.71415,3.97782,3.97781-18.71422-18.71414-3.97781Zm30.98786,6.58661,18.71414,3.97782,3.97781-18.71407-18.71414-3.97781Zm30.9877,6.58661,18.71414,3.97789L196.88,499.17749l-18.71415-3.97781Zm30.9877,6.58669,18.71414,3.97781,3.97782-18.71407-18.71414-3.97789Zm30.9877,6.58661,18.71414,3.97781,3.97782-18.71407-18.71414-3.97781Zm30.9877,6.58668,18.71415,3.97781,3.97781-18.71421-18.71414-3.97782Zm30.98786,6.58661,18.714,3.97781,3.97766-18.71406-18.71414-3.97782Zm30.98755,6.58668,18.714,3.97782,3.97766-18.71422-18.714-3.97781Zm30.98755,6.58661,18.714,3.97782,3.978-18.71407-18.71368-3.97812Zm30.98754,6.58661,18.7143,3.97789,3.97766-18.71422-18.71429-3.97781Zm30.98755,6.58669,18.7143,3.97781,3.97766-18.71406-18.7143-3.97789Zm30.98755,6.58661,18.7143,3.97781,3.97766-18.71407-18.714-3.97781Zm30.98786,6.58668,18.714,3.97782,3.97766-18.71422-18.714-3.97782Zm30.98755,6.58661,18.714,3.97781,3.97767-18.71406-18.714-3.97782Zm39.16564,1.27579,5.22553,1.11068,1.11084-5.22537-5.22553-1.11061ZM67.39524,516.48928l5.10376,1.0849,1.0849-5.10392L68.48,511.38544Zm23.32535,11.56257,17.742,3.77121,3.77121-17.742-17.742-3.77121Zm30.39841,6.96938,18.71414,3.97781L143.811,520.285,125.1081,516.3077Zm30.9877,6.58661,18.71414,3.97789,3.97782-18.71422-18.71415-3.97782Zm30.9877,6.58668,18.71414,3.97782,3.978-18.71407-18.71414-3.97789Zm30.9877,6.58661,18.71415,3.97781,3.97781-18.71406-18.71414-3.97782Zm30.98771,6.58669,18.71414,3.97781,3.97781-18.71422-18.71414-3.97781Zm30.98785,6.5866,18.71414,3.97782,3.97781-18.71407-18.71414-3.97781Zm30.9877,6.58669,18.71414,3.97781,3.97766-18.71421L311.023,555.82689Zm30.9877,6.58661,18.714,3.97781,3.978-18.71406-18.7143-3.97789Zm30.98755,6.58661,18.7143,3.97789,3.97766-18.71422-18.7143-3.97781Zm30.98755,6.58668,18.71429,3.97782,3.97767-18.71422-18.7143-3.97782Zm30.98755,6.58661L449.71,604.86544l3.97766-18.71407-18.714-3.97781Zm30.98785,6.58669,18.714,3.97781,3.97766-18.71422-18.714-3.97781Zm31.72455,6.10817L511.2072,617.302l3.71948-17.499-17.49909-3.71948Zm39.75525.893,3.038.64583.64606-3.038-3.038-.64583ZM79.11323,548.95273l.486.1033.103-.48607-.486-.1033Zm24.357,10.89272,11.42288,2.428,2.428-11.42288-11.42289-2.428Zm26.64093,9.41,18.59253,3.952,3.952-18.59268L134.063,550.66294Zm30.914,6.63452,18.71414,3.97781,3.978-18.71422-18.71415-3.97781Zm30.9877,6.58661,18.71414,3.97781,3.97782-18.71407-18.71415-3.97781Zm30.9877,6.58668,18.71414,3.97781,3.97782-18.71421-18.71415-3.97782Zm30.9877,6.58661,18.71414,3.97781,3.97782-18.71406-18.71414-3.97782Zm30.98786,6.58668,18.71414,3.97782,3.97781-18.71422-18.71414-3.97781Zm30.98755,6.58661,18.714,3.97782,3.97767-18.71407-18.714-3.97789Zm30.98754,6.58661,18.7143,3.97789,3.97766-18.71422-18.71429-3.97781Zm30.98755,6.58669,18.7143,3.97781,3.97766-18.71422-18.7143-3.97781Zm30.98755,6.58661,18.7143,3.97781,3.97766-18.71407-18.714-3.97781Zm30.98786,6.58668,18.714,3.97782,3.97767-18.71422-18.714-3.97782Zm34.37683,4.38568,13.12408,2.79,2.78992-13.12424-13.12409-2.79Zm38.5025,1.70647.72906.15488.155-.72907-.72906-.155Zm-394.44885-51.01,1.58.33569.336-1.58-1.58-.33577Zm24.65164,10.70129,12.03064,2.55722,2.55707-12.03056-12.03049-2.55707Zm27.083,9.1224,18.47107,3.92616,3.92608-18.47107-18.47107-3.92616Zm30.84,6.68243,18.71414,3.97781,3.97782-18.71422-18.71414-3.97781Zm30.9877,6.58661,18.71415,3.97781,3.97781-18.71406-18.71414-3.97782Zm30.98786,6.58661,18.71414,3.97789,3.97781-18.71422-18.71414-3.97781Zm30.9877,6.58668,18.71414,3.97782,3.97766-18.71407-18.71414-3.97789Zm30.9877,6.58661,18.71429,3.97781,3.97828-18.71459L328.84849,624.39Zm30.98755,6.58669,18.71429,3.97781,3.97766-18.71422L359.83543,630.977Zm30.98755,6.58661,18.71429,3.97781,3.97766-18.71407L390.823,637.5638ZM419.454,661.812l16.04065,3.4095,3.41-16.04073-16.04065-3.41Zm38.13416,1.94557,4.25323.90408.90393-4.25323-4.25323-.90408ZM158.6074,630.88037l.972.20668.20706-.97221-.972-.20714Zm26.78818,9.31382,7.89887,1.679,1.67892-7.89879-7.89886-1.679Zm26.93558,9.21821,14.58252,3.1,3.1-14.58252-14.58252-3.1Zm28.92486,7.92633,17.98493,3.82279,3.82293-17.985L245.079,639.35358Zm30.61936,6.82579,18.59253,3.952,3.952-18.59261-18.59268-3.952Zm30.914,6.63452,18.71414,3.97782,3.978-18.71407L306.76735,652.085Zm31.7244,6.10817,17.49877,3.71949,3.71949-17.49894-17.49848-3.72Zm34.082,4.57718,12.395,2.63459,2.63458-12.3951-12.395-2.63458Zm36.07147,3.2853,4.01.85243.852-4.01-4.01-.85243Zm-174.809-6.6742.365.078.07995-.3646-.365-.078Zm30.03006,7.20864,1.94427.41328.41306-1.94428-1.94443-.41328Zm30.25085,7.06512,3.15995.67162.67092-3.16-3.15994-.67162Zm32.24015,5.77332,1.09375.23246.23284-1.09367-1.09313-.23354Z" fill="#26bad7"/>
        <path id="atom_06_line" data-name="atom 06 line" d="M456.7971,218.6986a34.39394,34.39394,0,0,0-30.997-48.22442,33.57425,33.57425,0,0,0-26.57715,13.12222A190.54927,190.54927,0,0,0,289.522,174.75592C182.41935,199.27774,115.47432,305.98047,139.99626,413.08313a198.94431,198.94431,0,0,0,71.25412,112.22115A42.85439,42.85439,0,0,0,251.069,582.4856a42.05608,42.05608,0,0,0,36.31851-21.05049c136.95938,30.80276,260.41672-91.4235,232.84012-232.10327A197.22885,197.22885,0,0,0,456.7971,218.6986Zm31.362,217.34367A177.09456,177.09456,0,0,1,361.6439,543.41905a172.77909,172.77909,0,0,1-68.62945.9227,42.66018,42.66018,0,0,0-41.9458-47.70568,41.80836,41.80836,0,0,0-31.73676,14.63851,178.54142,178.54142,0,0,1-66.62125-107.6054C125.24482,263.635,262.07023,148.41768,392.02873,202.7627a33.91147,33.91147,0,0,0,50.3836,32.10178,178.934,178.934,0,0,1,45.74707,65.75081C505.58982,343.835,496.79924,414.6187,488.1591,436.04227Zm-85.90332-72.62169a89.20254,89.20254,0,1,1-89.19006-90.69412A89.20245,89.20245,0,0,1,402.25578,363.42058ZM704.6511,328.23877a42.86642,42.86642,0,0,0-29.56176-40.96088A346.4079,346.4079,0,0,0,355.501,22.63628a33.69,33.69,0,0,0-64.66995,3.57849,338.48981,338.48981,0,0,0-140.202,56.4691,346.53435,346.53435,0,0,0-78.607,74.34519c-34.42947-13.1247-61.29837,31.32679-35.47073,56.88591A357.07391,357.07391,0,0,0,32.4694,520.06426a34.42366,34.42366,0,0,0,31.1467,54.02481,345.47248,345.47248,0,0,0,87.01,85.78163,335.37231,335.37231,0,0,0,379.89868,2.27371c28.22815,29.46793,74.99054-8.06862,52.54761-42.8524A346.27765,346.27765,0,0,0,684.87632,364.591a43.05141,43.05141,0,0,0,19.77478-36.3522ZM608.19694,553.30233a339.15765,339.15765,0,0,1-42.13531,52.39707,34.05232,34.05232,0,0,0-44.725,37.82418C377.76786,742.48209,181.54411,709.41286,78.339,568.866c35.99854-23.39172,3.85346-80.45646-34.38156-59.23568a331.6149,331.6149,0,0,1,5.50842-287.72,34.346,34.346,0,0,0,35.50476-56.03248A319.66228,319.66228,0,0,1,291.5287,45.11133a33.69339,33.69339,0,0,0,65.10452-2.79261c149.78119,8.34321,260.20172,114.9877,294.5578,244.54859a43.01259,43.01259,0,0,0,11.23871,84.296,327.83727,327.83727,0,0,1-54.23248,182.139Z" fill="#110a4c"/>
      </g>
    </g>
  </g>
</svg>
