<svg xmlns="http://www.w3.org/2000/svg" width="843.20555" height="808.03223" viewBox="0 0 843.20555 808.03223">
  <g id="Layer_2" data-name="Layer 2">
    <g id="svg4790">
      <g id="atom_15" data-name="atom 15">
        <ellipse id="atom_15_solid" data-name="atom 15 solid" cx="396.07784" cy="365.95225" rx="292.34588" ry="203.97674" transform="translate(-140.27993 310.10384) rotate(-36.79157)" fill="#16d0fd"/>
        <path id="atom_15_ht" data-name="atom 15 ht" d="M513.32342,91.19507h.16564v.166h-.16564Zm19.82063,6.21155h1.32554V96.08154h-1.32508Zm20.069,5.79742h1.98777v-1.98761H553.213Zm20.5246,5.3421h1.73927V106.807h-1.73927Zm20.89729,4.96918h.7454v-.74493h-.7454ZM436.4559,92.62939h.16563v-.166h-.16563Zm19.32358,6.543h2.3191v-2.319h-2.319Zm18.74389,7.12281h5.632v-5.632h-5.632Zm19.03382,6.83288h8.36509v-8.36517h-8.36509Zm19.53071,6.33576h10.10437V109.35944H513.0879Zm20.31754,5.549h10.27V114.74274h-10.27Zm20.4,5.46631h10.27V120.20935h-10.27Zm20.44166,5.4248h10.1873V125.71686H574.24749Zm20.81452,5.05219h9.359V131.597h-9.359Zm21.9326,3.934h6.29532v-6.29456h-6.295Zm22.63656,3.23h1.82213v-1.82221h-1.82213Zm-239.4902-43.04077h.66261v-.66315h-.66261Zm18.12271,7.74383h5.2179v-5.21789h-5.2179Zm18.247,7.61994H446.035v-9.52485H436.5103Zm20.02761,5.83892h10.27V116.012h-10.27Zm20.4,5.46631h10.27V121.47827h-10.27Zm20.4,5.46631h10.27V126.94458h-10.27Zm20.4,5.46631h10.27V132.41089h-10.27Zm20.4,5.46631h10.27V137.8772H538.13955Zm20.4,5.46631h10.27V143.34351h-10.2684Zm20.4,5.46631h10.27V148.80981h-10.2684Zm20.4,5.4663h10.27V154.27612h-10.27Zm20.4,5.46631h10.27V159.74243h-10.27Zm21.39427,4.47235h8.28232V166.2027h-8.28232Zm23.83751,2.02912h1.408V175.1059h-1.408Zm-300.896-59.23462h.66262v-.66315h-.66262Zm17.543,8.32367h6.37741v-6.37726H381.6168Zm18.53684,7.33h10.10452V122.82867h-10.1046Zm20.31753,5.549h10.27V128.212h-10.27Zm20.4,5.4663h10.27V133.67828h-10.27Zm20.4,5.46631h10.27V139.14459h-10.27Zm20.4,5.46631h10.27V144.6109h-10.27Zm20.4,5.46631h10.27V150.07721h-10.27Zm20.4,5.46631h10.27V155.54352h-10.27Zm20.4,5.46631h10.27V161.00922h-10.27Zm20.4,5.46631h10.27V166.47614h-10.27Zm20.4,5.4663h10.27V171.94244h-10.27Zm20.4,5.46631h10.27V177.40875h-10.27Zm20.4,5.46631h10.27V182.87506h-10.27ZM644.91308,198.57h10.1873V188.38257H644.91659Zm22.96791,2.89856h5.05219v-5.05219H667.881Zm-339.67-72.19483h.24849v-.24811H328.211Zm17.75,8.11646h5.54916v-5.549H345.961Zm18.08128,7.78534h10.1873V134.9884h-10.184Zm20.35889,5.5075h10.27V140.4129h-10.27Zm20.4,5.46631h10.27V145.87921h-10.27Zm20.4,5.46631h10.27V151.34552h-10.27Zm20.4,5.46631h10.27V156.81183h-10.27Zm20.4,5.46631h10.27V162.27814h-10.27Zm20.4,5.46631h10.27V167.74445h-10.27Zm20.4,5.4663h10.27V173.21075h-10.27Zm20.4,5.46631h10.27V178.67706h-10.27Zm20.4,5.46631h10.27V184.14337h-10.27Zm20.4,5.46631h10.27V189.60968h-10.27Zm20.4,5.46631h10.27V195.076h-10.27Zm20.4,5.46631h10.27V200.5423h-10.27Zm20.4,5.46631h10.27V206.00861h-10.27Zm20.4,5.46631h10.27V211.47491h-10.27Zm21.85,4.01672h7.37832V218.3905h-7.3713Zm24.04458,1.8219h.083v-.08h-.083Zm-384.11519-79.483h2.5676v-2.56745h-2.5676Zm16.88,8.9862h9.60747v-9.60754h-9.60751Zm20.06912,5.79773h10.27V152.61444h-10.27Zm20.4,5.46631h10.27V158.08075h-10.27Zm20.4,5.46631h10.27V163.54706h-10.27Zm20.4,5.46631h10.27V169.01337h-10.27Zm20.4,5.46631h10.27V174.47968h-10.27Zm20.4,5.4663h10.27V179.946H450.33957Zm20.4,5.46631h10.27V185.41229H470.73957Zm20.4,5.46631h10.27V190.8786H491.13958Zm20.4,5.46631h10.27V196.34491h-10.27Zm20.4,5.46631h10.27V201.81122h-10.27Zm20.4,5.46631h10.27V207.27753h-10.27Zm20.4,5.46631h10.27V212.74384h-10.27Zm20.4,5.4663h10.27v-10.271h-10.27Zm20.4,5.46631h10.27V223.67645h-10.27Zm20.4,5.46631h10.27V229.14276h-10.27Zm20.4,5.46631h10.27V234.60907h-10.27Zm21.68411,4.18243h7.716V241.359h-7.70263Zm-399.50458-89.96h.16559v-.166h-.16559Zm17.00458,8.862h6.95721v-6.95709h-6.95763Zm18.7439,7.1228h10.27V164.81628h-10.27Zm20.4,5.46631h10.27V170.28259h-10.27Zm20.4,5.46631h10.27V175.7489h-10.27Zm20.4,5.46631h10.27V181.21521h-10.27Zm20.4,5.46631h10.27V186.68152h-10.27Zm20.4,5.46631h10.27V192.14783h-10.27Zm20.4,5.46631h10.27V197.61414h-10.27Zm20.4,5.4663h10.27V203.08044h-10.27Zm20.4,5.46631h10.27V208.54675h-10.27Zm20.4,5.46631h10.27V214.01306h-10.27Zm20.4,5.46631h10.27V219.47937h-10.27Zm20.4,5.46631h10.27V224.94568h-10.27Zm20.4,5.46631h10.27V230.412h-10.27Zm20.4,5.46631h10.27V235.8783h-10.27Zm20.4,5.46631h10.27V241.3446h-10.27Zm20.4,5.4663h10.27v-10.2716h-10.27Zm20.4,5.46631h10.27V252.27722h-10.27Zm20.4,5.46631h10.27V257.74353h-10.27Zm22.51228,3.35419h6.04607v-6.04859h-6.02684Zm-421.3958-93.93555h1.49079v-1.49292h-1.49079Zm16.3834,9.48334h9.52469v-9.52484h-9.52469Zm20.02758,5.83893h10.27V182.48444h-10.27Zm20.4,5.46631h10.27V187.95074h-10.27Zm20.4,5.4663h10.27V193.41705h-10.27Zm20.4,5.46631h10.27V198.88336h-10.27Zm20.4,5.46631h10.27V204.34967h-10.27Zm20.4,5.46631h10.27V209.816h-10.27Zm20.4,5.46631h10.27V215.28229h-10.27Zm20.4,5.46631h10.27V220.7486h-10.27Zm20.4,5.46631h10.27V226.2149h-10.27Zm20.4,5.4663h10.27V231.68121h-10.27Zm20.4,5.46631h10.27V237.14752h-10.27Zm20.4,5.46631h10.27V242.61383h-10.27Zm20.4,5.46631h10.27V248.08014h-10.27Zm20.4,5.46631h10.27V253.54645h-10.27Zm20.4,5.46631h10.27V259.01276h-10.246Zm20.4,5.46631h10.27V264.47906h-10.246Zm20.4,5.4663h10.27V269.94537H623.00955Zm20.4,5.46631h10.27V275.41168h-10.27Zm20.4,5.46631h10.27V280.878h-10.27Zm23.7133,2.15332h3.64418v-3.6441H687.499Zm-444.1153-97.08282h3.72712v-3.72711h-3.72712Zm17.17,8.69629H270.741V194.72748H260.5797Zm20.35889,5.50781h10.27V200.15259h-10.27Zm20.4,5.46631h10.27V205.6189h-10.27Zm20.4,5.46631h10.27V211.08521h-10.27Zm20.4,5.4663h10.27V216.55151h-10.27Zm20.4,5.46631h10.27V222.01782h-10.243Zm20.4,5.46631h10.27V227.48413h-10.243Zm20.4,5.46631h10.27V232.95044h-10.243Zm20.4,5.46631h10.27V238.41675h-10.27Zm20.4,5.46631h10.27V243.88306h-10.27Zm20.4,5.46631h10.27V249.34937h-10.27Zm20.4,5.4663h10.27V254.81567h-10.27Zm20.4,5.46631h10.27V260.282h-10.27Zm20.4,5.46631h10.27V265.74829h-10.27Zm20.4,5.46631h10.27V271.2146h-10.27Zm20.4,5.46631h10.27V276.68091h-10.27Zm20.4,5.46631h10.27V282.14722h-10.27Zm20.4,5.46631h10.27V287.60925h-10.27Zm20.4,5.4663h10.27V293.07983h-10.27Zm20.4,5.46631h10.27V298.54614h-10.27Zm20.52459,5.34211H678.659V304.13666h-9.98939Zm25.03853.82794h.7454v-.74494H693.675ZM226.78957,214.83521h5.632v-5.632h-5.632Zm18.08128,7.78533h10.27V212.35046h-10.27Zm20.4,5.46631h10.27V217.81677h-10.27Zm20.4,5.46631h10.27V223.28308h-10.27Zm20.4,5.46631h10.27V228.74939h-10.27Zm20.4,5.46631h10.27V234.2157h-10.27Zm20.4,5.46631h10.27V239.682h-10.27Zm20.4,5.46631h10.27V245.14832h-10.27Zm20.4,5.4663h10.27V250.61462h-10.27Zm20.4,5.46631h10.27V256.08093h-10.27Zm20.4,5.46631h10.27V261.54724h-10.27Zm20.4,5.46631h10.27V267.01355h-10.27Zm20.4,5.46631h10.27V272.47986h-10.27Zm20.4,5.46631h10.27V277.94617h-10.27Zm20.4,5.46631h10.27V283.41248h-10.27Zm20.4,5.4663h10.27V288.87878h-10.27Zm20.4,5.46631h10.27V294.34509h-10.27Zm20.4,5.46631h10.27V299.8114h-10.27Zm20.4,5.46631h10.27V305.27771h-10.27Zm20.4,5.46631h10.27V310.744h-10.27Zm20.4,5.46631h10.27v-10.271h-10.27Zm20.4,5.46631h10.27V321.67664h-10.27Zm22.30522,3.5614h6.46v-6.46h-6.46Zm-464.64-102.42493h6.79161v-6.79138h-6.78424Zm18.66112,7.20551h10.27V230.01862h-10.27Zm20.4,5.4663h10.27V235.48492h-10.27Zm20.4,5.46631h10.27V240.95123h-10.27Zm20.4,5.46631h10.27V246.41754h-10.27Zm20.4,5.46631h10.27V251.88385h-10.27Zm20.4,5.46631h10.27V257.35016h-10.27Zm20.4,5.46631h10.27V262.81647h-10.27Zm20.4,5.46631h10.27V268.28278h-10.27Zm20.4,5.46631h10.27V273.74908h-10.27Zm20.4,5.4663h10.27V279.21539h-10.27Zm20.4,5.46631h10.27V284.6817h-10.27Zm20.4,5.46631h10.27V290.148h-10.27Zm20.4,5.46631h10.27V295.61432h-10.27Zm20.4,5.46631h10.27V301.08063h-10.2578Zm20.4,5.46631h10.27V306.54694H514.80955Zm20.4,5.46631h10.27V312.01324H535.20956Zm20.4,5.4663h10.27V317.47955h-10.27Zm20.4,5.46631h10.27V322.94586h-10.27Zm20.4,5.46631h10.27V328.41217h-10.27Zm20.4,5.46631h10.27V333.87848h-10.27Zm20.4,5.46631h10.27V339.34479h-10.27Zm20.4,5.46631h10.27V344.80927h-10.27Zm24.87282.99395h1.32523v-1.32507H682.4703Zm-487.717-105.19928h7.04v-7.0401h-7.04Zm18.78529,7.0813h10.27V247.68707h-10.27Zm20.4,5.46631h10.27V253.15338h-10.27Zm20.4,5.46631h10.27V258.61969h-10.27Zm20.4,5.46631h10.27V264.086h-10.269Zm20.4,5.46631h10.27V269.55231h-10.269Zm20.4,5.46631h10.27V275.01862h-10.269Zm20.4,5.4663h10.27V280.48492h-10.27Zm20.4,5.46631h10.27V285.95123h-10.27Zm20.4,5.46631h10.27V291.41754h-10.27Zm20.4,5.46631h10.27V296.88385h-10.27Zm20.4,5.46631h10.27V302.35016h-10.27Zm20.4,5.46631h10.27V307.81647h-10.27Zm20.4,5.46631h10.27V313.28278h-10.27Zm20.4,5.46631h10.27V318.74908h-10.27Zm20.4,5.4663h10.27V324.21539h-10.27Zm20.4,5.46631h10.27V329.6817h-10.27Zm20.4,5.46631h10.27V335.148h-10.27Zm20.4,5.46631h10.27V340.61432h-10.27Zm20.4,5.46631h10.27V346.08063h-10.27Zm20.4,5.46631h10.27V351.54694h-10.27Zm20.4,5.46631h10.27V357.01324h-10.27Zm20.4,5.4663h10.27V362.47955h-10.27Zm22.76093,3.10578h5.54909v-5.54932h-5.54963ZM179.12786,268.49915h6.95721v-6.9571h-6.95721Zm18.7439,7.1228h10.27V265.35187h-10.27Zm20.4,5.46631h10.27V270.81818h-10.27Zm20.4,5.46631h10.27V276.28448h-10.27Zm20.4,5.4663h10.27V281.75079h-10.27Zm20.4,5.46631h10.27V287.2171h-10.27Zm20.4,5.46631h10.27V292.68341h-10.27Zm20.4,5.46631h10.27V298.14972h-10.27Zm20.4,5.46631h10.27V303.616h-10.27Zm20.4,5.46631h10.27V309.08234h-10.27Zm20.4,5.46631h10.27V314.54865h-10.27Zm20.4,5.4663h10.27V320.015h-10.27Zm20.4,5.46631h10.27V325.48126h-10.27Zm20.4,5.46631h10.27V330.94757h-10.27Zm20.4,5.46631h10.27V336.41388h-10.27Zm20.4,5.46631h10.27V341.88019h-10.27Zm20.4,5.46631h10.27V347.3465h-10.27Zm20.4,5.46631h10.27V352.81281h-10.27Zm20.4,5.4663h10.27V358.27911h-10.27Zm20.4,5.46631h10.27V363.74542h-10.27Zm20.4,5.46631h10.27V369.21173h-10.27Zm20.4,5.46631h10.27V374.678h-10.27Zm20.4,5.46631h10.27V380.14435H626.27958Zm21.0215,4.845h9.02779v-9.02771h-9.02779Zm24.83139,1.03516h.16571v-.166h-.16586ZM163.99958,285.62836h5.88v-5.88044h-5.88Zm18.20549,7.66113h10.27V283.01941h-10.27Zm20.4,5.46631h10.27V288.48572h-10.27Zm20.4,5.46631h10.27V293.952h-10.27Zm20.4,5.46631h10.27V299.41833h-10.27Zm20.4,5.4663h10.27V304.88464h-10.27Zm20.4,5.46631h10.27V310.351h-10.27Zm20.4,5.46631h10.27V315.81726h-10.27Zm20.4,5.46631h10.27V321.28357h-10.27Zm20.4,5.46631h10.27V326.74988h-10.27Zm20.4,5.46631h10.27V332.21619h-10.27Zm20.4,5.46631h10.27V337.6825h-10.27Zm20.4,5.4663h10.27V343.1488H406.60955Zm20.4,5.46631h10.27V348.61511H427.00956Zm20.4,5.46631h10.27V354.08142H447.40957Zm20.4,5.46631h10.27V359.54773h-10.27Zm20.4,5.46631h10.27V365.014h-10.27Zm20.4,5.46631h10.27V370.48035h-10.27Zm20.4,5.46631h10.27V375.94666h-10.27Zm20.4,5.4663h10.27V381.413h-10.27Zm20.4,5.46631h10.27V386.87927h-10.27Zm20.4,5.46631h10.27V392.34558h-10.27Zm20.4,5.46631h10.27V397.81189h-10.27Zm20.4,5.46631h10.27V403.2782h-10.27Zm24.583,1.28357h1.9049v-1.90491H655.588ZM149.1617,302.46735h4.224v-4.22394h-4.224Zm17.37721,8.48938h10.27V300.68665h-10.27Zm20.4,5.4663h10.27V306.15295H186.9396Zm20.4,5.46631h10.27V311.61926H207.33957Zm20.4,5.46631h10.27V317.08557H227.73958Zm20.4,5.46631h10.27V322.55188h-10.27Zm20.4,5.46631h10.27V328.01819h-10.27Zm20.4,5.46631h10.27V333.4845h-10.27Zm20.4,5.46631h10.27V338.95081h-10.27Zm20.4,5.4663h10.27V344.41711h-10.27Zm20.4,5.46631h10.27V349.88342h-10.27Zm20.4,5.46631h10.27V355.34973h-10.27Zm20.4,5.46631h10.27V360.816h-10.27Zm20.4,5.46631h10.27V366.28235h-10.27Zm20.4,5.46631h10.27V371.74866h-10.27Zm20.4,5.46631h10.27V377.215h-10.27Zm20.4,5.4663h10.27V382.68127h-10.27Zm20.4,5.46631h10.27V388.14758h-10.27Zm20.4,5.46631h10.27V393.61389h-10.27Zm20.4,5.46631h10.27V399.0802h-10.27Zm20.4,5.46631h10.27V404.54651h-10.27Zm20.4,5.46631h10.27V410.01282h-10.27Zm20.4,5.46631h10.27V415.47913h-10.27Zm20.4,5.46631h10.27V420.94543h-10.27Zm23.42338,2.44323h4.224v-4.22394h-4.224ZM134.65479,318.97522h1.90479v-1.90491h-1.90491Zm16.21769,9.64874h10.27V318.35388h-10.27Zm20.4,5.46631h10.27V323.82019h-10.27Zm20.4,5.46631h10.27V329.2865h-10.27Zm20.4,5.46631h10.27V334.75281h-10.27Zm20.4,5.46631h10.27V340.21912h-10.27Zm20.4,5.46631h10.27V345.68542h-10.27Zm20.4,5.4663h10.27V351.15173h-10.27Zm20.4,5.46631h10.27V356.618h-10.27Zm20.4,5.46631h10.27V362.08435h-10.27Zm20.4,5.46631h10.27V367.55066h-10.27Zm20.4,5.46631h10.27V373.017h-10.27Zm20.4,5.46631h10.27V378.48328h-10.27Zm20.4,5.46631h10.27V383.94958h-10.27Zm20.4,5.4663h10.27V389.41589h-10.27Zm20.4,5.46631h10.27V394.8822h-10.27Zm20.4,5.46631h10.27V400.34851h-10.27Zm20.4,5.46631h10.27V405.81482h-10.27Zm20.4,5.46631h10.27V411.28113h-10.27Zm20.4,5.46631h10.27V416.74744h-10.27Zm20.4,5.46631h10.27V422.21375H538.4796Zm20.4,5.4663h10.27V427.68005H558.8796Zm20.4,5.46631h10.27V433.14636H579.27961Zm20.4,5.46631h10.27V438.61267h-10.27Zm22.63649,3.23h5.79773V446.315h-5.79773ZM119.85037,335.77362h.16559v-.166h-.16559Zm15.92781,9.93866h9.1106v-9.11072h-9.1106Zm19.82059,6.04614h10.27V341.48834h-10.27Zm20.4,5.46631h10.27V346.95465h-10.27Zm20.4,5.46631h10.27V352.421h-10.27Zm20.4,5.46631h10.27V357.88727h-10.27Zm20.4,5.46631h10.27V363.35358h-10.27Zm20.4,5.46631h10.27V368.81989h-10.27Zm20.4,5.4663h10.27V374.28619h-10.27Zm20.4,5.46631h10.27V379.7525h-10.27Zm20.4,5.46631h10.27V385.21881H318.80957Zm20.4,5.46631h10.27V390.68512H339.20958Zm20.4,5.46631h10.27V396.15143H359.60958Zm20.4,5.46631h10.27V401.61774h-10.27Zm20.4,5.46631h10.27V407.08405h-10.27Zm20.4,5.4663h10.27V412.55035h-10.27Zm20.4,5.46631h10.27V418.01666h-10.27Zm20.4,5.46631h10.27V423.483h-10.27Zm20.4,5.46631h10.27V428.94928h-10.27Zm20.4,5.46631h10.27V434.41559h-10.27Zm20.4,5.46631h10.27V439.8819h-10.27Zm20.4,5.46631h10.27V445.34821h-10.27Zm20.4,5.4663h10.27V450.81451h-10.27Zm20.4,5.46631h10.27V456.28082h-10.27Zm22.09831,3.76831h6.87431v-6.87439h-6.87469ZM121.8849,361.5979h5.56469v-5.54932h-5.5492Zm18.04,7.82684h10.27V359.15466H139.93959Zm20.4,5.46631h10.27V364.621h-10.27Zm20.4,5.46631h10.27V370.08728h-10.27Zm20.4,5.46631h10.27V375.55359h-10.27Zm20.4,5.46631h10.27V381.0199h-10.27Zm20.4,5.46631h10.27V386.48621h-10.27Zm20.4,5.46631h10.27V391.95251h-10.27Zm20.4,5.4663h10.27V397.41882h-10.27Zm20.4,5.46631h10.27V402.88513h-10.27Zm20.4,5.46631h10.27V408.35144h-10.27Zm20.4,5.46631h10.27V413.81775h-10.27Zm20.4,5.46631h10.27V419.28406h-10.27Zm20.4,5.46631h10.27V424.75037h-10.27Zm20.4,5.46631h10.27V430.21667h-10.27Zm20.4,5.4663h10.27V435.683h-10.27Zm20.4,5.46631h10.27V441.14929h-10.27Zm20.4,5.46631h10.27V446.6156h-10.27Zm20.4,5.46631h10.27V452.08191h-10.27Zm20.4,5.46631h10.27V457.54822h-10.27Zm20.4,5.46631h10.27V463.01453h-10.27Zm20.4,5.46631h10.27V468.48083h-10.27Zm20.4,5.4663h10.27V473.94714h-10.27Zm21.974,3.89252h7.1228v-7.1228h-7.123ZM108.3457,377.153h1.32519v-1.32508H108.3457Zm15.92789,9.93865h10.27V376.82159h-10.27Zm20.4,5.46631h10.27V382.2879h-10.27Zm20.4,5.46631h10.27V387.75421h-10.27Zm20.4,5.46631h10.27V393.22052h-10.27Zm20.4,5.46631h10.27V398.68683h-10.27Zm20.4,5.46631h10.27V404.15314h-10.27Zm20.4,5.46631h10.27V409.61945h-10.27Zm20.4,5.4663h10.27V415.08575h-10.27Zm20.4,5.46631h10.27V420.55206h-10.27Zm20.4,5.46631h10.27V426.01837h-10.27Zm20.4,5.46631h10.27V431.48468h-10.27Zm20.4,5.46631h10.27V436.951h-10.27Zm20.4,5.46631h10.27V442.4173h-10.27Zm20.4,5.46631h10.27V447.88361h-10.27Zm20.4,5.46631h10.27V453.34991h-10.27Zm20.4,5.4663h10.27V458.81622h-10.27Zm20.4,5.46631h10.27V464.28253H450.67961Zm20.4,5.46631h10.27V469.74884H471.07962Zm20.4,5.46631h10.27V475.21515H491.47955Zm20.4,5.46631h10.27V480.68146h-10.27Zm20.4,5.46631h10.27V486.14777h-10.27Zm20.4,5.46631h10.27V491.61407h-10.27Zm22.34672,3.51989h6.37741v-6.37726H575.0205ZM110.50489,402.85492h6.46v-6.46h-6.46Zm18.49541,7.37122h10.27V399.95605h-10.27Zm20.4,5.4663h10.27V405.42236h-10.27Zm20.4,5.46631h10.27V410.88867h-10.27Zm20.4,5.46631h10.27V416.355h-10.27Zm20.4,5.46631h10.27V421.82129h-10.27Zm20.4,5.46631h10.27V427.2876H231.00958Zm20.4,5.46631h10.27V432.75391H251.40959Zm20.4,5.46631h10.27V438.22021H271.8096Zm20.4,5.4663h10.27V443.68652h-10.27Zm20.4,5.46631h10.27V449.15283h-10.27Zm20.4,5.46631h10.27V454.61914h-10.27Zm20.4,5.46631h10.27V460.08545h-10.27Zm20.4,5.46631h10.27V465.55176h-10.27Zm20.4,5.46631h10.27V471.01807h-10.27Zm20.4,5.46631h10.27V476.48438h-10.27Zm20.4,5.4663h10.27V481.95068h-10.27Zm20.4,5.46631h10.27V487.417h-10.27Zm20.4,5.46631h10.27V492.8833h-10.27Zm20.4,5.46631h10.27V498.34961h-10.27Zm20.4,5.46631h10.27V503.81592h-10.27Zm20.4,5.46631h10.27V509.28223h-10.27Zm22.76078,3.10577h5.54916v-5.54932h-5.54954ZM97.70308,417.66388h.74539V416.919h-.74539Zm15.76221,10.10437h10.02159V417.74658H113.46529Zm20.27611,5.5899h10.27V423.08807h-10.27Zm20.4,5.46631h10.27V428.55438h-10.27Zm20.4,5.46631h10.27V434.02069h-10.27Zm20.4,5.46631h10.27V439.487h-10.27Zm20.4,5.46631h10.27V444.95331h-10.27Zm20.4,5.46631h10.27V450.41962h-10.27Zm20.4,5.46631h10.27V455.88593h-10.27Zm20.4,5.4663h10.27V461.35223h-10.27Zm20.4,5.46631h10.27V466.81854h-10.27Zm20.4,5.46631h10.27V472.28485h-10.27Zm20.4,5.46631h10.27V477.75116h-10.27Zm20.4,5.46631h10.27V483.21747h-10.27Zm20.4,5.46631h10.27V488.68378h-10.27Zm20.4,5.46631h10.27V494.15009h-10.27Zm20.4,5.4663h10.27V499.61639h-10.27Zm20.4,5.46631h10.27V505.0827h-10.27Zm20.4,5.46631h10.27V510.549h-10.27Zm20.4,5.46631h10.27V516.01532h-10.27Zm20.4,5.46631h10.27V521.48163h-10.27Zm20.44808,5.4245h10.1873V526.98944H521.3896Zm23.63052,2.236h3.727v-3.72711h-3.72757ZM100.94622,442.2879h3.72711v-3.72711h-3.72711Zm17.1289,8.7378h10.27V440.75562h-10.27Zm20.4,5.4663h10.27V446.22192h-10.27Zm20.4,5.46631h10.27V451.68823h-10.27Zm20.4,5.46631h10.27V457.15454h-10.27Zm20.4,5.46631h10.27V462.62085h-10.27Zm20.4,5.46631h10.27V468.08716h-10.27Zm20.4,5.46631h10.27V473.55347h-10.27Zm20.4,5.46631h10.27V479.01978h-10.27Zm20.4,5.4663h10.27V484.48608h-10.27Zm20.4,5.46631h10.27V489.95239h-10.27Zm20.4,5.46631h10.27V495.4187h-10.27Zm20.4,5.46631h10.27V500.885h-10.27Zm20.4,5.46631h10.27V506.35132H362.87962Zm20.4,5.46631h10.27V511.81763H383.27955Zm20.4,5.46631h10.27V517.28394H403.67956Zm20.4,5.4663h10.27V522.75024h-10.27Zm20.4,5.46631h10.27V528.21655h-10.27Zm20.4,5.46631h10.27V533.68286h-10.27Zm20.4,5.46631h10.27V539.14917h-10.27Zm20.81451,5.05219h9.44191V545.0293h-9.44206Zm24.33442,1.532h1.57371v-1.5741h-1.57371ZM104.47306,466.62354h6.129v-6.12885h-6.12247Zm18.33,7.53692h10.27V463.89038h-10.27Zm20.4,5.46631h10.27V469.35669H143.20959Zm20.4,5.46631h10.27V474.823H163.6096Zm20.4,5.46631h10.27V480.28931H184.00957Zm20.4,5.46631h10.27V485.75562h-10.27Zm20.4,5.4663h10.27V491.22192h-10.27Zm20.4,5.46631h10.27V496.68823h-10.27Zm20.4,5.46631h10.27V502.15454h-10.27Zm20.4,5.46631h10.27V507.62085h-10.27Zm20.4,5.46631h10.27V513.08716h-10.27Zm20.4,5.46631h10.27V518.55347h-10.27Zm20.4,5.46631h10.27V524.01978h-10.27Zm20.4,5.4663h10.27V529.48608h-10.27Zm20.4,5.46631h10.27V534.95239h-10.27Zm20.4,5.46631h10.27V540.4187h-10.27Zm20.4,5.46631h10.27V545.885h-10.27Zm20.4,5.46631h10.27V551.35132h-10.27Zm20.4,5.46631h10.27V556.81763h-10.27Zm22.09823,3.76831h6.87439v-6.87439h-6.87439Zm23.7133,2.15332h.24849v-.249h-.24849Zm-407-82.4646h7.7026V482.8421h-7.7026Zm19.11659,6.74988h10.27V487.02454h-10.27Zm20.4,5.46631h10.27V492.49084h-10.27Zm20.4,5.4663h10.27V497.95715h-10.27Zm20.4,5.46631h10.27V503.42346h-10.27Zm20.4,5.46631h10.27V508.88977h-10.27Zm20.4,5.46631h10.27V514.35608h-10.27Zm20.4,5.46631h10.27V519.82239h-10.27Zm20.4,5.46631h10.27V525.2887h-10.27Zm20.4,5.46631h10.27V530.755h-10.27Zm20.4,5.4663h10.27V536.22131h-10.27Zm20.4,5.46631h10.27V541.68762h-10.27Zm20.4,5.46631h10.27V547.15393h-10.27Zm20.4,5.46631h10.27V552.62024h-10.27Zm20.4,5.46631h10.27V558.08655h-10.27Zm20.4,5.46631h10.27V563.55286h-10.27Zm20.4,5.46631h10.27V569.01917h-10.27Zm20.73158,5.13488h9.60762v-9.60754h-9.591Zm23.83759,2.02912h2.73307v-2.73316h-2.73345Zm-381.531-82.05292h.083v-.08h-.083Zm16.75609,9.11041H120.697v-7.37152h-7.37129Zm18.95088,6.91559h10.27V510.15625h-10.27Zm20.4,5.46631h10.27V515.62256h-10.27Zm20.4,5.46631h10.27V521.08887h-10.27Zm20.4,5.46631h10.27V526.55518h-10.27Zm20.4,5.4663h10.27V532.02148h-10.27Zm20.4,5.46631h10.27V537.48779h-10.27Zm20.4,5.46631h10.27V542.9541h-10.27Zm20.4,5.46631h10.27V548.42041h-10.267Zm20.4,5.46631h10.27V553.88672H295.47956Zm20.4,5.46631h10.27V559.353H315.87957Zm20.4,5.46631h10.27V564.81934h-10.27Zm20.4,5.46631h10.27V570.28564h-10.27Zm20.4,5.4663h10.27V575.752h-10.27Zm20.4,5.46631h10.27V581.21826h-10.27Zm20.44182,5.42481h10.1873V586.72577H417.92318Zm22.76078,3.10577h5.4663v-5.46631h-5.4663Zm23.00933,2.85736h.24842v-.249h-.24849Zm-344.469-67.39166h5.0523v-5.05219h-5.0523Zm17.7914,8.07526h10.27V533.28979h-10.27Zm20.4,5.4663h10.27V538.7561h-10.27Zm20.4,5.46631h10.27V544.22241h-10.27Zm20.4,5.46631h10.27V549.68872h-10.27Zm20.4,5.46631h10.27V555.155h-10.27Zm20.4,5.46631h10.27V560.62134h-10.27Zm20.4,5.46631h10.27V566.08765h-10.27Zm20.4,5.46631h10.27V571.554h-10.27Zm20.4,5.4663h10.27V577.02026h-10.27Zm20.4,5.46631h10.27V582.48657h-10.27Zm20.4,5.46631h10.27V587.95288h-10.27Zm20.4,5.46631h10.27V593.41919h-10.27Zm20.48317,5.3833h10.10452V598.9682h-10.101Zm22.26387,3.6026h6.37741v-6.37726h-6.3739Zm23.25767,2.609h.66262V614.621h-.6588Zm-301.644-58.48755h1.408v-1.40808h-1.408Zm16.96312,8.9035h8.28239v-8.28216h-8.28239Zm19.40651,6.46h10.27V561.89h-10.27Zm20.4,5.46631h10.27V567.35626h-10.27Zm20.4,5.46631h10.27V572.82257h-10.27Zm20.4,5.46631h10.27V578.28888h-10.27Zm20.4,5.46631h10.27V583.75519h-10.27Zm20.4,5.46631h10.27V589.2215h-10.27Zm20.4,5.46631h10.27V594.68781h-10.27Zm20.4,5.4663h10.27V600.15411h-10.27Zm20.4,5.46631h10.27V605.62042h-10.27Zm20.73174,5.13489h9.60747v-9.60754h-9.60106Zm22.55371,3.31268h5.30067v-5.30059h-5.30067Zm22.678,3.18879h.74539v-.74494h-.74554ZM150.73759,585.56122h1.73931V583.822h-1.73931Zm18.12271,7.74383h6.2946V587.0105h-6.2883Zm18.8681,6.9986h9.3591v-9.35913h-9.3591Zm19.9862,5.88013h10.1873V595.9964h-10.181Zm20.359,5.5075h10.27V601.4212h-10.264Zm20.4,5.46631h10.27V606.88751h-10.27Zm20.566,5.3006h9.93889v-9.93866h-9.93889Zm20.8973,4.96918h8.945v-8.945h-8.945Zm21.9326,3.934H317.75v-5.88013h-5.88051Zm22.22252,3.6441h2.23621v-2.23632h-2.22965Zm21.477,4.38965h.083v-.07995h-.076ZM196.72739,619.17145h.82829v-.82794h-.82829Zm19.90349,5.96313h1.82869v-1.8222h-1.82209Zm20.27611,5.58991h2.07061v-2.07062h-2.064Zm20.73158,5.13489h1.408v-1.40809h-1.408Zm20.98,4.88647h.24849v-.249h-.24849Z" fill="#16d0fd"/>
        <path id="atom_15_line" data-name="atom 15 line" d="M843.20555,326.13007H528.89219l-77.08-63.18757H724.33058V250.14557H456.92335l153.59474-125.91-8.11706-9.89837-159.67148,130.892V23.69232H429.93216V245.0058L270.53373,114.33685l-8.11721,9.89838,153.59321,125.91H148.33067V262.9422h272.79l-77.08107,63.18787H29.4557V338.927H328.42958L180.815,459.93469l8.11722,9.89838,159.69-130.90607h81.3105V808.03223h12.79686V338.9267h81.581l159.688,130.90606,8.11722-9.89837L544.50293,338.9267H843.20555Zm-478.97362,0,65.7-53.858v53.858Zm78.49709,0V272.04926l65.97122,54.08111Z" fill="#110a4c"/>
        <g id="atom_15_dots" data-name="atom 15 dots">
          <circle id="circle4640" cx="435.6735" cy="23.99994" r="23.99998" fill="#110a4c"/>
          <circle id="circle4642" cx="24" cy="332.83752" r="23.99994" transform="translate(-309.45185 345.7481) rotate(-88.09297)" fill="#110a4c"/>
          <circle id="circle4644" cx="151.19009" cy="255.72754" r="16.79996" fill="#110a4c"/>
          <circle id="circle4646" cx="265.57299" cy="119.28497" r="16.79996" fill="#110a4c"/>
          <circle id="circle4648" cx="606.67936" cy="119.28497" r="16.79996" fill="#110a4c"/>
        </g>
      </g>
    </g>
  </g>
</svg>
