<svg xmlns="http://www.w3.org/2000/svg" width="1010.29305" height="842.6059" viewBox="0 0 1010.29305 842.6059">
  <g id="Layer_2" data-name="Layer 2">
    <g id="svg31">
      <g id="atom_04" data-name="atom 04">
        <path id="atom_04_bg" data-name="atom 04 bg" d="M950.72731,350.76721a39.58333,39.58333,0,0,1-23.557,36.60156,107.41293,107.41293,0,0,1-46.71005,58.29743c-47.35718,32.37884-124.99084,50.762-133.41,67.40692-3.643,18.6319,61.84784,100.28168,73.262,168.51654,9.55231,54.73724-16.27167,95.148-47.03354,108.47992-42.98584,18.6319-95.76721-11.67633-133.653-40.16266-52.3761-39.41681-114.71-107.652-164.98154-174.56116-103.53828,25.42237-231.20079,38.092-317.49618,16.6446a35.771,35.771,0,0,1-28.9,14.82269,37.24012,37.24012,0,0,1-36.51-37.92664,40.42784,40.42784,0,0,1,.48569-6.29364c-25.98549-20.7846-38.45253-50.43-30.6-91.33819,0-.08.80933-4.22333.89-4.22333,19.18579-89.43359,180.20081-84.87915,196.47232-121.97784l.72831-1.7392c8.82408-21.61316-63.71-110.71594-76.74294-179.69605C170.9095,103.74725,202.23808,61.18347,239.63821,52.40555c46.54778-10.76508,101.2719,26.58188,138.59093,57.38663,58.205,48.36059,122.31941,123.2199,173.4005,194.76715,139.23866-45.21393,321.46339-71.21552,368.41575,7.37a39.2399,39.2399,0,0,1,30.68177,38.83789Z" fill="#def3fa"/>
        <path id="atom_04_ht" data-name="atom 04 ht" d="M190.00961,0l.243.05005-.052.24307-.24308-.05Zm28.06267,8.69553,4.98238,1.05911,1.059-4.98245-4.9823-1.059Zm28.85117,7.97424,8.50639,1.80817,1.80809-8.50647L248.73154,8.1633Zm31.87179,6.01257,7.04819,1.49811,1.49811-7.04819-7.04819-1.4981Zm33.71369,4.81629,2.55188.542.542-2.552-2.55188-.542Zm32.46116,5.63.121.03006.03-.121-.122-.03006ZM166.25648,28.99033l2.91649.62.62-2.91656-2.91649-.62ZM188.69789,41.127l17.01279,3.61618,3.61618-17.01293-17.01279-3.61619Zm29.95621,7.25647,18.71422,3.97782,3.97781-18.71414-18.71407-3.97782Zm30.98778,6.58661,18.71406,3.97766,3.97782-18.71414L253.61969,36.2558Zm30.9877,6.58661,18.71406,3.97766,3.97782-18.71414-18.71407-3.97781Zm31.94549,5.96466,17.13433,3.642,3.64212-17.13425L316.21712,50.387Zm35.7029,3.52448,9.35707,1.98883,1.98891-9.357-9.35707-1.98883Zm35.7766,3.47656,1.4582.31006.31-1.45813-1.4582-.31006ZM144.7654,56.30157l1.94427.41306.41329-1.94427-1.94428-.41306Zm21.04148,13.04566,18.35,3.90015,3.9-18.35007-18.35-3.9Zm30.76668,6.73,18.71422,3.97766,3.97781-18.71429-18.71406-3.97782Zm30.98778,6.58661,18.71407,3.97766,3.97781-18.714-18.71407-3.97766Zm30.9877,6.58661,18.71407,3.97766,3.97781-18.7143-18.71406-3.97766Zm30.9877,6.58661,18.71407,3.97766,3.97781-18.714-18.71406-3.978Zm30.9877,6.58661,18.71407,3.978,3.97789-18.71429-18.71422-3.97766Zm31.13511,6.49108,18.47107,3.92609,3.92608-18.47107-18.47107-3.92608Zm34.37667,4.38569,12.88117,2.738,2.738-12.88116-12.88117-2.738Zm37.47124,2.3764,2.18727.46509.465-2.1872-2.18742-.46508ZM146.82091,95.03265l13.24569,2.81556,2.81548-13.24585-13.2457-2.81556Zm27.67227,8.73993,18.71422,3.97766L197.18521,89.036l-18.71406-3.97766Zm30.98778,6.58661,18.71406,3.97766,3.97782-18.71429L209.45877,91.6449Zm30.9877,6.58661,18.71406,3.978,3.97782-18.7143-18.71407-3.97766Zm30.9877,6.58661,18.71407,3.97766,3.97781-18.714-18.71407-3.978Zm30.9877,6.58661,18.71407,3.97766,3.97789-18.714L302.4218,111.405Zm30.9877,6.58661,18.71422,3.97766,3.97781-18.7143-18.71421-3.97766Zm30.9877,6.58661,18.71422,3.97766,3.97782-18.714-18.71422-3.97766Zm31.06141,6.53869,18.5926,3.952,3.952-18.59253-18.59261-3.952Zm34.1558,4.52942,13.36724,2.84119,2.84126-13.36731L428.47794,140.993Zm37.91321,2.08923,1.94428.41291.413-1.94428-1.94443-.4129ZM805.225,228.37646l.60806.12909.12894-.60791-.60806-.12909Zm29.36691,7.63916,3.2811.697.697-3.28095-3.28109-.697Zm29.66156,7.44782,5.46845,1.16241,1.16226-5.46844-5.46844-1.16241Zm31.06141,6.5387,5.34683,1.13647,1.13647-5.347-5.34683-1.13648Zm32.83,5.39062,2.30881.491.491-2.309-2.309-.491ZM131.88683,118.08563l1.4582.31006.31-1.45813-1.4582-.31006Zm20.96786,13.09357,17.985,3.82294,3.82294-17.98493-17.98508-3.82294Zm30.54573,6.87378,18.71407,3.97766,3.97781-18.714-18.71407-3.978Zm30.9877,6.58661,18.71407,3.978L237.08,129.90326l-18.71406-3.97766Zm30.9877,6.58661,18.71407,3.97766,3.97781-18.7143-18.71406-3.97766Zm30.98771,6.58661,18.71406,3.97766,3.97789-18.714-18.71422-3.97766Zm30.9877,6.5866,18.71421,3.97767,3.97782-18.7143L311.329,145.68512Zm30.9877,6.58661,18.71422,3.97766,3.97781-18.714L342.31674,152.272Zm30.9877,6.58661,18.71422,3.97766,3.97781-18.71429-18.71406-3.97766Zm30.98778,6.58661,18.71406,3.97766,3.97782-18.714-18.71407-3.978Zm31.06132,6.5387,18.59268,3.952,3.952-18.59283-18.59268-3.952Zm35.04,3.95508,11.909,2.53143,2.53128-11.90888-11.909-2.53143Zm37.61848,2.28057.972.20691.207-.972-.972-.20691Zm186.36826,39.23279.24307.05.05-.24292-.24307-.05Zm28.77747,8.02185,3.88855.827.827-3.88855-3.8887-.827Zm27.083,9.12232,10.32929,2.19574,2.19543-10.32929-10.32913-2.19543Zm27.82,8.6441,15.55466,3.30628,3.30627-15.55481-15.55466-3.30628Zm29.07227,7.83051,18.71414,3.978,3.97781-18.71429L807.133,251.07117Zm30.9877,6.58661,18.71414,3.97766,3.97781-18.7143-18.71414-3.97766Zm30.9877,6.5866,18.71414,3.97767,3.97781-18.714-18.71414-3.97767Zm30.9877,6.58661,18.71414,3.97766,3.978-18.71429-18.71414-3.97766Zm32.53494,5.582,16.16226,3.43537,3.43537-16.16211-16.16226-3.43537Zm37.02912,2.66327,6.19751,1.31745,1.31729-6.19751-6.19751-1.31745Zm34.52408,4.28986.365.07995.08-.365-.365-.07995Zm-860.296-149.14,2.91649.62012.62-2.91656-2.91649-.62012Zm21.70472,12.61505,18.228,3.87452,3.87452-18.22815-18.228-3.87451Zm30.693,6.778,18.71407,3.97766,3.97781-18.714-18.71406-3.97766Zm30.98771,6.58661,18.71406,3.97766,3.97782-18.7143-18.71483-3.978Zm30.9877,6.58661,18.71406,3.97766,3.97789-18.714-18.71422-3.97766Zm30.9877,6.58661,18.71422,3.97766,3.97781-18.7143L289.249,173.3786Zm30.9877,6.5866,18.71422,3.97767,3.97781-18.714-18.71422-3.97766Zm30.9877,6.58661,18.71422,3.978,3.97781-18.71429-18.71406-3.97767Zm30.98778,6.58661,18.71406,3.97766,3.97782-18.714-18.71407-3.978Zm30.9877,6.58661L427.9361,222.417l3.97781-18.714-18.71407-3.97766Zm30.9877,6.58661,18.71407,3.97766,3.97789-18.71429-18.71422-3.97766Zm31.20873,6.44318,18.35,3.90014,3.9-18.34991-18.34953-3.90015Zm37.02911,2.66327,8.38493,1.78222,1.78231-8.385-8.38494-1.78222Zm35.99762,3.33313.122.0299.03-.12207-.121-.02991Zm91.26869,20.86,2.91641.62012.62-2.91657-2.91657-.62011Zm26.05133,9.79218,11.05835,2.35046,2.35-11.05835-11.05835-2.35046Zm27.15668,9.0747,17.37747,3.69385,3.69354-17.37732-17.37747-3.69385Zm30.17731,7.113,18.71414,3.97766,3.97781-18.71429L723.077,265.59113Zm30.9877,6.58661,18.71414,3.97766,3.97781-18.714-18.71414-3.978Zm30.98785,6.58661,18.71414,3.97766,3.97782-18.714-18.71414-3.97766Zm30.9877,6.58661,18.71415,3.97766,3.97781-18.7143L816.04027,285.351Zm30.98771,6.58661,18.71414,3.97766,3.97781-18.714L847.028,291.93787Zm30.9877,6.5866,18.71414,3.97767,3.978-18.7143-18.71415-3.97766Zm30.9877,6.58661,18.71414,3.97766,3.97781-18.714-18.7146-3.97767Zm30.9877,6.58661,18.71414,3.978,3.97782-18.7143-18.71415-3.97766Zm31.72455,6.1081,17.49893,3.72009,3.71994-17.49909-17.49893-3.71948Zm40.63919.3189,1.58005.336.336-1.57989-1.58005-.336Zm-858.82294-150.097,1.70128.36194.36163-1.70136-1.70127-.36194Zm21.77834,12.56714,16.89132,3.59008,3.59-16.89117-16.89133-3.59009Zm29.88258,7.30438,18.71407,3.97766,3.97781-18.71429L205.193,187.89886Zm30.9877,6.58661,18.71407,3.97766,3.97789-18.714-18.71422-3.97766Zm30.9877,6.58661L281.9046,223.764l3.97782-18.7143-18.71422-3.97766Zm30.98771,6.58661,18.71421,3.97766,3.97782-18.714-18.71422-3.978Zm30.9877,6.5866,18.71421,3.978,3.97782-18.71429-18.71407-3.97766Zm30.98777,6.58661,18.71407,3.97766,3.97781-18.71429-18.71406-3.97766Zm30.98771,6.58661,18.71406,3.97766,3.97782-18.714-18.71407-3.97766Zm30.9877,6.58661,18.71406,3.97766,3.97789-18.71429-18.71422-3.97766Zm30.9877,6.58661,18.71422,3.97766,3.97781-18.714L453.09448,240.592Zm30.9877,6.58661,18.71422,3.978,3.97781-18.7143-18.71422-3.97766Zm32.16652,5.82123,16.77,3.56445,3.56453-16.77-16.77-3.56445Zm38.72368,1.5628,4.01.852.852-4.01-4.01-.85205Zm29.36683,7.63916,6.68366,1.4206,1.42075-6.68366-6.68366-1.42059Zm25.462,10.17487,15.79758,3.35785,3.35785-15.79773L609.18129,275.293Zm29.22,7.735,18.71414,3.97766,3.978-18.71429-18.71414-3.97766Zm30.9877,6.58661L684.74525,309.39l3.97782-18.714-18.71414-3.97766Zm30.9877,6.58661,18.71415,3.978,3.97781-18.7143-18.71414-3.97766Zm30.98771,6.58661,18.71414,3.97766,3.97781-18.714-18.71414-3.978Zm30.98785,6.58661,18.71414,3.97766,3.97782-18.714-18.71415-3.97766Zm30.9877,6.58661,18.71414,3.97766,3.97782-18.7143-18.71415-3.97766Zm30.9877,6.58661,18.71414,3.97766,3.97782-18.714-18.71414-3.97766Zm30.9877,6.58661,18.71415,3.97766,3.978-18.7143-18.71414-3.97766Zm30.98771,6.5866,18.71414,3.97767,3.97781-18.714-18.71414-3.978Zm30.9877,6.58661,18.71414,3.978,3.97781-18.71429-18.71414-3.97767Zm30.9877,6.58661,18.71414,3.97766,3.97781-18.71429-18.71414-3.97766Zm35.40832,3.71582,11.42289,2.428,2.428-11.423-11.42288-2.428Zm-821.13-147.86438.486.10315.10337-.48614-.48606-.10315Zm23.2518,11.61011,13.2457,2.81555,2.81548-13.24585-13.24578-2.81555Zm27.67228,8.73993,18.71406,3.97766,3.97789-18.714L214.1,222.17987Zm30.9877,6.58661,18.71422,3.978,3.97781-18.71429-18.71422-3.97766Zm30.9877,6.58661,18.71422,3.97766,3.97781-18.714-18.71422-3.978Zm30.9877,6.58661,18.71422,3.97766,3.97781-18.714-18.71406-3.97766Zm30.98778,6.58661,18.71406,3.97766,3.97782-18.7143-18.71407-3.97766Zm30.9877,6.5866,18.71406,3.97767,3.97782-18.714-18.71407-3.97767Zm30.9877,6.58661,18.71407,3.97766,3.97789-18.71429L400.027,261.69861Zm30.9877,6.58661,18.71422,3.97766,3.97781-18.714-18.71421-3.97766Zm30.9877,6.58661,18.71422,3.978,3.97782-18.7143-18.71422-3.97766Zm30.9877,6.58661,18.71422,3.97766,3.97782-18.714-18.71407-3.978Zm30.98778,6.58661,18.71407,3.97766,3.97781-18.714L523.978,288.04535Zm31.135,6.49109,18.47107,3.92608,3.92616-18.47107-18.47107-3.92608Zm30.84,6.68243,18.71415,3.97766,3.97781-18.714L585.953,301.21887Zm30.98771,6.58661,18.71414,3.97766,3.978-18.71429-18.71414-3.97766Zm30.9877,6.58661,18.71414,3.97766,3.97781-18.714-18.71414-3.978Zm30.9877,6.58661,18.71414,3.978,3.97781-18.71429-18.71414-3.97766Zm30.9877,6.58661,18.71414,3.97766,3.97782-18.7143L709.90379,327.565Zm30.98785,6.58661,18.71415,3.97766,3.97781-18.714-18.71414-3.97766Zm30.98771,6.5866,18.71414,3.97767,3.97781-18.7143-18.71414-3.97766Zm30.9877,6.58661,18.71414,3.97766,3.978-18.714-18.71414-3.97767Zm30.9877,6.58661,18.71414,3.978,3.978-18.7143-18.71415-3.97766Zm30.9877,6.58661L879.57878,383.19l3.97781-18.714-18.71414-3.978Zm30.9877,6.58661,18.71414,3.97766,3.97782-18.714L895.83015,367.085Zm30.9877,6.58661,18.71414,3.97766,3.97782-18.71429-18.71414-3.97767Zm35.18723,3.85925,11.78756,2.5055,2.5055-11.78742-11.78742-2.50549Zm-762.986-132.20306,7.17,1.52405,1.5239-7.17011-7.17-1.524Zm23.98857,11.1319,18.71421,3.978,3.97782-18.71429-18.71422-3.97766Zm30.9877,6.5866,18.71422,3.97767,3.97781-18.7143L253.99536,263.046Zm30.9877,6.58661,18.71422,3.97766,3.97781-18.714-18.71406-3.97766Zm30.98778,6.58661,18.71406,3.97766,3.97782-18.71429-18.71407-3.97766Zm30.9877,6.58661,18.71406,3.97766,3.97782-18.714-18.71407-3.97766Zm30.9877,6.58661,18.71407,3.97766,3.97789-18.71429-18.71422-3.97766Zm30.9877,6.58661,18.71422,3.97766,3.97781-18.714-18.71422-3.978Zm30.9877,6.58661,18.71422,3.978,3.97781-18.71429-18.71421-3.97766Zm30.9877,6.58661,18.71422,3.97766,3.97782-18.7143-18.71407-3.97766Zm30.98778,6.5866,18.71407,3.97767,3.97781-18.714-18.71406-3.97766Zm30.9877,6.58661,18.71407,3.97767,3.97781-18.7143-18.71406-3.97766Zm30.9877,6.58661,18.71407,3.97766,3.97781-18.714-18.71406-3.97766Zm30.98763,6.58661,18.71414,3.978,3.978-18.7143L594.86031,335.499Zm30.9877,6.58661,18.71414,3.97766,3.97782-18.714-18.71415-3.978Zm30.9877,6.58661,18.71414,3.97766,3.97782-18.714-18.71414-3.97766Zm30.9877,6.58661,18.71415,3.97766,3.97781-18.71429L687.823,355.25848Zm30.98786,6.58661,18.71414,3.97766,3.97781-18.714-18.71414-3.97766ZM745.821,387.146l18.71414,3.97766,3.97781-18.7143-18.71414-3.97766Zm30.9877,6.5866,18.71414,3.97767,3.978-18.714-18.71414-3.97766Zm30.9877,6.58661,18.71414,3.978,3.97782-18.71429-18.71414-3.97767Zm30.9877,6.58661,18.71415,3.97766,3.97781-18.714-18.71414-3.978Zm30.9877,6.58661,18.71415,3.97766,3.97781-18.714-18.71414-3.97766Zm30.98771,6.58661,18.71414,3.97766,3.97781-18.71429-18.71414-3.97766Zm33.86108,4.72046,13.97476,2.97058,2.97-13.97491-13.97491-2.97Zm39.38675,1.1322.12207.02991.03006-.12207-.121-.02991ZM206.895,296.41266l2.30888.491.49073-2.309-2.30889-.491Zm22.14668,12.32818,16.89133,3.59009,3.59-16.89148-16.8914-3.59008Zm29.88251,7.30439,18.71422,3.97766,3.97781-18.714-18.71406-3.97766Zm30.98778,6.58661L308.626,326.6095l3.97782-18.7143-18.71407-3.97766Zm30.9877,6.5866,18.71406,3.97767,3.97782-18.714-18.71407-3.97766Zm30.9877,6.58661,18.71407,3.978,3.97789-18.71429-18.71422-3.97767Zm30.9877,6.58661,18.71422,3.97766,3.97781-18.714-18.71422-3.978Zm30.9877,6.58661,18.71422,3.97766,3.97781-18.714-18.71421-3.97766Zm30.9877,6.58661,18.71422,3.97766,3.97782-18.71429-18.71407-3.97766Zm30.98778,6.58661,18.71407,3.97766,3.97781-18.714-18.71406-3.97766Zm30.9877,6.58661L525.54,372.71576l3.97781-18.7143-18.71406-3.97766Zm30.9877,6.58661,18.71407,3.97766,3.97781-18.714-18.71406-3.978Zm30.98771,6.58661,18.71414,3.978,3.978-18.71429-18.71421-3.97766Zm30.9877,6.5866,18.71414,3.97767,3.97781-18.7143-18.71414-3.97766Zm30.9877,6.58661,18.71414,3.97766,3.97781-18.714-18.71414-3.97767Zm30.9877,6.58661,18.71414,3.97766,3.97782-18.71429-18.71415-3.97766Zm30.98785,6.58661,18.71415,3.97766,3.97781-18.714-18.71414-3.97766ZM723.74,414.84436l18.71414,3.97766,3.97781-18.71429-18.71414-3.97766Zm30.9877,6.58661,18.71414,3.97766,3.978-18.714-18.71415-3.978Zm30.9877,6.58661,18.71414,3.978,3.97781-18.71429-18.71414-3.97766Zm30.9877,6.58661,18.71414,3.97766,3.97782-18.7143-18.71415-3.97766Zm30.9877,6.58661,18.71414,3.97766,3.97782-18.714-18.71415-3.97766Zm31.0614,6.53869,18.59268,3.952,3.95188-18.59253-18.59253-3.952Zm36.21872,3.19,9.96475,2.11823,2.11808-9.9646L917.089,440.9552Zm36.95542,2.71119.12207.0299.03006-.12207-.12207-.0299ZM216.24428,330.40588l1.58.336L218.16,329.162l-1.58-.336Zm21.04156,13.04566,17.985,3.82294,3.82294-17.98493-17.98508-3.82294Zm30.54573,6.87378,18.71407,3.97766,3.97781-18.7143L271.80939,331.611Zm30.9877,6.58661,18.71407,3.97766,3.97781-18.714-18.71406-3.978Zm30.98771,6.58661,18.71406,3.978,3.97789-18.71429-18.71422-3.97766Zm30.9877,6.5866,18.71422,3.97767,3.97781-18.7143-18.71422-3.97766Zm30.9877,6.58661,18.71422,3.97766,3.97781-18.714-18.71422-3.97766Zm30.9877,6.58661L441.4843,387.236l3.97781-18.71429-18.71406-3.97766Zm30.98778,6.58661,18.71406,3.97766,3.97782-18.714L457.73567,371.131Zm30.9877,6.58661,18.71407,3.97766,3.97781-18.71429-18.71407-3.97766Zm30.9877,6.58661,18.71407,3.97766,3.97781-18.714-18.71407-3.978Zm30.9877,6.58661,18.71407,3.978,3.97789-18.71429-18.71422-3.97766Zm30.9877,6.58661,18.71415,3.97766,3.97781-18.7143-18.71414-3.97766Zm30.98771,6.58661,18.71414,3.97766,3.97781-18.714L612.67418,404.064Zm30.9877,6.5866,18.71414,3.97767L662.376,414.628l-18.71414-3.97766Zm30.98785,6.58661,18.71414,3.97766,3.97782-18.714-18.71415-3.97766Zm30.9877,6.58661,18.71414,3.978,3.97782-18.7143-18.71414-3.97766Zm30.9877,6.58661,18.71415,3.97766,3.978-18.714-18.71414-3.978Zm30.98771,6.58661,18.71414,3.97766,3.97781-18.714-18.71414-3.97766Zm30.9877,6.58661,18.71414,3.97766,3.97781-18.71429-18.71414-3.97767Zm30.9877,6.58661,18.71414,3.97766,3.97781-18.714-18.71414-3.97766Zm33.419,5.00793,14.704,3.12531,3.12546-14.704-14.70382-3.12531Zm38.35526,1.80206,2.55188.542.542-2.55188-2.55188-.542ZM163.91289,351.03577l.36453.07995.078-.365-.36453-.07995Zm26.56723,9.45739,7.65579,1.6272,1.62727-7.65594-7.65579-1.6272Zm24.72526,10.65339,17.985,3.82293,3.82294-17.98523-17.98508-3.82293Zm30.54573,6.87377,18.71407,3.97767,3.97781-18.7143L249.72893,359.306Zm30.98771,6.58661,18.71406,3.97766,3.97781-18.714-18.71406-3.978Zm30.9877,6.58661,18.71406,3.97766,3.97789-18.714-18.71422-3.97766Zm30.9877,6.58661,18.71422,3.97766,3.97781-18.71429L342.692,379.06586Zm30.9877,6.58661,18.71422,3.97766,3.97781-18.714-18.71422-3.97766Zm30.9877,6.58661,18.71422,3.97766,3.97781-18.71429-18.71406-3.97767ZM431.6774,417.54l18.71406,3.97766,3.97782-18.714L435.65521,398.826Zm30.9877,6.58661,18.71407,3.978,3.97781-18.71429-18.71407-3.978Zm30.9877,6.58661,18.71407,3.97766,3.97781-18.714-18.71406-3.978Zm30.9877,6.5866,18.71407,3.97767,3.97789-18.714-18.71422-3.97766Zm30.9877,6.58661,18.71422,3.97766,3.97782-18.71429L559.606,425.17212Zm30.98763,6.58661L605.33,454.45068l3.97782-18.714L590.59364,431.759Zm30.9877,6.58661,18.71414,3.97766,3.97782-18.71429-18.71415-3.97766Zm30.98785,6.58661,18.71415,3.97766,3.97781-18.714-18.71414-3.978Zm30.98771,6.58661,18.71414,3.978,3.97781-18.7143-18.71414-3.97766Zm30.9877,6.58661,18.71414,3.97766,3.978-18.7143-18.71415-3.97766Zm30.9877,6.58661,18.71414,3.97766,3.97781-18.714-18.71414-3.97766Zm30.9877,6.58661,18.71414,3.97766,3.97782-18.7143L776.52,471.27838Zm33.05054,5.24688,15.31158,3.2547,3.25455-15.31158-15.31159-3.2544Zm38.06061,1.99341,3.64563.77515.775-3.64563-3.64563-.77515Zm-733.47184-124.66,1.45821.31006.31-1.45813-1.45828-.31006Zm25.38842,10.22278,10.69381,2.27294,2.273-10.69366-10.69382-2.27295Zm26.49353,9.50531,18.10661,3.84857,3.84857-18.10639-18.10654-3.84857Zm30.61927,6.82586,18.71422,3.97766,3.97782-18.714-18.71407-3.97766Zm30.98778,6.58661,18.71407,3.978,3.97781-18.7143-18.71406-3.97766Zm30.9877,6.58661,18.71407,3.97766,3.97781-18.714-18.71406-3.978Zm30.9877,6.58661L304.36,422.86438l3.97789-18.714-18.71422-3.97766Zm30.98771,6.58661,18.71421,3.97766,3.97782-18.7143L320.61142,406.759Zm30.9877,6.58661,18.71422,3.97766,3.97781-18.714L351.59912,413.346Zm30.9877,6.58661,18.71422,3.97766,3.97781-18.7143L382.587,419.93225Zm30.98778,6.5866,18.71406,3.97767,3.97782-18.714-18.71407-3.978Zm30.9877,6.58661,18.71406,3.978,3.97782-18.71429-18.71407-3.97767Zm30.9877,6.58661,18.71406,3.97766,3.97782-18.71429L475.55,439.69208Zm30.9877,6.58661,18.71407,3.97766,3.97789-18.714L506.53763,446.279Zm30.9877,6.58661,18.71422,3.97766,3.97781-18.71429-18.71421-3.97766Zm30.9877,6.58661,18.71415,3.97766,3.97781-18.714L568.513,459.45221Zm30.9877,6.58661,18.71415,3.978,3.97781-18.71429-18.71414-3.97766Zm30.98786,6.58661,18.71414,3.97766,3.97781-18.714-18.71414-3.978Zm30.9877,6.58661,18.71414,3.97766,3.97782-18.714L661.47636,479.212Zm30.9877,6.5866,18.71414,3.97767,3.978-18.7143-18.71414-3.97766Zm30.9877,6.58661,18.71415,3.97766,3.97781-18.714-18.71414-3.97767Zm31.20865,6.44318,18.35007,3.90015,3.9-18.34992L754.5826,499.1925Zm39.313,1.18011,4.61777.98114.982-4.61792-4.61776-.982Zm-732.44-125.32989.72906.155.155-.72907-.72906-.155Zm24.43062,10.845,11.54449,2.45392,2.45377-11.5445-11.54442-2.45391Zm26.71463,9.36157,18.5926,3.952,3.952-18.59283-18.59261-3.952Zm30.914,6.63452,18.71422,3.97767,3.97781-18.7143-18.71422-3.97766Zm30.9877,6.58661,18.71422,3.97766,3.97781-18.714-18.71406-3.978Zm30.98778,6.58661,18.71406,3.978,3.97782-18.7143L205.56816,414.693Zm30.9877,6.58661,18.71406,3.97766,3.97782-18.71429-18.71407-3.97766Zm30.9877,6.58661,18.71407,3.97766,3.97789-18.714-18.71422-3.97766Zm30.9877,6.58661,18.71422,3.97766,3.97781-18.71429-18.71421-3.97767Zm30.9877,6.58661,18.71422,3.97766,3.97781-18.714L329.519,441.03943Zm30.9877,6.58661,18.71422,3.978,3.97782-18.71429L360.50682,447.626Zm30.98778,6.58661,18.71407,3.97766,3.97781-18.714-18.71406-3.978Zm30.9877,6.5866,18.71407,3.97767,3.97781-18.714-18.71406-3.97766Zm30.9877,6.58661,18.71407,3.97766,3.97781-18.71429-18.71406-3.97766Zm30.98771,6.58661,18.71406,3.97766,3.97789-18.714-18.71422-3.97766Zm30.9877,6.58661,18.71422,3.97766,3.97781-18.71429-18.71422-3.97766Zm30.9877,6.58661,18.71422,3.97766,3.97781-18.714L546.433,487.14569Zm30.9877,6.58661,18.71422,3.978,3.97781-18.7143-18.71414-3.97766Zm30.98778,6.58661,18.71414,3.97766,3.97781-18.714-18.71414-3.978Zm30.9877,6.58661,18.71414,3.97766,3.97782-18.714-18.71415-3.97766Zm30.9877,6.58661,18.71414,3.97766,3.978-18.7143L670.384,513.49182Zm30.9877,6.5866,18.71414,3.97767,3.97782-18.714-18.71414-3.97766Zm30.9877,6.58661,18.71415,3.97766,3.97781-18.71429L732.35924,526.665Zm33.19794,5.15107,15.06851,3.20312,3.203-15.06866L764.78233,535.462Zm39.534,1.03668.972.20691.20706-.972-.972-.20691ZM33.41164,422.42737l4.13169.878.87822-4.13178-4.13169-.878Zm22.5151,12.08893,18.10654,3.84857L77.882,420.25848l-18.10661-3.84857ZM86.546,441.34216l18.71422,3.97766,3.97781-18.714-18.71422-3.97766Zm30.9877,6.58661,18.71422,3.978,3.97781-18.7143-18.71421-3.97766Zm30.9877,6.58661,18.71422,3.97766,3.97782-18.714-18.71407-3.978ZM179.5092,461.102l18.71407,3.97766,3.97781-18.714L183.487,442.388Zm30.9877,6.58661,18.71407,3.97766,3.97781-18.71429-18.71406-3.97767Zm30.9877,6.58661,18.71407,3.97766,3.97789-18.714-18.714-3.978Zm30.98771,6.58661,18.71421,3.97766,3.97782-18.7143-18.71422-3.97766Zm30.9877,6.58661,18.71421,3.97766,3.97782-18.714-18.71422-3.97766Zm30.9877,6.5866,18.71422,3.978,3.97781-18.71429L338.42567,475.321Zm30.98778,6.58661,18.71406,3.97766,3.97782-18.714-18.71407-3.978Zm30.9877,6.58661,18.71406,3.97766,3.97782-18.714L400.401,488.49426Zm30.9877,6.58661,18.71406,3.97766,3.97782-18.71429-18.71407-3.97766Zm30.9877,6.58661,18.71407,3.97766,3.97789-18.714-18.71422-3.97766Zm30.9877,6.58661,18.71422,3.97766,3.97781-18.71429-18.71421-3.97767Zm30.9877,6.58661,18.71422,3.97766,3.97781-18.714-18.71421-3.978Zm30.9877,6.58661,18.71422,3.978,3.97782-18.71429-18.71407-3.97766Zm30.98778,6.58661,18.71414,3.97766,3.97782-18.7143-18.71414-3.97766Zm30.9877,6.5866,18.71415,3.97767,3.97781-18.714L617.315,534.60052Zm30.9877,6.58661,18.71415,3.97766,3.978-18.71429-18.71414-3.97766Zm30.98771,6.58661,18.71414,3.97766,3.97781-18.714-18.71414-3.97766Zm30.9877,6.58661,18.71414,3.978,3.97781-18.7143-18.71414-3.97766ZM737.288,579.661l18.71414,3.97766,3.97781-18.714-18.71414-3.978Zm31.50345,6.25183,17.86346,3.797,3.797-17.86347-17.86347-3.797Zm39.092,1.32355,4.49615.95611.956-4.49615-4.49615-.95612ZM11.99448,449.69238l3.038.64606.64583-3.038-3.0381-.64606Zm21.55731,12.71088,18.5926,3.952,3.952-18.59253-18.59261-3.952Zm30.914,6.63452L83.18,473.01544l3.97781-18.714-18.71422-3.978Zm30.9877,6.58661,18.71422,3.978,3.97781-18.7143L99.4313,456.9104Zm30.9877,6.58661,18.71422,3.97766,3.97781-18.71429-18.71406-3.97767Zm30.98778,6.58661,18.71407,3.97766,3.97781-18.714-18.71407-3.97766Zm30.9877,6.58661,18.71407,3.97766,3.97781-18.7143-18.71406-3.97766Zm30.9877,6.58661,18.71407,3.97766,3.97789-18.714-18.71422-3.97766Zm30.9877,6.5866,18.71422,3.97767,3.97782-18.7143-18.71422-3.97766Zm30.98771,6.58661L300.094,519.1217l3.97782-18.714-18.71422-3.978Zm30.9877,6.58661,18.71422,3.978,3.97781-18.7143-18.71407-3.97766Zm30.98778,6.58661,18.71406,3.97766,3.97781-18.71429L347.33307,509.603Zm30.9877,6.58661,18.71406,3.97766,3.97782-18.714-18.71407-3.97766Zm30.9877,6.58661,18.71406,3.97766,3.97782-18.71429-18.71407-3.97767Zm30.9877,6.58661,18.71406,3.97766,3.97789-18.714L440.2961,529.3631Zm30.9877,6.58661,18.71422,3.978,3.97781-18.71429-18.71422-3.97766Zm30.9877,6.58661L517.008,565.228l3.97781-18.714-18.71421-3.978Zm30.9877,6.5866,18.71422,3.97767,3.97782-18.714-18.71407-3.97767Zm30.98778,6.58661,18.71414,3.97766,3.97782-18.71429-18.71407-3.97766Zm30.9877,6.58661,18.71414,3.97766,3.97782-18.714-18.71414-3.97766Zm30.9877,6.58661,18.71415,3.97766,3.978-18.71429-18.71414-3.97766Zm30.98771,6.58661,18.71414,3.97766,3.97781-18.714-18.71414-3.97766Zm30.9877,6.58661,18.71414,3.978,3.97781-18.71429L688.19786,582.056Zm30.9877,6.58661,18.71414,3.97766,3.97781-18.714-18.71414-3.978Zm30.9877,6.58661,18.71414,3.97766,3.97782-18.714-18.71415-3.97766Zm30.98785,6.58661,18.71415,3.97766,3.97781-18.7143-18.71414-3.97766Zm36.14487,3.2373,10.20783,2.1701,2.17-10.20782-10.20767-2.1701ZM14.41818,488.183,28.15,491.10168,31.06873,477.37,17.337,474.45129Zm27.967,8.54828,18.71422,3.97766,3.97781-18.714L46.363,478.017Zm30.9877,6.58661,18.71422,3.978,3.97781-18.7143-18.71422-3.97766Zm30.9877,6.58661,18.71422,3.97766,3.97781-18.71429-18.71406-3.97766Zm30.98778,6.58661,18.71406,3.97766,3.97782-18.714-18.71407-3.97766Zm30.9877,6.58661,18.71407,3.97766,3.97781-18.7143-18.71407-3.97766Zm30.9877,6.58661,18.71407,3.97766,3.97789-18.714-18.71422-3.97766Zm30.9877,6.58661,18.71422,3.978,3.97781-18.71429-18.71421-3.97766Zm30.9877,6.5866,18.71422,3.97767,3.97782-18.714-18.71422-3.978Zm30.98771,6.58661,18.71421,3.97766,3.97782-18.714-18.71407-3.97767Zm30.98777,6.58661,18.71407,3.97766,3.97781-18.71429-18.71406-3.97766Zm30.9877,6.58661,18.71407,3.97766,3.97781-18.714-18.71406-3.97766Zm30.98771,6.58661,18.71406,3.97766,3.97782-18.71429-18.71407-3.97766Zm30.9877,6.58661,18.71406,3.97766,3.97789-18.714-18.71422-3.978Zm31.0614,6.5387,18.5926,3.952,3.952-18.59253-18.59261-3.952Zm31.0614,6.53869,18.47107,3.92609,3.92609-18.47107-18.47107-3.92609Zm30.84,6.68244,18.71421,3.97766,3.97782-18.714-18.71407-3.97766Zm30.98777,6.5866,18.71407,3.97767,3.97781-18.7143-18.71406-3.97766Zm30.98771,6.58661,18.71406,3.97766,3.97781-18.714-18.71406-3.97767Zm30.98762,6.58661,18.71414,3.97766,3.978-18.71429-18.71414-3.97766Zm30.9877,6.58661,18.71414,3.97766,3.97782-18.714-18.71414-3.978Zm30.9877,6.58661,18.71415,3.978,3.97781-18.7143-18.71414-3.97766Zm30.9877,6.58661,18.71415,3.97766,3.97781-18.71429-18.71414-3.97767Zm30.98771,6.58661,18.71414,3.97766,3.97781-18.714-18.71414-3.97766Zm30.98785,6.58661,18.71414,3.97766,3.97782-18.7143L759.08012,629.509Zm30.9877,6.58661,18.71414,3.97766,3.97782-18.714-18.71414-3.97766Zm33.56629,4.9121,14.46106,3.07374,3.07373-14.46076-14.46091-3.07373Zm39.38675,1.13221.60806.12909.12893-.60791-.60806-.12909ZM0,510.9024l1.09367.23285.23247-1.09375-1.09367-.23285Zm20.52582,13.38074,18.35,3.90015,3.9-18.34992-18.35-3.90014Zm30.76668,6.73,18.71421,3.97766,3.97782-18.714-18.71422-3.97767Zm30.9877,6.58661,18.71422,3.97766,3.97781-18.71429L86.25816,518.8855ZM113.268,544.1864l18.71407,3.97766,3.97781-18.714-18.71406-3.97766Zm30.98771,6.58661,18.71406,3.97766,3.97782-18.71429-18.71407-3.97766Zm30.9877,6.58661,18.71406,3.97766,3.97789-18.714-18.71421-3.978Zm30.9877,6.58661,18.71422,3.978,3.97781-18.71429-18.71422-3.97736Zm30.9877,6.58661L255.933,574.5105l3.97781-18.7143-18.71422-3.97766Zm30.9877,6.58661,18.71422,3.97766,3.97781-18.714-18.71406-3.97766Zm30.98778,6.5866,18.71407,3.97767,3.97781-18.7143-18.71407-3.97766Zm30.9877,6.58661,18.71407,3.97766,3.97781-18.714-18.71407-3.97767Zm30.9877,6.58661,18.71407,3.97766,3.97781-18.71429L365.14748,578.165Zm32.75589,5.43823,15.79773,3.35785,3.35793-15.79773-15.79773-3.35784Zm35.62927,3.57239,8.14179,1.73065,1.73058-8.14178-8.14179-1.73065Zm34.52408,4.28986,2.30889.491.491-2.30866-2.3088-.491Zm24.1359,11.03607,13.61,2.89307,2.89291-13.60993-13.61-2.89306Zm27.89337,8.59619,18.71407,3.97766,3.97781-18.71429L520.086,611.09772Zm30.9877,6.58661,18.71407,3.97766,3.97781-18.714-18.71407-3.97766Zm30.9877,6.58661,18.71414,3.978,3.978-18.7143-18.71414-3.97766Zm30.9877,6.58661,18.71415,3.97766,3.97781-18.714-18.71414-3.978Zm30.98771,6.58661,18.71414,3.97766,3.97781-18.714-18.71414-3.97766Zm30.9877,6.58661,18.71414,3.97766,3.97781-18.7143-18.71414-3.97766Zm30.9877,6.58661,18.71414,3.97766,3.97781-18.714-18.71414-3.97766Zm30.98785,6.5866,18.71414,3.97767,3.97782-18.7143L737.00005,657.204Zm30.9877,6.58661,18.71415,3.97766,3.97781-18.714-18.71414-3.978Zm30.9877,6.58661,18.71415,3.978,3.978-18.7143L798.9756,670.3775Zm32.68219,5.48615,15.91919,3.38379,3.38364-15.91919-15.919-3.38379Zm40.19715.60608.72906.155.155-.72907-.72906-.155ZM8.24394,545.61279l2.18743.46509.465-2.1875L8.709,543.42529Zm22.44141,12.13684,16.2838,3.46131,3.46122-16.28357-16.28372-3.46131Zm29.51423,7.54364,18.71422,3.97767,3.97782-18.7143L64.17755,546.579Zm30.98778,6.58661,18.71407,3.97766,3.97781-18.714-18.71406-3.97766Zm30.9877,6.58661,18.71407,3.978,3.97781-18.7143-18.71421-3.97766Zm30.98771,6.58661,18.71406,3.97766,3.97789-18.714-18.71422-3.978Zm30.9877,6.58661,18.71422,3.97766,3.97781-18.714-18.71422-3.97766Zm30.9877,6.58661,18.71422,3.97766,3.97781-18.71429L219.116,579.512Zm30.9877,6.58661,18.71422,3.97766,3.97781-18.714-18.71406-3.97766Zm31.50352,6.25183,17.86347,3.797,3.797-17.86347-17.86347-3.797Zm33.27157,5.10345,14.09637,2.99622,2.99629-14.09638-14.09637-2.99621Zm34.8925,4.05091,7.65579,1.62719,1.62727-7.65594-7.65579-1.6272Zm34.59778,4.24224,1.70127.36194.362-1.70135-1.70128-.36194Zm122.69844,27.16,3.76709.80109.801-3.76709-3.76717-.80109Zm23.54652,11.41907,16.04073,3.41,3.41-16.04065-16.04073-3.41Zm29.36691,7.63916,18.71407,3.978,3.978-18.71429-18.71421-3.97766Zm30.98763,6.58661,18.71414,3.97766,3.97781-18.7143-18.71414-3.97766Zm30.9877,6.5866,18.71414,3.97767,3.97781-18.714-18.71414-3.97767Zm30.9877,6.58661,18.71414,3.97766,3.97782-18.71429L652.944,671.72516Zm30.9877,6.58661,18.71414,3.97766,3.97782-18.714-18.71414-3.97766Zm30.98786,6.58661,18.71414,3.97766,3.97781-18.71429-18.71414-3.97766Zm30.9877,6.58661,18.71414,3.97766,3.97781-18.714-18.71414-3.978Zm30.9877,6.58661,18.71414,3.978,3.978-18.71429-18.71414-3.97766Zm30.9877,6.58661,18.71414,3.97766,3.97782-18.7143-18.71415-3.97766Zm33.78738,4.76837,14.09638,2.99621,2.99621-14.09637-14.09637-2.99622ZM18.4037,579.08081l.12161.02991.026-.12085-.12154-.02991Zm25.02,10.462,9.9646,2.11822,2.11807-9.9646-9.96467-2.11822Zm25.68314,10.03143,18.71406,3.97766,3.97782-18.714-18.71407-3.97766Zm31.35612,6.34735,18.10654,3.84857,3.84872-18.10669-18.10661-3.84857Zm32.90322,5.34271,14.947,3.17719,3.17711-14.9469-14.947-3.17719Zm31.72447,6.1081,13.73176,2.9187,2.91878-13.732-13.73177-2.9187Zm32.68219,5.48614,10.93689,2.32483,2.32467-10.93689-10.93689-2.32483Zm32.60856,5.53406,8.2634,1.75659,1.75636-8.26355-8.26339-1.75659Zm33.93471,4.67285,3.40263.723.7232-3.40271-3.40249-.723Zm32.756,5.43823.486.10315.103-.48614-.486-.10315Zm244.73358,54.75006,5.71152,1.214,1.214-5.71136-5.71152-1.214Zm24.136,11.03608,17.01286,3.61633,3.61618-17.01294-17.01278-3.61633Zm29.95613,7.25647,18.71414,3.97766,3.97782-18.714-18.71415-3.97766Zm30.9877,6.5866,18.71414,3.97767,3.97782-18.7143-18.71414-3.97766Zm30.9877,6.58661,18.71415,3.97766,3.97781-18.714L661.851,706.00555Zm30.98786,6.58661,18.71414,3.978,3.97781-18.7143-18.71414-3.97766Zm30.9877,6.58661,18.71414,3.97766,3.97781-18.714-18.71414-3.978Zm30.9877,6.58661,18.71414,3.97766,3.978-18.714-18.71414-3.97766Zm30.9877,6.58661,18.71414,3.97766,3.97782-18.71429-18.71414-3.97767Zm30.9877,6.58661,18.71415,3.97766,3.97781-18.714-18.71414-3.97766Zm37.54486,2.32849,7.89887,1.67908,1.67892-7.89887-7.89886-1.67877ZM55.35156,621.861l4.9823,1.059,1.059-4.9823-4.9823-1.059ZM84.05525,629.931l8.74947,1.86005,1.86-8.75L85.91522,621.181Zm35.62927,3.57239,1.09368.23285.23247-1.09375-1.09368-.23194Zm434.41742,91.83014.121.0299.03-.12207-.122-.0299Zm27.37763,8.931,6.07605,1.2915,1.2915-6.07605-6.07605-1.2915Zm24.65164,10.70129L622.658,748.4787l3.51273-16.5268L609.64409,728.439Zm29.66156,7.44782,18.71414,3.97766,3.97782-18.714-18.71415-3.978Zm30.98785,6.5866,18.71415,3.978,3.97781-18.71429-18.71414-3.97767Zm30.98771,6.58661,18.71414,3.97766,3.97781-18.71429-18.71414-3.97766Zm30.9877,6.58661,18.71414,3.97766,3.978-18.714L732.734,753.45947Zm30.9877,6.58661,18.71414,3.97766,3.97781-18.71429-18.71414-3.97766Zm30.9877,6.58661,18.71414,3.97766,3.97782-18.714-18.71415-3.97766Zm33.12424,5.199,15.19,3.22876,3.22876-15.19012-15.19-3.22876Zm40.12344.654.121.0299.03006-.12207-.121-.0299Zm-269.9823-24.99878.12207.0299.03006-.12207-.121-.0299Zm28.48282,8.2135,4.25323.90393.90394-4.25324-4.25324-.90393Zm25.31464,10.27069,13.60992,2.89306,2.89307-13.60992-13.60993-2.89307Zm28.11447,8.45245,18.35006,3.90015,3.9-18.34992-18.35007-3.90014Zm30.76675,6.73,18.71414,3.97766,3.978-18.714-18.71414-3.97767Zm30.9877,6.58661,18.71414,3.97766,3.97782-18.71429L741.641,787.73987Zm30.9877,6.58661,18.71415,3.97766,3.97781-18.714-18.71414-3.97766Zm33.34534,5.05554,14.82544,3.15125,3.15125-14.82544-14.82544-3.15125Zm39.53415,1.03669.72907.155.155-.72906-.72906-.155Zm-177.019-5.239.72906.155.155-.72906-.72906-.155Zm28.18817,8.40485,5.34683,1.13647,1.13648-5.347L693.836,816.9519Zm28.63006,8.11767,9.23554,1.9632,1.963-9.23553-9.23553-1.96289Zm30.84,6.68244,9.47861,2.01477,2.01477-9.47846-9.47861-2.01477Zm34.082,4.577,4.37485.92987.93-4.3747-4.37469-.92987Z" fill="#26bad7"/>
        <path id="atom_04_line" data-name="atom 04 line" d="M251.4212,43.40149a47.34087,47.34087,0,0,0-50.1374,19.86114c-52.58393,75.09827,92.116,195.35767,65.45242,249.86664l1.05217-2.86926c-15.371,59.80713-178.99193,43.7738-195.64407,116.00281l-.6118,2.72522c-39.36783,176.7099,481.76925,81.99463,535.822,18.82721C636.42738,413.78448,386.57288,64.37256,251.4212,43.40149ZM46.49544,424.17633c.019-.09.90538-4.39117.849-4.118,18.96232-86.36871,178.094-81.9458,194.20318-117.85767l.683-1.63177c8.736-20.87342-62.94228-106.97388-75.81322-173.63892-11.89-57.84881,19.07-98.97049,56.02219-107.37671C268.40485,9.09149,322.5412,45.21317,359.4001,74.97314,479.253,172.39594,624.61739,380.8432,626.02943,439.94843,627.25838,519.24225,1.81389,652.482,46.49529,424.176Zm332.58514-64.97589a63.89768,63.89768,0,0,0,3.81493,16.95862c35.97931,103.30993,266.13,373.95386,357.25822,332.9834a60.28272,60.28272,0,0,0,30.64179-42.42859c14.9826-74.05945-81.80283-159.77936-73.0632-211.07147,21.38153-42.348,115.60913-48.2483,162.24563-93.39539A64.84337,64.84337,0,0,0,880.848,312.34467c.551-157.54029-503.466-4.83826-501.76728,46.85577Zm-10.55519-17.14356c49.24141-65.00915,534.99062-218.10577,537.53-29.74273.352,39.21661-17.74353,65.50842-50.31341,87.11426-47.6474,31.8161-126.13938,49.56756-132.24472,65.90728l.42694-1.26495c-4.81674,17.09259,60.94864,96.80054,72.34573,163.25256,9.43909,52.94312-16.0878,91.97235-46.47735,104.83582-42.45224,18.02734-94.68247-11.30585-132.12143-38.77411C511.69891,615.42816,364.71947,420.77026,362.933,359.61151a34.91572,34.91572,0,0,1,5.59281-17.55432Zm169.06754,33.9856a41.4191,41.4191,0,1,1-41.41327-42.11182A41.41895,41.41895,0,0,1,537.59293,376.04248ZM148.44971,518.4552a36.0906,36.0906,0,1,1-36.08551-36.694A36.09066,36.09066,0,0,1,148.44971,518.4552ZM925.12825,307.78137a37.61131,37.61131,0,1,1-37.606-38.24A37.61118,37.61118,0,0,1,925.12825,307.78137ZM496.17912,123.3136a30.21494,30.21494,0,1,1-29.70581,30.71564q-.00423-.25269-.00419-.50507A29.96355,29.96355,0,0,1,496.17912,123.3136ZM700.60844,85.22766a30.33185,30.33185,0,1,1-29.8204,30.835q-.00435-.2536-.00427-.5072A30.07941,30.07941,0,0,1,700.60844,85.22766ZM755.68,155.51849a21.02559,21.02559,0,1,1-20.67108,21.37421q-.003-.17578-.0029-.35156A20.84992,20.84992,0,0,1,755.68,155.51849Zm0,130.99121a25.43378,25.43378,0,1,1-25.43-25.85907A25.43359,25.43359,0,0,1,755.68,286.5097ZM576.39221,488.02734a27.55,27.55,0,1,1-27.54631-28.01086A27.54995,27.54995,0,0,1,576.39221,488.02734ZM491.99013,622.52106a37.2294,37.2294,0,1,1-37.2242-37.85187A37.22953,37.22953,0,0,1,491.99013,622.52106ZM706.63658,183.70544a13.63,13.63,0,1,1-13.62839-13.85833A13.6297,13.6297,0,0,1,706.63658,183.70544ZM222.05193,284.57764a21.044,21.044,0,1,1-21.04111-21.39588A21.04377,21.04377,0,0,1,222.05193,284.57764Zm-39.9363-43.63251a33.67,33.67,0,1,1-33.66577-34.2334A33.66981,33.66981,0,0,1,182.11563,240.94513Z" fill="#110a4c"/>
      </g>
    </g>
  </g>
</svg>
