<svg xmlns="http://www.w3.org/2000/svg" width="763.84682" height="786.26389" viewBox="0 0 763.84682 786.26389">
  <g id="Layer_2" data-name="Layer 2">
    <g id="svg4790">
      <g id="atom_10" data-name="atom 10">
        <polygon id="atom_10_solid" data-name="atom 10 solid" points="110.385 363.509 183.775 575.299 385.425 673.179 597.215 599.789 695.085 398.139 621.705 186.349 420.055 88.479 208.255 161.859 110.385 363.509" fill="#e7f9e0"/>
        <path id="atom_10_ht" data-name="atom 10 ht" d="M412.21054,54.56839h2.23618V56.8047h-2.23618Zm19.57207,8.5308h3.89267v-3.8927h-3.89267ZM453.094,67.6544h2.07062V65.5838H453.094Zm21.18721,4.67939h.497v-.4969h-.497Zm-98.17886-3.2867h2.31911V66.728h-2.31911Zm17.25311,8.61349h8.61359V69.047h-8.61359Zm19.57207,6.2945h10.27v-10.27h-10.27Zm20.4,5.46631h10.27v-10.27h-10.27Zm20.44182,5.4248h10.1873V84.65929h-10.1873Zm20.93872,4.9279h9.11056v-9.1106H474.7081Zm21.35277,4.5138h7.20573V97.0822h-7.20573Zm21.27,4.5966h5.46638v-5.46631h-5.46638Zm21.4357,4.431h3.39569V109.9193h-3.39569Zm21.39419,4.47229h1.408v-1.408h-1.408Zm20.93872,4.928h.331v-.33131h-.331ZM340.118,81.16518h2.15339v-2.1534H340.118Zm17.25311,8.61349h8.448v-8.448h-8.448Zm19.48929,6.37739h10.27v-10.27h-10.27Zm20.4,5.4662h10.27v-10.27h-10.27Zm20.4,5.46631h10.27v-10.27h-10.27Zm20.4,5.46619h10.27v-10.27h-10.27Zm20.4,5.46631h10.27v-10.27h-10.27Zm20.4,5.46631h10.27v-10.27h-10.27Zm20.4,5.46619h10.27v-10.27h-10.27Zm20.4,5.46631h10.27v-10.27h-10.27Zm20.4,5.46619h10.27v-10.27h-10.27Zm20.5246,5.34211h10.02167V135.20647H560.5851Zm21.0215,4.845h8.77929v-8.77929H581.6066Zm21.43577,4.431h6.70868v-6.70869h-6.70868Zm21.3942,4.47239h4.72107v-4.721h-4.72107Zm21.85,4.0168h1.82206V161.1713h-1.82206ZM304.17587,93.2419h1.90491V91.337h-1.90491Zm17.21161,8.655h8.2824V93.6145h-8.2824Zm19.40651,6.46h10.27v-10.27h-10.27Zm20.4,5.4663h10.27v-10.27h-10.27Zm20.4,5.4662h10.27V109.0193h-10.27Zm20.4,5.46631h10.27v-10.27h-10.27Zm20.4,5.46631h10.27v-10.27h-10.27Zm20.4,5.46619h10.27v-10.27h-10.27Zm20.4,5.46631h10.27v-10.27h-10.27Zm20.4,5.46619h10.27v-10.27h-10.27Zm20.4,5.46631h10.27v-10.27h-10.27Zm20.4,5.46631h10.27v-10.27h-10.27Zm20.4,5.46619h10.27V152.74929h-10.27Zm20.4,5.46631h10.27v-10.27h-10.27Zm20.4,5.4662H595.864v-10.27h-10.27Zm20.39993,5.4663H616.264v-10.27H605.994Zm20.39994,5.4662h10.26992v-10.27H626.394Zm23.21624,2.65h4.63807v-4.63813h-4.63349ZM268.06763,105.48429h1.98768v-1.9878h-1.98768Zm17.253,8.61361h8.2824v-8.28239h-8.2824Zm19.40651,6.46h10.27v-10.27h-10.27Zm20.4,5.46631h10.27v-10.27h-10.27Zm20.4,5.46619h10.27v-10.27h-10.27Zm20.4,5.46631h10.27v-10.27h-10.27Zm20.4,5.46619h10.27v-10.27h-10.27Zm20.4,5.46631h10.27V137.61929h-10.27Zm20.4,5.4662h10.27v-10.27h-10.27Zm20.4,5.46631h10.27v-10.27h-10.27Zm20.4,5.4663h10.27v-10.27h-10.27Zm20.4,5.4662h10.27v-10.27h-10.27Zm20.4,5.46631h10.27v-10.27h-10.27Zm20.4,5.46619h10.27v-10.27h-10.27Zm20.4,5.46631h10.27v-10.27h-10.27Zm20.4,5.46631h10.27v-10.27h-10.27Zm20.4,5.46619h10.27v-10.27h-10.27Zm20.4,5.46631h10.26993v-10.27H610.72731Zm20.39993,5.4662h10.26993v-10.27H631.12724Zm22.3053,3.56128h6.46v-6.46h-6.46Zm23.589,2.27761h.08v-.083h-.08Zm-444.97925-96.213h1.90491v-1.90464h-1.90491Zm17.37732,8.4893h7.95113v-7.9511h-7.95113Zm19.2408,6.62581h10.27V122.4893h-10.27Zm20.4,5.46619h10.27v-10.27h-10.27Zm20.4,5.46631h10.27v-10.27h-10.27Zm20.4,5.46619h10.27v-10.27h-10.27Zm20.4,5.46629h10.27v-10.27h-10.27Zm20.4,5.46631h10.27v-10.27h-10.27Zm20.4,5.4662h10.27v-10.27h-10.27Zm20.4,5.4663h10.27v-10.27h-10.27Zm20.4,5.4662h10.27V166.21929h-10.27Zm20.4,5.46631h10.27v-10.27h-10.27Zm20.4,5.46619h10.27v-10.27h-10.27Zm20.4,5.46631h10.27v-10.27h-10.27Zm20.4,5.46631h10.27v-10.27h-10.27Zm20.4,5.46619h10.27v-10.27h-10.27Zm20.4,5.46631h10.27v-10.27h-10.27Zm20.4,5.4662h10.27v-10.27h-10.27Zm20.39993,5.4663h10.26993V209.9493H595.0605Zm20.39993,5.46631h10.26993v-10.27H615.46043Zm20.39994,5.4662h10.26992v-10.27H635.86037Zm21.56006,4.30671h7.95105v-7.951h-7.95105Zm24.21005,1.65642h.331v-.3313h-.331ZM196.14113,129.6793h1.57371v-1.5737h-1.57356Zm17.253,8.61349h7.86827v-7.8682h-7.86827ZM232.59354,144.96h10.27V134.69h-10.27Zm20.4,5.46631h10.27v-10.27h-10.27Zm20.4,5.4662h10.27v-10.27h-10.27Zm20.4,5.46631h10.27v-10.27H293.79486Zm20.4,5.4663h10.27v-10.27H314.19487Zm20.4,5.4662h10.27v-10.27h-10.27Zm20.4,5.46631h10.27v-10.27h-10.27Zm20.4,5.46619h10.27v-10.27h-10.27Zm20.4,5.46631h10.27v-10.27h-10.27Zm20.4,5.46631h10.27v-10.27h-10.27Zm20.4,5.46619h10.27v-10.27h-10.27Zm20.4,5.46631h10.27v-10.27h-10.27Zm20.4,5.46619h10.27v-10.27h-10.27Zm20.4,5.46631h10.27v-10.27h-10.27Zm20.4,5.4662h10.27v-10.27h-10.27Zm20.4,5.46631h10.27v-10.27h-10.27Zm20.4,5.4663h10.27v-10.27h-10.27Zm20.4,5.4662h10.27v-10.27h-10.27Zm20.39993,5.46631h10.26993v-10.27H599.79362Zm20.39994,5.46619h10.26993v-10.27H620.19356Zm20.39993,5.46631h10.26993v-10.27H640.59349Zm20.89737,4.96929h9.27628v-9.27624h-9.27628Zm24.583,1.28369h.91095v-.91111h-.91095Zm-506.683-112.115h3.734V144.6961h-3.72711Zm17.12883,8.7378h10.27v-10.27h-10.27Zm20.4,5.46631h10.27v-10.27h-10.27Zm20.4,5.46619h10.27v-10.27h-10.27Zm20.4,5.46631h10.27V163.2893h-10.27Zm20.4,5.46619h10.27v-10.27h-10.27Zm20.4,5.46631h10.27v-10.27h-10.27Zm20.4,5.4662h10.27v-10.27h-10.27Zm20.4,5.4663h10.27v-10.27h-10.27Zm20.4,5.46631h10.27v-10.27h-10.27Zm20.4,5.4662h10.27v-10.27h-10.27Zm20.4,5.46631h10.27v-10.27h-10.27Zm20.4,5.46619h10.27v-10.2705h-10.27Zm20.4,5.46631h10.27v-10.27h-10.27Zm20.4,5.46631h10.27v-10.27h-10.27Zm20.4,5.46619h10.27v-10.27h-10.27Zm20.4,5.46631h10.27v-10.27h-10.27Zm20.4,5.46619h10.27v-10.27h-10.27Zm20.4,5.46631h10.27v-10.27h-10.27Zm20.4,5.4662h10.27v-10.27h-10.27Zm20.4,5.46631h10.27V250.74928h-10.27Zm20.4,5.4663h10.26993v-10.27H604.51988Zm20.39994,5.4662h10.26992v-10.27H624.91982Zm20.39993,5.46631h10.26993v-10.27H645.31975Zm20.566,5.3006h9.939v-9.93882h-9.939Zm24.33456,1.53209h2.07062v-2.07065h-2.056ZM165.13954,164.68231h.911v-.911h-.911Zm15.845,10.02159h10.02167V164.6822H180.9848Zm20.27619,5.59h10.27v-10.27h-10.27Zm20.4,5.4662h10.27v-10.27h-10.27Zm20.4,5.46631h10.27v-10.27h-10.27Zm20.4,5.46631h10.27v-10.27h-10.27Zm20.4,5.46619h10.27V191.88931h-10.27Zm20.4,5.46631h10.27v-10.27h-10.27Zm20.4,5.46619h10.27v-10.27h-10.27Zm20.4,5.46631h10.27v-10.27h-10.27Zm20.4,5.4662h10.27v-10.27h-10.27Zm20.4,5.4663h10.27v-10.27h-10.27Zm20.4,5.46631h10.27v-10.27h-10.27Zm20.4,5.4662h10.27v-10.27h-10.27Zm20.4,5.46631h10.27V235.61928h-10.27Zm20.4,5.46619h10.27v-10.27h-10.27Zm20.4,5.46631h10.27v-10.27h-10.27Zm20.4,5.46631h10.27v-10.27h-10.27Zm20.4,5.46619h10.27v-10.27h-10.27Zm20.4,5.46631h10.27v-10.27h-10.27Zm20.4,5.46619h10.27v-10.27h-10.27Zm20.4,5.46631h10.27v-10.27h-10.27Zm20.4,5.4662h10.26993V279.34929H609.26094Zm20.39993,5.4663H639.9308v-10.27H629.66087Zm20.39994,5.46631h10.26992v-10.27H650.06081Zm20.39993,5.4662h10.26993v-10.27H670.46074Zm23.79608,2.0705h3.47855v-3.47866h-3.47046ZM166.43623,191.253h7.78542V183.4676h-7.78542Zm19.158,6.70861h10.27v-10.27h-10.27Zm20.4,5.46631h10.27v-10.27h-10.2694Zm20.4,5.46619h10.27v-10.27H226.39481Zm20.4,5.46631h10.27v-10.27h-10.27Zm20.4,5.46619h10.27v-10.27h-10.27Zm20.4,5.46631h10.27v-10.27h-10.27Zm20.4,5.46631h10.27V220.48931h-10.27Zm20.4,5.46619h10.27v-10.27h-10.27Zm20.4,5.46631h10.27v-10.27h-10.27Zm20.4,5.4662h10.27v-10.27h-10.27Zm20.4,5.4663h10.27v-10.27h-10.27Zm20.4,5.4662h10.27v-10.27h-10.27Zm20.4,5.46631h10.27v-10.27h-10.27Zm20.4,5.46631h10.27v-10.27h-10.27Zm20.4,5.46619h10.27v-10.27h-10.27Zm20.4,5.46631h10.27v-10.27h-10.27Zm20.4,5.46619h10.27v-10.27h-10.27Zm20.4,5.46631h10.27v-10.27h-10.27Zm20.4,5.46631h10.27v-10.27h-10.27Zm20.4,5.46619h10.27v-10.27h-10.27Zm20.4,5.46631h10.26992v-10.27h-10.27Zm20.39993,5.4662H624.2643v-10.27H613.99437Zm20.39993,5.46631h10.26993V307.9493H634.3943Zm20.39994,5.46619h10.26992v-10.27H654.79424Zm20.39993,5.46631H685.4641v-10.27H675.19417Zm22.84363,3.023h5.38345v-5.3836H698.0378Zm-545.62-124.91108h4.47243v-4.4725h-4.47243Zm17.50153,8.3651h10.27v-10.27h-10.27Zm20.4,5.46631h10.27v-10.27h-10.27Zm20.4,5.46619h10.27v-10.27h-10.27Zm20.4,5.46631h10.27v-10.27h-10.27Zm20.4,5.46631h10.27v-10.27h-10.27Zm20.4,5.4662h10.27v-10.27h-10.27Zm20.4,5.4663h10.27v-10.27h-10.27Zm20.4,5.4662h10.27v-10.27h-10.27Zm20.4,5.46631h10.27V249.08928h-10.27Zm20.4,5.46631h10.27v-10.27h-10.27Zm20.4,5.46619h10.27v-10.27h-10.27Zm20.4,5.46631h10.27v-10.27h-10.27Zm20.4,5.46619h10.27v-10.27h-10.27Zm20.4,5.46631h10.27v-10.27h-10.27Zm20.4,5.46619h10.27v-10.27h-10.27Zm20.4,5.46631h10.27v-10.27h-10.27Zm20.4,5.46631h10.27V292.81929h-10.27Zm20.4,5.4662h10.27v-10.27h-10.27Zm20.4,5.4663h10.27v-10.27h-10.27Zm20.4,5.4662h10.27v-10.27h-10.27Zm20.4,5.46631h10.27v-10.27h-10.27Zm20.39993,5.46631H608.5894v-10.27H598.31947Zm20.39994,5.46619h10.26992v-10.27H618.71941Zm20.39993,5.46631h10.26993v-10.27H639.11934Zm20.39993,5.46619H669.7892V336.5493H659.51927Zm20.39993,5.46631h10.26993v-10.27H679.9192Zm22.05689,3.81h6.95709v-6.95721h-6.95709Zm23.83743,2.02911h.08v-.083h-.08ZM138.23387,223.44028h1.49079v-1.491h-1.49079Zm16.05209,9.8145h10.18731v-10.1875H154.30283Zm20.35889,5.50769h10.27v-10.27h-10.27Zm20.4,5.46631h10.27v-10.27h-10.27Zm20.4,5.4662h10.27v-10.27h-10.27Zm20.4,5.46631h10.27v-10.27h-10.27Zm20.4,5.46619h10.27v-10.27h-10.27Zm20.4,5.46631h10.27v-10.27h-10.27Zm20.4,5.46631h10.27V261.28929h-10.27Zm20.4,5.46619h10.27v-10.27h-10.27Zm20.4,5.46631h10.27v-10.27h-10.27Zm20.4,5.46619h10.27v-10.27h-10.27Zm20.4,5.46631h10.27v-10.27h-10.27Zm20.4,5.46631h10.27v-10.27h-10.27Zm20.4,5.46619h10.27v-10.27h-10.27Zm20.4,5.46631h10.27v-10.27h-10.27Zm20.4,5.4662h10.27v-10.27h-10.27Zm20.4,5.46631h10.27v-10.27h-10.27Zm20.4,5.46619h10.27v-10.27h-10.27Zm20.4,5.46631h10.27v-10.27h-10.27Zm20.4,5.46631h10.27v-10.27h-10.27Zm20.4,5.46619h10.27v-10.27h-10.27Zm20.4,5.46631h10.27v-10.27h-10.27Zm20.39994,5.46619H613.3149v-10.27H603.045Zm20.39993,5.46631h10.26993v-10.27H623.4449Zm20.39993,5.46631h10.26993v-10.27H643.84483Zm20.39994,5.4662h10.26992v-10.27H664.24477Zm20.39993,5.4663h10.26993v-10.27H684.6447Zm21.18713,4.67942h8.69644v-8.69652h-8.69644Zm24.54163,1.32511h.414v-.41428h-.414Zm-590.90859-131.33h8.53081v-8.5308h-8.53081Zm19.53072,6.33591h10.27V246.15929h-10.27Zm20.4,5.46631h10.27v-10.27h-10.27Zm20.4,5.46631h10.27v-10.27h-10.27Zm20.4,5.46619h10.27v-10.27h-10.27Zm20.4,5.46631h10.27v-10.27h-10.27Zm20.4,5.46619h10.27v-10.27h-10.27Zm20.4,5.46631h10.27v-10.27h-10.27Zm20.4,5.4662h10.27v-10.27h-10.27Zm20.4,5.46631h10.27V289.8893h-10.27Zm20.4,5.4663h10.27v-10.27h-10.27Zm20.4,5.4662h10.27v-10.27h-10.27Zm20.4,5.46631h10.27v-10.27h-10.27Zm20.4,5.46619h10.27v-10.27h-10.27Zm20.4,5.46631h10.27v-10.27h-10.27Zm20.4,5.46631h10.27v-10.27h-10.27Zm20.4,5.46619h10.27v-10.27h-10.27Zm20.4,5.46631h10.27V333.61931h-10.27Zm20.4,5.46619h10.27v-10.27h-10.27Zm20.4,5.46631h10.27v-10.27h-10.27Zm20.4,5.4662h10.27v-10.27h-10.27Zm20.4,5.46631h10.27v-10.27h-10.27Zm20.4,5.4663h10.27v-10.27h-10.27Zm20.4,5.4662h10.26993v-10.27H607.79579Zm20.39993,5.46631h10.26993v-10.27H628.19572Zm20.39994,5.46619h10.26993v-10.2705H648.59566Zm20.39993,5.46631h10.26993v-10.27H668.99559Zm20.39993,5.46631h10.26993v-10.27H689.39552Zm20.98008,4.8864h9.11056v-9.11061H710.3849Zm24.91424.95241h.08v-.083h-.08ZM125.41321,266.14578h5.30067v-5.30071h-5.30067Zm17.91557,7.951h10.27v-10.27h-10.27Zm20.4,5.4662h10.27v-10.27h-10.27Zm20.4,5.46631h10.27v-10.27h-10.27Zm20.4,5.46619h10.27v-10.27h-10.27Zm20.4,5.46631h10.27v-10.27h-10.27Zm20.4,5.46631h10.27v-10.27h-10.27Zm20.4,5.46619h10.27v-10.27h-10.27Zm20.4,5.46631h10.27v-10.27h-10.27Zm20.4,5.4662h10.27v-10.27h-10.27Zm20.4,5.4663h10.27v-10.27h-10.27Zm20.4,5.4662h10.27v-10.27h-10.27Zm20.4,5.46631h10.27v-10.27h-10.27Zm20.4,5.46631h10.27v-10.27h-10.27Zm20.4,5.46619h10.27v-10.27h-10.27Zm20.4,5.46631h10.27v-10.27h-10.27Zm20.4,5.46619h10.27v-10.27h-10.27Zm20.4,5.46631h10.27v-10.27h-10.27Zm20.4,5.46631h10.27v-10.27h-10.27Zm20.4,5.46619h10.27V362.21928h-10.27Zm20.4,5.46631h10.27v-10.27h-10.27Zm20.4,5.4662h10.27v-10.27h-10.27Zm20.4,5.4663h10.27v-10.27h-10.27Zm20.4,5.4662h10.26993v-10.27h-10.27Zm20.39994,5.46631h10.26992v-10.27H612.52892Zm20.39993,5.46631h10.26993v-10.27H632.92885Zm20.39993,5.46619h10.26993v-10.27H653.32878Zm20.39993,5.46631h10.26993V405.94929H673.72871Zm20.39994,5.46619h10.26992v-10.27H694.12865Zm24.086,1.78059h2.89886v-2.89883h-2.88864ZM111.27907,282.28081h2.23579v-2.23622h-2.23617Zm16.38336,9.48318h10.27v-10.27h-10.27Zm20.4,5.4662h10.27v-10.27h-10.27Zm20.4,5.46631h10.27v-10.27h-10.27Zm20.4,5.4663h10.27v-10.27h-10.27Zm20.4,5.4662h10.27V303.3593h-10.27Zm20.4,5.46631h10.27v-10.27h-10.27Zm20.4,5.46619h10.27v-10.27H250.06485Zm20.4,5.46631h10.27v-10.27H270.46486Zm20.4,5.46631h10.27v-10.27H290.86487Zm20.4,5.46619h10.27v-10.27h-10.27Zm20.4,5.46631h10.27v-10.27h-10.27Zm20.4,5.46619h10.27v-10.27h-10.27Zm20.4,5.46631h10.27V347.08931h-10.27Zm20.4,5.4662h10.27v-10.27h-10.27Zm20.4,5.46631h10.27v-10.27h-10.27Zm20.4,5.4663h10.27v-10.27h-10.27Zm20.4,5.4662h10.27v-10.27h-10.27Zm20.4,5.46631h10.27v-10.27h-10.27Zm20.4,5.46619h10.27v-10.27h-10.27Zm20.4,5.46631h10.27v-10.27h-10.27Zm20.4,5.46631h10.27v-10.27h-10.27Zm20.4,5.46619h10.27v-10.27h-10.27Zm20.4,5.46631h10.27v-10.27h-10.27Zm20.39993,5.4662h10.26993v-10.27H596.86256Zm20.39994,5.4663h10.26992v-10.27H617.2625Zm20.39993,5.4662h10.26993v-10.27H637.66243Zm20.39993,5.46631h10.26993v-10.27H658.06236Zm20.39994,5.46631h10.26992v-10.27H678.4623Zm22.38815,3.4785h6.30432V436.537h-6.29456ZM96.648,298.9127h.16563v-.1656H96.648Zm15.88638,9.98h9.19342v-9.19342h-9.19288Zm19.862,6.0046h10.27v-10.27h-10.27Zm20.4,5.46619h10.27v-10.27h-10.27Zm20.4,5.46631h10.27v-10.27h-10.27Zm20.4,5.4662h10.27v-10.27h-10.27Zm20.4,5.4663h10.27v-10.27h-10.27Zm20.4,5.46631h10.27v-10.27h-10.27Zm20.4,5.4662h10.27v-10.27h-10.27Zm20.4,5.46631h10.27v-10.27h-10.27Zm20.4,5.46619h10.27v-10.27h-10.27Zm20.4,5.46631h10.27v-10.27h-10.27Zm20.4,5.46631h10.27v-10.27h-10.27Zm20.4,5.46619h10.27v-10.27h-10.27Zm20.4,5.46631h10.27v-10.27h-10.27Zm20.4,5.46619h10.27v-10.27h-10.27Zm20.4,5.46631h10.27v-10.27h-10.27Zm20.4,5.4662h10.27v-10.27h-10.27Zm20.4,5.4663h10.27v-10.27h-10.27Zm20.4,5.46631h10.27v-10.27h-10.27Zm20.4,5.4662h10.27v-10.27h-10.27Zm20.4,5.46631h10.27v-10.27h-10.27Zm20.4,5.46619h10.27v-10.27h-10.27Zm20.4,5.46631h10.27V419.41929h-10.27Zm20.4,5.46631h10.27v-10.27h-10.27Zm20.39993,5.46619h10.26993v-10.27H601.59645Zm20.39993,5.46631h10.26993v-10.27H621.99638Zm20.39994,5.46619h10.26992v-10.27H642.39632Zm20.39993,5.46631h10.26993v-10.27H662.79625ZM683.735,461.948h9.19342v-9.19339H683.735Zm24.91425.95241h.166v-.16571h-.166ZM98.44154,324.98638h6.04622v-6.0461H98.44154ZM116.73,332.5647H127v-10.27H116.73Zm20.4,5.46631H147.4v-10.27H137.13Zm20.4,5.46619H167.8v-10.27H157.53Zm20.4,5.46631H188.2v-10.27H177.93Zm20.4,5.46619H208.6V344.15928H198.33Zm20.4,5.46631H229v-10.27H218.73Zm20.4,5.4662H249.4v-10.27H239.13Zm20.4,5.4663H269.8v-10.27H259.53Zm20.4,5.46631H290.2v-10.27H279.93Zm20.4,5.4662h10.27v-10.27h-10.27Zm20.4,5.46631h10.27v-10.27h-10.27Zm20.4,5.46619h10.27v-10.27h-10.27Zm20.4,5.46631h10.27V387.88929h-10.27Zm20.4,5.46631h10.27v-10.27h-10.27Zm20.4,5.46619h10.27v-10.27h-10.27Zm20.4,5.46631h10.27v-10.27h-10.27Zm20.4,5.46619h10.27v-10.27h-10.27Zm20.4,5.46631h10.27v-10.27h-10.27Zm20.4,5.4662h10.27v-10.27h-10.27Zm20.4,5.46631h10.27v-10.27h-10.27Zm20.4,5.4663h10.27V431.6193h-10.27Zm20.4,5.4662h10.27v-10.27h-10.27Zm20.4,5.46631h10.27v-10.27h-10.27Zm20.4,5.46619h10.27v-10.27h-10.27Zm20.4,5.46631h10.26993v-10.27H606.33018Zm20.39994,5.46631h10.26993v-10.27H626.73012Zm20.39993,5.46623H657.4v-10.27H647.13005ZM667.53,480.15381h10.26993v-10.27H667.53Zm24.45877,1.40793h2.15348v-2.1534h-2.15348ZM84.29787,341.1216h2.98172V338.14H84.29787Zm16.75621,9.11h10.27v-10.27h-10.27Zm20.4,5.46631h10.27v-10.27h-10.27Zm20.4,5.46619h10.27v-10.27h-10.27Zm20.4,5.46631h10.27v-10.27H162.26486Zm20.4,5.46631h10.27v-10.27H182.66487Zm20.4,5.46619h10.27v-10.27H203.0648Zm20.4,5.46631h10.27V372.75928h-10.27Zm20.4,5.4662h10.27v-10.27h-10.27Zm20.4,5.46631h10.27v-10.27h-10.27Zm20.4,5.46619h10.27v-10.27h-10.27Zm20.4,5.46631h10.27v-10.27h-10.27Zm20.4,5.46631h10.27v-10.27h-10.27Zm20.4,5.46619h10.27v-10.27h-10.27Zm20.4,5.46631h10.27v-10.27h-10.27Zm20.4,5.46619h10.27V416.4893h-10.27Zm20.4,5.46631h10.27v-10.27h-10.27Zm20.4,5.46631h10.27v-10.27h-10.27Zm20.4,5.4662h10.27v-10.27h-10.27Zm20.4,5.4663h10.27v-10.27h-10.27Zm20.4,5.4662h10.27v-10.27h-10.27Zm20.4,5.46631h10.27v-10.27h-10.27Zm20.4,5.46619h10.27v-10.27h-10.27Zm20.4,5.46631h10.27v-10.27h-10.27Zm20.4,5.46631h10.27v-10.27h-10.27Zm20.4,5.46623h10.27v-10.27h-10.27Zm20.4,5.46631h10.26992v-10.27H611.05431Zm20.39993,5.46623h10.26993v-10.27H631.45424Zm20.39993,5.46631H662.1241v-10.27H651.85417Zm22.80228,3.06442h5.46646v-5.46585h-5.448ZM70.09033,357.33929h.083v-.083h-.083Zm15.88654,9.98h9.11056v-9.11H85.97687Zm19.82063,6.046h10.27v-10.27h-10.27Zm20.4,5.46631h10.27v-10.27h-10.27Zm20.4,5.46619h10.27v-10.27h-10.27Zm20.4,5.46631h10.27v-10.27h-10.27Zm20.4,5.46619h10.27v-10.27h-10.27Zm20.4,5.46631h10.27v-10.27h-10.27Zm20.4,5.46631h10.27v-10.27h-10.27Zm20.4,5.46619h10.27V401.35929h-10.27Zm20.4,5.46631h10.27v-10.27h-10.27Zm20.4,5.4662h10.27v-10.27h-10.27Zm20.4,5.46631h10.27v-10.27h-10.27Zm20.4,5.46619h10.27v-10.27h-10.27Zm20.4,5.46631h10.27v-10.27h-10.27Zm20.4,5.46631h10.27v-10.27h-10.27Zm20.4,5.46619h10.27v-10.27h-10.27Zm20.4,5.46631h10.27V445.0893h-10.27Zm20.4,5.46619h10.27v-10.27h-10.27Zm20.4,5.46631h10.27v-10.27h-10.27Zm20.4,5.46631h10.27v-10.27h-10.27Zm20.4,5.46623h10.27v-10.27h-10.27Zm20.4,5.46631h10.27v-10.27h-10.27Zm20.4,5.46623h10.27v-10.27h-10.27Zm20.4,5.46631h10.27v-10.27h-10.27Zm20.4,5.46624h10.27V488.81927h-10.27Zm20.4,5.4663h10.26993v-10.27H595.39772Zm20.39993,5.46631h10.26993v-10.27H615.79765Zm20.39994,5.46623h10.26992v-10.27H636.19759Zm21.27,4.59664h8.53073V511.554h-8.53073ZM74.65866,380.63839h.41412v-.41409h-.41412Zm16.30058,9.566h8.61359v-8.6137H90.95924Zm19.57207,6.29452h10.27V386.22929h-10.27Zm20.4,5.46619h10.27v-10.27h-10.27Zm20.4,5.46631h10.27v-10.27h-10.27Zm20.4,5.46631h10.27v-10.27h-10.27Zm20.4,5.46619h10.27v-10.27h-10.27Zm20.4,5.46631h10.27v-10.27h-10.27Zm20.4,5.4662h10.27v-10.27h-10.27Zm20.4,5.46631h10.27v-10.27h-10.27Zm20.4,5.4663h10.27V429.9593h-10.27Zm20.4,5.4662h10.27v-10.27H294.13483Zm20.4,5.46631h10.27v-10.27h-10.27Zm20.4,5.46619h10.27v-10.27h-10.27Zm20.4,5.46631h10.27v-10.27h-10.27Zm20.4,5.46619h10.27v-10.27h-10.27Zm20.4,5.46627h10.27v-10.27h-10.27Zm20.4,5.46631h10.27v-10.27h-10.27Zm20.4,5.46624h10.27V473.68927h-10.27Zm20.4,5.4663h10.27v-10.27h-10.27Zm20.4,5.46624h10.27v-10.27h-10.27Zm20.4,5.4663h10.27v-10.27h-10.27Zm20.4,5.46631h10.27v-10.27h-10.27Zm20.4,5.46624h10.27v-10.27h-10.27Zm20.4,5.4663h10.27v-10.27h-10.27Zm20.4,5.46624h10.27v-10.27h-10.27Zm20.39993,5.46631h10.26993v-10.27H600.13145Zm20.39994,5.46623h10.26993v-10.27H620.53139Zm20.44174,5.42488h10.18722V528.3931H640.97313Zm24.79,1.07658h1.40793v-1.4077h-1.40793ZM79.55811,403.60619h.083v-.083h-.083Zm16.92176,8.94489h7.04v-7.04h-7.04Zm18.78533,7.0813h10.27v-10.27H115.26482Zm20.4,5.46619h10.27v-10.27h-10.27Zm20.4,5.46631h10.27v-10.27h-10.27Zm20.4,5.46619h10.27v-10.27h-10.27Zm20.4,5.46631h10.27v-10.27h-10.27Zm20.4,5.46631h10.27v-10.27h-10.27Zm20.4,5.4662h10.27v-10.27h-10.27Zm20.4,5.4663h10.27v-10.27h-10.27Zm20.4,5.4662h10.27v-10.27h-10.27Zm20.4,5.46631h10.27v-10.27h-10.27Zm20.4,5.46627h10.27v-10.27h-10.27Zm20.4,5.46623h10.27v-10.27h-10.27Zm20.4,5.46631h10.27v-10.27h-10.27Zm20.4,5.46623h10.27v-10.27h-10.27Zm20.4,5.46631h10.27v-10.27h-10.27Zm20.4,5.46623h10.27v-10.27h-10.27Zm20.4,5.46631h10.27v-10.27h-10.27Zm20.4,5.46631h10.27v-10.27h-10.27Zm20.4,5.46623h10.27v-10.27h-10.27Zm20.4,5.46631h10.27v-10.27h-10.27Zm20.4,5.46623h10.27v-10.27h-10.27Zm20.4,5.46631h10.27v-10.27h-10.27Zm20.4,5.46631h10.27v-10.27h-10.27Zm20.4,5.46623h10.26993v-10.27h-10.27Zm20.39993,5.46631h10.26993v-10.27H604.86534Zm20.39993,5.46623H635.5352v-10.27H625.26527Zm23.21625,2.65h4.63806v-4.63814h-4.63806ZM102.04216,434.8563h5.38353v-5.38349h-5.38353Zm17.957,7.91h10.27v-10.27h-10.27Zm20.4,5.4662h10.27v-10.27h-10.27Zm20.4,5.46631h10.27v-10.27h-10.27Zm20.4,5.46619h10.27v-10.27h-10.27Zm20.4,5.46631h10.27v-10.27h-10.27Zm20.4,5.46619h10.27v-10.27h-10.27Zm20.4,5.46631h10.27v-10.27h-10.27Zm20.4,5.46631h10.27V470.75928h-10.27Zm20.4,5.46623h10.27v-10.27h-10.27Zm20.4,5.46631h10.27v-10.27h-10.27Zm20.4,5.46623h10.27v-10.27h-10.27Zm20.4,5.46631h10.27v-10.27h-10.27Zm20.4,5.46631h10.27v-10.27h-10.27Zm20.4,5.46623h10.27v-10.27h-10.27Zm20.4,5.46631h10.27v-10.27h-10.27Zm20.4,5.46623h10.27v-10.271h-10.27Zm20.4,5.46631h10.27v-10.27h-10.27Zm20.4,5.46624h10.27v-10.27h-10.27Zm20.4,5.4663h10.27v-10.27h-10.27Zm20.4,5.46631h10.27v-10.27h-10.27Zm20.4,5.46623h10.27v-10.27h-10.27Zm20.4,5.46631h10.27v-10.27h-10.27Zm20.4,5.46624h10.27v-10.27h-10.27Zm20.4,5.4663h10.27V558.2193h-10.27Zm20.4,5.46631h10.26993v-10.27H609.59938Zm21.64276,4.22394h7.78534V570.3949h-7.78564ZM107.7285,457.03728H111.207v-3.47859H107.7285Zm17.046,8.82061h10.18737v-10.1873h-10.187Zm20.35888,5.5077h10.27v-10.27h-10.27Zm20.4,5.4663h10.27v-10.27h-10.27Zm20.4,5.46624h10.27v-10.27h-10.27Zm20.4,5.4663h10.27v-10.27H206.33484Zm20.4,5.46624h10.27v-10.27H226.73485Zm20.4,5.46631h10.27v-10.27H247.13486Zm20.4,5.46623h10.27v-10.27h-10.27Zm20.4,5.46631h10.27V499.35928h-10.27Zm20.4,5.46631h10.27v-10.27h-10.27Zm20.4,5.46623h10.27v-10.27h-10.27Zm20.4,5.46631h10.27v-10.27h-10.27Zm20.4,5.46623h10.27v-10.27h-10.27Zm20.4,5.46631h10.27v-10.27h-10.27Zm20.4,5.46631h10.27v-10.27h-10.27Zm20.4,5.46623h10.27v-10.27h-10.27Zm20.4,5.46631h10.27V543.08929h-10.27Zm20.4,5.46623h10.27v-10.27h-10.27Zm20.4,5.46631h10.27v-10.27h-10.27Zm20.4,5.46623h10.27v-10.27h-10.27Zm20.4,5.46631h10.27v-10.27h-10.27Zm20.4,5.46631h10.27v-10.27h-10.27Zm20.4,5.46623h10.27v-10.27h-10.27Zm20.4,5.46631h10.27v-10.27h-10.27Zm20.52468,5.342H624.4799V586.94412H614.46617Zm24.99694.87h.82795v-.82832h-.82795ZM113.16643,479.46678h2.07062v-2.07062h-2.07062Zm16.42479,9.44184h10.02159V478.887H129.59122Zm20.2761,5.59h10.27V484.22928h-10.27Zm20.4,5.46623h10.27v-10.27h-10.27Zm20.4,5.46631h10.27v-10.27h-10.27Zm20.4,5.46631h10.27v-10.27h-10.27Zm20.4,5.46623h10.27v-10.27h-10.27Zm20.4,5.46631h10.27V511.56h-10.27Zm20.4,5.46623h10.27v-10.27h-10.27Zm20.4,5.46631h10.27v-10.27h-10.27Zm20.4,5.46623h10.27V527.95929h-10.27Zm20.4,5.46631h10.27v-10.27h-10.27Zm20.4,5.46631h10.27v-10.27h-10.27Zm20.4,5.46623h10.27v-10.27h-10.27Zm20.4,5.46631h10.27v-10.27h-10.27Zm20.4,5.46623h10.27v-10.27h-10.27Zm20.4,5.46631h10.27v-10.27h-10.27Zm20.4,5.46631h10.27v-10.27h-10.27Zm20.4,5.46623h10.27V571.6893h-10.27Zm20.4,5.46631h10.27v-10.27h-10.27Zm20.4,5.46623h10.27v-10.27h-10.27Zm20.4,5.46631h10.27v-10.27h-10.27Zm20.4,5.46623h10.27v-10.27h-10.27Zm20.4,5.46631h10.27v-10.27h-10.27Zm20.4,5.46631h10.26992v-10.27H598.66753Zm23.63052,2.2361h3.81v-3.81h-3.81ZM118.5215,501.97929h.82817v-.82817h-.82817Zm16.1763,9.69h9.27628V502.393H134.6978Zm19.90341,5.96321h10.27v-10.27h-10.27Zm20.4,5.46623h10.27v-10.27h-10.27Zm20.4,5.46631h10.27v-10.27h-10.27Zm20.4,5.46624h10.27v-10.27h-10.27Zm20.4,5.4663h10.27v-10.27h-10.27Zm20.4,5.46631h10.27v-10.27h-10.27Zm20.4,5.46624h10.27v-10.27h-10.27Zm20.4,5.4663h10.27v-10.27h-10.27Zm20.4,5.46624h10.27v-10.27h-10.27Zm20.4,5.4663h10.27V556.5593h-10.27Zm20.4,5.46624h10.27v-10.27h-10.27Zm20.4,5.46631h10.27v-10.27h-10.27Zm20.4,5.4663h10.27v-10.27h-10.27Zm20.4,5.46624h10.27v-10.27h-10.27Zm20.4,5.46631h10.27v-10.27h-10.27Zm20.4,5.46623h10.27v-10.27h-10.27Zm20.4,5.46631h10.27v-10.27h-10.27Zm20.4,5.4663h10.27v-10.27h-10.27Zm20.4,5.46624h10.27v-10.27h-10.27Zm20.4,5.46631h10.27v-10.27h-10.27Zm20.4,5.46623h10.27v-10.27h-10.27Zm21.56,4.30679h7.95112v-7.95151h-7.95112Zm23.54759,2.31888h1.65649V631.9268h-1.65664ZM123.504,524.86412h.33089v-.33127h-.33127Zm16.50757,9.359h8.11668v-8.11669h-8.11668Zm19.32373,6.54289h10.27v-10.27H159.33487Zm20.4,5.46631h10.27v-10.27h-10.27Zm20.4,5.46631h10.27v-10.27h-10.27Zm20.4,5.46623h10.27v-10.27h-10.27Zm20.4,5.46631h10.27v-10.27h-10.27Zm20.4,5.46623h10.27v-10.27h-10.27Zm20.4,5.46631h10.27v-10.27h-10.27Zm20.4,5.46631h10.27V568.75931h-10.27Zm20.4,5.46623h10.27v-10.27h-10.27Zm20.4,5.46631h10.27v-10.27h-10.27Zm20.4,5.46623h10.27v-10.27h-10.27Zm20.4,5.46631h10.27v-10.27h-10.27Zm20.4,5.46623h10.27v-10.27h-10.27Zm20.4,5.46631h10.27v-10.27h-10.27Zm20.4,5.46631h10.27v-10.27h-10.27Zm20.4,5.46623h10.27v-10.27h-10.27Zm20.4,5.46631h10.27v-10.27h-10.27Zm20.4,5.46623h10.27v-10.27h-10.27Zm20.4,5.46631h10.27v-10.27h-10.27Zm21.51847,4.34807h8.03391v-8.03383h-8.03391Zm23.50617,2.36h1.8222V644.045h-1.8222Zm-443.198-97.9937h.083v-.083h-.083Zm17.25311,8.61351h6.37741v-6.37756h-6.37772Zm18.454,7.41257h10.27V553.6293h-10.27Zm20.4,5.46631h10.27v-10.27h-10.27Zm20.4,5.46623h10.27v-10.27h-10.27Zm20.4,5.46631h10.27v-10.27h-10.27Zm20.4,5.46631h10.27v-10.27h-10.27Zm20.4,5.46623h10.27v-10.27h-10.27Zm20.4,5.46631h10.27v-10.27h-10.27Zm20.4,5.46623h10.27v-10.27h-10.27Zm20.4,5.46631h10.27V597.35931h-10.27Zm20.4,5.46631h10.27v-10.27h-10.27Zm20.4,5.46623h10.27v-10.27h-10.27Zm20.4,5.46631h10.27v-10.27h-10.27Zm20.4,5.46623h10.27v-10.27h-10.27Zm20.4,5.46631h10.27v-10.27h-10.27Zm20.4,5.46623h10.27v-10.27h-10.27Zm20.4,5.46631h10.27v-10.27h-10.27Zm20.4,5.46631h10.27V641.08932h-10.27Zm21.39428,4.47227h8.28231v-8.28292h-8.28231Zm23.589,2.27761h1.905v-1.905h-1.905ZM151.17722,578.79219h4.721v-4.721h-4.721ZM168.803,587.033h10.27v-10.27h-10.27Zm20.4,5.46631h10.27v-10.27h-10.27Zm20.4,5.46624h10.27v-10.27h-10.27Zm20.4,5.4663h10.27v-10.27h-10.27Zm20.4,5.46624h10.27v-10.27H250.40482Zm20.4,5.46631h10.27v-10.27H270.80482Zm20.4,5.4663h10.27v-10.27H291.20483Zm20.4,5.46624h10.27v-10.27h-10.27Zm20.4,5.4663h10.27v-10.27h-10.27Zm20.4,5.46624h10.27v-10.27h-10.27Zm20.4,5.46631h10.27v-10.27h-10.27Zm20.4,5.4663h10.27v-10.27h-10.27Zm20.4,5.46624h10.27v-10.27h-10.27Zm20.4,5.46631h10.27v-10.27h-10.27Zm20.4,5.46623h10.27v-10.27h-10.27Zm21.39427,4.47242h8.28232V659.7509h-8.28232Zm23.589,2.27761h1.905v-1.905h-1.905ZM157.402,600.4348h1.73927v-1.73927H157.402Zm18.8681,6.99852h4.80377v-4.804h-4.80377Zm19.40651,6.46h6.79154v-6.79161h-6.79154Zm19.48929,6.37733h8.61359V611.657h-8.61359Zm19.69627,6.17h10.02167V616.4193H234.86221Zm20.27611,5.59h10.27v-10.27h-10.27Zm20.4,5.46631h10.27v-10.27h-10.27Zm20.4,5.46623h10.27v-10.27h-10.27Zm20.4,5.46631h10.27v-10.27h-10.27Zm20.4,5.46631h10.27v-10.27h-10.27Zm20.4,5.46623h10.27v-10.27h-10.27Zm20.4,5.46631h10.27v-10.269h-10.27Zm20.4,5.46623h10.27v-10.27h-10.27Zm20.4,5.46631h10.27v-10.27h-10.27Zm21.3942,4.47243h8.28232v-8.2824h-8.28232Zm23.46481,2.40181h2.1534v-2.15279h-2.1534Zm-239.115-43.41339h.24842v-.24849h-.24842Zm19.7377,6.12876h1.57372v-1.57356h-1.57372Zm19.53072,6.33591h3.313v-3.31291h-3.313Zm19.36508,6.50162h5.38353v-5.38361h-5.38353Zm19.40651,6.46h7.37129v-7.3713h-7.37129Zm19.48929,6.37733h9.19342V661.832h-9.19342Zm19.94476,5.92178H351.661V666.8428H341.55647Zm20.31754,5.54909h10.27v-10.27h-10.27Zm20.4,5.46631h10.27v-10.27h-10.27Zm21.27,4.59663h8.5308v-8.53088h-8.53Zm23.46481,2.40181h2.40189v-2.40173h-2.40189Zm-96.274-5.19172h.414v-.4142h-.414Zm19.57207,6.29448h2.07062v-2.07062h-2.07062Zm19.36508,6.50146h4.14124V698.424H369.672Zm21.31142,4.55521h2.31911v-2.319h-2.31911Z" fill="#5bcd3d"/>
        <path id="atom_10_line" data-name="atom 10 line" d="M739.70955,552.60666,442.589,444.15356l-1.58157-8.72609,189.98344-1.44191-199.1626-74.8,2.49222-10.90919,303.5376-3.7558-.141-11.1993-300.83062,3.7212,64.3853-281.8344-10.92193-2.4922L425.36247,337.18529l-2.15873.027L391.04111,159.77867l-33.231,171.6079-19.35638-7.26952L291.43959,16.107l-11.07,1.68751,46.06842,301.81L31.32248,208.767,27.385,219.25129l300.99,113.043.928,6.08-202.312,2.5024,213.86482,78.06591-1.17187,6.05229-310.37293,2.3545.086,11.20312,308.11416-2.3389L280.40855,731.09512l10.99221,2.1328L346.29913,449.725,372.2718,619.88022l39.95278-174.8867,20.4853,7.478,57.58889,317.70169,11.02348-2-56.41952-311.251,290.96237,106.208ZM570.53764,423.24337l-131.55807.99812-9.73931-53.729.07-.31Zm-216.8975.3653,3.43513,1.25389-3.24.024Zm.02-11.91411,12.11616-62.57,7.17232-.088,44.0049,16.52679.851,4.69292-12.39113,54.24-16.34232.124Zm-6.05721-27.61478-5.291-34.6645,12.0327-.14888Zm67.024-31.353-10.84228-4.07219,10.08148-.12458Zm8.26119,45.57572,4.71779,26.02489-10.68169.081Zm-32.2168-177.73491,21.169,116.7852-36.93169.45651-6.47-2.43Zm-50.2832,116.23928,3.68461,1.38378-3.46679.043Zm-9.38134,12.748,8.708,57.04941L188.26065,351.32149Zm43.45,210.45-18.916-123.92868,31.59569-.24,14.48,5.28511Zm44.67872-124.41162,10.49851-.08.759,4.189Z" fill="#110a4c"/>
        <g id="atom_10_dots" data-name="atom 10 dots">
          <circle id="circle4729" cx="495.33623" cy="52.6128" r="24.00001" fill="#110a4c"/>
          <circle id="circle4731" cx="739.84688" cy="557.66808" r="23.99998" fill="#110a4c"/>
          <circle id="circle4733" cx="283.62053" cy="736.47102" r="24.00002" fill="#110a4c"/>
          <circle id="circle4735" cx="24.00002" cy="208.37448" r="24.00002" fill="#110a4c"/>
          <circle id="circle4737" cx="26.17874" cy="432.05109" r="16.8" fill="#110a4c"/>
          <circle id="circle4739" cx="284.15321" cy="16.8" r="16.8" fill="#110a4c"/>
          <circle id="circle4741" cx="738.21281" cy="339.0197" r="16.79996" fill="#110a4c"/>
          <circle id="circle4743" cx="495.78682" cy="769.46388" r="16.8" fill="#110a4c"/>
        </g>
      </g>
    </g>
  </g>
</svg>
