<svg xmlns="http://www.w3.org/2000/svg" width="836.08307" height="799.38454" viewBox="0 0 836.08307 799.38454">
  <g id="Layer_2" data-name="Layer 2">
    <g id="svg4790">
      <g id="atom_08" data-name="atom 08">
        <polygon id="atom_08_solid" data-name="atom 08 solid" points="576.042 555.885 427.151 654.455 151.912 529.005 300.811 80.945 621.342 283.245 576.042 555.885" fill="#fff2d7"/>
        <path id="atom_08_ht" data-name="atom 08 ht" d="M283.58521,51.112h1.15936v1.17451h-1.15936Zm18.62,8.515H306.926V54.84489H302.2052Zm21.97388,3.94291h1.57348V61.976h-1.57348ZM345.325,68.35182h.08v-.084h-.08ZM285.08942,78.99063h7.61993v-7.7182h-7.61993Zm19.07531,6.87908h10.27008V75.467H304.16473Zm20.73182,5.2013h9.60754V81.33942h-9.60754Zm21.64276,4.27849h7.1228V88.13488h-7.1228Zm22.01538,3.90091h3.89282v-3.943h-3.89282Zm21.767,4.15272H391.481v-1.17466h-1.15936ZM271.53534,94.74674H274.931v-3.44h-3.39569Zm16.9632,9.01852h10.27008V93.36246H288.49854Zm20.40008,5.5368H319.1687V98.89927H308.89862Zm20.40009,5.53692h10.27008V104.43619H329.29871Zm20.40008,5.53681h10.27008V109.97307H349.69879Zm20.40009,5.53691H380.369V115.50991H370.09888Zm20.856,5.07542H400.314v-9.48H390.9549Zm21.85,4.0688h6.46v-6.5437h-6.46Zm21.97388,3.9429h3.313v-3.35594h-3.313Zm21.767,4.15261h.58013v-.58754h-.58013Zm-199.02131-32.188h.08v-.084h-.08Zm15.88654,10.109h9.11072v-9.22856h-9.11011Zm19.82056,6.12411h10.27008V116.79489H293.23151Zm20.40008,5.53692h10.27008V122.33166H313.63159Zm20.40009,5.53681h10.27008V127.86854H334.03168Zm20.40008,5.53691h10.27008V133.40488H354.43176Zm20.40009,5.53692h10.27008V138.9423H374.83185Zm20.40008,5.53681H405.502V144.47918H395.23193Zm20.40009,5.53692H425.9021V150.016H415.632Zm20.44189,5.49488h10.18738V155.59486H436.07391Zm21.10443,4.8238h8.7793v-8.89264h-8.7793Zm21.93268,3.98479h5.71472v-5.78861H479.111Zm21.89118,4.02679h2.73315v-2.76851H501.0022Zm21.56006,4.3623h.41412V182.692h-.41412ZM259.97955,136.7038h4.63806v-4.698h-4.63806Zm17.58423,8.3892h10.27008V134.69028H277.56378Zm20.40009,5.53692H308.234v-10.403H297.96387Zm20.40008,5.53692H328.634V145.76405H318.364Zm20.40009,5.5368h10.27008V151.30093H338.764Zm20.40008,5.53692H369.4342V156.83777H359.16412Zm20.40009,5.53681h10.27008V162.37488H379.56421Zm20.40008,5.53692h10.27009v-10.4028H399.96429Zm20.40009,5.53691h10.27008V173.44841H420.36438Zm20.40009,5.53681h10.27008V178.98487H440.76447Zm20.40008,5.53692h10.27008v-10.4028H461.16455Zm20.40009,5.5368h10.27008V190.059H481.56464Zm20.48309,5.453H512.1521v-10.235H502.04773Zm21.39435,4.53h8.11676V202.2229h-8.11676Zm21.89117,4.0268h5.13489v-5.20172h-5.13489Zm21.97388,3.94287H569.295v-2.01378h-1.98333Zm21.31134,4.614h.166v-.1677h-.166ZM246.4267,152.45968h.41412v-.41939h-.41412ZM262.106,162.77847h9.856v-9.98359h-9.856Zm20.19317,5.74662h10.27008v-10.4028H282.29919Zm20.40009,5.53691h10.27008V163.65921H302.69928Zm20.40009,5.53681h10.27008V169.19609H323.09937Zm20.40008,5.53692h10.27008V174.73289H343.49945Zm20.40009,5.5368h10.27008V180.26981H363.89954Zm20.40008,5.53688H394.5697V185.80662H384.29962Zm20.40009,5.53688h10.27008V191.3435H404.69971Zm20.40008,5.53681h10.27008V196.88042H425.09979ZM445.49988,212.82H455.77V202.41714H445.49988ZM465.9,218.35678H476.17V207.9541H465.9Zm20.40009,5.53688h10.27008V213.49091H486.30005Zm20.40008,5.53688h10.27008V219.02771H506.70013Zm20.40009,5.53681H537.3703V224.5649H527.10022Zm20.40009,5.53688h10.27008V230.10139H547.50031Zm20.60729,5.32707h9.856V235.848h-9.856Zm21.51856,4.4043h7.61993v-7.7182h-7.61993Zm22.01538,3.901h4.38995v-4.44641h-4.38995Zm21.85,4.06868h1.49078v-1.51039h-1.49078ZM248.42377,178.66035h5.88012V172.704h-5.88012Zm18.20556,7.76h10.27008V176.01765H266.62933Zm20.40009,5.53692H297.2995V181.55487H287.02942ZM307.4295,197.494h10.27008V187.09133H307.4295Zm20.40009,5.53688h10.27008V192.6281H327.82959Zm20.40009,5.53688h10.27008V198.1649H348.22968Zm20.40008,5.5368h10.27008V203.70193H368.62976Zm20.40009,5.53688h10.27008v-10.4026H389.02985Zm20.40008,5.53681H419.7V214.77562H409.42993ZM429.83,230.71518H440.1001V220.31235H429.83Zm20.40008,5.53688h10.27008V225.84923H450.2301Zm20.40009,5.5368h10.27008V231.38618H470.63019Zm20.40008,5.53688h10.27008V236.92291H491.03027Zm20.40009,5.53681h10.27008V242.45987H511.43036Zm20.40008,5.53688h10.27008V247.9969H531.83044Zm20.40009,5.53688h10.27008V253.53348H552.23053Zm20.40009,5.5368H582.9007V259.07028H572.63062ZM593.0307,275.01h10.27008V264.60716H593.0307Zm20.40009,5.53681h10.27008V270.14488H613.43079Zm21.684,4.23653h7.70263v-7.802h-7.70263Zm-400.126-90.49279h1.40808v-1.42563h-1.40808Zm16.01074,9.98322h10.18738V193.95485H250.99945Zm20.35889,5.57876h10.27008V199.44969H271.35834Zm20.40008,5.53688H302.0285V204.98688H291.75842Zm20.40009,5.53681h10.27008V210.52338H312.15851Zm20.40008,5.53688h10.27008V216.06026H332.55859Zm20.40009,5.5368h10.27008V221.59721H352.95868Zm20.40008,5.53688h10.27009V227.13394H373.35876Zm20.40009,5.53681h10.27008V232.6709H393.75885Zm20.40009,5.53688H424.429V238.20763H414.15894Zm20.40008,5.53688H444.8291V243.74489H434.559Zm20.40009,5.5368h10.27008V249.28146H454.95911Zm20.40008,5.53688h10.27008V254.81819H475.35919Zm20.40009,5.53681h10.27008V260.35515H495.75928Zm20.40008,5.53688h10.27008V265.89188H516.15936Zm20.40009,5.53688h10.27008V271.42876H536.55945Zm20.40008,5.5368h10.27008V276.96571H556.95953Zm20.40009,5.53688H587.6297V282.5029H577.35962Zm20.40008,5.53681h10.27009V288.0394H597.7597Zm20.40009,5.53688h10.27008V293.57613H618.15979Zm23.67188,2.22313h3.72711v-3.77518h-3.72711ZM236.86035,220.617h7.1228V213.4021h-7.1228Zm18.8266,7.13081H265.957V217.34489H255.687Zm20.40009,5.53688h10.27008V222.88185H276.087Zm20.40008,5.53681H306.7572V228.41881H296.48712Zm20.40009,5.53688h10.27008V233.95554H316.88721Zm20.40008,5.5368h10.27008v-10.4023H337.28729Zm20.40009,5.53688h10.27008V245.02922H357.68738Zm20.40008,5.53688h10.27008V250.5661H378.08746Zm20.40009,5.53681h10.27008V256.10306H398.48755Zm20.40008,5.53688h10.27008V261.63979H418.88763Zm20.40009,5.5368H449.5578V267.17674H439.28772Zm20.40009,5.53688h10.27008V272.71347H459.68781Zm20.40008,5.53688H490.358V278.25089H480.08789ZM500.488,294.19h10.27008V283.78731H500.488Zm20.40008,5.53688h10.27008v-10.402H520.88806Zm20.40009,5.5368h10.27008V294.861H541.28815Zm20.40008,5.53688h10.27008V300.39772H561.68823Zm20.40009,5.53688H592.3584V305.93491H582.08832Zm20.40008,5.53681h10.27008V311.47156H602.4884Zm20.773,5.15938h9.52484v-9.64783h-9.52484Zm25.03846.83877h.2481v-.25169h-.2481ZM223.46649,236.20506h2.56745v-2.60017h-2.56745Zm16.54907,9.43787h10.27008V235.2401H240.01556Zm20.40009,5.53688h10.27008V240.777H260.41565Zm20.40008,5.5368h10.27009V246.31485H280.81573Zm20.40009,5.53688H311.4859V251.85066H301.21582Zm20.40009,5.53688H331.886V257.38754H321.61591Zm20.40008,5.53681h10.27008v-10.4023H342.016Zm20.40009,5.53688h10.27008V268.46123H362.41608Zm20.40008,5.5368h10.27008v-10.402H382.81616Zm20.40009,5.53688h10.27008V279.53491H403.21625Zm20.40008,5.53681h10.27008V285.07187H423.61633Zm20.40009,5.53688H454.2865V290.6086H444.01642Zm20.40008,5.53688h10.27008V296.14548H464.4165Zm20.40009,5.5368h10.27008V301.68243H484.81659Zm20.40008,5.53688h10.27009V307.21916H505.21667Zm20.40009,5.53681h10.27008V312.75688H525.61676Zm20.40009,5.53688h10.27008V318.29285H546.01685Zm20.40008,5.53688H576.687V323.82973H566.41693Zm20.40009,5.5368H597.0871V329.36668H586.817Zm20.40008,5.53688h10.27008V334.90341H607.2171Zm22.71942,3.18779h5.632v-5.70472h-5.632ZM225.36163,262.53227h8.28217V254.143h-8.28217Zm19.40644,6.54358h10.27008V258.673H244.76807Zm20.40008,5.53681h10.27008V264.21H265.16815Zm20.40009,5.53688h10.27008V269.7467H285.56824Zm20.40008,5.53688H316.2384V275.28358H305.96832Zm20.40009,5.5368h10.27008V280.82054H326.36841Zm20.40008,5.53688h10.27008V286.35727H346.76849Zm20.40009,5.53681h10.27008V291.89423H367.16858Zm20.40008,5.53688h10.27009V297.431H387.56866Zm20.40009,5.53688h10.27008V302.96783H407.96875Zm20.40009,5.5368h10.27008v-10.4026H428.36884Zm20.40008,5.53688H459.039V314.04152H448.76892Zm20.40009,5.53681h10.27008V319.57848H469.169Zm20.40008,5.53688h10.27008V325.1149H489.56909Zm20.40009,5.53688h10.27008V330.65208H509.96918Zm20.40008,5.5368h10.27008V336.189H530.36926Zm20.40009,5.53688h10.27008V341.72577H550.76935Zm20.40008,5.53681h10.27008V347.26288H571.16943Zm20.40009,5.53688H601.8396V352.79945H591.56952Zm20.40008,5.53688h10.27009V358.33633H611.9696Zm24.79,1.09h1.49079v-1.51h-1.49079ZM211.80023,278.28789h4.05853v-4.11072h-4.05853Zm17.29462,8.68294h10.27008v-10.4023H229.09485Zm20.40008,5.53688H259.765v-10.4023H249.49493Zm20.40009,5.5368H280.1651V287.64229H269.895Zm20.40008,5.53688h10.27009v-10.4023H290.2951Zm20.40009,5.5368h10.27008V298.716H310.69519Zm20.40009,5.53689h10.27008v-10.4023H331.09528Zm20.40008,5.53688h10.27008v-10.4023H351.49536Zm20.40009,5.5368h10.27008v-10.4023H371.89545Zm20.40008,5.53688h10.27008v-10.4023H392.29553Zm20.40009,5.5368H422.9657V326.40022H412.69562Zm20.40008,5.53688h10.27008V331.937H433.0957Zm20.40009,5.53689h10.27008v-10.4023H453.49579Zm20.40008,5.5368H484.166v-10.4023H473.89587Zm20.40009,5.53688H504.566v-10.4023H494.296Zm20.40008,5.5368h10.27009V354.08485H514.696Zm20.40009,5.53688h10.27008V359.62128H535.09613Zm20.40009,5.53681H565.7663V365.15816H555.49622Zm20.40008,5.53688h10.27008V370.69489H575.8963Zm20.40009,5.53688h10.27008v-10.4023H596.29639Zm21.72546,4.19449h7.61993V383.1105h-7.61993Zm-419.9881-96.575h.249v-.2517h-.249Zm15.72083,10.27679h9.60754v-9.7316h-9.60754Zm20.069,5.8725h10.27008v-10.4023H233.82355Zm20.40008,5.5368h10.27008V305.53749H254.22363Zm20.40009,5.53688H284.8938V311.07491H274.62372Zm20.40008,5.53681h10.27008V316.61118H295.0238Zm20.40009,5.53688H325.694V322.148H315.42389Zm20.40008,5.53688h10.27009v-10.4023H335.824Zm20.40009,5.5368h10.27008V333.22174H356.22406Zm20.40009,5.53688h10.27008v-10.4023H376.62415Zm20.40008,5.53681h10.27008V344.29543H397.02423Zm20.40009,5.53688H427.6944v-10.4023H417.42432Zm20.40008,5.53688h10.27008v-10.4023H437.8244Zm20.40009,5.5368h10.27008V360.906H458.22449Zm20.40008,5.53688h10.27008v-10.4023H478.62457Zm20.40009,5.53681h10.27008V371.97968H499.02466Zm20.40008,5.53688h10.27008v-10.4023H519.42474Zm20.40009,5.53688h10.27008v-10.4023H539.82483Zm20.40008,5.5368H570.495V388.59024H560.22491Zm20.40009,5.53688h10.27008V394.127H580.625Zm20.40009,5.53681h10.27008V399.66393H601.02509Zm23.79608,2.09732h3.4787V408.64h-3.4787ZM200.2533,320.2449h5.30059v-5.36911H200.2533Zm17.91565,8.05367H228.439V317.89619H218.169Zm20.40008,5.5368h10.27008v-10.4023H238.569Zm20.40009,5.53688H269.2392V328.96988H258.96912Zm20.40008,5.53688h10.27008V334.50676H279.3692Zm20.40009,5.53681h10.27008v-10.4023H299.76929Zm20.40008,5.53688h10.27008V345.58044H320.16937Zm20.40009,5.5368h10.27008v-10.4023H340.56946Zm20.40008,5.53688h10.27008V356.65413H360.96954Zm20.40009,5.53688h10.27008V362.191H381.36963Zm20.40008,5.53681h10.27008v-10.4023H401.76971Zm20.40009,5.53688h10.27008V373.26485H422.1698Zm20.40009,5.5368H452.84v-10.4023H442.56989ZM462.97,394.74075h10.27008V384.33838H462.97Zm20.40009,5.53688h10.27008V389.87488H483.37006Zm20.40008,5.53681h10.27008V395.41206H503.77014Zm20.40009,5.53688h10.27008V400.94894H524.17023Zm20.40008,5.5368h10.27008v-10.4023H544.57031ZM564.9704,422.425h10.27008V412.02263H564.9704Zm20.40008,5.53688h10.27008V417.55951H585.37048Zm20.81452,5.11727h9.44183v-9.56383H606.185Zm25.08.79689h.08v-.084h-.08ZM186.78162,335.91759h.91095v-.9227h-.91095Zm15.80383,10.19287h10.10437v-10.235H202.58545Zm20.31738,5.62073h10.27008V341.32851H222.90283Zm20.40009,5.53688H253.573V346.86485H243.30292ZM263.703,362.805h10.27008V352.40211H263.703Zm20.40009,5.5368h10.27008V357.93907H284.10309Zm20.40008,5.53688h10.27008V363.47588H304.50317Zm20.40009,5.53681h10.27008V369.01276H324.90326Zm20.40008,5.53688h10.27009V374.54948H345.30334Zm20.40009,5.53688h10.27008V380.08636H365.70343Zm20.40009,5.5368H396.3736V385.62332H386.10352Zm20.40008,5.53688h10.27008V391.16005H406.5036Zm20.40009,5.53681h10.27008V396.697H426.90369Zm20.40008,5.53688h10.27008V402.23389H447.30377Zm20.40009,5.53688h10.27008V407.77061H467.70386Zm20.40008,5.5368H498.374V413.30757H488.10394Zm20.40009,5.53688h10.27008V418.84491H508.504Zm20.40008,5.53681h10.27008V424.38126H528.90411Zm20.40009,5.53688h10.27008V429.918H549.3042Zm20.40008,5.53688h10.27009V435.45486H569.70428Zm20.40009,5.5368h10.27008V440.99182H590.10437Zm22.80212,3.104h5.46631v-5.537h-5.46112ZM188.69415,362.202h6.543v-6.62713h-6.543Zm18.537,7.42446h10.27008v-10.4026H207.23114Zm20.40009,5.53681h10.27008V364.76059H227.63123Zm20.40008,5.53688h10.27008V370.29732H248.03131Zm20.40009,5.5368h10.27008V375.83488H268.4314Zm20.40008,5.53688h10.27008V381.371H288.83148Zm20.40009,5.53688h10.27008V386.90788H309.23157Zm20.40008,5.53681h10.27008v-10.4026H329.63165Zm20.40009,5.53688h10.27008V397.98187H350.03174Zm20.40008,5.5368H380.7019V403.51852H370.43182Zm20.40009,5.53688H401.102V409.05525H390.83191ZM411.232,424.995h10.27009V414.59213H411.232Zm20.40009,5.53681h10.27008V420.12909H431.63208Zm20.40009,5.53688h10.27008V425.66582H452.03217Zm20.40008,5.5368h10.27008V431.20277H472.43225Zm20.40009,5.53688h10.27008V436.73988H492.83234Zm20.40008,5.53688H523.5025V442.27638H513.23242Zm20.40009,5.53681h10.27008V447.81319H533.63251Zm20.40008,5.53688h10.27008V453.35007H554.03259Zm20.40009,5.5368h10.27008V458.887H574.43268Zm20.44189,5.49492H605.062V464.46579H594.87457Zm24.79,1.09062h1.40808v-1.42616h-1.40808Zm-444.364-98.08509h1.98791v-2.0134H175.3006Zm16.25915,9.73159h10.27008V377.11891H191.55975Zm20.40009,5.53681h10.27008V382.65587H211.95984Zm20.40008,5.53688H242.63V388.1926H232.35992ZM252.76,404.13231h10.27008V393.72986H252.76Zm20.40009,5.5368h10.27008V399.26628H273.1601Zm20.40008,5.53688h10.27008V404.80316H293.56018Zm20.40009,5.53681h10.27008V410.34012H313.96027Zm20.40008,5.53688h10.27008V415.87685H334.36035Zm20.40009,5.5368h10.27008V421.4138H354.76044Zm20.40008,5.53688H385.4306V426.95053H375.16052Zm20.40009,5.53688h10.27008V432.48787H395.56061Zm20.40008,5.53681h10.27008V438.0249H415.96069Zm20.40009,5.53688h10.27008V443.5611H436.36078Zm20.40008,5.5368h10.27008V449.09805H456.76086Zm20.40009,5.53688H487.431V454.63486H477.161Zm20.40009,5.53688h10.27008V460.17166H497.561Zm20.40008,5.53681H528.2312V465.70862H517.96112Zm20.40009,5.53688h10.27008v-10.4023H538.36121Zm20.40008,5.5368h10.27008V476.7823H558.76129Zm20.40009,5.53688h10.27008V482.319H579.16138Zm21.85,4.06868h7.37122v-7.46567h-7.37122Zm-423.88092-92.632h7.78534v-7.886h-7.78534Zm19.158,6.7952h10.27008V400.55107H196.28845Zm20.40009,5.53688h10.27008V406.0878H216.68854Zm20.40008,5.53688H247.3587v-10.4026H237.08862Zm20.40009,5.53681h10.27008V417.16164H257.48871Zm20.40008,5.53688h10.27008V422.69836H277.88879Zm20.40009,5.5368H308.559V428.23586H298.28888Zm20.40008,5.53688h10.27009V433.77205H318.689Zm20.40009,5.53688h10.27008V439.30893H339.08905Zm20.40009,5.53681h10.27008V444.84589H359.48914Zm20.40008,5.53688H390.1593V450.38261H379.88922Zm20.40009,5.5368h10.27008V455.91957H400.28931Zm20.40008,5.53688h10.27008V461.4563H420.68939Zm20.40009,5.53688h10.27008V466.99387H441.08948Zm20.40008,5.53681h10.27008V472.53014H461.48956Zm20.40009,5.53688h10.27008V478.06686H481.88965Zm20.40008,5.5368h10.27008V483.60489H502.28973Zm20.40009,5.53688H532.9599V489.14055H522.68982Zm20.40008,5.53688H553.36V494.67743H543.0899ZM563.49,510.61707h10.27008V500.21484H563.49Zm20.40009,5.53688h10.27008V505.75188H583.89008Zm23.96179,1.92939h3.14728v-3.18786h-3.14728Zm-444.1156-98.33671h3.23v-3.27179h-3.23Zm16.87988,9.1024h10.27008V418.4462H180.61615Zm20.40009,5.5368h10.27008V423.98392H201.01624Zm20.40008,5.53688H231.6864V429.51988H221.41632Zm20.40009,5.53681h10.27008V435.05684H241.81641Zm20.40008,5.53688h10.27008V440.59486H262.21649Zm20.40009,5.53688h10.27008V446.13045H282.61658Zm20.40008,5.5368h10.27008V451.66725H303.01666Zm20.40009,5.53688h10.27008V457.2049H323.41675Zm20.40008,5.53681h10.27008V462.74185H343.81683Zm20.40009,5.53688H374.487V468.27782H364.21692Zm20.40008,5.53688h10.27008V473.8147H384.617Zm20.40009,5.5368h10.27008V479.3515H405.01709Zm20.40009,5.53688h10.27008V484.88838H425.41718Zm20.40008,5.53681h10.27008V490.42534H445.81726Zm20.40009,5.53688h10.27008V495.96207H466.21735Zm20.40008,5.5368h10.27008V501.49986H486.61743Zm20.40009,5.53688H517.2876V507.03575H507.01752Zm20.40008,5.53688h10.27008V512.57263H527.4176Zm20.40009,5.53681h10.27008V518.10959H547.81769Zm20.40008,5.53688h10.27008V523.64632H568.21777Zm20.93872,4.99153h9.19342v-9.31213h-9.19342Zm24.95575.92278h.08v-.084h-.08ZM149.67224,436.048h.08v-.08308h-.08Zm15.96924,10.0251h8.945v-9.06h-8.945Zm19.73785,6.208h10.27008V441.87836H185.37933Zm20.40009,5.53688H216.0495V447.41508H205.77942Zm20.40008,5.5368h10.27008V452.952H226.1795Zm20.40009,5.53688h10.27008V458.48877H246.57959Zm20.40009,5.53688h10.27008V464.02565H266.97968Zm20.40008,5.53681h10.27008V469.56261H287.37976Zm20.40009,5.53688h10.27008V475.09933H307.77985Zm20.40008,5.5368H338.45V480.63629H328.17993ZM348.58,496.57585H358.8501V486.173H348.58Zm20.40008,5.53688h10.27008V491.7099H368.9801Zm20.40009,5.53681h10.27008V497.24785H389.38019Zm20.40008,5.53688h10.27008V502.78488H409.78027Zm20.40009,5.5368h10.27008V508.32054H430.18036Zm20.40008,5.53688h10.27008V513.85727H450.58044Zm20.40009,5.53688h10.27008V519.39491H470.98053Zm20.40009,5.53681H501.6507V524.93111H491.38062Zm20.40008,5.53688h10.27008V530.46783H511.7807Zm20.40009,5.5368h10.27008V536.00586H532.18079Zm20.40008,5.53688H562.851V541.54152H552.58087Zm20.40009,5.53688H583.251V547.0784H572.981Zm22.92663,2.97814h5.2179v-5.2845h-5.2179Zm-443.82568-98.63h4.72076v-4.782h-4.72076Zm17.62573,8.34716h10.27008V459.77486H169.70764Zm20.40009,5.53688h10.27008V465.31029H190.10773Zm20.40008,5.53689h10.27008V470.84717H210.50781Zm20.40009,5.5368H241.178V476.38489H230.9079ZM251.308,492.324h10.27008V481.92085H251.308Zm20.40009,5.5368h10.27008v-10.403H271.70807Zm20.40008,5.53688h10.27008V492.99454H292.10815Zm20.40009,5.53689h10.27008V498.53142H312.50824Zm20.40009,5.5368h10.27008V504.06822H332.90833Zm20.40008,5.53688h10.27008V509.6051H353.30841Zm20.40009,5.5368h10.27008v-10.403H373.7085Zm20.40008,5.53688h10.27008V520.67879H394.10858Zm20.40009,5.53688h10.27008V526.21567H414.50867Zm20.40008,5.53681h10.27008V531.75247H434.90875Zm20.40009,5.53688h10.27008V537.28935H455.30884Zm20.40008,5.5368H485.979v-10.403H475.70892Zm20.40009,5.53688h10.27008V548.363H496.109Zm20.40008,5.53688h10.27253V553.90022H516.51154Zm20.40009,5.53681h10.27008V559.437H536.90918Zm20.40009,5.53688h10.27008V564.9749H557.30927Zm21.22863,4.69788h8.61359v-8.7249H578.5379Zm24.50012,1.38412h.41413v-.419H603.038ZM138.48328,477.62817h.58014v-.58723h-.58014ZM154.2041,487.905h9.93866V477.83791H154.2041Zm20.23468,5.70458h10.27008V483.20686H174.43878Zm20.40009,5.53688H205.109V488.74367H194.83887Zm20.40008,5.5368H225.509V494.28062H215.239Zm20.40009,5.53688h10.27008V499.81735H235.639Zm20.40008,5.53681H266.3092V505.35484H256.03912Zm20.40009,5.53688h10.27008V510.891H276.43921Zm20.40008,5.53688h10.27009V516.42792H296.83929Zm20.40009,5.5368h10.27008V521.96487H317.23938Zm20.40009,5.53688h10.27008V527.5016H337.63947Zm20.40008,5.53681h10.27008V533.03856H358.03955Zm20.40009,5.53688h10.27008V538.57529H378.43964Zm20.40008,5.53688H409.1098V544.11217H398.83972Zm20.40009,5.5368h10.27008V549.64912H419.23981Zm20.40008,5.53688H449.91V555.18585H439.63989ZM460.04,571.12549h10.27008V560.72281H460.04Zm20.40008,5.53688h10.27008V566.25954H480.44006Zm20.40009,5.53688h10.27008V571.79642H500.84015Zm20.40008,5.5368h10.27008V577.33337H521.24023Zm20.40009,5.53688H551.9104V582.8701H541.64032Zm22.84363,3.062h5.3836v-5.45311H564.484ZM140.47882,503.82874H146.525v-6.12389h-6.04614Zm18.28827,7.67608h10.27008V501.10214H158.76709Zm20.40009,5.53688h10.27008V506.63887H179.16718Zm20.40008,5.53681h10.27008V512.17583H199.56726Zm20.40009,5.53688h10.27008V517.71286H219.96735Zm20.40008,5.53688h10.27008V523.24944H240.36743Zm20.40009,5.5368H271.0376V528.78639H260.76752ZM281.1676,544.726h10.27008V534.32312H281.1676Zm20.40009,5.53681h10.27008V539.86008H301.56769Zm20.40008,5.53688h10.27008V545.3968H321.96777Zm20.40009,5.53688h10.27008V550.93369H342.36786Zm20.40008,5.5368H373.038V556.47064H362.76794ZM383.168,572.4102h10.27008V562.00737H383.168Zm20.40009,5.53681H413.8382V567.54486H403.56812Zm20.40008,5.53688h10.27008V573.08105H423.9682Zm20.40009,5.53688h10.27008V578.61794H444.36829Zm20.40008,5.5368h10.27008V584.15489H464.76837Zm20.40009,5.53688h10.27008V589.69162H485.16846Zm20.40008,5.53681h10.27008V595.22858H505.56854Zm20.73181,5.20126h9.60755v-9.7316h-9.60755Zm24.16871,1.72h2.07061v-2.09732h-2.07061ZM127.08527,519.41711h1.49078v-1.51h-1.49078Zm16.01074,9.98322h10.27008v-10.403H143.096Zm20.40008,5.53688h10.27008v-10.4023H163.49609Zm20.40009,5.53688h10.27008V530.071H183.89618Zm20.40008,5.5368h10.27009V535.60776H204.29626Zm20.40009,5.53689h10.27008V541.14487H224.69635Zm20.40009,5.5368h10.27008v-10.403H245.09644Zm20.40008,5.53688H275.7666V552.21832H265.49652Zm20.40009,5.5368h10.27008V557.75558H285.89661Zm20.40008,5.53688h10.27008V563.29231H306.29669Zm20.40009,5.53689h10.27008V568.82919H326.69678Zm20.40008,5.5368h10.27008V574.36615H347.09686Zm20.40009,5.53688H377.767V579.90288H367.497Zm20.40008,5.5368h10.27008V585.43983H387.897Zm20.40009,5.53688H418.5672V590.97626H408.29712Zm20.40008,5.53689h10.27009V596.51344H428.6972Zm20.40009,5.5368h10.27008V602.0504H449.09729ZM469.49738,617.99h10.28411V607.58713H469.51141Zm20.40008,5.5368h10.27008V613.12485H489.89746Zm21.93268,3.98491h7.2055v-7.29873h-7.2055Zm23.83758,2.05529h.33112v-.336h-.33112ZM129.7998,544.90486h5.54932V539.284H129.7998Zm18.53669,7.42439h9.27643v-9.396h-9.27643Zm19.98626,5.95643h10.10437v-10.235H168.32275Zm20.31739,5.62072h10.27008V553.50372H188.64014Zm20.40008,5.53688H219.3103V559.04045H209.04022Zm20.40009,5.53681h10.27008V564.57741H229.44031Zm20.40008,5.53688h10.27008V570.11414H249.84039Zm20.40009,5.53688h10.27008V575.651H270.24048Zm20.40008,5.5368h10.27008V581.188H290.64056Zm20.40009,5.53688h10.27008V586.72485H311.04065Zm20.40008,5.53681h10.27009V592.26166H331.44073Zm20.40009,5.53688H362.1109V597.79839H351.84082Zm20.40009,5.53688H382.511V603.33527H372.24091Zm20.40008,5.5368h10.27008V608.87222H392.641Zm20.40009,5.53688h10.27008V614.409H413.04108Zm20.40008,5.53681h10.27008V619.94591H433.44116Zm20.40009,5.53688h10.27008V625.48279H453.84125Zm20.48309,5.453h10.10437v-10.235H474.32434Zm23.58917,2.3069h3.72711v-3.77518h-3.72711Zm-340.45715-72.33h.49713v-.503h-.49713Zm19.82056,6.12412h1.65649v-1.67793h-1.65649Zm19.53064,6.41769h3.39569v-3.44h-3.39173ZM216.3797,590.233h5.05218v-5.11749H216.3797Zm19.57214,6.37581h6.70868v-6.79527h-6.70868Zm19.61365,6.33392h8.28217V594.5533h-8.28217Zm19.73755,6.208h9.60754V599.419H275.303Zm20.069,5.87242h10.27008V604.62029H295.372ZM315.77209,620.56h10.27009V610.15717H315.77209Zm20.40009,5.5368h10.27008V615.694H336.17218Zm20.40009,5.53688h10.27008V621.23077H356.57227Zm20.40008,5.53681h10.27008V626.76781H376.97235Zm20.40009,5.53688h10.27008V632.30492H397.37244Zm20.40008,5.5368H428.0426V637.84149H417.77252Zm20.40009,5.53688h10.27008V643.37822H438.17261Zm21.18713,4.74h8.6966v-8.80882h-8.6966Zm24.25171,1.63582h.994v-1.0067h-.994ZM264.39667,622.22229h.08v-.08h-.08Zm20.02777,5.91438h.82794v-.839h-.82794Zm19.65515,6.29189h2.319v-2.349h-2.319Zm19.57214,6.37581h3.97553V636.7775h-3.97553Zm19.57215,6.37581h5.632v-5.70527h-5.632ZM362.796,653.556h7.28851V646.1734H362.796Zm19.61365,6.33378h8.862v-8.9766h-8.862Zm19.86206,6.08222h9.939V655.90485h-9.939Zm20.23468,5.70458h10.27008V661.27388H422.50641Zm22.67792,3.23h5.71472V669.118h-5.71472Zm23.21624,2.68448h.08v-.08h-.08Zm-76.95007,1.36871h.24811v-.252h-.24811Zm19.90326,6.04h1.24237V683.7413h-1.24237Zm20.44189,5.495H432.955v-1.17447h-1.15357Z" fill="#feba18"/>
        <path id="atom_08_line" data-name="atom 08 line" d="M300.94391,222.37328c-62.53937-20.34127-103.27362-26.47-111.72058-21.05683-5.8078,3.7188-5.9961,12.26593-.65491,29.50073a832.641,832.641,0,0,0,48.381,107.2921q-41.80023,22.32514-88.685,48.228c-35.09339-24.05869-70.06989-50.211-104.1681-78.68L36.9693,316.409c32.83691,27.41623,66.48773,52.66731,100.26855,76.01631q-47.58407,26.37-100.40618,56.36879l5.47821,9.89158c33.75732-19.17183,69.25231-39.15451,105.35-59.13871q28.11676,19.08416,56.16638,36.34407c-42.8952,62.95288-55.19012,102.46-40.549,123.46771l.278.392c16.79413,23.29,66.92779,21.9973,158.79913-6.63292q4.16978,30.50353,9.29505,62.86c-32.78351,36.519-65.5893,72.43-96.74988,106.26549l8.19153,7.73742c32.49633-35.28556,62.65655-68.426,90.809-99.74807q11.58141,70.98781,28.08593,150.4483l10.957-2.354c-11.806-56.39794-21.467-109.24652-29.42078-158.80677q17.99378-20.08632,34.76013-39.06448c49.30206,73.666,95.08,128.66631,118.80188,127.61108,5.86639-.264,13.49579-3.50219,16.51856-17.44918a503.26316,503.26316,0,0,0,7.32788-100.81c52.645,19.48387,91.43951,31.00128,108.42987,35.76172,13.76159,3.85651,20.20782-1.4859,23.19275-6.644,12.27264-21.22124-16.12854-90.49507-60.18677-172.80228q34.75022-15.465,72.594-32.82c31.72425,20.37513,64.30481,42.51106,97.61627,66.77353l6.53748-9.20723c-31.1261-22.67243-61.87531-43.57544-92.11182-63.10624,44.46991-20.49,92.07245-42.8749,143.16285-67.332l-4.78486-10.25779c-49.0094,23.46069-99.4461,47.30308-149.51049,70.36552q-48.45475-30.84309-94.43451-56.39778c53.27606-75.78217,69.89257-120.53757,54.93011-141.28738-.166-.23-.34-.45861-.51514-.68718-15.42175-19.8967-59.82147-15.52811-140.43365,16.06246q-5.93673-38.1951-12.74414-77.1849c36.23749-38.0138,72.57812-75.36629,107.04254-110.45128l-7.93823-8.0032C535.30609,59.7171,501.5802,94.51729,470.23712,127.3278c-5.69244-31.86721-11.78009-63.9323-18.298-95.929l-10.96985,2.2953c7.04681,34.59141,13.61511,69.2606,19.6936,103.64861-12.48993,13.11909-24.45343,25.80051-36.12182,38.2373-4.66-6.63078-9.25415-13.11561-13.68287-19.25708a706.45213,706.45213,0,0,0-56.48559-71.20289c-13.50372-13.80268-21.51276-17.98-27.65259-14.41311-10.369,6.02539-22.94647,57.60651-25.77667,151.66618Zm-105.08545-11.58c8.12012-1.53129,45.77789,4.85,104.77875,24.0741q-.639,31.83449.304,69.63478Q275.056,317.8468,246.87531,332.82837c-32.09961-62.46407-53.07068-110.99083-51.01746-122.03522Zm288.01788,73.6821c.67414,4.8552,1.37848,9.75777,2.02729,14.5755-26.84571-13.2222-52.4701-24.9778-76.66626-35.39673,16.39709-7.66,32.222-14.79637,47.34527-21.31637,9.0033,13.65089,18.14026,27.75169,27.2934,42.13707Zm-16.92871-46.55548q4.85779-2.04518,9.60663-3.99658c1.23047,8.091,2.39868,16.1026,3.56689,24.11369q-6.62292-10.201-13.17352-20.11718Zm70.48,133.91167q-13.022,17.24442-27.5,35.51727c-2.88116-28.55789-6.29089-58.27072-10.22339-88.87,2.65015,1.33949,5.40986,2.81563,8.08411,4.1848,10.04974,16.30882,19.98078,32.77222,29.63959,49.16779Zm-10.32592-39.17076c9.2221,4.8674,18.60382,9.95216,28.08288,15.17273q-5.05233,6.98753-10.42511,14.2073-8.714-14.68906-17.65747-29.38011ZM313.91785,485.57915c-30.57495-15.97443-62.07764-33.67157-93.89069-52.9834,11.55945-16.33217,24.72809-33.74359,39.22546-52.00089,16.46119,30.62249,34.69544,63.07541,53.62061,95.19318C313.2251,479.06067,313.54919,482.26852,313.91785,485.57915Zm9.65881-14.2482c-6.18469-58.07564-9.642-109.68491-11.15662-154.83q3.98576-4.63566,8.042-9.31c25.72174-13.11393,50.80108-25.53421,74.80987-36.95182,28.53241,11.91856,59.44367,25.88256,92.41,42.22,4.88251,37.28,8.96393,73.19549,12.287,107.3883-21.1792,26.3958-44.2099,54.03481-68.30108,82.225q-24.51462,9.68193-47.572,18.19641c-14.34173-6.712-29.043-13.86337-43.98925-21.35719q-8.3249-13.69127-16.52985-27.5808ZM301.74774,328.99712c1.45325,36.10527,4.13727,75.91621,8.31513,119.2572-15.19013-26.24787-29.76715-52.39754-43.12592-77.25914,10.96832-13.608,22.62116-27.64588,34.81079-41.99814ZM261.06232,359.9778c-3.07617-5.79277-6.09711-11.52283-9.01825-17.13524q20.8374-11.07,41.40625-21.75613-17.33643,20.35491-32.388,38.89129Zm70.75287,147.44537q7.93029,13.02933,15.91,25.77942-8.18572,2.79568-16.10291,5.38643c-1.49688-11.3147-2.91656-22.464-4.2221-33.36,1.48742.75463,2.93213,1.44661,4.415,2.19422Zm19.46777,9.67621c6.03119,2.94937,11.96014,5.773,17.8894,8.59306q-5.17593,1.85544-10.26,3.63869-3.81683-6.06765-7.62939-12.23183Zm31.99524,15.27191c5.37689,2.50183,10.658,4.90067,15.93414,7.29462q-9.64507,11.066-19.41711,22.16888-7.36772-11.22528-14.79431-22.89543c5.93261-2.08679,12.0639-4.30054,18.277-6.56807Zm14.98779-5.56282c5.89783-2.2081,11.89362-4.47891,18.03162-6.84082q-4.66325,5.4031-9.36737,10.82314C404.08051,529.50432,401.14685,528.12706,398.266,526.80847ZM438.48145,511.312q31.48314-12.46433,66.93481-27.4266c2.31415,32.41386,3.717,62.41416,4.19769,89.55589-27.68371-10.52849-58.65356-23.11821-91.98791-37.91092Q428.34549,523.16155,438.48145,511.312Zm15.45318-18.1443c17.19208-20.31212,32.97943-39.38523,47.56134-57.40723,1.13709,12.44621,2.12921,24.541,3.03986,36.43q-25.81741,10.93093-50.60089,20.97717Zm57.5351-69.814q17.33092-21.692,32.05078-41.12732c11.59393,19.88762,22.72552,39.59,33.1,58.69561q-31.10321,13.785-61.2799,26.677c-1.117-14.33128-2.43317-29.14817-3.87055-44.2453ZM395.2359,257.7079c-7.695-3.22159-15.25818-6.32606-22.62207-9.26323,16.55487-18.271,33.569-36.73523,50.81543-55.21522,8.67767,12.53639,17.65228,25.76278,26.806,39.52293q-25.49606,10.99881-54.99908,24.95552Zm-14.11011,6.70937q-19.50393,9.38163-40.72143,20.00808,11.72378-13.26358,23.84826-26.72851c5.50751,2.14706,11.15021,4.4014,16.87378,6.72043ZM313.183,298.192l-1.26922.6475c-.5069-21.72813-.553-41.81648-.24414-60.3083q19.31167,6.52656,41.26617,14.81621-21.06446,23.38566-39.75311,44.84459ZM158.80463,393.38821c27.65167-15.25482,55.58319-30.45677,83.30658-45.25642q5.44738,10.51,11.25061,21.43753-24.84834,31.07643-43.16071,57.04483c-17.08649-10.54169-34.241-21.67992-51.39618-33.22594ZM172.61658,553.086l-.19013-.271c-12.64831-18.14659,4.97223-58.27149,41.09986-110.89,34.6054,21.03,68.83117,40.07072,101.93573,57.18613,1.62811,13.94622,3.46618,28.34,5.40374,42.93693-77.84912,24.56482-133.11035,32.03163-148.2489,11.03767Zm168.63006,52.18277c-2.97-19.07112-5.65-37.56569-8.10791-55.59852q10.0026-3.23227,20.63385-6.87371,9.08021,14.32114,18.10486,28.01674-15.23942,17.25163-30.63019,34.45549Zm161.41114,82.92054c-.737,3.41171-2.20337,7.63717-4.99665,8.38569-2.57751.692-13.21136.455-41.84448-31.66572a664.96143,664.96143,0,0,1-41.36444-52.487c-9.195-12.75147-18.66913-26.49071-28.2785-40.917q12.14538-13.79242,23.67279-27.03117c36.48376,16.2783,70.16754,29.89509,99.9707,41.14852a505.22715,505.22715,0,0,1-7.15881,102.56669ZM633.03253,559.297c15.92774,42.64259,11.0907,52.69859,9.23,54.76639-1.99,2.21183-6.49231,1.53518-9.91424.573-17.29-4.8452-57.31446-16.7366-111.5741-36.9619-.42511-29.54246-1.973-62.569-4.57916-98.34678q31.28952-13.30892,65.72906-28.56934a948.31173,948.31173,0,0,1,51.109,108.53829Zm20.69122-153.17467q-33.57055,15.39632-66.662,30.15678c-11.27564-20.74638-23.44452-42.1978-36.16181-63.85482,4.924-6.60729,9.5752-12.98081,14.03229-19.19q42.8714,23.95352,88.79242,52.888ZM617.03857,209.17587c13.89618,17.728-10.20935,65.87319-55.29541,129.49089-15.66253-8.647-30.9317-16.69891-45.9909-24.46823q-10.52994-16.99791-21.15265-33.67309-3.49914-25.16786-7.424-50.90477c67.66571-26.94138,116.47156-37.7237,129.86358-20.4448Zm-153.9859-58.021q6.23383,35.98177,11.71357,71.32271c-4.63013,1.87691-9.32007,3.79868-14.17542,5.84389-10.08057-15.13527-19.96063-29.66828-29.45862-43.33168Q447.00654,168.0433,463.05267,151.15486ZM416.85425,183.782q-29.51935,31.57311-55.49591,60.23423c-17.56531-6.82473-34.07471-12.80564-49.41315-17.993,2.363-89.15371,13.18817-137.545,19.87824-145.00938,10.676,2.82421,43.934,44.051,85.03082,102.76779Z" fill="#110a4c"/>
        <g id="atom_08_dots" data-name="atom 08 dots">
          <ellipse id="ellipse4771" cx="237.65106" cy="727.33391" rx="23.99994" ry="24.31" fill="#110a4c"/>
          <ellipse id="ellipse4773" cx="23.99994" cy="299.06448" rx="23.99994" ry="24.31" fill="#110a4c"/>
          <ellipse id="ellipse4775" cx="766.91833" cy="475.513" rx="23.99994" ry="24.31" fill="#110a4c"/>
          <ellipse id="ellipse4777" cx="578.75763" cy="24.31" rx="23.99994" ry="24.31" fill="#110a4c"/>
          <ellipse id="ellipse4779" cx="445.58319" cy="31.75808" rx="16.79993" ry="17.01698" fill="#110a4c"/>
          <ellipse id="ellipse4781" cx="368.37463" cy="782.36755" rx="16.79993" ry="17.01698" fill="#110a4c"/>
          <ellipse id="ellipse4783" cx="819.28314" cy="334.43237" rx="16.79993" ry="17.01698" fill="#110a4c"/>
          <ellipse id="ellipse4785" cx="26.56555" cy="460.19157" rx="16.79993" ry="17.01698" fill="#110a4c"/>
        </g>
      </g>
    </g>
  </g>
</svg>
