<svg xmlns="http://www.w3.org/2000/svg" width="736.87744" height="647.98676" viewBox="0 0 736.87744 647.98676">
  <g id="Layer_2" data-name="Layer 2">
    <g id="svg4790">
      <g id="atom_18" data-name="atom 18">
        <ellipse id="atom_18_solid" data-name="atom 18 solid" cx="367.07185" cy="329.25259" rx="219.60998" ry="255.43182" transform="translate(-73.74356 108.27569) rotate(-15.26696)" fill="#e7f9e0"/>
        <path id="atom_18_ht" data-name="atom 18 ht" d="M320.86624,10.5191h.663v.66315h-.663ZM339.94141,17.973h3.31283V14.66h-3.31283Zm18.99231,6.87439h6.129V18.71826h-6.129Zm19.57214,6.29425h7.78534v-7.786h-7.78534Zm20.02777,5.83893h8.53073V28.44971h-8.53073Zm20.48325,5.3833h8.36517V33.99872h-8.36517Zm20.89737,4.96948h7.37136V39.96216h-7.37136Zm21.39419,4.47236h5.38345V46.42212h-5.38345Zm21.68411,4.18243h2.816V53.1723h-2.816Zm21.64276,4.22394h.331V59.881h-.331ZM283.59879,24.58344h3.06442V21.51886h-3.06442Zm17.79144,8.07525h8.28232V24.37592h-8.28232Zm19.40643,6.46h10.26993V28.84857H320.79666ZM341.19659,44.585h10.26993V34.31488H341.19659Zm20.39994,5.46631h10.26993V39.78119H361.59653Zm20.39993,5.46631h10.26993V45.2475H381.99646Zm20.39993,5.46631h10.26993V50.71381H402.39639Zm20.39994,5.46631h10.26992V56.18011H422.79633Zm20.39993,5.4663h10.26993V61.64642H443.19626Zm20.39993,5.46631h10.26993V67.11273H463.59619Zm20.48325,5.38361H494.184V72.662H484.07944Zm21.72546,4.14093H513.259V79.45282h-7.45132Zm22.76093,3.10577H531.299V87.28h-2.73315Zm21.72546,4.14124h.08v-.08h-.08ZM247.65335,36.66046h2.816V33.8446h-2.816Zm17.17,8.69629h9.27628V36.08032H264.8233Zm19.90342,5.96314h10.26992V41.0498H284.72672Zm20.39993,5.4663h10.26993V46.51611H305.12665Zm20.39993,5.46631h10.26993V51.98242H325.52658Zm20.39993,5.46631h10.26993V57.44873H345.92651Zm20.39994,5.46631h10.26992V62.915H366.32645Zm20.39993,5.46631h10.26993V68.38135H386.72638Zm20.39993,5.46631h10.26993V73.84766H407.12631Zm20.39994,5.46631h10.26992V79.314H427.52625Zm20.39993,5.4663h10.26993V84.78027H447.92618Zm20.39993,5.46631H478.596V90.24658H468.32611ZM488.726,105.983H498.996V95.71289H488.726Zm20.39994,5.46631H519.3959V101.1792H509.126ZM529.98184,116.46H539.341v-9.35913h-9.35913Zm23.25775,2.609h3.64426V115.4248h-3.64426Zm-340.54-71.32507h.58V47.1637h-.58Zm16.88,8.9862h7.61993V49.11011h-7.61993Zm19.07517,6.79138h10.26992V53.25134H248.65479Zm20.39993,5.46631h10.26993V58.71765H269.05472ZM289.45465,74.454h10.26993V64.184H289.45465Zm20.39993,5.46631h10.26993V69.65027H309.85458Zm20.39994,5.46631h10.26992V75.11658H330.25452ZM350.65445,90.853h10.26993V80.58289H350.65445Zm20.39993,5.4663h10.26993V86.04919H371.05438Zm20.39994,5.46631h10.26992V91.5155H391.45432Zm20.39993,5.46631h10.26993V96.98181H411.85425Zm20.39993,5.46631h10.26993V102.44812H432.25418Zm20.39993,5.46631H462.924V107.91443H452.65411Zm20.39994,5.46631H483.324V113.38074H473.05405Zm20.39993,5.46631h10.26993V118.84705H493.454Zm20.39993,5.46631h10.26993V124.31335H513.85391Zm20.39994,5.4663h10.26992V129.77966H534.25385Zm20.89736,4.96918h9.27628v-9.27643h-9.27628Zm23.83744,2.02911h2.40188v-2.402h-2.40188ZM196.19873,66.23962h2.23618V64.0033h-2.23618Zm16.63178,9.23462h9.77325V65.70129h-9.77325ZM232.98233,81.189h10.26993V70.91888H232.98233Zm20.39993,5.46631h10.26993V76.38519H253.38226Zm20.39994,5.46631h10.26992V81.8515H273.7822Zm20.39993,5.46631h10.26993V87.31781H294.18213Zm20.39993,5.46631H324.852V92.78412H314.58206Zm20.39993,5.46631h10.26993V98.25043H334.982Zm20.39994,5.46631h10.26993V103.71674H355.38193Zm20.39993,5.4663h10.26993V109.183H375.78186Zm20.39993,5.46631h10.26993V114.64935H396.18179Zm20.39994,5.46631h10.26992V120.11566H416.58173Zm20.39993,5.46631h10.26993V125.582H436.98166Zm20.39993,5.46631h10.26993V131.04828H457.38159Zm20.39993,5.46631h10.26993V136.51459H477.78152Zm20.39994,5.46631h10.26993V141.9809H498.18146Zm20.39993,5.46631h10.26993V147.4472H518.58139Zm20.39993,5.4663h10.26993V152.91351H538.98132Zm20.39994,5.46631h10.26992V158.37982H559.38126Zm21.89117,3.97553h7.28836v-7.28852h-7.28836Zm23.79608,2.07061h.497v-.49713h-.497Zm-425.3714-89.96h3.89267V80.8432h-3.87207Zm17.253,8.61359H207.1373V83.16223H196.95007Zm20.359,5.50781H227.579V88.58734H217.30911Zm20.39994,5.46631H247.979V94.05365H237.70905ZM258.109,109.79h10.26993V99.52H258.109Zm20.39993,5.46631h10.26993V104.98627H278.50891Zm20.39993,5.46631h10.26993V110.45258H298.90884Zm20.39994,5.4663H329.5787V115.91888H319.30878Zm20.39993,5.46631h10.26993V121.38519H339.70871Zm20.39993,5.46631h10.26993V126.8515H360.10864Zm20.39994,5.46631H390.7785V132.31781H380.50858Zm20.39993,5.46631h10.26993V137.78412H400.90851Zm20.39993,5.46631h10.26993V143.25043H421.30844Zm20.39993,5.46631H451.9783V148.71674H441.70837Zm20.39994,5.4663h10.26992V154.183H462.10831Zm20.39993,5.46631h10.26993V159.64935H482.50824Zm20.39993,5.46631H513.1781V165.11566H502.90817Zm20.39994,5.46631H533.578V170.582H523.30811Zm20.39993,5.46631H553.978V176.04828H543.708Zm20.39993,5.46631H574.3779V181.51459H564.108Zm20.60745,5.25909h9.856v-9.85595h-9.856Zm24.086,1.7807h2.48474v-2.48474h-2.48474ZM163.77518,102.65289h4.38995V98.26294h-4.38995Zm17.46,8.40638h10.26993V100.78918H181.2352Zm20.39993,5.4663h10.26993V106.25549H201.63513Zm20.39993,5.46631H232.305V111.7218H222.03506Zm20.39994,5.46631h10.26993V117.18811H242.435Zm20.39993,5.46631h10.26993V122.65442H262.83493Zm20.39993,5.46631h10.26993V128.12073H283.23486Zm20.39994,5.46631h10.26992V133.587H303.6348Zm20.39993,5.46631h10.26993V139.05334H324.03473Zm20.39993,5.4663h10.26993V144.51965H344.43466Zm20.39993,5.46631h10.26993V149.986H364.83459Zm20.39994,5.46631h10.26993V155.45227H385.23453Zm20.39993,5.46631h10.26993V160.91858H405.63446Zm20.39993,5.46631h10.26993V166.38489H426.03439Zm20.39994,5.46631h10.26992V171.8512H446.43433Zm20.39993,5.46631h10.26993V177.3175H466.83426Zm20.39993,5.4663h10.26993V182.78381H487.23419Zm20.39993,5.46631h10.26993V188.25012H507.63412Zm20.39994,5.46631H538.304V193.71643H528.03406Zm20.39993,5.46631h10.26993V199.18274H548.434Zm20.39993,5.46631h10.26993V204.64905H568.83392Zm20.39994,5.46631h10.26992V210.11536H589.23386Zm23.05069,2.81585h4.96933v-4.96948h-4.96933ZM148.34869,120.07263h3.89267v-3.89679h-3.89267Zm17.21177,8.65509h10.26992V118.45764H165.56046Zm20.39993,5.46631h10.26993V123.924H185.96039Zm20.39993,5.46631h10.26993V129.39026H206.36032Zm20.39993,5.46631h10.26993V134.85657H226.76025Zm20.39994,5.46631h10.26992V140.32288H247.16019Zm20.39993,5.46631h10.26993V145.78918H267.56012Zm20.39993,5.4663H298.23V151.25549H287.96005ZM308.36,166.99188h10.26992V156.7218H308.36Zm20.39993,5.46631h10.26993V162.18811H328.75992Zm20.39993,5.46631h10.26993V167.65442H349.15985Zm20.39993,5.46631h10.26993V173.12073H369.55978Zm20.39994,5.46631h10.26992V178.587H389.95972Zm20.39993,5.46631h10.26993V184.05334H410.35965Zm20.39993,5.4663h10.26993V189.51965H430.75958Zm20.39994,5.46631h10.26992V194.986H451.15952Zm20.39993,5.46631h10.26993V200.45227H471.55945Zm20.39993,5.46631h10.26993V205.91858H491.95938Zm20.39993,5.46631h10.26993V211.38489H512.35931Zm20.39994,5.46631h10.26992V216.8512H532.75925Zm20.39993,5.46631h10.26993V222.3175H553.15918Zm20.39993,5.4663H583.829V227.78381H573.55911Zm20.39994,5.46631H604.229V233.25012H593.95905Zm22.14,3.72711h6.79153v-6.79168h-6.79153Zm23.75473,2.11182h.08v-.08h-.08ZM133.50876,136.90735h2.23617V134.671h-2.23617Zm16.42486,9.44183h10.18723V136.16211H149.93362Zm20.359,5.50781h10.26993V141.58691H170.29266Zm20.39994,5.46631h10.26992V147.05322H190.6926Zm20.39993,5.46631h10.26993V152.51953H211.09253Zm20.39993,5.46631h10.26993V157.98584H231.49246Zm20.39994,5.46631h10.26992V163.45215H251.8924Zm20.39993,5.46631h10.26993V168.91846H272.29233Zm20.39993,5.46631h10.26993V174.38477H292.69226Zm20.39993,5.4663h10.26993V179.85107H313.09219Zm20.39994,5.46631h10.26992V185.31738H333.49213Zm20.39993,5.46631H364.162V190.78369H353.89206Zm20.39993,5.46631h10.26993V196.25H374.292Zm20.39994,5.46631h10.26992V201.71631H394.69193Zm20.39993,5.46631h10.26993V207.18262H415.09186Zm20.39993,5.46631h10.26993V212.64893H435.49179Zm20.39993,5.4663h10.26993V218.11523H455.89172Zm20.39994,5.46631h10.26992V223.58154H476.29166Zm20.39993,5.46631h10.26993V229.04785H496.69159Zm20.39993,5.46631h10.26993V234.51416H517.09152Zm20.39994,5.46631h10.26992V239.98047H537.49146Zm20.39993,5.46631h10.26993V245.44678h-10.2237Zm20.39993,5.46631h10.26993V250.91309H578.33771Zm20.39993,5.46631h10.26993V256.37939H598.73764Zm21.68412,4.18243H628.078v-7.70264h-7.70263Zm24.16885,1.69769h.166v-.166h-.166Zm-525.8-118.86505h.414v-.41412h-.414ZM134.465,163.81042h9.7731V154.036H134.465Zm20.15182,5.71473h10.26993V159.25507H154.61685Zm20.39993,5.46631h10.26993V164.72137H175.01678Zm20.39994,5.4663h10.26993V170.18768H195.41672Zm20.39993,5.46631h10.26993V175.654H215.81665Zm20.39993,5.46631h10.26993V181.1203H236.21658Zm20.39994,5.46631h10.26992V186.58661H256.61652Zm20.39993,5.46631h10.26993V192.05292H277.01645Zm20.39993,5.46631h10.26993V197.51923H297.41638Zm20.39993,5.46631h10.26993V202.98553H317.81631Zm20.39994,5.4663h10.26993V208.45184H338.21625Zm20.39993,5.46631h10.26993V213.91815H358.61618Zm20.39993,5.46631H389.286V219.38446H379.01611Zm20.39994,5.46631H409.686V224.85077H399.41605Zm20.39993,5.46631h10.26993V230.31708H419.816Zm20.39993,5.46631h10.26993V235.78339H440.21591Zm20.39993,5.46631h10.26993V241.24969H460.61584Zm20.39994,5.4663h10.26993V246.716H481.01578Zm20.39993,5.46631h10.26993V252.18231H501.41571Zm20.39993,5.46631h10.26993V257.64862H521.81564Zm20.39994,5.46631H552.4855V263.11493H542.21558Zm20.39993,5.46631h10.26993V268.58124H562.61551Zm20.39993,5.46631h10.26993V274.04755H583.01544Zm20.39993,5.46631H613.6853V279.51385H603.41537Zm21.68427,4.18243h7.70264v-7.70264h-7.70264Zm24.21005,1.65649h.08v-.07995h-.08ZM120.23865,180.0293H127.113v-6.87439h-6.87439Zm18.70254,7.164h10.26993V176.92322H138.94119Zm20.39994,5.46631h10.26992V182.38953H159.34113Zm20.39993,5.46631H190.011V187.85583H179.74106Zm20.39993,5.4663h10.26993V193.32214H200.141Zm20.39993,5.46631h10.26993V198.78845H220.54092Zm20.39994,5.46631h10.26992V204.25476H240.94086Zm20.39993,5.46631h10.26993V209.72107H261.34079Zm20.39993,5.46631h10.26993V215.18738H281.74072Zm20.39994,5.46631h10.26992V220.65369H302.14066Zm20.39993,5.46631h10.26993V226.12H322.54059Zm20.39993,5.4663h10.26993V231.5863H342.94052Zm20.39993,5.46631h10.26993V237.05261H363.34045Zm20.39994,5.46631h10.26992V242.51892H383.74039Zm20.39993,5.46631h10.26993V247.98523H404.14032Zm20.39993,5.46631h10.26993V253.45154H424.54025Zm20.39994,5.46631h10.26992V258.91785H444.94019Zm20.39993,5.46631h10.26993V264.38416H465.34012Zm20.39993,5.4663H496.01V269.85046H485.74005ZM506.14,285.58685h10.26993V275.31677H506.14Zm20.39994,5.46631h10.26992V280.78308H526.53992Zm20.39993,5.46631h10.26993V286.24939H546.93985Zm20.39993,5.46631h10.26993V291.7157H567.33978Zm20.39994,5.46631h10.26992V297.182H587.73972Zm20.39993,5.46631h10.26993V302.64832H608.13965Zm22.01538,3.85131H637.195v-7.0401H630.155ZM106.55029,195.70984h2.89887V192.811h-2.89887Zm16.71463,9.15192h10.26993V194.59167H123.26492Zm20.39994,5.4663h10.26992V200.058H143.66486Zm20.39993,5.46631h10.26993V205.52429H164.06479Zm20.39993,5.46631h10.26993V210.9906H184.46472Zm20.39993,5.46631h10.26993V216.45691H204.86465Zm20.39994,5.46631h10.26993V221.92322H225.26459Zm20.39993,5.46631h10.26993V227.38953H245.66452Zm20.39993,5.46631h10.26993V232.85583H266.06445Zm20.39994,5.4663h10.26992V238.32214H286.46439Zm20.39993,5.46631h10.26993V243.78845H306.86432Zm20.39993,5.46631h10.26993V249.25476H327.26425Zm20.39993,5.46631h10.26993V254.72107H347.66418Zm20.39994,5.46631h10.26993V260.18738H368.06412Zm20.39993,5.46631H398.734V265.65369H388.46405Zm20.39993,5.46631h10.26993V271.12H408.864Zm20.39994,5.4663h10.26992V276.5863H429.26392Zm20.39993,5.46631h10.26993V282.05261H449.66385Zm20.39993,5.46631h10.26993V287.51892H470.13763Zm20.39993,5.46631h10.26993V292.98523H490.53772Zm20.39994,5.46631h10.26993V298.45154H510.93765Zm20.39993,5.46631h10.26993V303.91785H531.26358Zm20.39993,5.46631h10.26993V309.38416H551.66351Zm20.39994,5.4663h10.26992V314.85046H572.06345Zm20.39993,5.46631h10.26993V320.31677H592.46338Zm20.39993,5.46631h10.26993V325.78308H612.86331Zm22.80228,3.06427h5.46646v-5.46631h-5.46646ZM108.541,221.57745h8.36518v-8.36517h-8.28842Zm19.44794,6.41877h10.26993V217.72614H127.98889Zm20.39993,5.4663h10.26993V223.19244H148.38882Zm20.39994,5.46631h10.26993V228.65875H168.78876Zm20.39993,5.46631h10.26993V234.12506H189.18869Zm20.39993,5.46631h10.26993V239.59137H209.58862Zm20.39994,5.46631h10.26992V245.05768H229.98856Zm20.39993,5.46631h10.26993V250.524H250.38849Zm20.39993,5.46631h10.26993V255.9903H270.78842Zm20.39993,5.4663h10.26993V261.4566H291.18835Zm20.39994,5.46631h10.26993V266.92291H311.58829Zm20.39993,5.46631h10.26993V272.38922H331.98822Zm20.39993,5.46631h10.26993V277.85553H352.38815Zm20.39994,5.46631H383.058V283.32184H372.78809Zm20.39993,5.46631H403.458V288.78815H393.188Zm20.39993,5.46631h10.26993V294.25446H413.588Zm20.39993,5.4663h10.26993V299.72076H433.98788Zm20.39994,5.46631h10.26993V305.18707H454.38782Zm20.39993,5.46631h10.26993V310.65338H474.78775Zm20.39993,5.46631h10.26993V316.11969H495.18768Zm20.39994,5.46631h10.26992V321.586H515.58762Zm20.39993,5.46631h10.26993V327.05231H535.98755Zm20.39993,5.46631h10.26993V332.51862H556.38748Zm20.39993,5.4663h10.26993V337.98492H576.78741Zm20.39994,5.46631h10.26993V343.45123H597.18735Zm20.39993,5.46631h10.26993V348.91754H617.58728Zm23.96179,1.90491h3.14728v-3.14728h-3.14728ZM95.51483,236.59576h3.06458V233.526H95.51483Zm16.79764,9.06922H122.5824V235.3949H112.31247Zm20.39993,5.46631h10.26993V240.86121H132.7124Zm20.39994,5.46631h10.26992V246.32751H153.11234Zm20.39993,5.4663H183.7822V251.79382H173.51227Zm20.39993,5.46631h10.26993V257.26013H193.9122Zm20.39993,5.46631h10.26993V262.72644H214.31213Zm20.39994,5.46631H244.982V268.19275H234.71207Zm20.39993,5.46631h10.26993V273.65906H255.112Zm20.39993,5.46631h10.26993V279.12537H275.51193Zm20.39994,5.46631h10.26992V284.59167H295.91187Zm20.39993,5.4663h10.26993V290.058H316.3118Zm20.39993,5.46631h10.26993V295.52429H336.71173Zm20.39993,5.46631h10.26993V300.9906H357.11166ZM377.5116,316.727h10.26992V306.45691H377.5116Zm20.39993,5.46631h10.26993V311.92322H397.91153Zm20.39993,5.46631h10.26993V317.38953H418.31146Zm20.39994,5.46631h10.26992V322.85583H438.7114Zm20.39993,5.4663h10.26993V328.32214H459.11133Zm20.39993,5.46631h10.26993V333.78845H479.51126Zm20.39993,5.46631h10.26993V339.25476H499.91119Zm20.39994,5.46631h10.26992V344.72107H520.31113Zm20.39993,5.46631H550.981V350.18738H540.71106Zm20.39993,5.46631h10.26993V355.65369H561.111Zm20.39994,5.46631h10.26992V361.12H581.51093Zm20.39993,5.4663h10.26993V366.5863H601.91086Zm20.48309,5.38331h10.10452V372.13531H622.394Zm25.12131.74493h.663v-.66193h-.663ZM98.20953,261.75934h7.12281v-7.1228H98.20953Zm18.82676,7.0401h10.26992V258.52936H117.03629Zm20.39993,5.46631h10.26993V263.99567H137.43622Zm20.39993,5.46631h10.26993V269.462H157.83615Zm20.39993,5.4663H188.506V274.92828H178.23608Zm20.39994,5.46631h10.26992V280.39459H198.636ZM219.036,296.131h10.26993V285.8609H219.036Zm20.39993,5.46631h10.26993V291.32721H239.43588Zm20.39994,5.46631h10.26992V296.79352H259.83582Zm20.39993,5.46631h10.26993V302.25983H280.23575Zm20.39993,5.46631h10.26993V307.72614H300.63568Zm20.39993,5.4663h10.26993V313.19244H321.03561Zm20.39994,5.46631h10.26992V318.65875H341.43555Zm20.39993,5.46631h10.26993V324.12506H361.83548Zm20.39993,5.46631h10.26993V329.59137H382.33765Zm20.39994,5.46631h10.26992V335.05768H402.73773Zm20.39993,5.46631h10.26993V340.524H423.13766Zm20.39993,5.46631h10.26993V345.9903H443.43521Zm20.39993,5.4663h10.26993V351.4566H463.83514Zm20.39994,5.46631H494.505V356.92291H484.23508ZM504.635,372.6593h10.26993V362.38922H504.635Zm20.39993,5.46631h10.26993V367.85553H525.03494Zm20.39994,5.46631H555.7048V373.32184H545.43488Zm20.39993,5.46631h10.26993V378.78815H565.83481Zm20.39993,5.46631h10.26993V384.25446H586.23474Zm20.39993,5.4663H616.9046V389.72076H606.63467Zm21.93253,3.934h7.20566v-7.20581h-7.19513ZM85.815,276.14777h.58v-.58014h-.58Zm15.638,10.22857h10.10437V276.272H101.45294Zm20.31754,5.549h10.26993V281.65527H121.77048Zm20.39993,5.46631h10.26993V287.12158H142.17041Zm20.39993,5.46631h10.26993V292.58789H162.57034Zm20.39994,5.46631H193.2402V298.0542H182.97028Zm20.39993,5.46631h10.26993V303.52051H203.37021Zm20.39993,5.46631h10.26993V308.98682H223.77014Zm20.39993,5.46631H254.44V314.45312H244.17007Zm20.39994,5.4663h10.26993V319.91943H264.57Zm20.39993,5.46631h10.26993V325.38574H284.96994Zm20.39993,5.46631H315.6398V330.85205H305.36987Zm20.39994,5.46631h10.26992V336.31836H325.76981Zm20.39993,5.46631h10.26993V341.78467H346.16974Zm20.39993,5.46631H376.8396V347.251H366.56967Zm20.39993,5.46631h10.26993V352.71729H386.9696Zm20.39994,5.4663h10.26993V358.18359H407.36954ZM427.76947,373.92H438.0394V363.6499H427.76947Zm20.39993,5.46631h10.26993V369.11621H448.1694Zm20.39994,5.46631h10.26992V374.58252H468.56934Zm20.39993,5.46631H499.2392V380.04883H488.96927Zm20.39993,5.46631h10.26993V385.51514H509.3692Zm20.39993,5.46631h10.26993V390.98145H529.76913Zm20.39994,5.4663H560.439V396.44775H550.16907Zm20.39993,5.46631h10.26993V401.91406H570.569Zm20.39993,5.46631h10.26993V407.38037H590.96893Zm20.39994,5.46631h10.26992V412.84668H611.36887Zm24.04464,1.8222h2.98157V421.9574h-2.98157ZM89.37927,300.44189h2.89887V297.543H89.37927Zm16.71479,9.15192H116.364V299.32373H106.09406Zm20.39993,5.46631h10.26993V304.79H126.494Zm20.39993,5.46631h10.26993V310.25635H146.89392Zm20.39993,5.46631h10.26993V315.72266H167.29385Zm20.39994,5.46631h10.26992V321.189H187.69379Zm20.39993,5.4663h10.26993V326.65527H208.09372Zm20.39993,5.46631h10.26993V332.12158H228.49365Zm20.39994,5.46631h10.26992V337.58789H248.89359Zm20.39993,5.46631h10.26993V343.0542H269.29352Zm20.39993,5.46631h10.26993V348.52051H289.69345Zm20.39993,5.46631h10.26993V353.98682H310.09338Zm20.39994,5.46631h10.26992V359.45312H330.49332Zm20.39993,5.4663h10.26993V364.91943H350.89325Zm20.39993,5.46631h10.26993V370.38574H371.29318Zm20.39994,5.46631H401.963V375.85205H391.69312Zm20.39993,5.46631H422.363V381.31836H412.09305Zm20.39993,5.46631h10.26993V386.78467H432.493Zm20.39993,5.46631h10.26993V392.251H452.89291Zm20.39994,5.46631h10.26992V397.71729H473.29285Zm20.39993,5.4663h10.26993V403.18359H493.69278ZM514.09271,418.92h10.26993V408.6499H514.09271Zm20.39994,5.46631h10.26992V414.11621H534.49265Zm20.39993,5.46631h10.26993V419.58252H554.89258Zm20.39993,5.46631h10.26993V425.04883H575.29251Zm20.39993,5.46631h10.26993V430.51514H595.69244Zm21.35285,4.51355h8.36517v-8.36518h-8.36517Zm-524.03-120.52124H98.316v-5.3006H93.01529Zm17.91565,7.95105h10.26993V322.4585H110.93094Zm20.39993,5.46631H141.6008V327.9248H131.33087Zm20.39993,5.4663h10.26993V333.39111H151.7308Zm20.39994,5.46631h10.26993V338.85742H172.13074Zm20.39993,5.46631H202.8006V344.32373H192.53067Zm20.39993,5.46631h10.26993V349.79H212.9306Zm20.39994,5.46631h10.26992V355.25635H233.33054Zm20.39993,5.46631H264.0004V360.72266H253.73047Zm20.39993,5.46631h10.26993V366.189H274.1304Zm20.39993,5.4663h10.26993V371.65527h-10.2626Zm20.39994,5.46631H325.2002V377.12158H314.93774ZM335.3302,392.858h10.26993V382.58789H335.33768Zm20.39993,5.46631h10.26993V388.0542H355.73013Zm20.39994,5.46631H386.4V393.52051H376.13007ZM396.53,409.2569h10.26993V398.98682H396.53Zm20.39993,5.46631h10.26993V404.45312H416.92993Zm20.39993,5.4663h10.26993V409.91943H437.32986Zm20.39994,5.46631h10.26993V415.38574H457.7298Zm20.39993,5.46631h10.26993V420.85205H478.12973Zm20.39993,5.46631h10.26993V426.31836H498.52966Zm20.39994,5.46631h10.26992V431.78467H518.9296Zm20.39993,5.46631h10.26993V437.251H539.32953Zm20.39993,5.46631h10.26993V442.71729H559.72946Zm20.39993,5.4663h10.26993V448.18359H580.12939ZM600.52933,463.92h10.26993V453.6499H600.52933Zm24.12735,1.7392h2.816v-2.81586h-2.816ZM96.88263,348.779h7.03995v-7.0401H96.88263Zm18.78525,7.0813h10.26993V345.59021H115.66788Zm20.39993,5.46631h10.26993V351.05652H136.06781Zm20.39993,5.46631h10.26993V356.52283H156.46774Zm20.39994,5.46631H187.1376V361.98914H176.86768Zm20.39993,5.4663h10.26993V367.45544H197.26761Zm20.39993,5.46631h10.26993V372.92175H217.66754Zm20.39993,5.46631H248.3374V378.38806H238.06747Zm20.39994,5.46631h10.26993V383.85437H258.46741Zm20.39993,5.46631h10.26993V389.32068H278.86734Zm20.39993,5.46631H309.5372V394.787H299.26727Zm20.39994,5.46631h10.26992V400.2533H319.66721Zm20.39993,5.46631h10.26993V405.7196H340.06714Zm20.39993,5.4663H370.737V411.18591H360.46707ZM380.867,426.9223h10.26993V416.65222H380.867Zm20.39994,5.46631h10.26993V422.11853H401.26694Zm20.39993,5.46631H431.9368V427.58484H421.66687Zm20.39993,5.46631h10.26993V433.05115H442.0668Zm20.39994,5.46631h10.26992V438.51746H462.46674Zm20.39993,5.46631H493.1366V443.98376H482.86667Zm20.39993,5.4663h10.26993V449.45007H503.2666Zm20.39993,5.46631h10.26993V454.91638H523.66653Zm20.39994,5.46631H554.3364V460.38269H544.06647Zm20.39993,5.46631h10.26993V465.849H564.4664Zm20.39993,5.46631h10.26993V471.31531H584.86633Zm22.09824,3.76831h6.87424v-6.87439h-6.87424ZM84.6846,362.96875h.08v-.08h-.08Zm16.54907,9.31763H109.019V364.501h-7.78534Zm19.158,6.70868h10.26993V368.725H120.39169Zm20.39994,5.4663h10.26992V374.19128H140.79163Zm20.39993,5.46631h10.26993V379.65759H161.19156Zm20.39993,5.46631h10.26993V385.1239H181.59149Zm20.39993,5.46631h10.26993V390.59021H201.99142Zm20.39994,5.46631h10.26993V396.05652H222.39136Zm20.39993,5.46631h10.26993V401.52283H242.79129Zm20.39993,5.46631h10.26993V406.98914H263.19122Zm20.39994,5.4663h10.26992V412.45544H283.59116Zm20.39993,5.46631H314.261V417.92175H303.99109Zm20.39993,5.46631H334.661V423.38806H324.391Zm20.39993,5.46631h10.26993V428.85437H344.791Zm20.39994,5.46631h10.26993V434.32068H365.19089Zm20.39993,5.46631h10.26993V439.787H385.59082Zm20.39993,5.46631h10.26993V445.2533H405.99075Zm20.39994,5.46631h10.26992V450.7196H426.39069Zm20.39993,5.4663h10.26993V456.18591H446.79062Zm20.39993,5.46631h10.26993V461.65222H467.19055Zm20.39993,5.46631h10.26993V467.11853H487.59048Zm20.39994,5.46631h10.26993V472.58484H507.99042Zm20.39993,5.46631h10.26993V478.05115H528.39035Zm20.39993,5.46631h10.26993V483.51746H548.79028Zm20.39994,5.46631h10.26992V488.98376H569.19022Zm20.6488,5.21789h9.77325v-9.776H589.839Zm25.08.787h.414v-.41412h-.414ZM89.409,386.10382H89.489v-.08H89.409Zm16.54907,9.31763h7.78534v-7.78534h-7.76581Zm19.158,6.70868h10.26993V391.86005H125.11612Zm20.39993,5.46631H155.786V397.32635H145.51605Zm20.39994,5.4663h10.26992V402.79266H165.916Zm20.39993,5.46631h10.26993V408.259H186.31592Zm20.39993,5.46631h10.26993V413.72528H206.73767Zm20.39993,5.46631h10.26993V419.19159h-10.248Zm20.39994,5.46631h10.26992V424.6579h-10.248Zm20.39993,5.46631h10.26993V430.12421H267.91565Zm20.39993,5.46631h10.26993V435.59052H288.31558Zm20.39994,5.4663h10.26992V441.05682H308.71552Zm20.39993,5.46631h10.26993V446.52313H329.11545Zm20.39993,5.46631h10.26993V451.98944H349.51538Zm20.39993,5.46631h10.26993V457.45575H369.91531Zm20.39994,5.46631h10.26992V462.92206H390.31525Zm20.39993,5.46631h10.26993V468.38837H410.71518Zm20.39993,5.46631H441.385V473.85468H431.11511Zm20.39994,5.4663H461.785V479.321H451.51505Zm20.39993,5.46631h10.26993V484.78729H471.915Zm20.39993,5.46631h10.26993V490.2536H492.31491ZM512.71484,505.99h10.26993V495.71991H512.71484Zm20.39994,5.46631H543.3847V501.18622H533.11478Zm20.39993,5.46631h10.26993V506.65253H553.51471Zm20.39993,5.46631h10.26993V512.11884H573.91464Zm24.37592,1.49078h2.319v-2.319h-2.319ZM94.16275,409.23462h.08v-.08h-.08Zm17.00455,8.862h6.87423v-6.87439h-6.87377Zm18.70239,7.16431h10.26993V414.99084H129.86969Zm20.39993,5.4663h10.26993V420.45715H150.26962Zm20.39994,5.46631h10.26992V425.92346H170.66956Zm20.39993,5.46631h10.26993V431.38977H191.06949Zm20.39993,5.46631h10.26993V436.85608H211.46942Zm20.39993,5.46631h10.26993V442.32239H231.86935Zm20.39994,5.46631h10.26993V447.7887H252.26929Zm20.39993,5.46631h10.26993V453.255H272.66922Zm20.39993,5.4663h10.26993V458.72131H293.06915Zm20.39994,5.46631H323.739V464.18762H313.46909ZM333.869,479.924H344.139V469.65393H333.869Zm20.39993,5.46631h10.26993V475.12024H354.269Zm20.39993,5.46631h10.26993V480.58655H374.66888Zm20.39994,5.46631h10.26993V486.05286H395.06882Zm20.39993,5.46631h10.26993V491.51917H415.46875Zm20.39993,5.4663h10.26993V496.98547H435.86868Zm20.39994,5.46631h10.26992V502.45178H456.26862Zm20.39993,5.46631h10.26993V507.91809H476.66855Zm20.39993,5.46631h10.26993V513.3844H497.06848Zm20.39993,5.46631h10.26993V518.85071H517.46841Zm20.39994,5.46631h10.26993V524.317H537.86835Zm20.39993,5.46631h10.26993V529.78333H558.26828Zm23.63007,2.236h3.81v-3.81012h-3.81ZM116.803,440.32013h5.05218v-5.05219H116.803Zm17.79144,8.07526h10.26993V438.12531H134.59442Zm20.39993,5.4663h10.26993V443.59161H154.99435Zm20.39994,5.46631h10.26993V449.05792H175.39429Zm20.39993,5.46631h10.26993V454.52423H195.79422Zm20.39993,5.46631h10.26993V459.99054H216.19415Zm20.39994,5.46631H246.864V465.45685H236.59409Zm20.39993,5.46631H267.264V470.92316H256.994Zm20.39993,5.46631h10.26993V476.38947H277.394Zm20.39993,5.4663h10.26993V481.85577H297.79388Zm20.39994,5.46631h10.26993V487.32208H318.19382Zm20.39993,5.46631h10.26993V492.78839H338.59375Zm20.39993,5.46631h10.26993V498.2547H358.99368Zm20.39994,5.46631h10.26992V503.721H379.39362Zm20.39993,5.46631h10.26993V509.18732H399.79355Zm20.39993,5.46631h10.26993V514.65363H420.19348Zm20.39993,5.4663h10.26993V520.11993H440.59341Zm20.39994,5.46631h10.26993V525.58624H460.99335Zm20.39993,5.46631h10.26993V531.05255H481.39328Zm20.39993,5.46631h10.26993V536.51886H501.79321Zm20.39994,5.46631h10.26992V541.98517H522.19315Zm20.39993,5.46631H552.863V547.45148H542.59308Zm23.382,2.48474h4.30679v-4.307h-4.3042ZM122.85355,462.12982h2.40188V459.726h-2.40188Zm16.67327,9.19342h9.856v-9.856h-9.856Zm20.19333,5.67322h10.26993V466.72638H159.7377Zm20.39994,5.46631H190.39V472.19269H180.12009ZM200.52,487.92908H210.79V477.659H200.52ZM220.92,493.39539h10.26993V483.12531H220.92Zm20.39994,5.4663h10.26992V488.59161H241.31989Zm20.39993,5.46631h10.26993V494.05792H261.71982Zm20.39993,5.46631h10.26993V499.52423H282.11975Zm20.39993,5.46631h10.26993V504.99054H302.51968Zm20.39994,5.46631h10.26992V510.45685H322.91962Zm20.39993,5.46631h10.26993V515.92316H343.31955Zm20.39993,5.46631h10.26993V521.38947H363.71948Zm20.39994,5.4663h10.26992V526.85577H384.11942Zm20.39993,5.46631h10.26993V532.32208H404.51935Zm20.39993,5.46631h10.26993V537.78839H424.91928Zm20.39993,5.46631h10.26993V543.2547H445.31921Zm20.39994,5.46631h10.26992V548.721H465.71915Zm20.39993,5.46631H496.389V554.18732H486.11908Zm20.39993,5.46631h10.26993V559.65363H506.519ZM526.919,575.39h10.26992V565.11993H526.919Zm23.67187,2.19483h3.72711v-3.72711h-3.72711Zm-422.05841-93.273h.497v-.49713h-.497Zm17.04605,8.82049h7.20566v-7.20581h-7.20566Zm18.86826,6.9986h10.26992V489.86084H164.44672Zm20.39993,5.46631h10.26993V495.32715H184.84665Zm20.39993,5.46631h10.26993V500.79346H205.24658Zm20.39993,5.46631h10.26993V506.25977H225.64651Zm20.39994,5.4663h10.26993V511.72607H246.04645Zm20.39993,5.46631h10.26993V517.19238H266.44638Zm20.39993,5.46631h10.26993V522.65869H286.84631Zm20.39994,5.46631h10.26992V528.125H307.24625Zm20.39993,5.46631h10.26993V533.59131H327.64618Zm20.39993,5.46631H358.316V539.05762H348.04611ZM368.446,554.794H378.716V544.52393H368.446Zm20.39994,5.4663h10.26993V549.99023H388.846Zm20.39993,5.46631h10.26993V555.45654H409.24591Zm20.39993,5.46631h10.26993V560.92285H429.64584Zm20.39994,5.46631H460.3157V566.38916H450.04578Zm20.39993,5.46631h10.26993V571.85547H470.44571Zm20.39993,5.46631h10.26993V577.32178H490.84564Zm20.60745,5.25909h9.856v-9.856h-9.856Zm24.21006,1.6565h2.23617v-2.23633h-2.23617Zm-382.95563-80.6427h2.40189v-2.402h-2.40189Zm17.00455,8.862h9.221v-9.19342h-9.19342Zm19.86206,6.00463h10.26993V518.4613H189.57413Zm20.39993,5.46631H220.244V523.92761H209.97406ZM230.374,539.664h10.26993V529.39392H230.374Zm20.39994,5.46631h10.26992V534.86023H250.77393Zm20.39993,5.46631h10.26993V540.32654H271.17386Zm20.39993,5.46631h10.26993V545.79285H291.57379Zm20.39993,5.46631h10.26993V551.25916H311.97372Zm20.39994,5.4663h10.26993V556.72546H332.37366Zm20.39993,5.46631h10.26993V562.19177H352.77359Zm20.39993,5.46631h10.26993V567.65808H373.17352Zm20.39994,5.46631h10.26992V573.12439H393.57346Zm20.39993,5.46631h10.26993V578.5907H413.97339Zm20.39993,5.46631h10.26993V584.057H434.37332Zm20.39993,5.46631h10.26993V589.52332H454.77325Zm20.39994,5.4663h10.26993V594.98962H475.17319Zm21.68411,4.18244h7.70264V601.7395H496.8573Zm24.00314,1.8634h.497v-.49713h-.497ZM158.595,535.83923h.08v-.08h-.08Zm18.57819,7.28852h3.72711v-3.72712h-3.72711Zm17.58438,8.28216h9.359v-9.364h-9.359Zm19.94476,5.92194h10.26993V547.06177H214.7023Zm20.39993,5.46631h10.26993V552.52808H235.10223Zm20.39994,5.46631h10.26992V557.99438H255.50217Zm20.39993,5.4663H286.172V563.46069H275.9021Zm20.39993,5.46631H306.572V568.927H296.302Zm20.39994,5.46631h10.26992V574.39331H316.702Zm20.39993,5.46631h10.26993V579.85962H337.1019Zm20.39993,5.46631h10.26993V585.32593H357.50183Zm20.39993,5.46631h10.26993V590.79224H377.90176Zm20.39994,5.46631h10.26992V596.25854H398.3017Zm20.39993,5.4663h10.26993V601.72485H418.70163Zm20.39993,5.46631h10.26993V607.19116H439.10156Zm20.89737,4.96918h9.27628V613.1543h-9.27628Zm23.63053,2.23633h2.816v-2.81586h-2.816Zm-299.90479-60.227h.08v-.08h-.05Zm19.11667,6.74988h2.65v-2.65015h-2.65Zm18.04,7.82684h7.37137V571.6452h-7.37137Zm19.03381,6.83288h10.10452V575.74493H239.95773Zm20.31754,5.549h10.26992V581.12823H260.2327Zm20.39993,5.4663h10.26993V586.59454H280.63263Zm20.39993,5.46631h10.26993V592.06085H301.03256Zm20.39994,5.46631h10.26992V597.52716H321.4325Zm20.39993,5.46631h10.26993V602.99347H341.83243Zm20.39993,5.46631h10.26993V608.45978H362.23236Zm20.39993,5.46631h10.26993V613.92609H382.63229Zm20.39994,5.46631h10.26992V619.3924H403.03223Zm21.39434,4.47235h8.28232v-8.28247h-8.28232Zm23.05069,2.81585h2.98157v-2.98156h-2.98157ZM229.1777,598.62457h.331v-.33111h-.331Zm19.158,6.70868h2.816V602.5174h-2.816Zm19.03366,6.83289h5.54917v-5.54932h-5.54917Zm19.48929,6.37726H294.23v-7.37122h-7.37137Zm19.94477,5.92193h8.28247v-8.28247h-8.28247Zm20.31753,5.549h8.448v-8.44848h-8.448Zm20.69,5.17639h7.8682v-7.86834H347.811Zm21.22864,4.63807h6.21185v-6.21186h-6.21185Zm21.64276,4.22393h3.72711v-3.7268h-3.72711Zm21.93253,3.934h.663v-.66315h-.663Z" fill="#5bcd3d"/>
        <polygon id="atom_18_line" data-name="atom 18 line" points="570.758 317.426 432.168 314.836 668.618 250.416 665.508 238.996 423.208 304.996 502.838 250.666 496.168 240.876 421.988 291.496 550.148 136.536 541.028 128.986 401.938 297.166 464.078 20.306 452.528 17.706 390.828 292.596 344.668 81.356 333.098 83.886 378.028 289.506 312.438 188.416 302.508 194.856 365.718 292.266 127.338 100.706 119.928 109.936 349.438 294.376 234.728 241.396 229.768 252.146 337.018 301.686 12.498 227.866 9.868 239.406 339.738 314.446 177.308 315.686 177.398 327.526 343.058 326.266 87.618 392.676 90.598 404.136 351.248 336.366 242.488 400.406 248.498 410.596 361.288 344.186 215.328 508.256 224.168 516.116 378.528 342.616 310.848 594.236 322.278 597.316 388.738 350.236 420.228 590.776 431.968 589.246 401.648 357.666 452.648 467.966 463.398 463.006 408.058 343.326 642.268 551.886 650.138 543.046 437.668 353.836 508.468 394.616 514.378 384.366 430.598 336.106 717.208 408.196 720.088 396.726 442.378 326.866 570.538 329.266 570.758 317.426" fill="#110a4c"/>
        <g id="atom_18_dots-b" data-name="atom 18 dots-b">
          <circle id="circle4553" cx="458.62762" cy="15.53833" r="15.53833" fill="#110a4c"/>
          <circle id="circle4555" cx="231.71921" cy="245.76202" r="15.53833" fill="#110a4c"/>
          <circle id="circle4557" cx="517.892" cy="392.8418" r="15.53833" fill="#110a4c"/>
          <circle id="circle4559" cx="721.33911" cy="403.16193" r="15.53833" fill="#110a4c"/>
          <circle id="circle4561" cx="425.11887" cy="587.64801" r="15.53833" fill="#110a4c"/>
          <circle id="circle4563" cx="15.53833" cy="235.26001" r="15.53833" fill="#110a4c"/>
          <circle id="circle4565" cx="175.50461" cy="322.5238" r="15.53833" fill="#110a4c"/>
          <circle id="circle4567" cx="246.26572" cy="405.17029" r="15.53833" fill="#110a4c"/>
          <circle id="circle4569" cx="316.45172" cy="591.62842" r="15.53833" fill="#110a4c"/>
          <circle id="circle4571" cx="568.58551" cy="322.41516" r="15.53833" fill="#110a4c"/>
          <circle id="circle4573" cx="503.31375" cy="243.76862" r="15.53833" fill="#110a4c"/>
          <circle id="circle4575" cx="338.90472" cy="85.04791" r="15.53833" fill="#110a4c"/>
        </g>
        <g id="atom_18_dots-a" data-name="atom 18 dots-a">
          <circle id="circle4578" cx="100.96802" cy="393.84644" r="22.19757" fill="#110a4c"/>
          <circle id="circle4580" cx="127.77115" cy="106.08002" r="22.19757" fill="#110a4c"/>
          <circle id="circle4582" cx="312.43805" cy="188.41278" r="22.19757" fill="#110a4c"/>
          <circle id="circle4584" cx="225.97824" cy="507.02148" r="22.19757" fill="#110a4c"/>
          <circle id="circle4586" cx="468.52081" cy="480.58533" r="22.19757" fill="#110a4c"/>
          <circle id="circle4588" cx="638.36914" cy="543.28979" r="22.19757" fill="#110a4c"/>
          <circle id="circle4590" cx="675.73166" cy="244.71191" r="22.19757" fill="#110a4c"/>
          <circle id="circle4592" cx="546.83365" cy="130.14923" r="22.19757" fill="#110a4c"/>
        </g>
      </g>
    </g>
  </g>
</svg>
