<svg xmlns="http://www.w3.org/2000/svg" width="813.0385" height="748.08303" viewBox="0 0 813.0385 748.08303">
  <g id="Layer_2" data-name="Layer 2">
    <g id="svg31">
      <g id="atom_02" data-name="atom 02">
        <polygon id="atom_02_bg" data-name="atom 02 bg" points="504.745 117.209 229.644 187.549 120.524 512.509 325.754 703.259 671.504 600.979 678.574 276.029 504.745 117.209" fill="#ffdbd6"/>
        <path id="atom_02_ht" data-name="atom 02 ht" d="M487.00985,72.50655l.24292.05-.05.24307-.24292-.05005Zm29.53613,7.7388,2.55188.542.542-2.55188-2.55188-.542Zm32.46124,5.63.12207.03006.02991-.12207-.12207-.03006ZM432.78469,94.57533l2.06573.439.43915-2.06573-2.06573-.439Zm26.05133,9.79233,10.20782,2.17L471.214,96.32994,461.00612,94.16Zm26.56708,9.45725,17.49908,3.71948,3.71948-17.49893L489.12288,96.326Zm31.5036,6.25183L533.555,123.6154l3.53882-16.64825-16.64825-3.53882Zm36.80786,2.80685,7.04834,1.49826,1.49811-7.04818-7.04834-1.49826Zm35.04,3.95523.365.08.07995-.365-.36407-.08ZM349.90719,108.331l.12207.03006.0299-.121-.12085-.03006Zm27.59857,8.78754,5.71136,1.214,1.214-5.71137-5.71136-1.21414Zm25.462,10.175,14.82544,3.15124,3.15125-14.82544L406.119,112.4681Zm28.70362,8.07006,18.59283,3.952,3.952-18.59268-18.59284-3.95188Zm30.914,6.63453,18.714,3.97766,3.978-18.71415-18.71429-3.97781Zm30.98755,6.5866,18.71429,3.97767,3.97766-18.71415-18.71429-3.97781Zm30.98755,6.58661L543.2748,159.149l3.97766-18.71414-18.71429-3.97781Zm31.5036,6.25183,17.86346,3.797,3.797-17.86346-17.86347-3.797Zm36.21856,3.19,9.23554,1.96319,1.96319-9.23553-9.23553-1.96289Zm35.99762,3.33313.972.20691.20691-.972-.972-.20691Zm-332.62085-37.7414,2.066.439.43915-2.06589-2.066-.439Zm25.75684,9.98368,10.69366,2.2731,2.27295-10.69382-10.69366-2.2731Zm26.56708,9.45755,17.98492,3.82293,3.82294-17.98492L351.806,131.66121Zm30.54565,6.87378,18.714,3.97766,3.97766-18.71415-18.714-3.97781Zm30.98755,6.5866,18.714,3.97767,3.97766-18.714-18.714-3.97767Zm30.98755,6.58661,18.714,3.97766,3.978-18.71429-18.71429-3.97766Zm30.98755,6.58661L490.206,180.2574l3.97766-18.714-18.71429-3.97766Zm30.98755,6.58661L521.1935,186.844l3.97766-18.71429-18.71429-3.97766Zm30.98755,6.58661,18.71429,3.97766,3.97766-18.714-18.714-3.978Zm30.98785,6.58661,18.714,3.978,3.97766-18.71429-18.714-3.97766Zm31.2088,6.44317,18.34992,3.90015,3.90014-18.34991-18.34991-3.90015Zm35.18707,3.85956,11.423,2.428,2.428-11.423-11.423-2.428Zm36.80817,2.807,1.82281.387.387-1.82281-1.82282-.387ZM212.63424,144.05654l.365.07995.07995-.365-.365-.07995Zm27.525,8.83545,6.07605,1.2915,1.2915-6.07605-6.07605-1.2915Zm25.462,10.17486,15.19012,3.22876,3.22876-15.19012-15.19012-3.22876Zm28.851,7.97424,18.71429,3.97767,3.97767-18.714-18.7143-3.978Zm30.98755,6.58661,18.71429,3.978,3.97766-18.7143-18.714-3.97766Zm30.98785,6.58661,18.714,3.97766,3.97766-18.71429L360.42537,165.5Zm30.98755,6.58661,18.714,3.97766,3.97766-18.714-18.714-3.97766Zm30.98755,6.58661,18.714,3.97766,3.978-18.71429-18.7143-3.97766Zm30.98755,6.58661,18.71429,3.97766,3.97766-18.714L453.388,185.26015Zm30.98755,6.58661,18.71429,3.978,3.97766-18.71429-18.71429-3.97766Zm30.98755,6.58661,18.71429,3.97766,3.97766-18.714-18.714-3.978Zm30.98785,6.58661,18.714,3.978,3.97766-18.71429L546.351,205.02Zm30.98755,6.5866,18.714,3.97767,3.97766-18.7143-18.714-3.97766Zm30.98755,6.58661,18.714,3.97766,3.978-18.714-18.71429-3.97766Zm30.98755,6.58661,18.71429,3.97766,3.97766-18.71429-18.71429-3.97766Zm34.082,4.577,13.60992,2.89306,2.89276-13.60992-13.60992-2.89307Zm37.39746,2.424,3.038.64606.64606-3.038-3.038-.64606ZM190.47878,171.79824l.48614.10314.10315-.48614-.48614-.10315Zm20.89416,13.14147,17.1344,3.642,3.642-17.1344-17.1344-3.642Zm30.02991,7.20856,18.7143,3.978,3.97766-18.7143-18.7143-3.97766Zm30.98755,6.58661,18.71429,3.97766,3.97767-18.714-18.7143-3.978Zm30.98755,6.58661,18.71429,3.97766,3.97766-18.714-18.714-3.97766Zm30.98785,6.58661,18.714,3.97766,3.97766-18.71429-18.714-3.97767Zm30.98755,6.58661,18.714,3.97766,3.97766-18.714-18.714-3.97766Zm30.98755,6.58661,18.714,3.97766,3.978-18.7143-18.7143-3.97766Zm30.98755,6.58661,18.71429,3.97766,3.97767-18.714-18.7143-3.97766Zm30.98755,6.5866,18.71429,3.978,3.97766-18.71429-18.71429-3.97767Zm30.98755,6.58661,18.71429,3.97766,3.97766-18.714-18.714-3.978Zm30.98785,6.58661,18.714,3.97766,3.97766-18.714-18.714-3.97766Zm30.98755,6.58661,18.714,3.97766,3.97766-18.71429-18.714-3.97766ZM582.2665,264.601l18.714,3.97766,3.978-18.714L586.24416,245.887Zm30.98755,6.58661,18.71429,3.97766L635.946,256.451l-18.71429-3.97767Zm30.98755,6.58661,18.71429,3.97766,3.97766-18.714L648.21926,259.059Zm31.0614,6.53869,18.59253,3.952,3.952-18.59253-18.59253-3.952Zm40.19714.60608,3.40271.723.723-3.4024-3.4024-.723ZM193.04836,210.19332l10.93689,2.32483,2.32483-10.93689-10.93689-2.32483Zm26.27258,9.64874,18.7143,3.978,3.97766-18.71429-18.7143-3.97766Zm30.98755,6.58661,18.7143,3.97766,3.97766-18.714-18.7143-3.978Zm30.98755,6.58661,18.71429,3.97766,3.97767-18.714-18.714-3.97766Zm30.98785,6.58661,18.714,3.97766,3.97766-18.7143-18.714-3.97766Zm30.98755,6.5866,18.714,3.97767,3.97766-18.714-18.714-3.97767ZM374.259,252.7751l18.714,3.97766,3.978-18.71429-18.7143-3.97766Zm30.98755,6.58661,18.71429,3.97766,3.97767-18.714-18.7143-3.978Zm30.98755,6.58661,18.71429,3.978L458.926,251.212l-18.71429-3.97766Zm30.98755,6.58661,18.71429,3.97766,3.97766-18.71429-18.714-3.97766Zm30.98785,6.58661,18.714,3.97766,3.97766-18.714-18.714-3.97766Zm30.98755,6.58661,18.714,3.97766,3.97766-18.7143-18.714-3.97766Zm30.98755,6.58661,18.714,3.97766,3.978-18.714-18.7143-3.97766Zm30.98755,6.58661,18.71429,3.97766,3.97766-18.7143-18.71429-3.97766Zm30.98755,6.5866,18.71429,3.97767,3.97766-18.714-18.71429-3.978Zm30.98755,6.58661,18.71429,3.978,3.97766-18.7143-18.714-3.97766Zm32.53479,5.582,16.16241,3.43537,3.43536-16.16211-16.1621-3.43537Zm40.71289.271.12207.02991.0299-.12085-.12207-.02991ZM175.31307,235.06423l3.76709.80108.80109-3.76709-3.76709-.80108Zm21.92566,12.47162,18.71429,3.978,3.97766-18.71429-18.71429-3.97766Zm30.98755,6.5866,18.71429,3.97767,3.97766-18.7143-18.71429-3.97766Zm30.98755,6.58661,18.71429,3.97766,3.97766-18.714-18.714-3.97766Zm30.98785,6.58661,18.714,3.97766,3.97766-18.71429-18.714-3.97766Zm30.98755,6.58661,18.714,3.97766,3.97766-18.714-18.714-3.97766Zm30.98755,6.58661,18.714,3.97766,3.978-18.71429-18.71429-3.97766Zm30.98755,6.58661,18.71429,3.97766,3.97766-18.714-18.71429-3.978Zm30.98755,6.58661,18.71429,3.978,3.97766-18.71429-18.71429-3.97766Zm30.98754,6.58661,18.7143,3.97766,3.97766-18.7143-18.714-3.97766Zm30.98786,6.58661,18.714,3.97766,3.97766-18.714-18.714-3.97766Zm30.98755,6.5866,18.714,3.97767,3.97766-18.7143-18.714-3.97766Zm30.98755,6.58661,18.714,3.97766,3.978-18.714L542.08,301.27455Zm30.98754,6.58661,18.7143,3.978,3.97766-18.7143-18.71429-3.97766Zm30.98755,6.58661,18.7143,3.97766,3.97766-18.714-18.7143-3.978Zm30.98755,6.58661,18.7143,3.97766,3.97766-18.714-18.714-3.97766Zm30.98786,6.58661,18.714,3.97766,3.97766-18.71429-18.714-3.97767Zm36.58691,2.95013,9.47845,2.01477,2.01478-9.47845-9.47846-2.01477ZM177.29305,273.842l15.19012,3.22876,3.22876-15.19013-15.19012-3.22876Zm28.851,7.97424,18.7143,3.97766,3.97766-18.71429-18.7143-3.97766Zm30.98755,6.58661,18.7143,3.97766,3.97766-18.714-18.714-3.97766Zm30.98786,6.58661,18.714,3.97766,3.97767-18.71429-18.714-3.97767Zm30.98754,6.58661,18.714,3.97766,3.97766-18.714-18.714-3.97766Zm30.98755,6.58661,18.714,3.978,3.978-18.71429-18.7143-3.97766Zm30.98755,6.58661,18.7143,3.97766,3.97766-18.714-18.7143-3.978Zm30.98755,6.5866,18.7143,3.97767,3.97766-18.714-18.7143-3.97767Zm30.98755,6.58661,18.71429,3.97766,3.97767-18.71429-18.714-3.97858Zm30.98785,6.58661,18.714,3.97766,3.97766-18.714-18.714-3.97766Zm30.98755,6.58661,18.714,3.97766,3.97766-18.71429-18.714-3.97766Zm30.98755,6.58661,18.714,3.97766,3.978-18.714-18.7143-3.97766Zm30.98755,6.58661,18.71429,3.978,3.97767-18.71429-18.7143-3.97766Zm30.98755,6.58661,18.71429,3.97766,3.97766-18.714-18.71429-3.978Zm30.98755,6.58661,18.71429,3.97766,3.97766-18.714-18.714-3.97766Zm30.98785,6.58661,18.714,3.97766,3.97766-18.7143-18.714-3.97766Zm30.98755,6.5866,18.714,3.97767,3.97766-18.714-18.714-3.97767Zm39.8288.845,4.13177.878.878-4.13178-4.13177-.878ZM159.63131,298.665l7.89886,1.67907,1.67908-7.89886-7.89887-1.67877Zm24.43054,10.845,18.71429,3.97766,3.97766-18.7143-18.71429-3.97766Zm30.98755,6.58661,18.71429,3.97766,3.97766-18.714-18.714-3.97766Zm30.98785,6.58661,18.714,3.97766,3.97766-18.7143-18.714-3.97766Zm30.98755,6.5866,18.714,3.97767,3.97766-18.714-18.714-3.978Zm30.98755,6.58661,18.714,3.978,3.978-18.7143L311.99,317.14247Zm30.98755,6.58661,18.71429,3.97766,3.97766-18.71429-18.71429-3.97766Zm30.98755,6.58661,18.71429,3.97766,3.97766-18.714-18.71429-3.97766Zm30.98755,6.58661,18.71429,3.97766,3.97766-18.71429L404.953,336.902Zm30.98785,6.58661,18.714,3.97766,3.97766-18.714-18.714-3.97766Zm30.98755,6.58661,18.714,3.97766,3.97766-18.7143-18.714-3.97766Zm30.98755,6.58661,18.714,3.97766,3.978-18.714-18.71429-3.978Zm30.98755,6.58661,18.71429,3.978,3.97766-18.71429-18.71429-3.97766Zm30.98754,6.5866,18.7143,3.97767,3.97766-18.7143L559.89071,369.835Zm30.98755,6.58661,18.7143,3.97766,3.97766-18.714-18.7143-3.97766Zm30.98786,6.58661,18.714,3.97766,3.97766-18.71429-18.714-3.97766Zm30.98755,6.58661,18.714,3.97766,3.97766-18.714-18.714-3.97766Zm32.09289,5.86914,16.89148,3.59009,3.59009-16.89118-16.89118-3.59008Zm40.86.17487.60791.12909.12909-.60791-.60791-.12909Zm-580.228-90.62592,1.21521.25787.25787-1.2152-1.21521-.25788Zm20.67322,13.28491,18.22815,3.87452,3.87451-18.22815L166.14864,318.784Zm30.69305,6.778,18.7143,3.97766,3.97766-18.714-18.714-3.97766Zm30.98786,6.58661,18.714,3.97766,3.97766-18.7143-18.714-3.97766Zm30.98755,6.58661,18.714,3.97766,3.97767-18.714-18.714-3.978Zm30.98754,6.5866,18.714,3.978,3.978-18.71429L289.9078,344.836Zm30.98755,6.58661,18.7143,3.97766,3.97766-18.71429-18.7143-3.97766Zm30.98755,6.58661,18.7143,3.97766,3.97766-18.714-18.7143-3.97766Zm30.98755,6.58661,18.7143,3.97766,3.97766-18.71429-18.714-3.97766Zm30.98785,6.58661,18.714,3.97766,3.97767-18.714-18.714-3.97766Zm30.98755,6.58661,18.714,3.978,3.97766-18.7143-18.714-3.97766Zm30.98755,6.58661,18.714,3.97766,3.978-18.714-18.7143-3.978Zm30.98755,6.58661,18.7143,3.97766,3.97766-18.714-18.7143-3.97766Zm30.98755,6.58661,18.71429,3.97766,3.97767-18.7143-18.7143-3.97766Zm30.98755,6.5866,18.71429,3.97767,3.97766-18.714L568.796,404.11544Zm30.98785,6.58661,18.714,3.97766,3.97766-18.71429-18.714-3.97766Zm30.98755,6.58661,18.714,3.97766,3.97766-18.714-18.714-3.97766Zm30.98755,6.58661,18.714,3.978,3.97766-18.7143-18.714-3.97766ZM693.1158,446.353l11.5445,2.45392,2.45392-11.54449-11.5445-2.45392ZM143.80214,362.36159l12.27356,2.609,2.60895-12.27356L146.41109,350.088ZM170.885,371.4839l18.71429,3.97767,3.97766-18.714-18.714-3.97766Zm30.98785,6.58661,18.714,3.978,3.97766-18.71429-18.71368-3.97858Zm30.98755,6.58661,18.714,3.97766,3.97766-18.714-18.714-3.978Zm30.98755,6.58661,18.714,3.97766,3.978-18.714-18.7143-3.97766Zm30.98755,6.58661,18.71429,3.97766,3.97766-18.71429L298.81313,379.116ZM325.823,404.417l18.71429,3.97766,3.97766-18.714L329.80068,385.703Zm30.98755,6.58661,18.71429,3.97766,3.97766-18.7143-18.71429-3.97766Zm30.98785,6.58661,18.714,3.97766,3.97766-18.714-18.714-3.97827Zm30.98755,6.58661,18.714,3.978,3.97766-18.71429-18.714-3.97766Zm30.98755,6.5866,18.714,3.97767,3.97766-18.714-18.714-3.978ZM480.76107,437.35l18.71429,3.97766,3.97766-18.714L484.73873,418.636Zm30.98755,6.58661,18.71429,3.97766L534.44057,429.2l-18.71429-3.97766Zm30.98754,6.58661,18.7143,3.97766,3.97766-18.714-18.71429-3.97766Zm30.98755,6.58661,18.7143,3.97766,3.97766-18.71429-18.714-3.97766Zm30.98786,6.58661,18.714,3.97766,3.97766-18.714-18.714-3.978Zm30.98755,6.58661,18.714,3.978,3.97766-18.71429-18.714-3.97766Zm30.98755,6.58661,18.714,3.97766,3.978-18.7143-18.71429-3.97766Zm39.23919,1.228,5.10376,1.0849,1.0849-5.10376-5.10376-1.0849ZM126.1401,387.18459l4.9823,1.059,1.059-4.9823-4.98245-1.059Zm22.66235,11.9931,18.71429,3.97766,3.97766-18.714-18.714-3.978Zm30.98785,6.58661,18.714,3.978L202.482,391.028l-18.714-3.97766Zm30.98755,6.58661,18.714,3.97766,3.97766-18.71429-18.714-3.97767Zm30.98755,6.58661,18.714,3.97766,3.97766-18.714-18.714-3.97766Zm30.98755,6.58661,18.71429,3.97766,3.97766-18.7143-18.71429-3.97766Zm30.98755,6.58661,18.71429,3.97766,3.97766-18.714-18.71429-3.97766Zm30.98755,6.5866,18.71429,3.97767,3.97766-18.7143-18.71429-3.97766ZM365.7156,445.284l18.71429,3.97766,3.97766-18.714-18.714-3.978Zm30.98785,6.58661,18.714,3.978,3.97766-18.7143-18.714-3.97766Zm30.98755,6.58661,18.714,3.97766,3.97766-18.71429-18.714-3.97766Zm30.98755,6.58661,18.714,3.97766,3.978-18.714-18.71429-3.97766Zm30.98755,6.58661,18.71429,3.97766,3.97766-18.71429-18.71429-3.97767Zm30.98755,6.58661,18.71429,3.97766,3.97766-18.714L524.63131,459.503Zm30.98754,6.58661,18.7143,3.97766,3.97766-18.7143-18.714-3.97766Zm30.98786,6.58661,18.714,3.97766,3.97766-18.714-18.714-3.978Zm30.98755,6.5866,18.714,3.978,3.97766-18.71429-18.714-3.97767Zm30.98755,6.58661,18.714,3.97766,3.978-18.71429-18.71429-3.97766Zm31.3562,6.34735,18.10638,3.84858,3.84857-18.10669-18.10638-3.84858Zm41.74438-.39886.365.08.08-.365-.365-.08Zm-610.77347-97.5.24308.05.05-.24292-.24307-.05ZM128.04653,426.01l16.52679,3.51287,3.51288-16.52679-16.52679-3.51288Zm29.66156,7.44781,18.714,3.978,3.97766-18.7143-18.714-3.97766Zm30.98755,6.58661,18.714,3.97766,3.97766-18.71429-18.714-3.97766Zm30.98755,6.58661,18.714,3.97766,3.97766-18.714-18.714-3.97766Zm30.98754,6.58661,18.7143,3.97766,3.97766-18.7143-18.71429-3.97766Zm30.98755,6.58661,18.7143,3.97766,3.97766-18.714-18.7143-3.97766Zm30.98755,6.58661,18.7143,3.978,3.97766-18.71429-18.7143-3.97766Zm30.98755,6.5866,18.7143,3.97767,3.97766-18.714-18.714-3.978Zm30.98786,6.58661,18.714,3.97766,3.97767-18.714-18.714-3.97767Zm30.98754,6.58661,18.714,3.97766,3.97766-18.71429-18.714-3.97766Zm30.98755,6.58661,18.714,3.97766,3.978-18.714-18.7143-3.97766Zm30.98755,6.58661,18.7143,3.97766,3.97766-18.71429-18.7143-3.97766Zm30.98755,6.58661,18.7143,3.97766,3.97766-18.714-18.7143-3.97766Zm30.98755,6.58661,18.71429,3.978,3.97767-18.71429-18.714-3.97766Zm30.98785,6.58661,18.714,3.97766,3.97766-18.714-18.714-3.978Zm30.98755,6.58661,18.714,3.97766,3.97766-18.714-18.714-3.97766Zm30.98755,6.5866,18.714,3.97767,3.978-18.7143-18.7143-3.97766Zm30.98755,6.58661,18.71429,3.97766,3.97767-18.714-18.7143-3.97767Zm34.37683,4.38568,13.12409,2.78992,2.78991-13.12408-13.12408-2.78992ZM110.16353,450.9764l9.60007,2.04071,2.04056-9.59992-9.60007-2.0401Zm25.462,10.17486,18.71429,3.97766,3.97766-18.714-18.714-3.97766Zm30.98785,6.58661,18.714,3.97766,3.97766-18.71429-18.714-3.97766Zm30.98755,6.58661,18.714,3.97766,3.97766-18.714-18.714-3.97766Zm30.98755,6.58661,18.714,3.97766,3.978-18.71429-18.7143-3.97767Zm30.98755,6.58661,18.71429,3.97766,3.97766-18.714-18.71429-3.97766Zm30.98755,6.58661,18.71429,3.978,3.97766-18.71429-18.71429-3.97766Zm30.98755,6.58661,18.71429,3.97766,3.97766-18.714-18.714-3.978Zm30.98785,6.5866,18.714,3.97767,3.97766-18.714-18.714-3.97766Zm30.98755,6.58661,18.714,3.97766,3.97766-18.71429-18.714-3.97766Zm30.98755,6.58661,18.714,3.97766,3.978-18.714-18.71429-3.97766Zm30.98755,6.58661L464.216,530.995l3.97766-18.71429-18.71429-3.97766Zm30.98755,6.58661,18.71429,3.97766,3.97766-18.714-18.71429-3.978Zm30.98755,6.58661,18.71429,3.978,3.97766-18.7143-18.714-3.97766Zm30.98785,6.58661,18.714,3.97766,3.97766-18.7143-18.714-3.97766Zm30.98755,6.58661,18.714,3.97766,3.97766-18.714-18.714-3.97766Zm30.98755,6.58661,18.714,3.97766,3.978-18.7143-18.71429-3.97766Zm30.98755,6.5866,18.71429,3.97767,3.97766-18.714L635.40493,547.823Zm30.98754,6.58661,18.7143,3.97766,3.97766-18.71429-18.71429-3.97766Zm38.208,1.89789,6.80512,1.44654,1.44653-6.80512-6.80511-1.44653ZM92.35439,475.89522l2.552.542.542-2.55188-2.55188-.54291Zm21.26266,12.90222,18.59269,3.952,3.952-18.59284-18.59253-3.952Zm30.91416,6.63452,18.714,3.97766,3.97766-18.71429-18.714-3.97766Zm30.98755,6.58661,18.714,3.97766,3.97766-18.714-18.714-3.97766Zm30.98755,6.58661,18.714,3.97766,3.978-18.71429L210.484,489.89089Zm30.98754,6.58661,18.7143,3.97766,3.97766-18.714-18.71429-3.978Zm30.98755,6.58661,18.7143,3.978,3.97766-18.7143-18.7143-3.97766ZM299.469,528.365l18.7143,3.97766,3.97766-18.7143-18.714-3.97766Zm30.98786,6.58661,18.714,3.97766,3.97766-18.714-18.714-3.97766Zm30.98755,6.58661,18.714,3.97766,3.97767-18.7143-18.714-3.97766Zm30.98754,6.5866,18.714,3.97767,3.978-18.714-18.71429-3.97766Zm30.98755,6.58661,18.7143,3.97766,3.97766-18.71429-18.7143-3.97766Zm30.98755,6.58661,18.7143,3.97766,3.97766-18.714-18.7143-3.978Zm30.98755,6.58661,18.7143,3.978,3.97766-18.7143-18.714-3.97766Zm30.98785,6.58661,18.714,3.97766,3.97767-18.71429-18.714-3.97766ZM547.37,581.05788l18.714,3.97766,3.97766-18.714-18.714-3.97766Zm30.98755,6.58661,18.714,3.97766,3.978-18.7143-18.7143-3.97766Zm30.98755,6.58661,18.7143,3.97766,3.97766-18.714-18.7143-3.97766Zm30.98755,6.58661,18.71429,3.978,3.97767-18.71429-18.7143-3.97766Zm31.5036,6.25183,17.86347,3.797,3.797-17.86346-17.86346-3.797Zm40.86.17486,1.57989.336.336-1.57989-1.57989-.336ZM94.48177,514.57717l13.73184,2.9187,2.91886-13.732-13.73185-2.9187Zm27.96707,8.54827,18.71414,3.97767,3.97766-18.7143-18.71414-3.97766Zm30.9877,6.58661,18.714,3.97766,3.97766-18.714-18.714-3.97767Zm30.98755,6.58661,18.714,3.97766,3.978-18.71429-18.7143-3.97766Zm30.98755,6.58661,18.7143,3.97766,3.97766-18.714-18.7143-3.978Zm30.98755,6.58661,18.71429,3.978,3.97767-18.7143-18.7143-3.97766Zm30.98755,6.58661,18.71429,3.97766,3.97766-18.71429-18.714-3.97767Zm30.98785,6.58661,18.714,3.97766,3.97766-18.714-18.714-3.97766Zm30.98755,6.58661,18.714,3.97766,3.97766-18.7143-18.714-3.97766Zm30.98755,6.58661,18.714,3.97766,3.978-18.714-18.7143-3.97766Zm30.98755,6.5866,18.71429,3.978,3.97766-18.71429-18.71429-3.97766Zm30.98755,6.58661,18.71429,3.97766,3.97766-18.714-18.71429-3.978Zm30.98755,6.58661,18.71429,3.97766,3.97766-18.714-18.714-3.97766Zm30.98785,6.58661,18.714,3.97766,3.97766-18.71429-18.714-3.97766Zm30.98755,6.58661,18.714,3.97766,3.97766-18.714-18.714-3.97766Zm30.98755,6.58661,18.714,3.97766,3.978-18.71429L560.253,596.62367Zm30.98755,6.58661,18.71429,3.97766,3.97766-18.714-18.71429-3.97766Zm31.2088,6.44317,18.34991,3.90015L640.7217,613.918l-18.34992-3.90015Zm34.45007,4.33777L665.56,635.39168l2.68615-12.63824-12.63824-2.68616Zm36.88172,2.7591,2.91656.62011.62012-2.91656-2.91626-.62012ZM80.35625,537.10372l.60806.12909.12894-.60791-.60806-.12909Zm25.60944,10.07934,9.4786,2.01477,2.01477-9.47845-9.4786-2.01477Zm25.90408,9.888,17.86346,3.797,3.797-17.86346-17.86346-3.797Zm30.47211,6.92139,18.714,3.978,3.978-18.7143-18.71429-3.97766Zm30.98755,6.58661,18.71429,3.97766,3.97766-18.714-18.71429-3.978Zm30.98755,6.58661,18.71429,3.97766,3.97766-18.714-18.71429-3.97766Zm30.98754,6.58661,18.7143,3.97766,3.97766-18.7143-18.714-3.97766Zm30.98786,6.5866,18.714,3.97767,3.97766-18.714L290.27,571.6249Zm30.98755,6.58661,18.714,3.97766,3.97766-18.71429-18.714-3.97766Zm30.98755,6.58661,18.714,3.97766,3.978-18.714-18.71429-3.978Zm30.98754,6.58661,18.7143,3.978,3.97766-18.7143-18.71429-3.97766Zm30.98755,6.58661,18.7143,3.97766,3.97766-18.714-18.7143-3.978Zm30.98755,6.58661,18.7143,3.97766,3.97766-18.714-18.714-3.97766Zm30.98786,6.58661,18.714,3.97766,3.97766-18.7143-18.714-3.97766Zm30.98754,6.58661,18.714,3.97766,3.97767-18.714-18.714-3.97766Zm30.98755,6.58661,18.714,3.97766,3.978-18.7143-18.7143-3.97766Zm31.57715,6.20391,17.742,3.77106,3.771-17.742-17.742-3.77106Zm36.21857,3.19,9.11407,1.93725,1.93726-9.11407L603.926,643.3116Zm35.77667,3.47656,1.21521.25787.25787-1.21521-1.21521-.25787ZM120.47084,577.82759l.24308.05005.05-.24292-.24308-.05005Zm26.56708,9.4574,7.53418,1.60126,1.60126-7.53418-7.53418-1.60156Zm25.24109,10.3186,17.01294,3.61634,3.61633-17.01294-17.01294-3.61634Zm29.95606,7.25647,18.71429,3.97767,3.97766-18.714-18.71429-3.97767Zm30.98754,6.58661,18.7143,3.97766L255.91457,596.71l-18.714-3.97766Zm30.98786,6.58661,18.714,3.97766,3.97766-18.714-18.714-3.97766Zm30.98755,6.58661,18.714,3.97766,3.97766-18.71429-18.714-3.97766Zm30.98755,6.58661,18.714,3.97766,3.978-18.714-18.71429-3.978Zm30.98755,6.58661,18.71429,3.978,3.97766-18.71429-18.71429-3.97766Zm30.98754,6.58661,18.7143,3.97766,3.97766-18.7143-18.71429-3.97766Zm30.98755,6.58661,18.7143,3.97766,3.97766-18.714-18.714-3.97766Zm30.98786,6.58661,18.714,3.97766,3.97766-18.7143-18.714-3.97766Zm30.98755,6.5866,18.714,3.97767,3.97767-18.714-18.714-3.97767Zm33.05053,5.24689,15.31159,3.2547,3.2547-15.31158-15.31159-3.2547Zm36.80817,2.807,5.71136,1.214,1.214-5.71137-5.71136-1.214ZM160.43819,618.6473l.12207.0299.02991-.12207-.12207-.0299Zm27.59857,8.78753,5.71137,1.214,1.214-5.71136-5.71137-1.214Zm24.72534,10.65338,16.04065,3.41,3.41-16.04065-16.04065-3.40943Zm29.36676,7.63916,18.714,3.97766,3.97767-18.714-18.714-3.97767Zm30.98755,6.58661,18.714,3.978,3.97766-18.7143L277.09407,633.6Zm30.98755,6.58661,18.714,3.97766,3.978-18.714-18.7143-3.978Zm30.98755,6.58661,18.7143,3.97766,3.97766-18.714-18.7143-3.97766Zm30.98755,6.58661,18.71429,3.97766,3.97767-18.71429-18.7143-3.97767Zm30.98755,6.58661,18.71429,3.97766,3.97766-18.714-18.714-3.97766Zm31.13495,6.49109,18.47107,3.92608,3.92608-18.47107-18.47107-3.92608Zm34.74518,4.14642,12.27356,2.609,2.60894-12.27356-12.27356-2.609Zm36.58691,2.95013,3.038.64606.64606-3.038-3.038-.64606ZM229.0356,667.58437l3.88855.827.827-3.88855-3.88855-.827ZM253.54,678.38149l14.58252,3.1,3.1-14.58252-14.58252-3.1Zm28.48266,8.2135,18.714,3.97766,3.978-18.714-18.7143-3.978Zm30.98755,6.58661,18.7143,3.97766,3.97766-18.714-18.7143-3.97766Zm30.98755,6.58661,18.7143,3.97766,3.97766-18.7143-18.7143-3.97766Zm31.6507,6.156,17.61993,3.74542,3.74542-17.61993-17.61993-3.74542Zm36.366,3.09387,8.74939,1.86005,1.86005-8.75-8.75-1.86005Zm35.70313,3.52448.972.20691.20691-.972-.972-.20691ZM269.81441,707.878l2.43012.517.517-2.43012-2.43011-.517Zm24.72534,10.65338,12.76,2.7121,2.7121-12.76-12.76-2.7121Zm29.66156,7.44781,14.9469,3.17719,3.17719-14.94721-14.94721-3.17718Zm36.73432,2.85462,5.46844,1.16241,1.16242-5.46844-5.46845-1.16242Zm34.23,4.4815.12207.02991.02991-.12207-.12085-.02991Zm-84.277,14.66462.48615.10315.10314-.48615-.48614-.10315Z" fill="#f65e4b"/>
        <path id="atom_02_line" data-name="atom 02 line" d="M457.35012,166.9908a19.03579,19.03579,0,1,0,0,.00031Zm-95.34,63.51349a19.0358,19.0358,0,1,0-19.036,19.03564h0a19.0357,19.0357,0,0,0,19.03534-19.03564Zm285.56641,39.20288a16.11527,16.11527,0,1,1-.00031,0ZM538.55068,298.54079c-25.60089-3.45215-52.66632-6.45691-81.43005-8.88519q-17.60789-21.53-35.889-42.48383c32.57721-41.65894,183.49273-227.971,236.09405-228.14758,3.35572-.00351,4.54193.929,5.5243,2.82867a31.44006,31.44006,0,0,1,2.17407,15.29709c-3.41156,61.4505-102.26563,223.17673-126.4737,261.39084ZM392.01076,285.377q9.8909-13.20648,19.96094-26.27014,12.17423,14.30419,24.02588,28.8913c-14.81079-1.06934-29.18091-1.92353-43.98712-2.62146Zm-154.0213.02991c-13.93311-23.03345-27.74933-47.60285-39.55994-71.26526a456.25229,456.25229,0,0,1-37.35321-98.15536c-6.02569-28.97385-3.65326-53,25.31922-47.43,62.53082,12.0549,170.62561,127.29676,214.4046,177.56989q-14.41131,19.07181-28.43659,38.432c-45.19439-1.6272-90.24627-1.48774-134.37408.849Zm-96.97327-19.1037a16.102,16.102,0,1,1-.0003,0ZM504.671,350.395c-11.21277-14.9646-22.53265-29.60053-34.11652-44.11377,21.23993,1.72821,40.65,3.70666,59.24652,5.92987q-12.38114,19.21234-25.13061,38.1839Zm83.9331,2.47711a20.01342,20.01342,0,1,1-.00061,0ZM303.6758,384.41481c-18.94653-26.33087-37.44995-53.61206-55.00641-81.65344,37.27082-2.04285,75.21637-2.565,111.987-1.91437-19.45923,27.31385-38.36883,55.00366-56.98028,83.56781Zm138.302,1.26129a37.9837,37.9837,0,1,0-37.9837,37.98371,37.98375,37.98375,0,0,0,37.9837-37.98371ZM586.24172,469.756c-22.25159-36.18378-46.16425-71.27625-71.17188-105.33875,12.13227-17.53448,23.61512-34.62463,33.5492-49.83276,60.90057,8.09174,142.53418,23.31543,198.63708,47.57477,45.49012,19.6466,73.977,44.76013,30.722,69.24316C731.27865,457.83553,627.117,467.26821,586.242,469.756Zm-149.10339,1.10535c23.83728-30.766,46.26647-61.264,67.93334-92.1048,21.21,29.79431,41.98,60.957,61.02875,92.05932-42.789,1.91315-86.31653,1.74988-128.96209.05ZM259.82021,454.51369q-32.69119-4.85412-65.06256-11.31989C131.72023,430.45485-20.99491,390.132,28.9323,349.99739c39.13849-31.48224,152.5856-42.82287,203.78647-46.26526,19.39178,32.00409,40.58472,64.01429,62.085,94.4043C282.05593,418.00185,270.6802,436.3597,259.82021,454.51369ZM366.5414,466.61421Q338.8,432.42888,313.01448,397.2676q31.08446-46.848,67.178-95.96619,34.54513,1.00571,69.20258,3.38989c15.68573,19.7879,30.82123,39.72412,45.5719,60.02014-8.83759,12.86011-50.5069,71.84113-76.09436,105.32379C402.21492,469.19631,385.14278,468.11232,366.5414,466.61421ZM275.01461,456.689c9.52636-15.49347,19.71222-31.53106,28.96728-45.70007,13.12653,18.20709,26.45752,35.98205,40.238,53.68011q-35.06058-3.289-69.205-7.98Zm119.94293,44.0448q-7.09031-8.29331-14.07715-16.68091c8.97736.538,17.60773.98908,26.11816,1.37268-3.7387,4.80164-7.40356,9.47114-12.041,15.30854ZM123.9413,474.79994a15.67072,15.67072,0,1,0-29.46853,0C96.86,480.37093,118.54152,487.40065,123.9413,474.79994Zm599.87336,60.96955a15.53464,15.53464,0,1,0,.0003.0003v-.0003Zm-562.90375-9.379a24.138,24.138,0,0,0,22.009-12.17346,16.34471,16.34471,0,0,0-3.64777-19.02893c-16.9812-16.9812-50.0885-1.16516-40.36987,19.02893a35.176,35.176,0,0,0,22.00867,12.17377Zm269.54864,89.92065a22.94724,22.94724,0,1,0-22.94738,22.94709h.0003A22.94707,22.94707,0,0,0,430.45955,616.31117Zm199.40674,83.89374c-64.05884-12.25525-180.27618-136.6275-225.27679-188.30414,8.3905-10.32806,14.54956-18.07617,20.59692-25.751,49.31732,1.71386,100.37567,1.38733,149.25568-1.53168,26.517,44.49249,82.5473,145.61371,79.632,196.32935a20.95243,20.95243,0,0,1-8.52936,18.45672,24.6485,24.6485,0,0,1-15.67871.80109ZM367.87716,661.05666a25.88074,25.88074,0,1,0-25.88074,25.88074h0a25.88076,25.88076,0,0,0,25.88074-25.88074ZM173.32363,689.995c-7.86194-45.49408,66.94855-175.59814,91.74225-216.93207,31.11206,4.13239,62.3352,7.24152,93.26416,9.494q12.74826,15.95261,25.86822,31.6037c-30.11658,37.22351-153.72833,184.84772-201.16943,185.13214a11.351,11.351,0,0,1-9.70551-9.29779Zm13.56872,22.02057C242.2961,705.1509,361.97048,563.59877,393.6224,525.28975,432.294,570.526,525.58437,672.7806,595.61824,707.88985c54.78516,27.4649,80.80506,5.60089,76.96259-39.33167-4.48853-52.48535-46.62506-130.60119-66.78009-165.87829q-5.58609-9.77142-11.36414-19.41467c281.56769-21.26648,290.82184-117.71,29.56452-170.49073q-33.21351-6.693-66.70227-11.57989A1613.43339,1613.43339,0,0,0,648.143,141.47109C662.18563,112.12813,694.92122,40.90956,679.244,12.218c-5.20935-9.53353-16.22254-15.26214-33.35358-10.52C577.8918,20.52306,444.21566,189.40871,409.8315,234.257,246.13063,50.87569,183.38558,54.58632,183.62667,54.76119a31.31238,31.31238,0,0,0-36.56006,24.98565q-.26505,1.40832-.40009,2.83646c-9.425,52.38007,51.16516,161.83426,75.69092,203.74924A799.07631,799.07631,0,0,0,80.76458,307.04665,185.77047,185.77047,0,0,0,19.011,333.38881c-24.27262,18.30811-27.06177,43.71185,1.92535,67.272,50.48584,41.03393,177.7388,62.90008,229.14322,70.325-22.97546,39.29992-99.19373,172.77832-89.09576,222.33642a21.55511,21.55511,0,0,0,23.81164,19.0329q1.05606-.11765,2.09686-.33905Z" fill="#110a4c"/>
      </g>
    </g>
  </g>
</svg>
