<svg xmlns="http://www.w3.org/2000/svg" width="727.16657" height="735.34738" viewBox="0 0 727.16657 735.34738">
  <g id="Layer_2" data-name="Layer 2">
    <g id="svg31">
      <g id="atom_03" data-name="atom 03">
        <polygon id="atom_03_bg" data-name="atom 03 bg" points="79.978 483.515 280.888 72.745 693.098 333.355 469.878 702.095 79.978 483.515" fill="#e7f9e0"/>
        <path id="atom_03_ht" data-name="atom 03 ht" d="M265.46873,35.99054l3.64563.775-.775,3.64563-3.64563-.775Zm30.36,10.13657,3.40256.723.723-3.40256-3.40256-.723Zm-52.84713,20.9642,3.038.64606.64606-3.038-3.038-.64606Zm21.55731,12.71087,18.59268,3.952,3.95187-18.59253-18.59253-3.952Zm31.72455,6.10825,17.37747,3.6937,3.69369-17.37748L299.9571,68.533Zm34.52407,4.29,11.5445,2.45377,2.45376-11.54435L333.2414,78.65594Zm35.18723,3.8594,4.61777.98206.982-4.61777-4.61776-.98205Zm33.64,4.8642.24308.05.05-.24307-.24308-.05ZM222.522,93.73315l.365.08.08-.365-.365-.08Zm21.11527,12.9979,16.64825,3.53866,3.53867-16.64825-16.64826-3.53867Zm29.73526,7.40005,18.71414,3.97782,3.97781-18.71414-18.71414-3.978Zm30.9877,6.58661,18.71414,3.97782,3.978-18.71415-18.71415-3.97781Zm30.9877,6.58676,18.71414,3.97782,3.97781-18.71414-18.71414-3.97782Zm31.35605,6.34735,18.10653,3.84873,3.84873-18.10654-18.10654-3.84872Zm34.15573,4.52927,12.88116,2.738,2.738-12.88117-12.88116-2.738Zm35.18722,3.85956,5.95459,1.26556,1.26557-5.95443-5.95444-1.26557Zm34.22943,4.48135.60807.12894.12893-.60806-.60806-.12894ZM224.43006,132.55945l11.909,2.53128,2.53128-11.909-11.909-2.53128Zm26.86188,9.26605,18.71414,3.97781,3.97782-18.71414-18.71415-3.978Zm30.9877,6.58661,18.71414,3.97781,3.978-18.71414L286.25761,129.698Zm30.9877,6.58676,18.71414,3.97781,3.97782-18.71414-18.71414-3.97781Zm30.9877,6.58661,18.71415,3.97781,3.97781-18.71414-18.71414-3.97781Zm30.98771,6.58676,18.71414,3.97781,3.97781-18.71414-18.71414-3.97781Zm30.98785,6.58661,18.71414,3.97781,3.97782-18.71414-18.71415-3.978Zm31.135,6.49094,18.47107,3.92608,3.92624-18.47107-18.47107-3.92624Zm33.56644,4.912,14.21783,3.02216,3.02216-14.21784-14.21784-3.02215Zm35.11352,3.90732,7.41272,1.57562L515.034,184.232l-7.41288-1.57562ZM540.717,194.2634l1.33667.284.284-1.33667-1.33667-.284Zm-335.64148-35.78,7.41287,1.57577,1.57562-7.41287-7.41272-1.57562Zm24.136,11.03622,18.71414,3.97782,3.97781-18.71415-18.71414-3.97781Zm30.9877,6.58661L278.9134,180.084l3.978-18.71414-18.71415-3.97781ZM291.187,182.693l18.71414,3.97782,3.97782-18.71415-18.71415-3.97781Zm30.9877,6.58661,18.71414,3.97782,3.97782-18.71415-18.71415-3.97781Zm30.9877,6.58676,18.71414,3.97782L375.85432,181.13l-18.71414-3.97781Zm30.98786,6.58661,18.71414,3.97782,3.97781-18.71415-18.71414-3.978Zm30.9877,6.58661,18.71414,3.978,3.97781-18.71414-18.71414-3.97782Zm30.9877,6.58676,18.71414,3.97782L468.81757,200.89l-18.71414-3.97781Zm30.9877,6.58661,18.71414,3.97781,3.978-18.71414-18.71414-3.97781Zm31.0614,6.53885,18.59253,3.952,3.952-18.59253-18.59253-3.952Zm32.90329,5.34271,15.43305,3.28,3.28-15.433-15.43305-3.28Zm35.04,3.95508,8.74954,1.86,1.86005-8.74955-8.74939-1.86Zm34.89243,4.0509,2.309.491.491-2.309-2.309-.491ZM185.64787,184.45581l3.038.64606.64606-3.038-3.038-.64605Zm21.63086,12.663,18.47107,3.92609,3.92623-18.47107L211.205,178.6477Zm30.84,6.68229,18.71414,3.97781,3.978-18.71414-18.71414-3.97782Zm30.9877,6.58676,18.71415,3.97781,3.97781-18.71414-18.71414-3.97781Zm30.98771,6.58661,18.71414,3.97781,3.97781-18.71414-18.71414-3.97782Zm30.9877,6.58661,18.71414,3.978,3.97781-18.71414-18.71414-3.97781Zm30.9877,6.58676,18.71414,3.97781,3.97781-18.71414-18.71414-3.978Zm30.98785,6.58661,18.71414,3.97781,3.97782-18.71414-18.71414-3.97782Zm30.9877,6.58676,18.71415,3.97781,3.97781-18.71414L428.0229,224.607Zm30.9877,6.58661,18.71415,3.97781,3.978-18.71414-18.71414-3.97782Zm30.98771,6.58676,18.71414,3.97781,3.97781-18.71414L489.9983,237.7804Zm30.9877,6.58661,18.71414,3.97781,3.97781-18.71414L520.986,244.367Zm30.9877,6.5866,18.71414,3.978,3.97781-18.71414-18.71414-3.97781Zm30.98785,6.58677,18.71414,3.97781,3.97782-18.71414-18.71414-3.978Zm32.31385,5.7254,16.52679,3.51288,3.51288-16.5268-16.5268-3.51288Zm34.81887,4.09866,10.20768,2.17,2.16995-10.20768-10.20767-2.17ZM681.23,289.9859l3.40256.723.723-3.40256-3.40256-.723Zm32.97684,5.2948.12207.03006.03006-.12207-.121-.03006ZM165.18781,211.098l.365.08.08-.365-.365-.08Zm21.04157,13.04566,16.77,3.5646,3.56445-16.77-16.77-3.5646Zm29.809,7.35214,18.71414,3.97781,3.978-18.71414-18.71414-3.97781Zm30.9877,6.58676,18.71414,3.97781,3.97782-18.71414-18.71415-3.97781Zm30.9877,6.58661,18.71414,3.97781,3.97782-18.71414-18.71414-3.978Zm30.9877,6.58661,18.71414,3.978,3.97782-18.71414-18.71414-3.97781Zm30.9877,6.58676,18.71415,3.97781,3.97781-18.71414L343.967,239.12836Zm30.98786,6.58661,18.71414,3.97781,3.97781-18.71414L374.95481,245.715Zm30.9877,6.58676,18.71414,3.97781,3.97782-18.71414-18.71415-3.97781Zm30.9877,6.58661,18.71414,3.97781,3.978-18.71414-18.71414-3.97781Zm30.9877,6.58676,18.71414,3.97781,3.97782-18.71414-18.71414-3.97735Zm30.9877,6.58661,18.71415,3.97781,3.97781-18.71414-18.71414-3.978Zm30.98771,6.58661,18.71414,3.978,3.97781-18.71414-18.71414-3.97781Zm30.98785,6.58676L575.6175,307.927l3.97782-18.71414-18.71415-3.97781Zm30.98785,6.5863,18.71415,3.97782,3.97781-18.71415L591.869,291.82138Zm30.98771,6.58676,18.71414,3.97782,3.978-18.71414-18.71414-3.97782Zm30.9877,6.58661,18.71414,3.97782,3.97781-18.71415-18.71414-3.97781Zm31.79824,6.06,17.37748,3.69354L702.736,316.085l-17.37747-3.69369Zm37.54487,2.32834,6.562,1.39481,1.3948-6.562-6.562-1.3948ZM167.09623,249.9238l11.909,2.53143,2.53128-11.909-11.909-2.53143Zm26.86157,9.26574,18.71414,3.97782,3.978-18.71414-18.71414-3.97782Zm30.9877,6.58677,18.71415,3.97781L247.63746,251.04l-18.71414-3.97782Zm30.98771,6.5866,18.71414,3.97782,3.97781-18.71414-18.71414-3.978Zm30.9877,6.58661,18.71414,3.978,3.97781-18.71414-18.71414-3.97782Zm30.9877,6.58677,18.71414,3.97781L340.60056,270.8l-18.71414-3.97782Zm30.98785,6.5866,18.71414,3.97782,3.97782-18.71414-18.71414-3.97782Zm30.9877,6.58677,18.71415,3.97781,3.97781-18.71414L383.862,279.99551Zm30.98771,6.5866,18.71414,3.97782,3.978-18.71414-18.71414-3.97782Zm30.9877,6.58661,18.71414,3.978,3.97781-18.71414-18.71414-3.97782Zm30.9877,6.58676,18.71414,3.97782,3.97781-18.71414-18.71414-3.978Zm30.9877,6.58661,18.71414,3.97782,3.97782-18.71414-18.71415-3.97782Zm30.98785,6.58677,18.71415,3.97781,3.97781-18.71414-18.71414-3.97782Zm30.98771,6.5866,18.71414,3.97782,3.97781-18.71414-18.71414-3.97782Zm30.9877,6.58677,18.71414,3.97781,3.978-18.71414-18.71414-3.97782Zm30.9877,6.5866,18.71414,3.97782,3.97781-18.71414-18.71414-3.97782Zm30.9877,6.58661,18.71414,3.978,3.97781-18.71414-18.71414-3.97782Zm34.22943,4.48151,13.36716,2.84134,2.84134-13.36731-13.36731-2.84134ZM147.74137,275.84817l7.41272,1.57563,1.57562-7.41287L149.317,268.4353Zm24.1359,11.03623,18.71414,3.97781,3.97781-18.71414-18.71414-3.97781ZM202.865,293.471l18.71414,3.978,3.97781-18.71414L206.84278,274.757Zm30.9877,6.58676,18.71414,3.97781,3.97782-18.71414-18.71415-3.978Zm30.9877,6.58661,18.71414,3.97781,3.97782-18.71414-18.71414-3.97781Zm30.9877,6.58676,18.71414,3.97781L318.52,298.49481,299.80589,294.517Zm30.98786,6.58661,18.71414,3.97781,3.97781-18.71414-18.71414-3.97781Zm30.9877,6.58676,18.71414,3.97781,3.97781-18.71414-18.71414-3.97781Zm30.9877,6.58661,18.71414,3.97781,3.978-18.71414-18.71414-3.978Zm30.9877,6.58661,18.71414,3.978,3.97782-18.71414-18.71415-3.97781Zm30.9877,6.58676,18.71414,3.97781,3.97782-18.71414-18.71414-3.978Zm30.9877,6.58661,18.71415,3.97781,3.97781-18.71414L485.73225,334.037Zm30.98786,6.58676,18.71414,3.97781,3.97781-18.71414-18.71414-3.97781Zm30.9877,6.58661,18.71414,3.97781,3.97781-18.71414-18.71414-3.97781Zm30.9877,6.58676,18.71414,3.97781,3.978-18.71414-18.71414-3.97781Zm30.9877,6.58661,18.71414,3.97781,3.97782-18.71414-18.71414-3.978Zm30.9877,6.58661,18.71415,3.978,3.97781-18.71414-18.71414-3.97781Zm32.68235,5.48614,15.91919,3.38379,3.38333-15.919-15.91919-3.38364Zm40.41809.462.365.08.08-.365-.365-.08ZM128.31358,301.82l3.038.64605.64606-3.038-3.038-.64606Zm21.55731,12.71087,18.59253,3.95188,3.952-18.59253-18.59268-3.952Zm30.914,6.63437,18.71414,3.978,3.97782-18.71414-18.71415-3.97782Zm30.9877,6.58676,18.71414,3.97782,3.97782-18.71414-18.71414-3.97782Zm30.9877,6.58661,18.71415,3.97782,3.97781-18.71415-18.7143-3.97735Zm30.9877,6.58676,18.71415,3.97782L296.44,326.18906l-18.71414-3.97782Zm30.98786,6.58661L323.45,351.48981l3.97781-18.71414-18.71414-3.97782Zm30.9877,6.58676,18.71414,3.97782,3.97782-18.71414-18.71415-3.97782Zm30.9877,6.58661,18.71414,3.97782,3.978-18.71414-18.71414-3.978ZM397.699,367.272l18.71414,3.978,3.97782-18.71414L401.67677,348.558Zm30.9877,6.58676,18.71415,3.97782,3.97781-18.71414-18.71414-3.97782Zm30.98771,6.58661,18.71414,3.97782,3.97781-18.71415-18.71414-3.97781Zm30.98785,6.58676,18.71414,3.97782,3.97782-18.71414L494.64,368.318Zm30.9877,6.58661,18.71414,3.97782,3.97782-18.71414-18.71415-3.97782Zm30.9877,6.58661,18.71414,3.978,3.978-18.71414-18.71414-3.97782Zm30.9877,6.58676,18.71415,3.97782,3.97781-18.71414-18.71414-3.978Zm30.98771,6.58661,18.71414,3.97782,3.97781-18.71415-18.71414-3.97781Zm31.57714,6.20392,17.742,3.77121,3.77121-17.742-17.742-3.77121Zm40.86.175,1.45828.31006.31006-1.45828-1.45813-.31006ZM107.85383,328.46185l.365.08.08-.365-.365-.08Zm20.96786,13.09357,16.89133,3.58994L149.303,328.254l-16.89133-3.58994Zm29.88266,7.30423,18.71415,3.978,3.978-18.71415-18.71414-3.97781Zm30.98771,6.58676,18.71414,3.97781,3.97781-18.71414-18.71414-3.97781Zm30.9877,6.58661,18.71414,3.97781,3.97781-18.71414-18.71414-3.97781Zm30.9877,6.58676,18.71414,3.97782,3.97781-18.71415-18.71414-3.97781Zm30.98785,6.58661,18.71414,3.97781,3.97782-18.71414-18.71414-3.97781ZM313.643,381.793l18.71415,3.978,3.97781-18.71415L317.62083,363.079Zm30.98771,6.58676,18.71414,3.97781,3.978-18.71414-18.71414-3.978Zm30.9877,6.58661,18.71414,3.97781L398.31037,380.23l-18.71414-3.97781Zm30.9877,6.58676,18.71414,3.97781,3.97781-18.71414L410.58393,382.839Zm30.9877,6.58661,18.71414,3.97781,3.97782-18.71414-18.71415-3.97781Zm30.98785,6.58676,18.71415,3.97782,3.97781-18.71415-18.71414-3.97781Zm30.98771,6.58661,18.71414,3.97781,3.97781-18.71414L503.54719,402.599Zm30.9877,6.58661,18.71414,3.978,3.978-18.71415L534.535,409.18573Zm30.9877,6.58676,18.71414,3.97781,3.97781-18.71414-18.71414-3.978Zm30.9877,6.58661,18.71414,3.97781,3.97782-18.71414L596.51029,422.359Zm31.0614,6.53885,18.59253,3.952,3.952-18.59252-18.59253-3.952Zm40.19714.60592,3.40256.723.723-3.40256-3.40255-.723ZM109.61469,367.38412l12.1521,2.583,2.583-12.15194-12.1521-2.583ZM136.624,376.5542l18.71414,3.97781,3.978-18.71414-18.71414-3.97781Zm30.9877,6.58676,18.71414,3.97781,3.97782-18.71414-18.71414-3.97781Zm30.9877,6.58661,18.71415,3.97781,3.97781-18.71414-18.71414-3.97781Zm30.98771,6.58676,18.71414,3.97781L252.279,381.578l-18.71414-3.97781Zm30.98785,6.58661,18.71414,3.97781,3.97782-18.71414-18.71415-3.978Zm30.9877,6.58661,18.71414,3.978,3.97782-18.71415-18.71415-3.97781Zm30.9877,6.58676,18.71414,3.97781,3.978-18.71414-18.71414-3.97781Zm30.9877,6.58661,18.71415,3.97781L376.23,407.92459l-18.71414-3.97781Zm30.98771,6.58676,18.71414,3.97781,3.97781-18.71414-18.71414-3.97781Zm30.9877,6.58661,18.71414,3.97781,3.97781-18.71414-18.71414-3.97781Zm30.98785,6.58676,18.71414,3.97781,3.97782-18.71414-18.71415-3.97781Zm30.9877,6.58661,18.71414,3.97781,3.97782-18.71414-18.71414-3.978Zm30.9877,6.58661,18.71415,3.978,3.978-18.71414-18.71414-3.97781Zm30.9877,6.58676,18.71415,3.97781,3.97781-18.71414-18.71414-3.97781Zm30.98771,6.58661,18.71414,3.97781,3.97781-18.71414-18.71414-3.97781Zm30.9877,6.58676,18.71414,3.97781,3.97781-18.71414-18.71414-3.97781Zm38.65,1.61072,6.07605,1.2915,1.29151-6.07605-6.07605-1.2915ZM90.40769,393.213l7.41272,1.57562,1.57578-7.41272-7.41287-1.57577Zm24.1359,11.03623,18.71414,3.97781,3.978-18.71414-18.71415-3.97705Zm30.9877,6.58676,18.71414,3.97781,3.97781-18.71414-18.71414-3.97781Zm30.9877,6.58661,18.71414,3.97781,3.97782-18.71414-18.71415-3.97782Zm30.9877,6.58676,18.71414,3.97781,3.97782-18.71414-18.71414-3.97781Zm30.98786,6.58661,18.71414,3.97781,3.97781-18.71414-18.71414-3.978Zm30.9877,6.58661,18.71414,3.978,3.97781-18.71414-18.71414-3.97781Zm30.9877,6.58676,18.71414,3.97781,3.978-18.71414-18.71414-3.97781Zm30.9877,6.58661,18.71414,3.97781,3.97782-18.71414-18.71415-3.97782Zm30.9877,6.58676,18.71414,3.97781,3.97782-18.71414-18.71414-3.97781Zm30.9877,6.58661,18.71415,3.97781L416.125,448.793l-18.71414-3.97782Zm30.98786,6.58661,18.71414,3.978,3.97781-18.71414-18.71414-3.97781Zm30.9877,6.58676,18.71414,3.97781,3.97781-18.71414-18.71414-3.978Zm30.9877,6.58661,18.71414,3.97781,3.978-18.71414-18.71414-3.97782ZM517.384,489.876l18.71414,3.97781,3.97782-18.71414-18.71414-3.97781Zm30.9877,6.58661,18.71414,3.97781,3.97782-18.71414-18.71414-3.97782Zm30.9877,6.58676,18.71415,3.97781,3.97781-18.71414-18.71414-3.97781Zm36.88187,2.75894,8.99246,1.91147,1.91147-8.99246-8.99246-1.91147ZM70.97959,419.18542l3.038.64606.64605-3.038-3.038-.64606ZM92.4632,431.94406l18.71415,3.97781,3.978-18.71414-18.71414-3.97781Zm30.98771,6.58676,18.71414,3.97782,3.97781-18.71415-18.71414-3.97781Zm30.9877,6.58661,18.71414,3.97782,3.97781-18.71415-18.71414-3.97781Zm30.9877,6.58661,18.71414,3.978,3.97781-18.71415-18.71414-3.97781Zm30.98785,6.58676,18.71414,3.97782,3.97782-18.71415-18.71414-3.978Zm30.9877,6.58661,18.71415,3.97781,3.97781-18.71414-18.71414-3.97781Zm30.98771,6.58676,18.71414,3.97782,3.978-18.71415L282.36753,452.75Zm30.9877,6.58661,18.71414,3.97781,3.97781-18.71414-18.71414-3.97781Zm30.9877,6.58676,18.71414,3.97782,3.97781-18.71415-18.71414-3.97781Zm30.9877,6.58661,18.71414,3.97782,3.97782-18.71415L375.33048,472.51Zm30.98785,6.58661,18.71415,3.978,3.97781-18.71415-18.71384-3.97781Zm30.98771,6.58676,18.71414,3.97782,3.97781-18.71415-18.71414-3.978Zm30.9877,6.58661,18.71414,3.97781,3.978-18.71414L468.29389,492.27Zm30.9877,6.58676,18.71414,3.97782,3.97781-18.71415-18.71414-3.97781Zm30.9877,6.58661,18.71414,3.97781,3.97782-18.71414-18.71415-3.97781Zm30.9877,6.58676,18.71414,3.97782,3.97782-18.71415-18.71415-3.97781ZM592.54,534.55591l11.666,2.48,2.48-11.666-11.666-2.48ZM50.52,445.82773l.365.08.07995-.365-.365-.07995ZM71.48786,458.9213l16.89133,3.58993,3.58994-16.89133L75.0778,442.03Zm29.88266,7.30438,18.71414,3.97781,3.97782-18.71414-18.71414-3.97781Zm30.9877,6.58661,18.71415,3.97781,3.97781-18.71414L136.336,454.098Zm30.98771,6.58661,18.71414,3.978,3.97781-18.71414-18.71414-3.97781Zm30.98785,6.58676,18.71414,3.97781,3.97782-18.71414-18.71415-3.97782Zm30.9877,6.58661,18.71414,3.97781,3.97782-18.71414-18.71415-3.97782Zm30.9877,6.58676,18.71414,3.97781,3.978-18.71414-18.71414-3.97781Zm30.9877,6.58661,18.71415,3.97781,3.97781-18.71414-18.71414-3.97782Zm30.98771,6.58676,18.71414,3.97781,3.97781-18.71414-18.71414-3.97781Zm30.9877,6.58661,18.71414,3.97781,3.97781-18.71414-18.71414-3.978Zm30.98785,6.58661,18.71414,3.978,3.97782-18.71414L384.238,506.79163Zm30.9877,6.58676,18.71414,3.97781,3.97782-18.71414-18.71414-3.97782Zm30.9877,6.58661,18.71415,3.97781,3.978-18.71414-18.71414-3.97782Zm30.9877,6.58676,18.71415,3.97781,3.97781-18.71414-18.71414-3.97781Zm30.98771,6.58661,18.71414,3.97781L526.9029,537.116l-18.71414-3.97782Zm30.9877,6.58676,18.71414,3.97781,3.97781-18.71414L539.17646,539.725Zm33.49273,4.96,14.58252,3.1,3.1-14.58251-14.58252-3.1ZM52.35456,484.70239l12.03064,2.55722,2.55707-12.03-12.03-2.55722Zm26.93558,9.21814,18.71414,3.97782,3.97781-18.71415L83.268,475.20639Zm30.9877,6.58661L128.992,504.485l3.97782-18.71414-18.71415-3.978Zm30.9877,6.58661,18.71414,3.978,3.97782-18.71415-18.71414-3.97781Zm30.98786,6.58676,18.71414,3.97782,3.97781-18.71415-18.71414-3.97781Zm30.9877,6.58661,18.71414,3.97781,3.97781-18.71414L207.21891,501.553Zm30.9877,6.58676,18.71414,3.97782,3.978-18.71415-18.71414-3.97781Zm30.9877,6.58661,18.71414,3.97781,3.97782-18.71414-18.71415-3.97781Zm30.9877,6.58661,18.71414,3.978,3.97782-18.71415L300.182,521.31311Zm30.9877,6.58676,18.71415,3.97781,3.97781-18.71414-18.71414-3.978Zm30.98786,6.58661,18.71414,3.97781,3.97781-18.71414-18.71414-3.97781Zm30.9877,6.58676,18.71414,3.97782,3.97781-18.71415-18.71414-3.97781Zm30.9877,6.58661,18.71414,3.97781,3.978-18.71414-18.71414-3.97781Zm30.9877,6.58676,18.71414,3.97782,3.97782-18.71415-18.71414-3.97781Zm30.9877,6.58661L500.8447,583.525l3.97782-18.71414-18.71414-3.97781Zm30.9877,6.58661,18.71415,3.978,3.97781-18.71415-18.71414-3.97781Zm32.0929,5.869,16.89133,3.58993,3.58993-16.89132-16.89132-3.58994Zm40.93384.127.486.103.103-.486-.486-.103ZM37.34709,507.80344l.365.07995.07995-.365-.365-.07995Zm28.26171,8.35693,4.86084,1.03317,1.03318-4.86084L66.642,511.29953Zm27.525,8.83545L103.706,527.243l2.24732-10.57236L95.381,514.42346Zm27.52487,8.8353,16.28387,3.46115,3.46116-16.28373L124.12,517.54739Zm29.51431,7.54364,18.71414,3.97781,3.97782-18.71414-18.71414-3.97782Zm30.9877,6.5866,18.71415,3.97782,3.97781-18.71414-18.71353-3.978Zm30.98771,6.58677,18.71414,3.97781,3.978-18.71414L216.12638,535.834Zm30.9877,6.5866,18.71414,3.97782,3.97781-18.71414-18.71414-3.97782Zm30.9877,6.58661,18.71414,3.978,3.97781-18.71414-18.71414-3.97782Zm30.9877,6.58677,18.71414,3.97781,3.97782-18.71414-18.71415-3.978Zm30.98785,6.5866,18.71415,3.97782,3.97781-18.71414-18.71414-3.97782Zm30.98771,6.58677,18.71414,3.97781,3.97781-18.71414-18.71414-3.97782Zm30.9877,6.5866,18.71414,3.97782,3.978-18.71414-18.71415-3.97782Zm30.9877,6.58677,18.71414,3.97781,3.97781-18.71414-18.71414-3.97782Zm30.9877,6.5866,18.71414,3.97782,3.97782-18.71414-18.71415-3.978Zm30.9877,6.58661,18.71414,3.978,3.97782-18.71414-18.71415-3.97782Zm31.2088,6.44318,18.35007,3.9,3.9-18.35006-18.35006-3.9Zm40.86.175,2.06573.439.439-2.06573-2.06574-.439ZM138.48051,562.32294l1.58005.336.336-1.58005-1.58-.336Zm28.04077,8.50006,6.44058,1.369,1.36887-6.44059-6.44043-1.36886Zm27.45132,8.88336,12.27356,2.60879,2.60895-12.27355-12.27356-2.6088Zm27.89338,8.596,17.37747,3.69369,3.69354-17.37747-17.37747-3.69369Zm30.1773,7.11288,18.71414,3.978,3.97782-18.71414-18.71414-3.97782ZM283.031,602.002l18.71415,3.97782,3.97781-18.71414L287.0088,583.2879Zm30.98786,6.58661,18.71414,3.97782,3.97781-18.71414-18.71414-3.97782Zm30.9877,6.58676,18.71414,3.97782,3.97782-18.71414-18.71415-3.97782Zm30.9877,6.58661,18.71414,3.97782,3.978-18.71414-18.71414-3.97782Zm30.9877,6.58677,18.71414,3.97781,3.97782-18.71414-18.71414-3.97782Zm30.9877,6.5866,18.71415,3.97782,3.97781-18.71414-18.71414-3.978Zm30.98771,6.58661,18.71414,3.978,3.97781-18.71414L472.93516,622.808Zm30.98785,6.58676,18.71414,3.97782,3.97781-18.71414L503.923,629.39462Zm39.68124.941,4.37485.93.93-4.37485-4.37484-.93ZM239.68809,616.79453l2.67334.56793.56793-2.67334-2.67349-.56793Zm27.67227,8.73992,8.14194,1.73066,1.73065-8.14179-8.14194-1.73065Zm27.45132,8.88337,13.97477,2.97,2.97-13.97492-13.97492-2.97Zm28.48267,8.21334,18.10654,3.84873,3.84872-18.10654-18.10653-3.84872Zm30.61936,6.82587,18.71414,3.97781,3.978-18.71414-18.71414-3.97781Zm30.9877,6.58661,18.71414,3.978,3.97781-18.71415-18.71414-3.97781Zm30.9877,6.58676,18.71414,3.97782,3.97781-18.71415-18.71414-3.978Zm30.9877,6.58661,18.71414,3.97781,3.97781-18.71414-18.71414-3.97781Zm30.98785,6.58676,18.71415,3.97782,3.97781-18.71415-18.71414-3.97781Zm37.98676,2.04132,7.17,1.524,1.524-7.16995-7.17-1.524ZM311.9705,663.34024l.365.08.07995-.365-.365-.08Zm28.77746,8.022,4.01.852.85205-4.01-4.01-.85205Zm27.45133,8.88321,9.84314,2.09229,2.09213-9.84314-9.84314-2.09213Zm27.525,8.83545,15.55466,3.30628,3.30627-15.55466-15.55465-3.30628Zm29.21952,7.73483L443.4149,700.742l3.92623-18.47107-18.47122-3.92623Zm30.84,6.68244L474.498,707.476l3.97782-18.71414L459.76164,684.784Zm36.14487,3.23746,10.20782,2.16995,2.17-10.20783-10.20768-2.17Zm-78.45657,10.88485.972.20707.20706-.972-.972-.20706Zm28.11447,8.45261,5.71151,1.214,1.214-5.71137-5.71151-1.214Zm29.51416,7.54364,8.14193,1.73065,1.73066-8.14194-8.14194-1.73065Z" fill="#1d8698"/>
        <path id="atom_03_line" data-name="atom 03 line" d="M638.69276,395.09912a25.23858,25.23858,0,0,0-38.064-31.72089,908.27694,908.27694,0,0,0-88.19107-59.37362,941.973,941.973,0,0,0,25.82794-90.61,481.33857,481.33857,0,0,0,14.08783-133.299c-5.39-79.96414-53.25424-107.73422-124.80239-47.76a23.74545,23.74545,0,0,0-32.44858,31.4563,635.803,635.803,0,0,0-48.32886,60.70557c-16.79672,23.70712-33.47717,50.11718-49.57794,78.311-30.72281-10.91995-60.96192-20.13656-89.8378-27.23434a16.892,16.892,0,0,0-32.02423-7.09778q-8.63526-1.69555-17.05124-3.10593c-48.73062-8.07007-132.67059-15.032-153.82553,30.70008-21.14044,45.92315,37.75192,107.53112,75.36835,140.84167A813.8837,813.8837,0,0,0,198.4326,421.99609a858.40623,858.40623,0,0,0-35.38178,137.13837,412.34548,412.34548,0,0,0-5.76,70.68115,20.25392,20.25392,0,0,0,3.41354,34.59458,98.81009,98.81009,0,0,0,10.34653,29.50439,47.91985,47.91985,0,0,0,52.87,25.183c39.29779-6.76162,81.65832-49.62707,107.82608-80.1828a818.65331,818.65331,0,0,0,81.487-116.79992,792.58713,792.58713,0,0,0,136.6394,34.85992c39.44946,5.912,99.03,10.46005,133.20786-10.39a48.831,48.831,0,0,0,24.95-38.67661C711.11738,468.91718,670.888,424.448,638.6923,395.099ZM358.59388,133.24548a584.51593,584.51593,0,0,1,47.72995-58.2637A23.71207,23.71207,0,0,0,438.285,44.98c59.48853-47.99133,91.47782-29.5343,94.6843,36.44577a469.18713,469.18713,0,0,1-15.49088,126.9371c-6.38717,26.71173-14.72427,55.08072-24.66,84.21753a1254.42918,1254.42918,0,0,0-182.4408-84.998C325.63978,181.50461,341.78068,156.517,358.59388,133.24548ZM488.20127,305.85016a1284.74226,1284.74226,0,0,1-84.95193,188.66,1236.12938,1236.12938,0,0,1-185.228-87.13455,1179.98913,1179.98913,0,0,1,85.36-187.64938A1150.40239,1150.40239,0,0,1,488.20127,305.85016ZM93.23881,320.9971C67.3335,298.762,25.2873,257.95129,19.12046,223.99911c-10.16784-54.22637,82.24137-51.41632,136.80893-43.2434q9.57985,1.44791,19.426,3.29116a16.78,16.78,0,0,0,25.96328,5.385,864.494,864.494,0,0,1,88.95325,25.67185,1301.31952,1301.31952,0,0,0-84.24393,185.24,816.46243,816.46243,0,0,1-112.7893-79.34647ZM316.09709,625.27567c-35.23194,42.4443-102.05857,106.913-129.98154,59.60922a78.09313,78.09313,0,0,1-8.13-20.97641,20.21258,20.21258,0,0,0-4.3927-37.2963,405.48651,405.48651,0,0,1,4.58847-65.08453,808.12211,808.12211,0,0,1,32.42005-132.3375,1168.97559,1168.97559,0,0,0,181.30645,85.32868,819.99917,819.99917,0,0,1-75.81054,110.75684Zm236.95266-89.06449a800.26248,800.26248,0,0,1-128.43-34.03137,1211.1368,1211.1368,0,0,0,83.16406-184.671A846.20816,846.20816,0,0,1,592.511,376.12634a25.23273,25.23273,0,0,0,34.84452,29.886C735.73911,507.568,700.677,560.7229,553.0496,536.21118Zm-450.2893-120.61a13.949,13.949,0,1,1-14.6106-13.2544q.33875-.01648.6781-.01648a13.614,13.614,0,0,1,13.9325,13.27057ZM138.562,469.40179a17.47068,17.47068,0,1,1,21.34-17.03674,19.55607,19.55607,0,0,1-21.34,17.03644ZM256.60612,233.58636A16.93093,16.93093,0,1,1,239.602,216.72891l.07339-.00015a16.89444,16.89444,0,0,1,16.9307,16.8573ZM613.1378,114.44742a14.2935,14.2935,0,1,1,14.7702,13.80035q-.24239.00825-.48508.00824A14.05286,14.05286,0,0,1,613.1378,114.44742ZM273.537,153.74078a14.11086,14.11086,0,1,1,14.10873,14.34708A14.11076,14.11076,0,0,1,273.537,153.74078Zm313.49929,61.67267a17.87383,17.87383,0,1,1,17.87125,18.17276A17.87381,17.87381,0,0,1,587.03626,215.41345Zm60.13932-61.67267a20.08849,20.08849,0,1,1-19.74976,20.42176q-.00275-.168-.00275-.336A19.92128,19.92128,0,0,1,647.17558,153.74078Zm-135.66071,429.241a20.696,20.696,0,1,1-20.693-21.042A20.696,20.696,0,0,1,511.51487,582.98181Zm-60.19806,43.04077A23.51808,23.51808,0,1,1,427.802,602.11114,23.51809,23.51809,0,0,1,451.31681,626.02258ZM306.12486,352.82465a42.89738,42.89738,0,1,1,42.89154,43.6148A42.8976,42.8976,0,0,1,306.12486,352.82465Z" fill="#110a4c"/>
      </g>
    </g>
  </g>
</svg>
