<svg xmlns="http://www.w3.org/2000/svg" width="538.07007" height="771.24203" viewBox="0 0 538.07007 771.24203">
  <g id="Layer_2" data-name="Layer 2">
    <g id="svg4790">
      <g id="atom_12" data-name="atom 12">
        <ellipse id="atom_12_solid" data-name="atom 12 solid" cx="252.51017" cy="343.36664" rx="149.8819" ry="270.87968" transform="translate(-131.65993 158.77148) rotate(-28.00496)" fill="#ffd9ee"/>
        <path id="atom_12_ht" data-name="atom 12 ht" d="M174.92249,59.924h.74493v.74539h-.74493Zm19.94476,6.66721h1.65649V64.93473h-1.65649Zm20.60745,5.25921h1.24237V70.608H215.4747Zm20.93872,4.92791h.166v-.16552h-.166ZM118.28964,67.56981h1.07666v-1.077h-1.07666ZM136.08109,75.645h6.29455v-6.2946h-6.29455Zm18.78524,7.0813H164.391V73.20164h-9.52469Zm20.069,5.7975h10.18723V78.33652H174.9353Zm20.359,5.50769h10.26993v-10.27H195.29434Zm20.5246,5.342h10.02167V89.35192H215.81879Zm21.18713,4.68h8.448v-8.448h-8.448Zm21.93253,3.934h5.3836V102.604h-5.38345Zm22.3053,3.56129h1.57364v-1.5736H281.2439Zm-180.567-24.365h4.96933v-4.9694h-4.96933ZM118.46832,95.259h10.18723V85.07122H118.46878Zm20.35889,5.5077h10.26993v-10.27H138.82721Zm20.39993,5.46631h10.26993V95.96283H159.22714Zm20.39994,5.46619H189.897v-10.27H179.62708Zm20.39993,5.46631h10.26993v-10.27H200.027Zm20.39993,5.46631h10.26993v-10.27H220.42694Zm20.39993,5.46619H251.0968v-10.27H240.82687Zm20.39994,5.46631h10.26992v-10.27H261.22681Zm20.98007,4.88651h9.11056v-9.1106h-9.11056Zm22.84363,3.02292h4.22393v-4.224h-4.22393Zm22.38815,3.47851h.249v-.2494h-.249Zm-243.259-39.27288h6.626V99.05281h-6.626Zm18.57818,7.2884H113.0278v-10.27H102.75787Zm20.39994,5.46619h10.26992v-10.27H123.15781Zm20.39993,5.46631h10.26993v-10.27H143.55774Zm20.39993,5.46631H174.2276v-10.27H163.95767Zm20.39993,5.46619h10.26993v-10.27H184.3576Zm20.39994,5.46631h10.26993v-10.27H204.75754Zm20.39993,5.4662H235.4274v-10.27H225.15747Zm20.39993,5.46631h10.26993v-10.27H245.5574Zm20.39994,5.4663h10.26992v-10.27H265.95734Zm20.39993,5.46624H296.6272v-10.27H286.35727Zm20.56595,5.30059h9.939v-9.93888h-9.939Zm22.80227,3.06443h5.135V165.394h-5.135Zm22.84363,3.023h.248v-.24933h-.248ZM69.13055,122.72552h5.38361V117.3418H69.13055ZM87.08771,130.635H97.35764v-10.27H87.08771Zm20.39993,5.46631h10.26993v-10.27H107.48764Zm20.39993,5.4662H138.1575v-10.27H127.88757Zm20.39994,5.46627h10.26992v-10.271H148.28751ZM168.68744,152.5h10.26993V142.23H168.68744Zm20.39993,5.46631H199.3573v-10.27H189.08737Zm20.39993,5.46631h10.26993v-10.27H209.4873Zm20.39994,5.46623h10.26993v-10.27H229.88724Zm20.39993,5.46631H260.5571v-10.27H250.28717Zm20.39993,5.46623H280.957v-10.27H270.6871Zm20.39994,5.46631H301.357v-10.27H291.087Zm20.39993,5.46631H321.7569V180.49282H311.487Zm20.6488,5.21766H341.909v-9.7731h-9.77326Zm23.17505,2.69173h4.22394v-4.224h-4.22394Zm22.47086,3.39569h.07995v-.083h-.07995ZM55.16876,138.69423h1.98776v-1.9878H55.16876Zm16.25916,9.60743H81.69785v-10.27H71.42792ZM91.82785,153.768h10.26993v-10.27H91.82785Zm20.39993,5.46631h10.26993v-10.27H112.22778Zm20.39994,5.46623h10.26992v-10.27H132.62772Zm20.39993,5.46631h10.26993v-10.27H153.02765Zm20.39993,5.46623h10.26993V165.36282H173.42758Zm20.39993,5.46631h10.26993v-10.27H193.82751Zm20.39994,5.46623h10.26993v-10.27H214.22745Zm20.39993,5.46631h10.26993v-10.27H234.62738Zm20.39993,5.46631h10.26993v-10.27H255.02731Zm20.39994,5.46623h10.26992v-10.27H275.42725Zm20.39993,5.46631h10.26993v-10.27H295.82718Zm20.39993,5.46623H326.497v-10.27H316.22711Zm20.39993,5.46631H346.897V209.09283H336.627Zm21.02158,4.84512h9.02786v-9.02778h-9.02786Zm24.00314,1.86341h1.82206v-1.82213h-1.82206Zm-324.52407-61.469h7.53692v-7.537H57.12769Zm19.03381,6.83281H86.43143v-10.27H76.1615ZM96.56143,176.902h10.26993v-10.27H96.56143Zm20.39993,5.46623h10.26993v-10.27H116.96136Zm20.39994,5.46631h10.26993v-10.27H137.3613Zm20.39993,5.46631h10.26993v-10.27H157.76123Zm20.39993,5.46623h10.26993v-10.27H178.16116Zm20.39994,5.46631H208.831V193.96282H198.5611Zm20.39993,5.46623H229.231v-10.27H218.961ZM239.361,215.1659h10.26993v-10.27H239.361Zm20.39993,5.46623h10.26993v-10.27H259.76089Zm20.39994,5.46631h10.26993v-10.27H280.16083Zm20.39993,5.46631h10.26993v-10.27H300.56076Zm20.39993,5.46623h10.26993v-10.27H320.96069Zm20.39994,5.46631h10.26992v-10.27H341.36063Zm20.39993,5.46623h10.26993V237.69283H361.76056Zm22.38815,3.47847h6.29456v-6.29463h-6.29456Zm23.46482,2.40181h.166v-.16563h-.166ZM44.35425,179.37153H46.0936v-1.73927H44.35425Zm16.13495,9.7316H70.75912v-10.27H60.4892Zm20.39993,5.46631H91.15906v-10.27H80.88913Zm20.39993,5.4663H111.559v-10.27H101.28906ZM121.689,205.502h10.26992v-10.27H121.689Zm20.39993,5.4663h10.26993v-10.27H142.08893Zm20.39993,5.46624h10.26993v-10.27H162.48886Zm20.39993,5.46631h10.26993v-10.27H182.88879Zm20.39994,5.4663h10.26992v-10.27H203.28873Zm20.39993,5.46624h10.26993v-10.27H223.68866Zm20.39993,5.4663h10.26993v-10.27H244.08859Zm20.39994,5.46624h10.26992v-10.27H264.48853Zm20.39993,5.46631h10.26993v-10.27H284.88846Zm20.39993,5.4663h10.26993v-10.27H305.28839Zm20.39993,5.46624h10.26993v-10.27H325.68832Zm20.39994,5.46631h10.26992v-10.27H346.08826Zm20.39993,5.46623h10.26993v-10.27H366.48819Zm20.85587,5.01083h9.359V266.749h-9.359Zm24.16885,1.69769H413.335v-1.823h-1.82205ZM47.5618,204.03645h4.80377v-4.80362H47.5618ZM65.229,212.23583H75.499v-10.27H65.229ZM85.629,217.70214H95.8989v-10.27H85.629Zm20.39993,5.46623h10.26993v-10.27H106.0289Zm20.39993,5.46631h10.26993v-10.27H126.42883Zm20.39994,5.46631h10.26992v-10.27H146.82877Zm20.39993,5.46623h10.26993v-10.27H167.2287Zm20.39993,5.46631h10.26993v-10.27H187.62863Zm20.39993,5.46623h10.26993v-10.27H208.02856Zm20.39994,5.46631h10.26993v-10.27H228.4285Zm20.39993,5.46631h10.26993v-10.27H248.82843Zm20.39993,5.46623h10.26993v-10.27H269.22836Zm20.39994,5.46631h10.26992v-10.27H289.6283Zm20.39993,5.46623h10.26993v-10.27H310.02823Zm20.39993,5.46631h10.26993v-10.27H330.42816Zm20.39993,5.46631H361.098v-10.27H350.82809ZM371.228,294.23H381.498V283.96H371.228Zm20.39993,5.46631h10.26993v-10.27H391.628Zm23.34045,2.526h4.39v-4.39h-4.39Zm-363.88-73.85117h7.20566v-7.20558H51.08841Zm18.8681,6.99852H80.22644v-10.27H69.95651ZM90.35645,240.836h10.26992v-10.27H90.35645Zm20.39993,5.46623h10.26993v-10.27H110.75638Zm20.39993,5.46631h10.26993v-10.27H131.15631Zm20.39993,5.46631h10.26993v-10.27H151.55624Zm20.39994,5.46623H182.2261v-10.27H171.95618Zm20.39993,5.46631H202.626v-10.27H192.35611Zm20.39993,5.46623H223.026V263.36285H212.756Zm20.39994,5.46631H243.4259v-10.27H233.156Zm20.39993,5.46623h10.26993v-10.27H253.55591Zm20.39993,5.46631h10.26993v-10.27H273.95584Zm20.39993,5.46631H304.6257v-10.27H294.35577Zm20.39994,5.46623h10.26992v-10.27H314.75571Zm20.39993,5.46631h10.26993v-10.27H335.15564Zm20.39993,5.46623H365.8255v-10.27H355.55557Zm20.39994,5.46631h10.26992v-10.271H375.95551Zm20.39993,5.46631h10.26993v-10.27H396.35544Zm21.974,3.8926h7.1228v-7.12288h-7.1228Zm23.92,1.94618h.08v-.083h-.08ZM38.97629,242.47723h.08v-.083h-.08Zm15.845,10.02159h9.19342v-9.194H54.82132Zm19.86206,6.00456H84.95331v-10.27H74.68338Zm20.39993,5.46631h10.26993v-10.27H95.08331Zm20.39994,5.46623h10.26992v-10.27H115.48325Zm20.39993,5.46631h10.26993v-10.27H135.88318Zm20.39993,5.46623H166.553v-10.27H156.28311Zm20.39993,5.46631H186.953v-10.27H176.683Zm20.39994,5.46631h10.26993v-10.27H197.083Zm20.39993,5.46623h10.26993v-10.27H217.48291Zm20.39993,5.46631h10.26993V291.96285H237.88284Zm20.39994,5.46623H268.5527v-10.27H258.28278Zm20.39993,5.46631h10.26993v-10.27H278.68271Zm20.39993,5.46623h10.26993v-10.27H299.08264Zm20.39993,5.46631H329.7525v-10.27H319.48257Zm20.39994,5.46631h10.26993v-10.27H339.88251Zm20.39993,5.46623h10.26993v-10.27H360.28244Zm20.39993,5.46631H390.9523v-10.27H380.68237Zm20.39994,5.46623h10.26992v-10.271H401.08231Zm21.18713,4.68h8.69644v-8.69652h-8.69644Zm24.54147,1.32507h.414v-.415h-.414ZM43.28918,266.02558h.91095v-.91278h-.91095Zm16.0936,9.7731h9.52469v-9.52583H59.38278Zm20.02762,5.839H89.68033v-10.27H79.4104Zm20.39993,5.46623h10.26993V276.83285H99.81033Zm20.39994,5.46631h10.26992v-10.27H120.21027Zm20.39993,5.46631h10.26993v-10.27H140.6102Zm20.39993,5.46623h10.26993v-10.27H161.01013Zm20.39993,5.46631H191.68v-10.27H181.41006ZM201.81,314.43531h10.26993v-10.27H201.81Zm20.39993,5.46631h10.26993v-10.27H222.20993Zm20.39993,5.46631h10.26993v-10.27H242.60986Zm20.39994,5.46623h10.26992v-10.2713H263.0098Zm20.39993,5.46631h10.26993v-10.27H283.40973Zm20.39993,5.46623h10.26993v-10.27H303.80966Zm20.39993,5.46631h10.26993v-10.27H324.20959Zm20.39994,5.46623h10.26993v-10.27H344.60953Zm20.39993,5.46631h10.26993v-10.27H365.00946Zm20.39993,5.46631h10.26993v-10.27H385.40939Zm20.39994,5.46623h10.26992v-10.27H405.80933Zm20.77316,5.09361h9.52469v-9.52591h-9.52469Zm24.79,1.07659h.74493v-.74539h-.74493ZM47.93365,289.24221h1.07666V288.1638H47.93365Zm16.135,9.73167h9.60755v-9.60746H64.0686Zm20.069,5.79758H94.4075v-10.27H84.13757Zm20.39994,5.46623h10.26992v-10.27H104.53751Zm20.39993,5.46631h10.26993v-10.27H124.93744Zm20.39993,5.46623H155.6073v-10.27H145.33737Zm20.39993,5.46631h10.26993v-10.27H165.7373Zm20.39994,5.46631h10.26993v-10.27H186.13724Zm20.39993,5.46623H216.8071v-10.27H206.53717Zm20.39993,5.46631H237.207v-10.27H226.9371Zm20.39994,5.46624H257.607v-10.27H247.337Zm20.39993,5.4663H278.0069v-10.27H267.737Zm20.39993,5.46631h10.26993v-10.27H288.1369Zm20.39993,5.46623h10.26993v-10.27H308.53683Zm20.39994,5.46631H339.2067v-10.27H328.93677ZM349.3367,375.833h10.26993v-10.27H349.3367Zm20.39993,5.4663h10.26993v-10.27H369.73663Zm20.39994,5.46631h10.26992v-10.27H390.13657Zm20.39993,5.46623h10.26993v-10.27H410.5365Zm20.649,5.21782h9.7731v-9.77462h-9.73984Zm24.83139,1.03524h.911v-.91309h-.911ZM52.74368,312.29321h.91095v-.91111h-.91095Zm16.1763,9.69h9.35913V312.6228H68.92ZM88.8649,327.905H99.13483V317.63279H88.8649Zm20.39993,5.46623h10.26993v-10.27H109.26483Zm20.39993,5.46631h10.26993v-10.27H129.66476Zm20.39994,5.46623h10.26993v-10.27H150.0647Zm20.39993,5.46631h10.26993v-10.27H170.46463Zm20.39993,5.46623h10.26993v-10.27H190.86456Zm20.39994,5.46631h10.26992v-10.27H211.2645Zm20.39993,5.46631h10.26993v-10.27H231.66443Zm20.39993,5.46623h10.26993V361.3628H252.06436Zm20.39993,5.46631h10.26993v-10.27H272.46429Zm20.39994,5.46623h10.26993v-10.27H292.86423Zm20.39993,5.46631h10.26993v-10.27H313.26416Zm20.39993,5.46631H343.934v-10.27H333.66409Zm20.39994,5.46623H364.334v-10.27H354.064Zm20.39993,5.46631h10.26993v-10.27H374.464Zm20.39993,5.46623h10.26993v-10.27H394.86389Zm20.39993,5.46631h10.26993v-10.27H415.26382Zm20.649,5.21782h9.7731v-9.77318h-9.7731Zm24.9556.91087h.663v-.66429h-.62256Zm-403.19-86.27449h.497v-.4969H57.7124Zm16.342,9.52461H82.634v-8.61541H74.02039Zm19.57214,6.29448h10.26993v-10.27H93.59253Zm20.39993,5.46631h10.26993V346.2328H113.99246Zm20.39994,5.46631h10.26992v-10.27H134.3924Zm20.39993,5.46623h10.26993v-10.27H154.79233Zm20.39993,5.46631h10.26993v-10.27H175.19226Zm20.39993,5.46623h10.26993v-10.27H195.59219Zm20.39994,5.46631h10.26992v-10.27H215.99213Zm20.39993,5.46631H246.662v-10.27H236.39206Zm20.39993,5.46623h10.26993v-10.27H256.792Zm20.39994,5.46631h10.26992V389.96281H277.19193Zm20.39993,5.46623h10.26993v-10.27H297.59186Zm20.39993,5.46631h10.26993v-10.27H317.99179Zm20.39993,5.46624h10.26993v-10.27H338.39172Zm20.39994,5.4663h10.26992v-10.27H358.79166Zm20.39993,5.46631h10.26993v-10.27H379.19159Zm20.39993,5.46624h10.26993v-10.27H399.59152Zm20.39994,5.4663h10.31v-10.27H420.03159Zm21.02142,4.84513h9.02786v-9.02779h-9.02786Zm24.70718,1.15936h.414v-.41412h-.414ZM62.57111,358.18775h.166v-.16792h-.166Zm16.96319,8.90343h7.04v-7.04h-7.04Zm18.78525,7.0813h10.26993v-10.27H98.31955Zm20.39993,5.46631h10.26993v-10.27H118.71948Zm20.39994,5.46623h10.26992V374.8328H139.11942Zm20.39993,5.46631h10.26993v-10.27H159.51935Zm20.39993,5.46631h10.26993v-10.27H179.91928Zm20.39993,5.46623h10.26993v-10.27H200.31921Zm20.39994,5.46631h10.26992v-10.27H220.71915Zm20.39993,5.46623H251.389v-10.27H241.11908Zm20.39993,5.46631h10.26993v-10.27H261.519ZM281.919,423.369h10.26992v-10.27H281.919Zm20.39993,5.46623h10.26993V418.56281H302.31888Zm20.39993,5.46631h10.26993v-10.27H322.71881Zm20.39993,5.46623h10.26993v-10.27H343.11874Zm20.39994,5.46631H373.7886v-10.27H363.51868Zm20.39993,5.46623h10.26993v-10.27H383.91861Zm20.39993,5.46631h10.26993v-10.27H404.31854Zm20.39994,5.46631H434.9884v-10.27H424.71848Zm21.68411,4.18251h7.70263v-7.70264h-7.70263ZM85.58655,388.8998H89.9765v-4.39H85.58655Zm17.50152,8.3651h10.23224V387.07737H103.13309Zm20.359,5.50774H133.717v-10.27H123.44711Zm20.39994,5.46623H154.117v-10.27H143.84705Zm20.39993,5.46631h10.26993V403.43281H164.247Zm20.39993,5.46623h10.26993v-10.27H184.64691Zm20.39993,5.46631h10.26993v-10.27H205.04684Zm20.39994,5.46631h10.26993v-10.27H225.44678Zm20.39993,5.46623h10.26993v-10.27H245.84671Zm20.39993,5.46631h10.26993v-10.27H266.24664Zm20.39994,5.46623H296.9165v-10.27H286.64658Zm20.39993,5.46631h10.26993v-10.27H307.04651Zm20.39993,5.46631h10.26993v-10.27H327.44644Zm20.39993,5.46623H358.1163v-10.27H347.84637Zm20.39994,5.46631h10.26993v-10.27H368.24631Zm20.39993,5.46623h10.26993v-10.27H388.64624Zm20.39993,5.46631H419.3161v-10.27H409.04617Zm20.39994,5.46623H439.716v-10.27H429.44611Zm22.96783,2.89879h5.135V482.5304h-5.135ZM91.6394,410.70843h1.73935v-1.73928H91.6394Zm16.59058,9.2762h9.359v-9.3618H108.23Zm19.94476,5.92178h10.26993v-10.27H128.17474Zm20.39994,5.46623H158.8446v-10.27H148.57468Zm20.39993,5.46631h10.26993v-10.27H168.97461Zm20.39993,5.46623h10.26993v-10.27H189.37454Zm20.39994,5.46631H220.0444v-10.27H209.77448Zm20.39993,5.46623h10.26993v-10.27H230.17441Zm20.39993,5.46631h10.26993v-10.27H250.57434Zm20.39993,5.46631H281.2442v-10.27H270.97427Zm20.39994,5.46623h10.26992v-10.27H291.37421Zm20.39993,5.46631h10.26993v-10.27H311.77414Zm20.39993,5.46623H342.444v-10.27H332.17407Zm20.39994,5.46631h10.26992v-10.27H352.574Zm20.39993,5.46631h10.33478v-10.27H373.03879Zm20.39993,5.46623H403.6438v-10.27H393.37387Zm20.39993,5.46631h10.26993v-10.27H413.7738Zm20.39994,5.46624h10.26992v-10.27H434.17374ZM458.88092,509.06h1.65649v-1.65649h-1.65649ZM97.15378,433.05546h.166v-.16571h-.166Zm17.336,8.53073h6.29455v-6.29463h-6.29455Zm18.41262,7.454H143.1723v-10.27H132.90237Zm20.39994,5.46631h10.26993V444.23283H153.30231Zm20.39993,5.46631h10.26993v-10.27H173.70224Zm20.39993,5.46623H204.3721v-10.27H194.10217Zm20.39994,5.46631H224.772v-10.27H214.50211Zm20.39993,5.46623H245.172v-10.27H234.902Zm20.39993,5.46631H265.5719v-10.27H255.302Zm20.39993,5.46624h10.26993v-10.27H275.7019Zm20.39994,5.4663h10.26993v-10.27H296.10184Zm20.39993,5.46631H326.7717V487.96284H316.50177ZM336.9017,503.703h10.26993v-10.27H336.9017Zm20.39994,5.46631h10.26992v-10.27H357.30164Zm20.39993,5.46624H387.9715v-10.27H377.70157Zm20.39993,5.4663h10.26993v-10.27H398.1015Zm20.39993,5.46631h10.26993v-10.27H418.50143Zm21.72547,4.141h7.61993v-7.62H440.2269Zm-318.78372-67.1463h1.98776v-1.98776h-1.98776Zm16.839,9.02771h9.11056V462.48h-9.11056Zm19.82055,6.046h10.26993v-10.27H158.10272Zm20.39994,5.46623h10.26992V472.83283H178.50266Zm20.39993,5.46631h10.26993v-10.27H198.90259Zm20.39993,5.46631h10.26993v-10.27H219.30252Zm20.39993,5.46623h10.26993v-10.27H239.70245Zm20.39994,5.46631h10.26992v-10.27H260.10239Zm20.39993,5.46623h10.26993v-10.27H280.50232Zm20.39993,5.46631h10.26993v-10.27H300.90225Zm20.39994,5.46631h10.26992v-10.27H321.30219Zm20.39993,5.46623h10.26993v-10.27H341.70212Zm20.39993,5.46631H372.372v-10.27H362.10205Zm20.39993,5.46623h10.26993v-10.27H382.502Zm20.39994,5.46631h10.26992v-10.27H402.90192Zm20.39993,5.46623h10.26993v-10.27H423.30185Zm24.5,1.3665h2.07062V547.994h-2.06971ZM145.45944,492.28085h4.22394v-4.224h-4.22394Zm17.54288,8.32367h9.939V490.6657h-9.939Zm20.23483,5.63186h10.26993v-10.27H183.23715Zm20.39993,5.46631H213.907V501.43284H203.63708Zm20.39994,5.46623H234.307v-10.27H224.037Zm20.39993,5.46631h10.26993v-10.27H244.437Zm20.39993,5.46631h10.26993v-10.27H264.83688Zm20.39994,5.46623h10.26992v-10.27H285.23682Zm20.39993,5.46631h10.26993v-10.27H305.63675Zm20.39993,5.46623h10.26993v-10.27H326.03668Zm20.39993,5.46631h10.26993v-10.27H346.43661Zm20.39994,5.46631h10.26993v-10.27H366.83655Zm20.39993,5.46623h10.26993v-10.27H387.23648Zm20.39993,5.46631h10.26993v-10.27H407.63641Zm22.885,2.98149h5.30075v-5.30067h-5.30075ZM152.135,513.46813h.331v-.331h-.331Zm17.9985,7.86812h5.135v-5.135h-5.135Zm18.04,7.82669h9.856v-9.856h-9.856Zm20.19333,5.67337h10.26993v-10.27H208.36685Zm20.39993,5.46623h10.26993v-10.27H228.76678Zm20.39994,5.46631h10.26993v-10.27H249.16672Zm20.39993,5.46623h10.26993v-10.27H269.56665Zm20.39993,5.46631h10.26993v-10.27H289.96658Zm20.39994,5.46631h10.26992v-10.27H310.36652Zm20.39993,5.46623h10.26993v-10.27H330.76645Zm20.39993,5.46631h10.26993v-10.27H351.16638Zm20.39993,5.46623h10.26993v-10.27H371.56631Zm20.39994,5.46631h10.26993v-10.27H391.96625Zm22.26394,3.60268h6.54313v-6.543h-6.53458Zm-236.88156-45.65h.166v-.166h-.166Zm18.454,7.41256h4.05823v-4.0583h-4.05823Zm17.87415,7.9924h9.11056v-9.11056h-9.11056Zm19.82055,6.046h10.26993v-10.27H233.49731Zm20.39994,5.46631h10.26993v-10.27H253.89725Zm20.39993,5.46623h10.26993v-10.27H274.29718Zm20.39993,5.46631H304.967v-10.27H294.69711Zm20.39994,5.46624H325.367v-10.27H315.09705Zm20.39993,5.4663h10.26993v-10.27H335.497Zm20.39993,5.46631h10.26993v-10.27H355.89691Zm20.44174,5.42481h10.18723V591.4716H376.33865Zm23.00934,2.85728h4.96933v-4.9694h-4.95849ZM222.17651,576.75549h1.57364v-1.57357h-1.57364Zm18.454,7.41256H246.097v-5.46631h-5.46646Zm18.91007,6.95709h8.448v-8.448h-8.448Zm19.61365,6.25313h10.02166V587.35661H279.15421Zm20.276,5.59h10.26992v-10.27H299.43024Zm20.44174,5.42481H330.0592v-10.1873H319.872Zm20.6488,5.21782h9.68994v-9.69h-9.68994Zm22.09824,3.76838h6.29455v-6.29463H362.619Zm23.00934,2.85729H386.705v-1.07674h-1.06629Zm-117.254-10.0782h.248v-.248h-.248Zm19.94476,5.92178h1.16v-1.15951h-1.16Zm20.15183,5.71472h1.65649v-1.65641h-1.65649Zm20.81451,5.05219h.82794v-.828h-.82794Z" fill="fb3617"/>
        <polygon id="atom_12_line" data-name="atom 12 line" points="426.729 226.413 268.099 344.663 270.339 27.423 257.539 27.333 255.469 320.933 165.599 60.903 153.499 65.083 249.929 344.093 151.009 289.533 144.829 300.743 231.299 348.443 25.199 329.133 23.999 341.883 244.169 362.503 95.719 473.163 103.369 483.433 255.119 370.313 252.449 747.243 265.249 747.333 267.739 395.623 349.559 632.363 361.659 628.183 272.909 371.393 389.269 435.573 395.449 424.363 291.299 366.913 512.879 387.663 514.069 374.923 278.519 352.863 434.379 236.683 426.729 226.413" fill="#110a4c"/>
        <g id="atom_12_dots" data-name="atom 12 dots">
          <circle id="circle4697" cx="23.99994" cy="335.47871" r="23.99998" fill="#110a4c"/>
          <circle id="circle4699" cx="514.07013" cy="382.12559" r="23.99998" fill="#110a4c"/>
          <circle id="circle4701" cx="263.37067" cy="24.00002" r="23.99998" fill="#110a4c"/>
          <circle id="circle4703" cx="258.853" cy="747.24201" r="23.99998" fill="#110a4c"/>
          <circle id="circle4705" cx="431.78513" cy="232.00184" r="16.79996" fill="#110a4c"/>
          <circle id="circle4707" cx="89.31854" cy="485.16392" r="16.79996" fill="#110a4c"/>
          <circle id="circle4709" cx="157.65152" cy="57.56603" r="16.79996" fill="#110a4c"/>
          <circle id="circle4711" cx="356.86005" cy="628.1834" r="16.79996" fill="#110a4c"/>
        </g>
      </g>
    </g>
  </g>
</svg>
